<?xml version="1.0" encoding="UTF-8"?>
<svg id="Vrstva_1" xmlns="http://www.w3.org/2000/svg" version="1.1" viewBox="0 0 75.25 73.66">
  <!-- Generator: Adobe Illustrator 30.6.0, SVG Export Plug-In . SVG Version: 2.1.4 Build 109)  -->
  <defs>
    <style>
      .st0 {
        fill: #081a2c;
      }

      .st1 {
        fill: #f4f7f8;
      }

      .st2 {
        fill: none;
      }
    </style>
  </defs>
  <path class="st2" d="M37.99,33.35c-.41,0-.8-.11-1.02-.35.22.25.61.35,1.02.35Z"/>
  <path class="st2" d="M36.84,32.84s.05.06.07.09c-.04-.06-.07-.13-.09-.2,0,.03.01.08.02.11Z"/>
  <path class="st2" d="M38.84,29.65s.01.07.02.11c0-.03-.01-.07-.02-.11-.25-.97-.38-2.06-.7-2.87-.01-.01-.03-.02-.04,0,.01,0,.03,0,.04,0,.32.82.45,1.9.7,2.87Z"/>
  <path class="st2" d="M38.99,43.76c5.68-1.69,2.81-9.69-2.63-7.71l-.18.08c-4.47,2.07-1.86,8.81,2.81,7.63Z"/>
  <path class="st2" d="M38.35,33.33c-.1,0-.19.02-.29.02.1,0,.19,0,.29-.02Z"/>
  <path class="st2" d="M36.88,31.81c-.02.1-.04.22-.05.34.05-.23.11-.56.19-.95-.05.22-.1.42-.14.61Z"/>
  <path class="st2" d="M37.71,28.11c.14-.56.26-1.04.34-1.29-.06.14-.19.63-.34,1.29Z"/>
  <path class="st2" d="M38.7,33.28c-.05.01-.11.02-.17.03.06,0,.11-.02.17-.03Z"/>
  <path class="st2" d="M39.16,33.14c-.08.04-.18.07-.28.1.1-.03.2-.06.28-.1Z"/>
  <path class="st2" d="M36.8,32.3s0,.09,0,.14c0-.05,0-.09,0-.14Z"/>
  <path class="st2" d="M58.57,66.78c-.03-3.39-.06-12.98-.11-14.71-.08-.27-.28-.22-.62-.26-.56-.02-1.79-.02-2.69-.04-.88.07-1.5-.3-1.38.78.03,3.14.03,16.28.09,18.07.23.49.74.37,1.44.48.92.07,2.27.03,2.86-.09l.1-.03c.13-.04.21-.09.26-.17.15-1.02,0-2.63.04-4.05Z"/>
  <path class="st2" d="M44.41,61.68c-1.4-.38-3.45-.45-4.9-.06,0,.7.04,9.02.04,9.38,1.23.1,3.65.05,4.85.09h.01c0-1.73.05-9.29-.01-9.42Z"/>
  <path class="st2" d="M72.64,54.78c-.03-7.05.02-13.83-.05-14.2-.96-.12-3.59-.01-4.58-.03-.48,6.39-.03,28.51-.15,30.3,1.24.36,3.18.26,4.53,0l.09-.03c.08-.03.13-.05.15-.08.05-3.07,0-11.41,0-15.97Z"/>
  <g>
    <path class="st0" d="M53.42,21.35l.15-.07c.6-.28,1.24-1.01,1.91-1.78.97-1.2,2.16-2.17,2.41-3.58.07-.57-.02-1.21-.53-1.49-.78-.41-1.91.65-3.12,2.04-1.35,1.48-2.88,3.4-2.27,4.4.28.52.9.7,1.45.47Z"/>
    <path class="st0" d="M47,69.76c-.04-2.65.02-8.23-.09-10.36-.15-.25-.47-.25-.8-.3-2.75-.3-5.51-.3-8.19.04-.38.07-.88.06-.97.42-.02,1.51.1,11.8.12,13.59.02.21.13.3.43.35,3.07.15,6.23.37,9.23-.2l.09-.03c.46-.39.08-1.62.19-3.5ZM44.42,71.09h-.01c-1.2-.03-3.62.01-4.85-.09,0-.35-.04-8.68-.04-9.38,1.46-.4,3.51-.32,4.9.06.06.13,0,7.69.01,9.41Z"/>
    <path class="st0" d="M60.99,49.39c-.25-.31-.58-.12-1.2-.16-1.71.02-5.56.06-7.47.08-1.09.01-1.05,0-1.05.58,0,3.04,0,20.65.03,23.12.21.61.94.4,1.84.53,2.37.17,5.57.2,7.7-.24l.09-.03c.19-.07.28-.15.31-.33.02-.64-.02-2.57-.04-5.08-.08-6.71-.15-17.47-.21-18.46ZM58.53,70.84c-.05.07-.13.13-.26.17l-.1.03c-.59.12-1.94.15-2.86.09-.7-.1-1.21.02-1.44-.48-.06-1.8-.06-14.93-.09-18.07-.12-1.08.49-.71,1.38-.78.9.01,2.12.01,2.69.04.34.04.54-.01.62.26.05,1.73.08,11.32.11,14.71-.04,1.43.12,3.03-.04,4.05Z"/>
    <path class="st0" d="M75.23,65.68c-.02-6.45-.05-22.84-.08-26.86-.02-.78-.59-.7-1.4-.73-1.11,0-3.28.05-5.07.08-.89.02-1.65.03-2.18.06-.94.05-1.18.18-1.23.63.06,3.68-.17,28.73.14,34.01.13.27.4.43.86.53.86.18,2.47.2,3.93.22,1.6-.01,3.41-.04,4.25-.26l.1-.03c.36-.12.57-.27.65-.62.09-1.01,0-3.63.02-7.03ZM72.64,70.75s-.07.06-.15.08l-.09.03c-1.35.26-3.29.36-4.53,0,.12-1.79-.33-23.91.15-30.3.99.01,3.61-.09,4.58.03.07.37.02,7.15.05,14.2-.01,4.55.05,12.9,0,15.97Z"/>
    <path class="st0" d="M12.4,54.75l.16-.02c.6-.1,1.33-.51,2.16-.99,1.37-.91,4.85-2.11,3.18-4.03-1.13-.78-2.41.1-4.07,1.07-1.44.85-2.79,1.63-2.82,2.61-.06.76.6,1.44,1.39,1.36Z"/>
    <path class="st0" d="M15.05,35.1l.13-.06c.49-.23.64-.78.52-1.27-.21-1.02-1.52-1.36-3.21-1.72-2.16-.51-4.79-1.2-4.44,1.2.82,1.6,3.1,1.33,4.75,1.76.93.16,1.73.29,2.24.09Z"/>
    <path class="st0" d="M72.19,29.61c.19.61.55,1.37,1.09,1.61,1.38.57,1.7-1.23,1.38-2.25C70.91,13.51,57.33,1.55,41.52.18,12.23-2.62-8.44,28.19,3.39,54.57c3.35,7.55,9.19,14.03,16.53,17.99,1.88.98,3.03-.98,1.32-2.19C1.95,59.4-3.28,33.88,10.34,16.36l.12-.15C22.15.56,45.71-1.97,60.43,10.94c3.33,2.84,6.1,6.25,8.24,10.08,1.5,2.67,2.66,5.56,3.52,8.58Z"/>
    <path class="st0" d="M41.26,45.89c4.16-2.06,3.96-7.03,2.37-10.78l-.06-.18c-.63-1.77-1.31-3.77-1.87-6.11-.52-1.54-2.2-13.4-4.8-9.24-1.52,2.79-1.95,7.3-3.03,10.98-.97,4.08-3.75,7.99-2.09,12.18,1.38,3.46,6.17,5.01,9.49,3.16ZM36.8,32.3s0-.05,0-.08c0-.02,0-.05.01-.07.02-.12.04-.24.05-.34.04-.19.09-.39.14-.61.19-.92.47-2.14.69-3.09.15-.65.28-1.15.34-1.29,0,0,0,0,0,0,.02-.03.03-.05.04-.05.01,0,.03,0,.04,0,.32.81.45,1.9.7,2.87,0,.03.01.07.02.11.15,1.02.87,2.65.4,3.31l-.09.07c-.08.04-.17.07-.28.1-.06.02-.12.03-.18.04-.05.01-.11.02-.17.03-.06,0-.12.02-.18.02-.1.01-.19.01-.29.02-.03,0-.05,0-.08,0-.41,0-.8-.1-1.02-.35-.02-.02-.03-.04-.05-.07-.02-.03-.05-.06-.07-.09-.01-.03-.02-.07-.02-.11-.03-.09-.03-.19-.03-.3,0-.05,0-.09,0-.14ZM36.18,36.13l.18-.08c5.45-1.98,8.31,6.02,2.63,7.71-4.67,1.18-7.27-5.56-2.81-7.63Z"/>
    <path class="st0" d="M23.84,19.21c-.98-1.4-2.8-4.17-4.51-4.72-.45-.08-.87.08-1.07.48-.84,1.5,2.77,6.22,4.76,6.34,1.07.12,1.31-1.14.9-1.95l-.07-.16Z"/>
    <path class="st0" d="M37.59,14.94c.7.43,1.37-.25,1.57-.96l.05-.16c.16-1.22.79-7.61-1.71-6.44-1.4,1.01-1.36,6.71.09,7.56Z"/>
  </g>
  <path class="st1" d="M36.82,32.73c.02.07.05.14.09.2.02.02.03.05.05.07.22.24.61.34,1.02.35.03,0,.05,0,.08,0,.1,0,.19,0,.29-.02.06,0,.12-.01.18-.02.06,0,.11-.02.17-.03.06-.01.12-.03.18-.04.1-.03.2-.06.28-.1l.09-.07c.48-.66-.24-2.29-.4-3.31,0-.03-.01-.07-.02-.11-.25-.97-.38-2.05-.7-2.87-.01-.01-.03-.02-.04,0-.01,0-.03.03-.04.05,0,0,0,0,0,0-.08.25-.2.72-.34,1.29-.23.95-.5,2.17-.69,3.09-.08.38-.15.71-.19.95,0,.02-.01.05-.01.07,0,.03,0,.05,0,.08,0,.05,0,.09,0,.14,0,.11,0,.21.03.3Z"/>
</svg>