<?xml version="1.0" encoding="UTF-8"?>
<svg id="Vrstva_1" xmlns="http://www.w3.org/2000/svg" version="1.1" viewBox="0 0 93.13 91.2" color="#000000" stroke="currentColor" stroke-width="1.4" stroke-linecap="round" stroke-linejoin="round" data-line-weight="soft-metal-140">
  <!-- Generator: Adobe Illustrator 30.6.0, SVG Export Plug-In . SVG Version: 2.1.4 Build 109)  -->
  <path d="M43.72.03c-4.45.47-7.56,1.05-10.44,1.98-5.57,1.81-9.68,3.93-14.48,7.52-2.38,1.78-6.52,5.87-8.3,8.16C5.39,24.33,2.08,31.68.75,39.43c-3,17.39,3.09,34.4,16.22,45.34,2.73,2.26,7.78,5.56,8.56,5.56.16,0,.48-.17.74-.36.4-.31.47-.48.41-1.09-.05-.69-.09-.72-1.35-1.47-6.97-4.05-12.47-9.42-16.37-15.94-8.38-14.04-8.42-32.3-.09-46.65C16.24,12.12,28.88,4,43.27,2.67c2.59-.24,7.66-.1,10.06.28,6.71,1.05,12.59,3.31,18.06,6.99,7.19,4.83,13.2,12.22,16.37,20.19.83,2.12,1.95,5.66,2.19,6.95.22,1.31,1.29,1.86,2.21,1.14.45-.35.48-.47.4-1.17-.29-2.33-2.04-7.33-3.92-11.15C81.81,12.01,68.45,2.35,53.27.35c-1.92-.24-8.18-.45-9.58-.31h.03Z"/>
  <path d="M46.27,9.4c-.31.31-.36.62-.48,3.42-.12,3.36-.05,4.19.45,4.64.47.41,1.29.38,1.76-.09.36-.36.38-.5.36-3.69,0-1.83-.05-3.52-.12-3.76-.21-.79-1.35-1.09-1.97-.52Z"/>
  <path d="M23.31,18.22c-.48.21-.79.88-.66,1.41.09.36,2.97,4.04,4.35,5.52.72.79,1.41.88,2.05.22.78-.76.66-1-2.38-4.71-2.21-2.69-2.4-2.83-3.36-2.45h0Z"/>
  <path d="M69.63,18.39c-.43.35-3.5,3.88-4.38,5.07-.78,1.02-.31,2.35.79,2.35.66,0,.85-.17,3.14-2.93,2.61-3.09,2.86-3.66,2.09-4.38-.53-.47-1.14-.5-1.64-.1h0Z"/>
  <path d="M46.32,23.26c-.43.38-.53.88-2,9.7l-1.57,9.3-1.16,1.07c-1.79,1.67-2.62,3.54-2.62,5.95.02,4.49,3.54,7.94,8.13,7.94,4.43-.02,7.92-3.47,7.92-7.85,0-2.21-.95-4.45-2.55-6.06l-1.02-1.02-.55-3.36c-.74-4.43-2.59-14.84-2.71-15.23-.09-.28-.9-.81-1.26-.81-.09,0-.36.17-.6.38h-.01ZM47.96,36.52c.38,2.23.71,4.18.72,4.37.03.29-.09.31-1.52.29-.85-.02-1.57-.07-1.6-.09-.05-.05,1.31-8.14,1.45-8.54.03-.14.12-.21.17-.16s.4,1.92.78,4.12h0ZM48.86,44.03c1.1.38,2.42,1.59,3,2.79.41.85.48,1.19.48,2.45s-.07,1.59-.48,2.38c-1.09,2.07-2.83,3.05-5.14,2.93-2.1-.12-3.85-1.29-4.66-3.14-.53-1.19-.55-3.28-.03-4.43,1.17-2.61,4.14-3.9,6.83-2.98h0Z"/>
  <path d="M10.68,39.49c-.79.4-.91,1.79-.17,2.19.48.26,6.28,1.55,6.95,1.55.35,0,.71-.12.86-.31.4-.43.38-1.47-.02-1.83-.24-.21-6.64-1.85-7.14-1.83-.03,0-.24.1-.48.22h0Z"/>
  <path d="M82.02,47.81l-.43.41-.02,4.02c0,4.07,0,6.19.02,26.67v11.44l.43.41.41.43h9.66l.48-.41.48-.41.05-21,.03-20.98-.5-.52-.5-.5h-9.71l-.41.43h.01ZM90.52,69.24l-.05,19.46h-6.38l-.05-19.24c-.02-10.58,0-19.34.05-19.46.05-.16.88-.21,3.28-.21h3.19l-.03,19.44h0Z"/>
  <path d="M64.94,61.51c-.19.09-.5.33-.69.53-.33.38-.35.64-.35,14.35v13.97l.48.41.48.41h9.83l.41-.43.43-.41v-27.95l-.41-.48-.41-.48-4.73-.03c-2.59-.02-4.87.03-5.06.1h.02ZM72.98,75.53c.02,6.38.03,11.9.05,12.27.03.35-.05.72-.16.81-.14.12-1.4.16-3.3.14l-3.09-.05-.05-12.39-.03-12.37h6.56s.02,11.59.02,11.59Z"/>
  <path d="M17.23,63.53c-1.57.9-2.98,1.79-3.14,1.98-.69.81-.14,2.05.9,2.05.52,0,5.95-2.97,6.59-3.59.5-.5.55-1.12.14-1.64-.64-.81-1.26-.66-4.49,1.19h0Z"/>
  <path d="M46.99,73.81c-.78.45-.76.36-.78,8.71v7.97l.45.35c.45.35.67.36,5.35.36h4.88l.48-.41.48-.41.02-7.66c.02-8.26-.02-8.61-.88-8.94-.66-.24-9.56-.22-10.01.03h0ZM55.28,82.49v6.21l-2.93.05c-1.6.02-3.11,0-3.31-.05l-.4-.09v-12.42l3.33.03,3.31.05v6.21h0Z"/>
</svg>