<?xml version="1.0" encoding="UTF-8"?>
<svg id="Vrstva_1" xmlns="http://www.w3.org/2000/svg" version="1.1" viewBox="0 0 71.46 76.1">
  <!-- Generator: Adobe Illustrator 30.6.0, SVG Export Plug-In . SVG Version: 2.1.4 Build 109)  -->
  <defs>
    <style>
      .st0 {
        fill: #f4f7f8;
      }

      .st1 {
        fill: none;
      }

      .st2 {
        fill: #10263c;
      }
    </style>
  </defs>
  <path class="st1" d="M36.05,34.51c-.41,0-.8-.11-1.02-.35.22.25.61.35,1.02.35Z"/>
  <path class="st1" d="M34.9,33.99s.05.06.07.09c-.04-.06-.07-.13-.09-.2,0,.03.01.08.02.11Z"/>
  <path class="st1" d="M36.89,30.8s.01.07.02.11c0-.03-.01-.07-.02-.11-.25-.97-.38-2.06-.7-2.87-.01-.01-.03-.02-.04,0,.01,0,.03,0,.04,0,.32.82.45,1.9.7,2.87Z"/>
  <path class="st1" d="M37.05,44.92c5.68-1.69,2.81-9.69-2.63-7.71l-.18.08c-4.47,2.07-1.86,8.81,2.81,7.63Z"/>
  <path class="st1" d="M36.41,34.49c-.1,0-.19.02-.29.02.1,0,.19,0,.29-.02Z"/>
  <path class="st1" d="M34.93,32.96c-.02.1-.04.22-.05.34.05-.23.11-.56.19-.95-.05.22-.1.42-.14.61Z"/>
  <path class="st1" d="M35.77,29.27c.14-.56.26-1.04.34-1.29-.06.14-.19.63-.34,1.29Z"/>
  <path class="st1" d="M36.76,34.43c-.05.01-.11.02-.17.03.06,0,.11-.02.17-.03Z"/>
  <path class="st1" d="M37.22,34.29c-.08.04-.18.07-.28.1.1-.03.2-.06.28-.1Z"/>
  <path class="st1" d="M34.86,33.45s0,.09,0,.14c0-.05,0-.09,0-.14Z"/>
  <path class="st1" d="M56.63,67.94c-.03-3.39-.06-12.98-.11-14.71-.08-.27-.28-.22-.62-.26-.56-.02-1.79-.02-2.69-.04-.88.07-1.5-.3-1.38.78.03,3.14.03,16.28.09,18.07.23.49.74.37,1.44.48.92.07,2.27.03,2.86-.09l.1-.03c.13-.04.21-.09.26-.17.15-1.02,0-2.63.04-4.05Z"/>
  <path class="st1" d="M42.47,62.83c-1.4-.38-3.45-.45-4.9-.06,0,.7.04,9.02.04,9.38,1.23.1,3.65.05,4.85.09h.01c0-1.73.05-9.29-.01-9.42Z"/>
  <path class="st1" d="M70.7,55.94c-.03-7.05.02-13.83-.05-14.2-.96-.12-3.59-.01-4.58-.03-.48,6.39-.03,28.51-.15,30.3,1.24.36,3.18.26,4.53,0l.09-.03c.08-.03.13-.05.15-.08.05-3.07,0-11.41,0-15.97Z"/>
  <path class="st0" d="M34.88,33.89c.02.07.05.14.09.2.02.02.03.05.05.07.22.24.61.34,1.02.35.03,0,.05,0,.08,0,.1,0,.19,0,.29-.02.06,0,.12-.01.18-.02.06,0,.11-.02.17-.03.06-.01.12-.03.18-.04.1-.03.2-.06.28-.1l.09-.07c.48-.66-.24-2.29-.4-3.31,0-.03-.01-.07-.02-.11-.25-.97-.38-2.05-.7-2.87-.01-.01-.03-.02-.04,0-.01,0-.03.03-.04.05,0,0,0,0,0,0-.08.25-.2.72-.34,1.29-.23.95-.5,2.17-.69,3.09-.08.38-.15.71-.19.95,0,.02-.01.05-.01.07,0,.03,0,.05,0,.08,0,.05,0,.09,0,.14,0,.11,0,.21.03.3Z"/>
  <g>
    <path class="st2" d="M37.86,72.31l-31.37.05c-2.61,0-4.09-1.66-4.08-4.28l.11-62.86c0-1.25,1.63-2.75,2.95-2.75l35.19-.08.04,13.25c.35,2.83,2.65,4.81,5.55,4.49h11.57s.2,19.32.2,19.32c.06.52,1.3.8,1.57.57.18-.15.69-.32.69-.8l-.04-21.02L42.36.09,6.49,0C3.17,0,.51,1.96.06,5.37L0,68.09c0,3.74,2.41,6.61,6.15,6.62l31.19.1c1,0,1.81-.22,1.95-1.19.08-.55-.56-1.31-1.43-1.31ZM43.49,4.74l12.84,13.03-11.09-.07c-1.36,0-2.13-1.72-2.09-2.91l.34-10.05Z"/>
    <path class="st2" d="M60.84,44.35c-8.36-3.03-17.88,1.02-20.99,9.57-3.19,8.76,1.26,18.15,9.71,21.19,8.3,2.99,17.69-.99,20.83-9.52,3.25-8.84-1.12-18.19-9.55-21.25ZM66.7,67.48c-3.78,5.82-11.15,7.7-17.16,5.05-5.88-2.6-9.33-9.15-8.02-15.6,1.27-6.27,6.8-11.12,13.65-11.22,5.22-.07,9.73,2.99,12.04,7.1,2.57,4.57,2.54,9.98-.51,14.67Z"/>
    <path class="st2" d="M48.71,31.27c-.19-.31-.76-.62-1.37-.62l-34.56.05c-.79,0-1.32.49-1.47,1.02-.08.28.35,1,.64,1.31h36.35c.62-.62.59-1.48.41-1.77Z"/>
    <path class="st2" d="M37.71,41.1l-25.35-.07c-.55,0-1.06.84-1.06,1.2,0,.35.54,1.2,1.06,1.2l25.16-.02c1.12,0,1.06-2.3.19-2.31Z"/>
    <path class="st2" d="M13.27,51.28c-.83,0-1.39.05-1.76.77-.24.47-.22.88.2,1.21.51.4.9.43,1.56.42l17.82-.17c.76,0,.53-2.12-.19-2.12l-17.63-.11Z"/>
    <path class="st2" d="M30.02,22.9c.96,0,1.66-.74,1.49-1.55-.1-.49-.68-.95-1.48-.94l-17.81.08c-.61,0-.9.96-.9,1.32,0,.27.44,1.04.9,1.05l17.8.05Z"/>
    <path class="st2" d="M62.47,58.6l-6.09-.12-.16-6.03c-.02-.75-.85-.99-1.26-.92-.28.05-.94.32-.95.91l-.11,6.04-5.56-.02c-.78,0-1.2.46-1.3,1.03-.07.37.19,1.23.94,1.26l5.92.25.05,5.59c0,.94.84,1.45,1.47,1.25,1.66-.51.39-3.43,1-6.85l5.94-.25c.7-.03.92-.89.86-1.24-.04-.23-.19-.89-.74-.9Z"/>
  </g>
</svg>