<?xml version="1.0" encoding="UTF-8"?>
<svg id="Vrstva_1" xmlns="http://www.w3.org/2000/svg" version="1.1" viewBox="0 0 95.85 102.08" color="#000000" stroke="currentColor" stroke-width="1.4" stroke-linecap="round" stroke-linejoin="round" data-line-weight="soft-metal-140">
  <!-- Generator: Adobe Illustrator 30.6.0, SVG Export Plug-In . SVG Version: 2.1.4 Build 109)  -->
  <path d="M6.56.15C3.63.62,1.5,2.46.4,5.5l-.4,1.12v86.61l.4,1.24c.79,2.55,2.67,4.45,5.14,5.23,1.12.35,1.48.35,23.81.35h22.65l.36-.38c.4-.43.45-1.14.1-1.62-.24-.33-.72-.33-22.91-.41l-22.65-.09-1.09-.5c-1.33-.62-2.47-1.83-2.92-3.09-.29-.86-.31-2.76-.31-43.86,0-33.64.05-43.12.21-43.67.5-1.64,1.98-3.12,3.5-3.52.35-.09,10.96-.17,24.67-.21l24.07-.05.09,9.75.09,9.75.5,1.07c.5,1.1,1.52,2.21,2.45,2.69,1.31.67,1.79.71,11.11.72h9.06l.05,13.27.03,13.28.38.4c.45.48,1.16.52,1.71.07l.41-.33-.05-14.13-.07-14.11-.4-.6c-.66-.95-12.85-13.65-19.82-20.63-2.92-2.92-3.76-3.67-4.23-3.76C55.51-.07,7.58,0,6.55.16h0ZM61.84,8.81c8.59,8.83,14.51,15.01,14.51,15.17,0,.22-15.1.21-15.96-.03-1.04-.28-1.93-.97-2.33-1.78-.33-.71-.35-1.04-.35-9.04,0-4.57.05-8.32.12-8.32.05,0,1.86,1.81,4,4h.01Z"/>
  <path d="M15.45,28.13c-.43.47-.45,1.19-.02,1.71l.33.41,12.68.05c12.61.03,12.66.03,13.11-.33.59-.45.64-1.36.12-1.88-.35-.35-.57-.35-13.11-.35h-12.75l-.36.38h0Z"/>
  <path d="M15.47,42.18c-.21.26-.36.59-.36.76s.16.5.36.76l.35.45h24.59c24.34,0,24.57,0,24.91-.35.45-.45.45-1.4.03-1.78-.29-.28-2.28-.29-24.93-.29H15.82l-.35.45h0Z"/>
  <path d="M15.55,55.72c-.57.45-.62,1.33-.09,1.81.35.31.93.33,17.67.38l17.29.03.45-.36c.6-.47.64-1.31.07-1.85l-.4-.38h-17.27c-17.2,0-17.25,0-17.72.36h0Z"/>
  <path d="M72.04,58.63c-5.56.52-11.2,3.66-14.85,8.25-2.02,2.52-3.45,5.59-4.14,8.83-.52,2.4-.55,6.76-.09,8.97.9,4.31,2.69,7.71,5.75,10.89,2.92,3.02,6.52,5.06,10.92,6.11,1.55.38,5.75.53,7.64.28,7.16-.97,13.51-5.66,16.58-12.28,1.4-3.02,2-5.81,2-9.21,0-4.54-1.22-8.57-3.74-12.4-1.78-2.69-5.31-5.75-8.47-7.33-3.31-1.66-7.69-2.45-11.59-2.09v-.02ZM77.58,61.41c4.85.98,8.92,3.52,11.73,7.28,5.9,7.94,5.04,19.03-2.02,25.66-4.16,3.9-9.8,5.73-15.53,5-8.06-1-14.68-7.21-16.18-15.18-.31-1.62-.36-5.23-.1-6.9,1.31-8.23,8.18-14.85,16.6-16.05,1.29-.17,4.19-.09,5.5.19h0Z"/>
  <path d="M73.32,70.26c-.31.22-.33.55-.41,4.45l-.09,4.19-4.28.09c-3.99.09-4.31.1-4.54.41-.38.52-.29,1.28.19,1.74l.41.43h8.3l.03,4.24.05,4.26.45.33c.55.41,1.43.29,1.73-.22.1-.21.19-1.95.21-4.43l.03-4.09,4.14-.09c2.79-.05,4.26-.16,4.5-.29.71-.4.79-1.35.19-1.92-.38-.36-.57-.38-4.61-.41l-4.23-.05v-4.07c0-3.78-.02-4.11-.33-4.45-.38-.43-1.26-.48-1.76-.12h.02Z"/>
  <path d="M16.04,69.33c-.45.17-.93.83-.93,1.22,0,.16.16.48.36.74l.35.45h25.36l.41-.43c.52-.5.55-1.1.1-1.66l-.33-.41-12.49-.03c-6.85-.02-12.65.03-12.84.12h.01Z"/>
</svg>