<?xml version="1.0" encoding="UTF-8"?>
<svg id="Vrstva_1" xmlns="http://www.w3.org/2000/svg" version="1.1" viewBox="0 0 111.85 95.24" color="#000000" stroke="currentColor" stroke-width="1.4" stroke-linecap="round" stroke-linejoin="round" data-line-weight="soft-metal-140">
  <!-- Generator: Adobe Illustrator 30.6.0, SVG Export Plug-In . SVG Version: 2.1.4 Build 109)  -->
  <path d="M91.96.34c-7.78,1.93-13.13,9.26-12.7,17.43.31,5.9,3.43,13.6,8.57,21.14,2.36,3.47,6.52,8.42,7.35,8.73.74.28,1.35-.16,3-2.12,7.02-8.26,11.63-16.8,13.28-24.55.55-2.54.52-5.8-.07-8.04-.6-2.29-1.4-4.11-2.55-5.85-2.19-3.28-5.61-5.69-9.4-6.64-2.14-.55-5.47-.59-7.49-.09h.01ZM98.61,2.88c3.74.95,7.13,3.62,8.92,7.06,2.86,5.49,2.31,10.92-2,19.82-2.16,4.47-4.24,7.75-7.33,11.61-2.09,2.59-2.52,3.04-2.76,2.9-.36-.22-3.5-4.07-4.68-5.71-5.26-7.42-8.97-16.39-8.97-21.74,0-1.48.45-3.69,1.05-5.28,1.48-3.85,4.81-7.09,8.59-8.35,2.43-.81,4.85-.91,7.18-.31Z"/>
  <path d="M93.43,9.44c-2.05.74-3.38,1.9-4.23,3.71-.74,1.57-.95,3.05-.62,4.61.71,3.36,3.36,5.54,6.83,5.59,6.56.07,9.68-7.78,4.88-12.32-1.33-1.26-2.5-1.74-4.43-1.83-1.21-.05-1.78.02-2.43.24h0ZM97.68,12.35c1.6.81,2.59,2.85,2.23,4.62-.74,3.57-5.09,4.92-7.52,2.31-1.09-1.14-1.52-2.76-1.12-4.23.4-1.43,1.81-2.78,3.36-3.17.81-.21,2.12-.02,3.05.47h0Z"/>
  <path d="M18.81,33.05c-4.85.6-8.07,1.93-11.49,4.76-4.54,3.74-7.32,9.9-7.32,16.18,0,9.3,6.47,22.72,16.96,35.2,2.35,2.79,2.69,3.11,3.42,3.11s1.14-.41,3.62-3.36c4.45-5.3,8.95-12.13,11.8-17.94,4.74-9.64,5.97-16.89,3.97-23.45-2.23-7.33-8.42-12.89-15.84-14.23-1.16-.21-4.24-.36-5.12-.26h0ZM24.59,36.14c6.5,1.64,11.53,6.81,13.08,13.46.52,2.24.52,6.02-.02,8.57-1.55,7.52-5.99,16.32-12.68,25.24-2.12,2.83-4.45,5.61-4.68,5.61-.19-.02-3.26-3.8-5.4-6.64-4.74-6.35-8.99-14.32-10.9-20.55-1.04-3.38-1.28-4.9-1.28-8.01,0-2.52.05-3.04.45-4.54.5-1.85,1.62-4.38,2.66-5.94.95-1.45,2.98-3.5,4.47-4.54,4.3-2.97,9.39-3.92,14.3-2.67h0Z"/>
  <path d="M18.35,44.77c-6.44,1.4-8.99,9.59-4.52,14.48,3.28,3.59,8.94,3.83,12.4.52,1.98-1.9,2.76-3.67,2.76-6.35,0-1.97-.4-3.38-1.35-4.87-2-3.07-5.66-4.57-9.3-3.78h0ZM22.04,47.36c3.67,1.09,5.43,5.26,3.69,8.78-.93,1.92-2.78,3.17-4.93,3.35-1.43.1-2.66-.21-3.85-1.02-1.21-.79-1.95-1.79-2.45-3.28-1.57-4.59,2.9-9.21,7.54-7.83Z"/>
  <path d="M83.03,47.98c-1.85.36-3.55.78-3.8.88-.67.33-.98,1.05-.69,1.64.31.67.86.9,1.74.72,6.64-1.31,7.45-1.5,7.75-1.88.41-.5.4-1.05-.05-1.62-.47-.6-.85-.59-4.95.26Z"/>
  <path d="M69.02,50.91c-1.85.47-3.54.97-3.76,1.12-1.09.72-.66,2.31.64,2.31.19,0,1.22-.22,2.29-.52,1.07-.28,2.76-.71,3.76-.95s1.93-.55,2.07-.69c.35-.36.31-1.38-.09-1.81-.47-.5-1.1-.43-4.92.53h.01Z"/>
  <path d="M58.01,54.78c-3.85,1.93-5.43,5.57-3.81,8.75.81,1.6,3.4,3.55,4.38,3.31.81-.21,1.22-1.33.72-1.98-.12-.14-.69-.59-1.28-.98-3.02-2.04-2.5-4.74,1.28-6.87,1.45-.81,1.79-1.5,1.14-2.28-.53-.64-1.07-.62-2.43.05Z"/>
  <path d="M63.91,67.08c-.38.24-.6.91-.5,1.45.09.4.29.59.85.83,1,.45,6.33,1.9,6.97,1.9.6,0,1.24-.67,1.24-1.29,0-.85-.47-1.09-4.09-2.07-3.47-.95-4.11-1.05-4.47-.81h0Z"/>
  <path d="M77.35,70.39c-.74.29-1.02,1.6-.43,2.12.17.16,1.43.55,2.79.88,1.38.33,3,.76,3.62.95s1.33.36,1.57.36c.59,0,1.19-.67,1.19-1.33,0-.97-.62-1.28-4.33-2.19-4.09-1-3.95-.97-4.42-.79h.01Z"/>
  <path d="M90.45,74.76c-.38.4-.48,1.04-.28,1.59.07.16.76.59,1.55.97,1.71.81,2.98,1.78,3.52,2.69.67,1.1,1.05,1.43,1.66,1.43.69,0,.93-.36.93-1.38,0-1.35-1.14-2.9-3.05-4.16-1.33-.86-2.88-1.54-3.57-1.54-.21,0-.55.17-.76.4h0Z"/>
  <path d="M96.14,82.85c-.09.12-.33.53-.52.91-.69,1.36-2.24,2.54-4.55,3.45-.91.36-1.19.57-1.36.98-.28.66.03,1.31.78,1.67.43.21.6.19,1.64-.22,3.42-1.35,5.9-3.73,5.95-5.73.02-.38-.09-.83-.22-.98-.28-.35-1.45-.4-1.71-.09h-.01Z"/>
  <path d="M82.04,89.99c-.95.22-2.73.57-3.97.76-1.22.21-2.47.45-2.73.55-1.21.47-.83,2.38.47,2.38.66,0,5.71-.91,7.61-1.36,1.47-.36,1.98-.74,1.98-1.52,0-.53-.72-1.26-1.24-1.24-.22.02-1.17.21-2.12.43Z"/>
  <path d="M28.7,91.44c-.79.33-.97,1.28-.35,1.98.36.41.57.47,4.09.86,4.05.47,5.21.52,5.69.26.4-.21.59-1.02.36-1.6s-.62-.67-5.02-1.14c-1.95-.21-3.73-.41-3.97-.45-.24-.05-.6,0-.81.09h0Z"/>
  <path d="M64.7,92.25c-1.95.14-3.86.28-4.28.33-1.33.16-1.79,1.09-1.04,2.05l.38.48,2.33-.12c3.88-.19,6.97-.47,7.32-.64,1.1-.6.41-2.48-.88-2.36-.16,0-1.88.12-3.83.26Z"/>
  <path d="M43.86,92.75c-.12.05-.33.31-.47.59-.33.62-.07,1.43.53,1.71.29.12,1.97.19,5.07.19,4.43,0,4.68-.02,5-.35.19-.19.35-.57.35-.86,0-.93-.48-1.21-2.12-1.21-.79,0-2.95-.03-4.8-.09s-3.45-.03-3.57.02h0Z"/>
</svg>