<?xml version="1.0" encoding="UTF-8"?>
<svg id="Vrstva_1" xmlns="http://www.w3.org/2000/svg" version="1.1" viewBox="0 0 77.89 66.67">
  <!-- Generator: Adobe Illustrator 30.6.0, SVG Export Plug-In . SVG Version: 2.1.4 Build 109)  -->
  <defs>
    <style>
      .st0 {
        fill: #f4f7f8;
      }

      .st1 {
        fill: none;
      }

      .st2 {
        fill: #102439;
      }
    </style>
  </defs>
  <path class="st1" d="M39.83,28.88c-.41,0-.8-.11-1.02-.35.22.25.61.35,1.02.35Z"/>
  <path class="st1" d="M38.69,28.36s.05.06.07.09c-.04-.06-.07-.13-.09-.2,0,.03.01.08.02.11Z"/>
  <path class="st1" d="M40.68,25.17s.01.07.02.11c0-.03-.01-.07-.02-.11-.25-.97-.38-2.06-.7-2.87-.01-.01-.03-.02-.04,0,.01,0,.03,0,.04,0,.32.82.45,1.9.7,2.87Z"/>
  <path class="st1" d="M40.84,39.29c5.68-1.69,2.81-9.69-2.63-7.71l-.18.08c-4.47,2.07-1.86,8.81,2.81,7.63Z"/>
  <path class="st1" d="M40.2,28.86c-.1,0-.19.02-.29.02.1,0,.19,0,.29-.02Z"/>
  <path class="st1" d="M38.72,27.33c-.02.1-.04.22-.05.34.05-.23.11-.56.19-.95-.05.22-.1.42-.14.61Z"/>
  <path class="st1" d="M39.56,23.64c.14-.56.26-1.04.34-1.29-.06.14-.19.63-.34,1.29Z"/>
  <path class="st1" d="M40.55,28.8c-.05.01-.11.02-.17.03.06,0,.11-.02.17-.03Z"/>
  <path class="st1" d="M41.01,28.66c-.08.04-.18.07-.28.1.1-.03.2-.06.28-.1Z"/>
  <path class="st1" d="M38.65,27.82s0,.09,0,.14c0-.05,0-.09,0-.14Z"/>
  <path class="st1" d="M60.42,62.31c-.03-3.39-.06-12.98-.11-14.71-.08-.27-.28-.22-.62-.26-.56-.02-1.79-.02-2.69-.04-.88.07-1.5-.3-1.38.78.03,3.14.03,16.28.09,18.07.23.49.74.37,1.44.48.92.07,2.27.03,2.86-.09l.1-.03c.13-.04.21-.09.26-.17.15-1.02,0-2.63.04-4.05Z"/>
  <path class="st1" d="M46.26,57.2c-1.4-.38-3.45-.45-4.9-.06,0,.7.04,9.02.04,9.38,1.23.1,3.65.05,4.85.09h.01c0-1.73.05-9.29-.01-9.42Z"/>
  <path class="st1" d="M74.49,50.31c-.03-7.05.02-13.83-.05-14.2-.96-.12-3.59-.01-4.58-.03-.48,6.39-.03,28.51-.15,30.3,1.24.36,3.18.26,4.53,0l.09-.03c.08-.03.13-.05.15-.08.05-3.07,0-11.41,0-15.97Z"/>
  <path class="st0" d="M38.67,28.26c.02.07.05.14.09.2.02.02.03.05.05.07.22.24.61.34,1.02.35.03,0,.05,0,.08,0,.1,0,.19,0,.29-.02.06,0,.12-.01.18-.02.06,0,.11-.02.17-.03.06-.01.12-.03.18-.04.1-.03.2-.06.28-.1l.09-.07c.48-.66-.24-2.29-.4-3.31,0-.03-.01-.07-.02-.11-.25-.97-.38-2.05-.7-2.87-.01-.01-.03-.02-.04,0-.01,0-.03.03-.04.05,0,0,0,0,0,0-.08.25-.2.72-.34,1.29-.23.95-.5,2.17-.69,3.09-.08.38-.15.71-.19.95,0,.02-.01.05-.01.07,0,.03,0,.05,0,.08,0,.05,0,.09,0,.14,0,.11,0,.21.03.3Z"/>
  <g>
    <path class="st2" d="M21.73,24.92c-5.37-3.17-11.85-2.55-16.31.98-12.26,9.69-1.26,28.59,8.92,39.04,6.91-7.19,12.75-16.42,14.17-25.38.94-5.97-2.04-11.85-6.77-14.64ZM14.19,61.49l-7.57-10.64c-2.48-3.49-3.69-7.65-4.3-11.9-.71-4.97,1.88-9.73,5.82-12.08,4.5-2.69,9.98-2.09,13.76,1.03,10.26,8.47.42,24.35-7.71,33.58Z"/>
    <path class="st2" d="M66.5,34.12c7.29-7.85,15.29-20.33,9.28-29.26-3.24-4.82-9.54-6.05-14.41-3.71-4.96,2.38-7.53,8.03-6.22,13.63,1.71,7.29,5.76,13.67,11.35,19.33ZM62.98,2.98c3.44-1.41,7.08-.61,9.61,1.78,7.24,6.85.02,18.28-6.06,25.87-4.14-4.6-7.17-9.57-8.91-15.39-1.47-4.94.53-10.28,5.37-12.27Z"/>
    <path class="st2" d="M41.49,46c.65-1.66-2.97-2.04-2.12-4.17.53-1.33,2.67-1.61,3.25-2.64.27-.47-.13-1.61-1.02-1.55-1.91.14-3.85,1.9-4.45,3.81-.68,2.17.77,4.07,2.41,5.12.95.61,1.62.23,1.93-.57Z"/>
    <path class="st2" d="M36.71,64.33l-5.42-.14c-.94-.02-1.35.67-1.26,1.29.07.49.4.98,1.09.99l6.14.09c.72.01.88-1.21.65-1.52-.2-.27-.5-.68-1.2-.7Z"/>
    <path class="st2" d="M26.2,63.89l-6.13-.67c-.65.43-.83.85-.81,1.26.03.43.4.93.98.98l5.78.59c.78.08,1.02-.77,1.02-1.09,0-.32-.25-1.01-.83-1.08Z"/>
    <path class="st2" d="M58.89,62.31l-5.83.88c-.82.12-1.19.68-1.18,1.28,0,.42.41,1.15,1.04,1.06,2.2-.31,4.4-.55,6.4-1.41.54-.23.22-1.91-.43-1.81Z"/>
    <path class="st2" d="M60.03,32.71l-4.48.93c-.85.18-1.26,1.01-.97,1.63.31.65.97.8,1.96.58l4.31-.95c.81-.18,1.09-.99.92-1.41-.3-.72-.87-.96-1.74-.78Z"/>
    <path class="st2" d="M63.56,51.53c-.54-.08-.97.77-1.03,1.12-.23,1.35,2.8,1.28,4.56,4.31,1.4-.2,1.74-1.23,1.26-2.13-.96-1.8-2.85-3.02-4.78-3.3Z"/>
    <path class="st2" d="M51.74,35.23c-.4-.51-.89-.63-1.69-.38l-4.66,1.41c-.52.16-.67.99-.5,1.29.13.23.51.87,1,.75l5.21-1.27c.97-.24,1.12-1.18.64-1.79Z"/>
    <path class="st2" d="M63.25,60.53c-.74.25-1.14.8-1.12,1.35.01.37.47,1.26,1.07,1.11,2.93-.71,6.09-3.23,5.09-4.81-1.19-1.89-1.96,1.32-5.04,2.34Z"/>
    <path class="st2" d="M47.6,63.86l-5.77.46c-.67.05-.9.81-.85,1.15.04.22.19.98.96.94l6.05-.35c.71-.04,1.11-1.01.92-1.39-.19-.37-.68-.86-1.3-.81Z"/>
    <path class="st2" d="M49.5,47.55l-4.86-1.19c-.63-.15-.98.88-.87,1.25.08.27.22.86.74,1.01l4.61,1.31c.86.25,1.66-.53,1.6-1.26-.04-.46-.53-.95-1.23-1.12Z"/>
    <path class="st2" d="M59.36,50.03l-4.31-1.23c-.73-.21-1.42.01-1.74.47-.23.32-.31,1.32.38,1.52l4.61,1.35c.85.25,1.57.03,1.84-.55.29-.65-.07-1.36-.78-1.56Z"/>
    <path class="st2" d="M12.12,31.27c-3.54,1.15-4.98,4.95-3.78,8.22,1.23,3.35,4.96,4.78,8.03,3.68,3.55-1.26,5.06-4.9,3.82-8.19-1.2-3.17-4.71-4.8-8.07-3.71ZM15.03,41.22c-2.12.44-4.19-.96-4.69-3.33-.42-2.03.83-4.17,3.33-4.63,2.15-.4,4.13,1.16,4.55,3.12.47,2.2-.91,4.37-3.2,4.84Z"/>
    <path class="st2" d="M68,16.44c3.09-1.02,4.26-4.17,3.26-6.84-.96-2.56-3.94-4.02-6.78-2.93-3.06,1.17-3.92,4.52-2.91,6.9,1.15,2.71,4.18,3.63,6.43,2.88ZM64.93,9.04c1.65-.93,3.36-.2,4.1,1.4.53,1.14.15,2.84-1.15,3.59-1.38.8-3.04.38-3.94-.97-.76-1.14-.67-3.08.99-4.01Z"/>
  </g>
</svg>