<?xml version="1.0" encoding="UTF-8"?>
<svg id="Vrstva_1" xmlns="http://www.w3.org/2000/svg" version="1.1" viewBox="0 0 76.71 71.24">
  <!-- Generator: Adobe Illustrator 30.6.0, SVG Export Plug-In . SVG Version: 2.1.4 Build 109)  -->
  <defs>
    <style>
      .st0 {
        fill: #f4f7f8;
      }

      .st1 {
        fill: none;
      }

      .st2 {
        fill: #091c30;
      }
    </style>
  </defs>
  <path class="st1" d="M38.32,33.45c-.41,0-.8-.11-1.02-.35.22.25.61.35,1.02.35Z"/>
  <path class="st1" d="M37.18,32.93s.05.06.07.09c-.04-.06-.07-.13-.09-.2,0,.03.01.08.02.11Z"/>
  <path class="st1" d="M39.17,29.74s.01.07.02.11c0-.03-.01-.07-.02-.11-.25-.97-.38-2.06-.7-2.87-.01-.01-.03-.02-.04,0,.01,0,.03,0,.04,0,.32.82.45,1.9.7,2.87Z"/>
  <path class="st1" d="M39.33,43.86c5.68-1.69,2.81-9.69-2.63-7.71l-.18.08c-4.47,2.07-1.86,8.81,2.81,7.63Z"/>
  <path class="st1" d="M38.69,33.43c-.1,0-.19.02-.29.02.1,0,.19,0,.29-.02Z"/>
  <path class="st1" d="M37.21,31.9c-.02.1-.04.22-.05.34.05-.23.11-.56.19-.95-.05.22-.1.42-.14.61Z"/>
  <path class="st1" d="M38.05,28.2c.14-.56.26-1.04.34-1.29-.06.14-.19.63-.34,1.29Z"/>
  <path class="st1" d="M39.04,33.37c-.05.01-.11.02-.17.03.06,0,.11-.02.17-.03Z"/>
  <path class="st1" d="M39.5,33.23c-.08.04-.18.07-.28.1.1-.03.2-.06.28-.1Z"/>
  <path class="st1" d="M37.14,32.39s0,.09,0,.14c0-.05,0-.09,0-.14Z"/>
  <path class="st1" d="M58.91,66.88c-.03-3.39-.06-12.98-.11-14.71-.08-.27-.28-.22-.62-.26-.56-.02-1.79-.02-2.69-.04-.88.07-1.5-.3-1.38.78.03,3.14.03,16.28.09,18.07.23.49.74.37,1.44.48.92.07,2.27.03,2.86-.09l.1-.03c.13-.04.21-.09.26-.17.15-1.02,0-2.63.04-4.05Z"/>
  <path class="st1" d="M44.75,61.77c-1.4-.38-3.45-.45-4.9-.06,0,.7.04,9.02.04,9.38,1.23.1,3.65.05,4.85.09h.01c0-1.73.05-9.29-.01-9.42Z"/>
  <path class="st1" d="M72.98,54.88c-.03-7.05.02-13.83-.05-14.2-.96-.12-3.59-.01-4.58-.03-.48,6.39-.03,28.51-.15,30.3,1.24.36,3.18.26,4.53,0l.09-.03c.08-.03.13-.05.15-.08.05-3.07,0-11.41,0-15.97Z"/>
  <path class="st0" d="M37.16,32.83c.02.07.05.14.09.2.02.02.03.05.05.07.22.24.61.34,1.02.35.03,0,.05,0,.08,0,.1,0,.19,0,.29-.02.06,0,.12-.01.18-.02.06,0,.11-.02.17-.03.06-.01.12-.03.18-.04.1-.03.2-.06.28-.1l.09-.07c.48-.66-.24-2.29-.4-3.31,0-.03-.01-.07-.02-.11-.25-.97-.38-2.05-.7-2.87-.01-.01-.03-.02-.04,0-.01,0-.03.03-.04.05,0,0,0,0,0,0-.08.25-.2.72-.34,1.29-.23.95-.5,2.17-.69,3.09-.08.38-.15.71-.19.95,0,.02-.01.05-.01.07,0,.03,0,.05,0,.08,0,.05,0,.09,0,.14,0,.11,0,.21.03.3Z"/>
  <g>
    <path class="st2" d="M44.5,55.98c-1.95-6.88-8.4-11.22-15.37-11.27-4,3.36-9.26,3.31-13.34.04-7.38-.08-14.3,5.24-15.46,12.81-.47,3.05-.35,5.94-.1,8.86.21,2.42,2.45,4.74,5.07,4.75l33.89.08c3.7,0,5.98-3.1,5.83-6.87-.13-3.08.26-5.7-.5-8.39ZM42.57,62.78c-.2,2.28.11,5.94-2.92,5.92l-35.01-.16c-2.14,0-2.52-4.12-1.95-5.47-1.22-8.24,4.21-15.05,12.26-15.88,4.57,3.44,10.57,3.51,15.1,0,8,.79,13.24,7.17,12.52,15.58Z"/>
    <path class="st2" d="M76.57,13.57C75.36,4.87,67.85-.7,59.12.07c-3.92.35-7.53-.34-11.19,1.22-4.83,2.05-8.07,6.7-8.96,11.46-1.03,5.5.79,10.66,4.81,14.44l.07,8.88c0,.75.6,1.13.97,1.23.68.19.98-.26,1.47-.57l8.7-5.66c2.46-.89,5.68.01,8.42-.37,8.64-1.19,14.29-9.02,13.15-17.13ZM63.96,28.08l-9.49.5c-3.09.16-5.11,3.54-7.86,4.89l-.31-7.21c-4.16-3.7-6.23-8.68-4.66-14.28,1.25-4.46,5.55-9.23,10.98-9.27l9.74-.07c6.4-.05,11.22,5.81,11.76,11.63.6,6.54-3.55,12.37-10.17,13.81Z"/>
    <path class="st2" d="M17.01,42.06c4.23,2.75,9.61,1.82,13.17-1.53,4.96-4.67,6.44-11.87,3.85-18.03-1.76-4.19-5.06-7.04-8.98-7.78-4.42-.83-8.89.49-11.84,4.06-5.93,7.18-4.04,18.19,3.79,23.28ZM14.13,21.81c1.68-2.88,4.61-4.65,7.7-4.87,3.24-.23,6.54,1.31,8.62,4.26,4.4,6.21,2.39,15.73-4.73,19.28-3.03,1.51-6.56.42-8.8-1.55-4.9-4.3-6.02-11.57-2.79-17.12Z"/>
    <path class="st2" d="M65.42,11.44l-15.29.02c-.62,0-1,.83-1.01,1.18-.01.35.36,1.2.99,1.19l15.47-.05c.72,0,1.08-1.18.84-1.45-.18-.2-.45-.89-.99-.89Z"/>
    <path class="st2" d="M61.26,17.49l-11.31.11c-.79,0-1,.96-.86,1.32.22.55.52,1.06,1.4,1.04l11.17-.16c.67,0,.94-.91.86-1.27-.09-.42-.47-1.04-1.26-1.04Z"/>
  </g>
</svg>