<?xml version="1.0" encoding="UTF-8"?>
<svg id="Vrstva_1" xmlns="http://www.w3.org/2000/svg" version="1.1" viewBox="0 0 100.03 93.09">
  <!-- Generator: Adobe Illustrator 30.6.0, SVG Export Plug-In . SVG Version: 2.1.4 Build 109)  -->
  <path d="M67.39.1c-7.04,1.07-13.01,6.23-15.34,13.27-2.47,7.47-.88,14.99,4.38,20.6l1,1.09.05,6.23.05,6.21.41.45c.86.91,1.09.79,6.71-3.21,2.81-2,5.56-3.99,6.07-4.38l.97-.72,6.11-.07c5.92-.09,6.18-.1,7.8-.53,5.69-1.52,10.09-5.12,12.56-10.33,1.41-2.98,2-6.09,1.85-9.71-.24-5.38-2.28-10.02-6-13.72-2.29-2.28-5.16-3.9-8.44-4.8-1.64-.45-1.66-.45-9.4-.48-4.26-.02-8.21.03-8.78.12v-.02ZM84.42,2.83c1.69.4,4.19,1.5,5.75,2.57,1.45.98,3.66,3.35,4.69,5.04,3.62,5.9,3.49,13.89-.36,19.48-.81,1.17-2.85,3.26-4.02,4.09-1.4,1-3.66,2.05-5.33,2.5-1.52.4-5.75.64-11.32.66l-3.04.02-1.62,1.16c-.9.64-3.26,2.35-5.28,3.8s-3.71,2.64-3.76,2.64-.09-2.23-.09-4.97-.09-5.23-.17-5.57c-.1-.35-.78-1.31-1.64-2.33-.81-.93-1.86-2.31-2.33-3.07-3.43-5.5-3.16-13.1.67-18.91.85-1.29,2.98-3.5,4.26-4.42,1.41-1.02,4.02-2.23,5.5-2.59,2.05-.48,3.76-.57,10.27-.5,5.52.07,6.49.12,7.82.41h0Z"/>
  <path d="M65.06,15.22c-.19.17-.41.55-.47.86-.09.45-.02.64.33.98l.45.45h10.33c10.2,0,10.35,0,10.8-.36.59-.47.62-1.33.05-1.85l-.4-.38h-10.37c-9.61,0-10.39.02-10.73.29h0Z"/>
  <path d="M65.39,22.81c-.53.19-.86.64-.86,1.16.02,1.31-.05,1.31,8.76,1.31h7.75l.36-.4c.53-.57.5-1.38-.07-1.83-.45-.36-.62-.36-8.07-.35-4.18,0-7.73.05-7.87.1h0Z"/>
  <path d="M25.84,18.89c-5.99,1.26-10.82,6.44-12.58,13.46-.52,2.09-.64,6.25-.26,8.35.86,4.59,2.78,8.35,5.78,11.34,3.17,3.14,6.52,4.42,11.13,4.26,2.61-.1,4.11-.52,6.31-1.74,1.81-1.02,4.95-4.16,6.11-6.14,4.52-7.73,4.05-17.22-1.17-23.9-3.69-4.69-9.54-6.85-15.32-5.62h0ZM32.69,21.65c1.93.6,3.45,1.5,4.95,2.92,3.35,3.14,5.14,7.52,5.14,12.53,0,8.89-5.66,16.17-13.04,16.77-3.02.24-6.92-1.38-9.42-3.93-1.93-1.98-3.54-4.9-4.38-8.01-.43-1.57-.47-2-.47-4.74s.03-3.17.47-4.74c1.41-5.23,4.69-9.08,8.94-10.56,1.79-.62,2.55-.72,4.71-.66,1.33.03,2.26.17,3.11.43h-.01Z"/>
  <path d="M17.51,59.01c-7.76,1.43-13.94,6.23-16.39,12.77-.93,2.45-1.12,4.07-1.12,9.71s.1,6.38.98,8.01c.53.98,1.78,2.21,2.78,2.71,1.78.91.95.88,25.41.88,22.17,0,22.74,0,23.83-.35,2.16-.66,3.95-2.45,4.74-4.69.28-.83.31-1.52.31-6.87-.02-5.9-.02-5.97-.48-7.66-1.74-6.47-7.19-11.84-14.01-13.82-1.52-.43-4.11-.95-4.8-.95-.17,0-1.02.43-1.85.97-5.14,3.24-10.75,3.24-15.6-.02-1.57-1.05-1.73-1.09-3.81-.69h0ZM20.32,62.2c2.55,1.67,5.26,2.45,8.66,2.47,3.5.03,6.45-.85,9.26-2.78l.91-.6,2.17.53c3.45.86,5.56,1.88,8.16,3.93,2.54,2,4.71,5.3,5.57,8.44.36,1.29.38,1.76.4,7.07,0,6.35,0,6.31-1.22,7.68-.36.4-.97.88-1.35,1.09l-.71.38-22.86.05c-21.38.03-22.91.02-23.69-.26-1.05-.38-2.09-1.26-2.59-2.19-.38-.69-.38-.85-.38-6.57.02-5.52.03-5.95.4-7.25,1.41-5.09,5.26-9.21,10.65-11.4,1.41-.59,4.28-1.4,4.97-1.43.17-.02.91.38,1.64.85h.01Z"/>
</svg>