<?xml version="1.0" encoding="UTF-8"?>
<svg id="Vrstva_1" xmlns="http://www.w3.org/2000/svg" version="1.1" viewBox="0 0 110.14 99.67" color="#000000" stroke="currentColor" stroke-width="1.4" stroke-linecap="round" stroke-linejoin="round" data-line-weight="soft-metal-140">
  <!-- Generator: Adobe Illustrator 30.6.0, SVG Export Plug-In . SVG Version: 2.1.4 Build 109)  -->
  <path d="M52.67.07L14.28.17l-1,.48c-1.31.66-2.52,1.86-3.16,3.14l-.5,1.04-.05,13.99-.03,14.01-3.07.07c-2.76.05-3.14.1-3.86.45-.95.47-1.78,1.35-2.28,2.43-.35.76-.35,1.04-.31,6.75.07,6.81.09,6.95,1.57,8.33,1.17,1.1,1.73,1.24,4.76,1.21,1.43-.02,2.73,0,2.9.05.28.09.29.83.29,12.3v12.23l-.55.22c-.78.31-1.83,1.29-2.21,2.07-.48.95-.72,2.69-.53,4,.28,1.93,1.09,3.12,2.62,3.9.95.48,1.24.53,2.59.53h1.5l.07,4.26c.05,4.05.07,4.33.47,5.18.45,1,1.62,2.19,2.52,2.57.47.19,1.66.24,5.64.24,4.71,0,5.11-.03,5.83-.36,1-.45,1.66-1.07,2.21-2.14.47-.86.47-.88.52-5.31l.05-4.43,24.79.03,24.79.05.09,4.4c.1,4.9.14,5.07,1.33,6.38,1.17,1.31,1.36,1.35,7.13,1.41,5.02.05,5.11.03,5.9-.36.45-.21,1.14-.74,1.52-1.17,1.09-1.24,1.21-1.9,1.21-6.64v-4.11h1.38c2.4,0,4.05-.9,4.93-2.69.43-.88.48-1.16.47-2.81,0-1.52-.05-1.98-.38-2.69-.47-1.05-1.21-1.85-2.1-2.24l-.67-.31v-24.45l.74-.02c.4,0,1.74-.02,2.97-.03,2.64-.05,3.42-.33,4.55-1.6,1.19-1.35,1.22-1.62,1.22-8.25s-.02-6.57-1.21-7.94c-1.1-1.26-1.59-1.4-5.12-1.45l-3.14-.07-.05-13.73-.05-13.75-.4-.95c-.78-1.92-2.31-3.47-4-4.05-.52-.19-1.52-.29-2.93-.33-1.19-.02-19.43,0-40.54.05h-.03ZM94.68,2.67c1.22.26,2.26,1.04,2.83,2.16l.45.85v70.75H12.21l-.05-35.09c-.02-23,.02-35.3.14-35.73.24-.93.85-1.73,1.73-2.33l.78-.52,28.21-.09c15.51-.05,33.26-.12,39.46-.14,8.06-.05,11.51,0,12.22.14h-.02ZM9.5,42.42c.03,5.4-.02,6.92-.17,7.04-.12.07-1.26.14-2.52.14-2.62,0-3.3-.19-3.83-1.07-.33-.53-.35-.86-.35-6.12v-5.54l.47-.55c.24-.31.62-.62.81-.69.21-.09,1.54-.14,2.95-.12l2.59.03s.05,6.88.05,6.88ZM106.41,35.7c1.09.47,1.12.66,1.12,6.78,0,5.19-.02,5.52-.35,6.06-.57.91-1.21,1.09-4.02,1.04l-2.45-.05-.05-6.81c-.02-3.74,0-6.92.05-7.02.12-.33,4.9-.31,5.69.02v-.02ZM100.29,79.4c.78.53.85.76.86,2.43,0,1.57,0,1.6-.59,2.24l-.59.64-44.75.05c-40.79.05-44.79.02-45.27-.22-.83-.45-1.14-1.12-1.16-2.64,0-1.02.07-1.45.31-1.81.67-1.04-2.83-.97,45.98-.98,41.91,0,44.81.02,45.2.29h.01ZM27.65,91.48c0,3.71-.03,4.16-.33,4.59-.69,1.05-.74,1.07-5.45,1.12-4.74.05-5.09-.02-5.83-1.04-.33-.43-.35-.74-.33-4.4,0-2.16.02-4.04.02-4.16.02-.16,1.33-.21,5.97-.21h5.95v4.09h0ZM94.42,91.48c0,5.99.24,5.75-6.07,5.75s-5.83.24-5.83-5.78v-4.05h11.9v4.09h0Z"/>
  <path d="M23.82,18.56c-1.62.38-3.62,1.85-4.47,3.26-.64,1.07-.91,2.33-1.88,9.11-.59,3.95-1.28,8.75-1.57,10.65-.6,4-.59,4.83.22,6.33.91,1.71,2.36,2.71,4.47,3.07.78.14,11.21.17,35.09.14l33.99-.05,1.04-.41c1.98-.81,3.57-2.86,3.81-4.97.09-.76-.76-7.07-2.09-15.32-.22-1.43-.5-3.24-.6-4.05-.28-2.19-.5-3.09-1.09-4.18-.66-1.29-1.9-2.43-3.36-3.12l-1.16-.55-30.88-.03c-17.55,0-31.16.05-31.52.14v-.02ZM86.59,21.43c.83.45,1.74,1.43,2.09,2.28.24.57.5,2.04,1.26,7.18.17,1.22.67,4.61,1.1,7.49s.79,5.8.79,6.47c0,1.5-.41,2.33-1.52,3.12l-.76.52-34.18.05c-25.69.03-34.39,0-34.94-.16-.95-.26-1.97-1.24-2.24-2.17-.19-.66-.09-1.69,1.24-10.87.81-5.57,1.52-10.42,1.59-10.75.31-1.6,1.55-2.97,3.17-3.47.24-.07,14.22-.12,31.06-.1l30.62.03.71.38h.01Z"/>
  <path d="M21.72,58.75c-1.9.67-3.36,1.98-4.23,3.8-.4.85-.45,1.16-.45,2.85,0,1.79.03,1.97.55,3.04.67,1.38,1.92,2.59,3.3,3.23.88.41,1.19.47,2.88.47s2-.05,2.88-.47c2.81-1.31,4.47-4.45,3.95-7.44-.59-3.31-3.12-5.59-6.45-5.75-1.14-.07-1.62,0-2.43.28h0ZM25.05,61.26c3.67,1.09,4.11,6.19.66,7.94-2.09,1.07-4.69.19-5.75-1.95-.52-1.02-.47-3.04.1-3.93.71-1.16,1.66-1.88,2.85-2.17.81-.19,1.17-.17,2.14.12h0Z"/>
  <path d="M84.67,58.56c-4.21,1.12-6.4,5.4-4.88,9.47.45,1.21,1.97,2.85,3.24,3.49,3.54,1.78,7.82.31,9.45-3.24.59-1.31.72-3.49.29-4.97-.83-2.83-3.28-4.74-6.21-4.83-.76-.03-1.6.02-1.9.09h.01ZM88.14,61.47c1.43.74,2.29,2.19,2.31,3.88.02,3.83-4.52,5.76-7.21,3.05-.9-.9-1.24-1.73-1.24-3.02,0-1.9,1.09-3.49,2.85-4.14.9-.33,2.42-.22,3.3.22h0Z"/>
  <path d="M39.07,61.56c-.48.52-.5,1.38-.03,1.85.35.35.57.35,15.87.35,10.99,0,15.63-.05,15.92-.19.95-.43.95-1.78.02-2.21-.31-.14-4.78-.19-15.92-.19h-15.49l-.36.4h-.01Z"/>
  <path d="M39.56,67.32c-.91.33-1.19,1.6-.5,2.23.35.31.9.33,15.58.38,16.49.05,16.41.05,16.74-.85.22-.67,0-1.33-.59-1.62-.43-.22-2.43-.26-15.73-.24-8.38,0-15.36.05-15.49.1h-.01Z"/>
</svg>