<?xml version="1.0" encoding="UTF-8"?>
<svg id="Vrstva_1" xmlns="http://www.w3.org/2000/svg" version="1.1" viewBox="0 0 72.97 64.03">
  <!-- Generator: Adobe Illustrator 30.6.0, SVG Export Plug-In . SVG Version: 2.1.4 Build 109)  -->
  <defs>
    <style>
      .st0 {
        fill: #f4f7f8;
      }

      .st1 {
        fill: none;
      }

      .st2 {
        fill: #0c1f31;
      }
    </style>
  </defs>
  <path class="st1" d="M36.85,26.24c-.41,0-.8-.11-1.02-.35.22.25.61.35,1.02.35Z"/>
  <path class="st1" d="M35.7,25.73s.05.06.07.09c-.04-.06-.07-.13-.09-.2,0,.03,0,.08.02.11Z"/>
  <path class="st1" d="M37.7,22.54s0,.07.02.11c0-.03,0-.07-.02-.11-.25-.97-.38-2.06-.7-2.87,0-.01-.03-.02-.04,0h.04c.32.82.45,1.9.7,2.87Z"/>
  <path class="st1" d="M37.85,36.65c5.68-1.69,2.81-9.69-2.63-7.71l-.18.08c-4.47,2.07-1.86,8.81,2.81,7.63Z"/>
  <path class="st1" d="M37.21,26.22c-.1,0-.19.02-.29.02.1,0,.19,0,.29-.02Z"/>
  <path class="st1" d="M35.74,24.7c-.02.1-.04.22-.05.34.05-.23.11-.56.19-.95-.05.22-.1.42-.14.61Z"/>
  <path class="st1" d="M36.57,21c.14-.56.26-1.04.34-1.29-.06.14-.19.63-.34,1.29Z"/>
  <path class="st1" d="M37.56,26.17s-.11.02-.17.03c.06,0,.11-.02.17-.03Z"/>
  <path class="st1" d="M38.02,26.03c-.08.04-.18.07-.28.1.1-.03.2-.06.28-.1Z"/>
  <path class="st1" d="M35.66,25.19v.14-.14Z"/>
  <path class="st1" d="M57.43,59.67c-.03-3.39-.06-12.98-.11-14.71-.08-.27-.28-.22-.62-.26-.56-.02-1.79-.02-2.69-.04-.88.07-1.5-.3-1.38.78.03,3.14.03,16.28.09,18.07.23.49.74.37,1.44.48.92.07,2.27.03,2.86-.09l.1-.03c.13-.04.21-.09.26-.17.15-1.02,0-2.63.04-4.05v.02Z"/>
  <path class="st1" d="M43.27,54.57c-1.4-.38-3.45-.45-4.9-.06,0,.7.04,9.02.04,9.38,1.23.1,3.65.05,4.85.09h0c0-1.73.05-9.29,0-9.42h.01Z"/>
  <path class="st1" d="M71.5,47.67c-.03-7.05.02-13.83-.05-14.2-.96-.12-3.59,0-4.58-.03-.48,6.39-.03,28.51-.15,30.3,1.24.36,3.18.26,4.53,0l.09-.03c.08-.03.13-.05.15-.08.05-3.07,0-11.41,0-15.97h.01Z"/>
  <path class="st0" d="M35.68,25.62c.02.07.05.14.09.2.02.02.03.05.05.07.22.24.61.34,1.02.35h.08c.1,0,.19,0,.29-.02.06,0,.12,0,.18-.02.06,0,.11-.02.17-.03.06,0,.12-.03.18-.04.1-.03.2-.06.28-.1l.09-.07c.48-.66-.24-2.29-.4-3.31,0-.03,0-.07-.02-.11-.25-.97-.38-2.05-.7-2.87,0-.01-.03-.02-.04,0,0,0-.03.03-.04.05h0c-.08.25-.2.72-.34,1.29-.23.95-.5,2.17-.69,3.09-.08.38-.15.71-.19.95,0,.02,0,.05,0,.07v.22c0,.11,0,.21.03.3l-.03-.02Z"/>
  <g>
    <path class="st2" d="M72.89,23.14c.15-1.96-.62-4.23-2.69-4.3l-3.59-.14-.07-14.35c-.01-2.28-1.91-4.33-4.35-4.33L11.17,0c-2.89,0-4.84,2.02-4.84,4.85v13.86s-4.09.26-4.09.26C.65,19.08-.02,21.1,0,22.65l.07,5.5c.03,1.9,1.58,3.28,3.54,3.35l2.75.09v13.33c-2.17.92-2.51,2.98-2,4.84.5,1.86,2.27,2.63,4.4,2.37l.06,4.78c.02,1.67,1.68,2.53,3.22,2.53h5.67c1.41-.01,2.77-1.07,2.78-2.52l.02-4.79h31.92s.14,5.1.14,5.1c.04,1.45,1.61,2.23,3.08,2.23h5.66c1.41-.01,2.82-1.09,2.86-2.52l.13-4.83c2.67.48,4.28-.94,4.57-2.93.28-1.97-.34-3.6-2.38-4.42l.17-13.4c2.33.47,4.95.39,5.82-1.66.88-2.06.23-4.41.4-6.55ZM8.58,4.28c0-1.27,1.36-2.25,2.59-2.1l51.46-.02c1,.29,1.48.95,1.81,1.93l-.05,40.84-55.86-.04.04-40.62ZM2.39,28.94c-.28-2.61-.44-5.2.04-7.87l3.88-.1.12,8.25c-1.34.4-2.64.35-4.03-.28ZM10.9,57.19l.06-5.1h7.36s.07,5.11.07,5.11h-7.49ZM54.64,57.12l-.05-5h7.44s0,5.1,0,5.1l-7.4-.1ZM65.97,49.98l-58.95-.04c-.97-.19-1.03-2.85-.03-2.85l59.31.06c.78,0,.77,2.84-.33,2.84ZM70.51,28.58c-.32,1.2-3.05.97-3.89.64l-.08-8.07c1.25-.37,2.77-.45,4.15.13-.02,2.35.52,4.65-.17,7.29Z"/>
    <path class="st2" d="M60.63,14.53c-.41-2.7-2.21-4.25-5-4.25l-38.37-.02c-2.93,0-4.68,1.8-5.08,4.56l-1.62,11.16c-.3,2.05,1.2,4.49,3.55,4.49l44.77-.04c2.43,0,3.75-2.62,3.47-4.44l-1.73-11.47ZM58.44,28.34l-43.07.04c-1.01,0-2.87-.2-2.67-1.54l1.93-13.17c.64-.68,1.18-1.31,2.17-1.31l39.76.02c.71,0,1.24.82,1.66,1.27l2.04,12.29c.19,1.13-.42,2.39-1.8,2.39Z"/>
    <path class="st2" d="M26.64,37.55l19.98-.07c.62,0,.93-.97.62-1.43-.26-.37-.64-.64-1.42-.64l-19.55.06c-.69,0-.99,1.05-.72,1.46.16.25.48.62,1.09.61Z"/>
    <path class="st2" d="M45.81,39.62l-18.74-.02c-.89,0-1.54.31-1.58,1.12-.02.41.48,1.04,1.15,1.04l19.78-.02c.85,0,1.14-1.01.81-1.46-.29-.4-.62-.65-1.42-.65Z"/>
    <path class="st2" d="M55.81,34.11c-2.81.68-4.06,3.22-3.27,5.93.67,2.3,3.22,3.6,5.79,2.95,2.34-.59,3.78-3.35,3.1-5.64-.72-2.42-3.1-3.84-5.62-3.24ZM58.1,40.76c-.99.58-2.44.45-3.33-.96-.5-.79-.51-2.48.89-3.32,1.42-.85,2.97-.32,3.53,1.08.44,1.08.25,2.41-1.1,3.2Z"/>
    <path class="st2" d="M14.85,34.1c-2.89.65-4,3.51-3.34,5.71.78,2.58,3.13,3.69,5.33,3.29,2.8-.51,4.14-3.07,3.56-5.64-.52-2.31-2.9-3.96-5.56-3.36ZM17.48,40.54c-1.14.84-2.46.62-3.4-.39-.85-.92-1.03-2.65.33-3.58,1.37-.93,2.91-.45,3.73.81.61.94.41,2.37-.66,3.17Z"/>
  </g>
</svg>