<?xml version="1.0" encoding="UTF-8"?>
<svg id="Vrstva_1" xmlns="http://www.w3.org/2000/svg" version="1.1" viewBox="0 0 69.69 64.03">
  <!-- Generator: Adobe Illustrator 30.6.0, SVG Export Plug-In . SVG Version: 2.1.4 Build 109)  -->
  <defs>
    <style>
      .st0 {
        fill: #f4f7f8;
      }

      .st1 {
        fill: none;
      }

      .st2 {
        fill: #0c2135;
      }
    </style>
  </defs>
  <path class="st1" d="M35.03,26.24c-.41,0-.8-.11-1.02-.35.22.25.61.35,1.02.35Z"/>
  <path class="st1" d="M33.88,25.73s.05.06.07.09c-.04-.06-.07-.13-.09-.2,0,.03,0,.08.02.11Z"/>
  <path class="st1" d="M35.88,22.54s0,.07.02.11c0-.03,0-.07-.02-.11-.25-.97-.38-2.06-.7-2.87,0-.01-.03-.02-.04,0h.04c.32.82.45,1.9.7,2.87Z"/>
  <path class="st1" d="M36.03,36.65c5.68-1.69,2.81-9.69-2.63-7.71l-.18.08c-4.47,2.07-1.86,8.81,2.81,7.63Z"/>
  <path class="st1" d="M35.39,26.22c-.1,0-.19.02-.29.02.1,0,.19,0,.29-.02Z"/>
  <path class="st1" d="M33.92,24.7c-.02.1-.04.22-.05.34.05-.23.11-.56.19-.95-.05.22-.1.42-.14.61Z"/>
  <path class="st1" d="M34.75,21c.14-.56.26-1.04.34-1.29-.06.14-.19.63-.34,1.29Z"/>
  <path class="st1" d="M35.74,26.17s-.11.02-.17.03c.06,0,.11-.02.17-.03Z"/>
  <path class="st1" d="M36.2,26.03c-.08.04-.18.07-.28.1.1-.03.2-.06.28-.1Z"/>
  <path class="st1" d="M33.84,25.19v.14-.14Z"/>
  <path class="st1" d="M55.61,59.67c-.03-3.39-.06-12.98-.11-14.71-.08-.27-.28-.22-.62-.26-.56-.02-1.79-.02-2.69-.04-.88.07-1.5-.3-1.38.78.03,3.14.03,16.28.09,18.07.23.49.74.37,1.44.48.92.07,2.27.03,2.86-.09l.1-.03c.13-.04.21-.09.26-.17.15-1.02,0-2.63.04-4.05v.02h.01Z"/>
  <path class="st1" d="M41.45,54.57c-1.4-.38-3.45-.45-4.9-.06,0,.7.04,9.02.04,9.38,1.23.1,3.65.05,4.85.09h0c0-1.73.05-9.29,0-9.42h.01Z"/>
  <path class="st1" d="M69.68,47.67c-.03-7.05.02-13.83-.05-14.2-.96-.12-3.59,0-4.58-.03-.48,6.39-.03,28.51-.15,30.3,1.24.36,3.18.26,4.53,0l.09-.03c.08-.03.13-.05.15-.08.05-3.07,0-11.41,0-15.97h.01Z"/>
  <path class="st0" d="M33.86,25.62c.02.07.05.14.09.2.02.02.03.05.05.07.22.24.61.34,1.02.35h.08c.1,0,.19,0,.29-.02.06,0,.12,0,.18-.02.06,0,.11-.02.17-.03.06,0,.12-.03.18-.04.1-.03.2-.06.28-.1l.09-.07c.48-.66-.24-2.29-.4-3.31,0-.03,0-.07-.02-.11-.25-.97-.38-2.05-.7-2.87,0-.01-.03-.02-.04,0,0,0-.03.03-.04.05h0c-.08.25-.2.72-.34,1.29-.23.95-.5,2.17-.69,3.09-.08.38-.15.71-.19.95v.29c0,.11,0,.21.03.3l-.03-.02h0Z"/>
  <g>
    <path class="st2" d="M69.17,47.95c-1.44-6.91-12.35-10.26-19.61-11.95-.78-.18-1.32.78-1.07,1.34.62,1.43,16.48,3.2,18.57,10.91,1.39,5.12-7.26,9.45-13.19,11.08-12.55,3.44-25.99,3.44-38.56-.03-4.32-1.2-8.22-3.11-11.32-6.04-2.36-2.23-2.55-5.35-.28-7.7,2.77-2.86,6.31-4.7,10.12-5.75l6.22-1.71c.66-.18.71-.85.69-1.19-.02-.22-.3-.92-.71-.84-6.47,1.18-14.22,3.68-18.26,8.54-2.55,3.06-2.38,6.96.5,9.96,3.23,3.36,7.65,5.43,12.33,6.74,12.66,3.54,26.05,3.58,38.8.34,7.21-1.83,17.24-6.58,15.75-13.71Z"/>
    <path class="st2" d="M34.77,49.49c7.45-8.04,14.62-18.19,16.84-28.26,1.55-7.06-1.4-14.26-7.1-18.15-5.98-4.08-13.74-4.14-19.76-.01-5.63,3.86-8.63,11.01-7.09,18.13,2.15,9.92,9.62,20.77,17.11,28.29ZM33.04,2.21c8.26-.87,15.8,5.17,16.72,13.71.41,3.77-.71,7.29-2.13,10.91-3.14,7.08-7.31,13.26-13,19.54-6.96-7.75-13.63-17.54-15.19-27.5-.63-8.51,5.36-15.79,13.6-16.66Z"/>
    <path class="st2" d="M23.36,40.31c-5.75.35-13.77,4.25-13.59,8.76.15,3.68,4.11,6.34,8.11,7.66,9.99,3.32,20.85,3.5,31.07.86,4.96-1.28,10.85-4.48,10.5-8.96-.5-6.24-15.74-10.27-14.06-7.1.57,1.08,12,2.91,11.99,7.54,0,2.71-4.09,4.93-7.71,6.05-10.49,3.25-21.92,2.95-32.23-.8-1.78-.65-3.3-1.77-4.55-2.97-3.85-3.7,3.56-7.92,10.5-9.12.83-.14.71-1.99-.03-1.94Z"/>
    <path class="st2" d="M27.39,45.03c-.52-1.71-5.18.16-6.91,1.92-1.59,1.61-.75,4,1.1,5.08,8.12,4.73,25.55,3.21,27.75-1.84.47-1.08.31-2.47-.62-3.32-2.67-2.45-7.05-3.5-6.86-1.52.14,1.41,2.77.97,4.99,2.47.46.31.83,1.16.6,1.47-.19.24-.63.99-1.07,1.18-11.8,5.11-25.39.63-24.48-1.6,1.02-2.5,6.07-1.93,5.49-3.85Z"/>
    <path class="st2" d="M36.32,25.54c4.79-.96,7.5-5.59,6.44-9.98-1.1-4.53-5.28-7.31-9.89-6.35-4.75.98-7.37,5.55-6.39,9.93,1.04,4.65,5.56,7.27,9.85,6.41ZM33.68,11.17c3.64-.62,6.57,2.18,7.07,5.17.6,3.56-1.84,6.6-5.03,7.16-3.48.62-6.55-1.74-7.18-4.93-.67-3.38,1.44-6.77,5.14-7.41Z"/>
  </g>
</svg>