<?xml version="1.0" encoding="UTF-8"?>
<svg id="Vrstva_1" xmlns="http://www.w3.org/2000/svg" version="1.1" viewBox="0 0 103.21 99.84">
  <!-- Generator: Adobe Illustrator 30.6.0, SVG Export Plug-In . SVG Version: 2.1.4 Build 109)  -->
  <path d="M48.99.13c-9.7,1.02-18.03,7.19-21.88,16.18-3.9,9.11-2.61,19.08,4.23,32.82,2.33,4.64,3.59,6.83,6.28,10.89,3.19,4.81,6.85,9.56,10.83,14.08,2.95,3.36,3.07,3.4,4.78,1.64,2.23-2.29,6.68-7.82,9.7-12.03,7.9-11.06,12.99-21.84,14.82-31.44.53-2.78.55-6.85.02-9.71-.71-3.9-2.29-7.83-4.47-11.13-1.5-2.24-4.55-5.33-6.76-6.81C61.33,1.13,54.95-.49,48.99.13h0ZM53.94,2.74c10.73,1.09,19,8.75,21.2,19.63.79,3.88.64,7.63-.5,12.09-2.24,8.76-7.06,18.37-14.04,28.04-2.86,3.97-8.57,10.99-8.99,11.09-.41.09-6.37-7.19-9.49-11.59-3.76-5.3-6.07-9.13-8.64-14.34-2.59-5.23-3.88-8.7-4.99-13.2-.85-3.52-1.04-5.21-.91-8.32.17-4.87,1.5-8.95,4.23-13.08,1.28-1.92,4.5-5.16,6.42-6.42,4.83-3.17,10.11-4.5,15.72-3.92v.02Z"/>
  <path d="M49.23,13.76c-4,.67-7.71,3.54-9.54,7.33-.97,1.98-1.35,3.95-1.24,6.3.14,3.4,1.33,6.16,3.66,8.61,2.17,2.26,4.81,3.57,8.02,3.99,1.4.19,1.9.17,3.42-.07,3.16-.5,5.47-1.73,7.69-4.09,2.16-2.29,3.31-5,3.5-8.18.43-7.66-5.71-14.15-13.27-14.04-.79.02-1.79.09-2.24.16h0ZM54.01,16.43c3.9.98,7.13,4.3,7.94,8.13.78,3.66-.22,7.11-2.83,9.73-2.95,2.98-7.09,3.97-11.02,2.61-3.42-1.19-6.02-4.11-6.87-7.69-.4-1.74-.26-4.24.33-5.95,1.14-3.23,3.88-5.78,7.26-6.75,1.33-.38,3.83-.41,5.19-.07h0Z"/>
  <path d="M72.98,58.7c-1.02,1-.31,1.97,1.74,2.4,13.77,2.97,23.79,8.66,25.6,14.54,1.6,5.23-2.24,10.39-10.96,14.63-7.06,3.45-15.87,5.59-27.52,6.68-3.12.29-16.72.29-19.84,0-9.42-.88-16.84-2.33-22.95-4.52-3.07-1.09-7.45-3.21-9.66-4.66-1.9-1.24-4.62-3.92-5.49-5.37-1.79-3.05-1.76-6.14.07-8.95,2.04-3.09,6.8-6.42,12.32-8.59,3.81-1.52,5.94-2.14,13.16-3.86,1.22-.29,1.41-1.92.29-2.38-.62-.26-3,.24-7.94,1.66-3.93,1.12-6.3,2-9.32,3.45-6.56,3.17-10.51,6.81-12.01,11.11-.55,1.64-.64,4.18-.17,5.76,1.38,4.71,5.87,8.95,12.82,12.16,2.86,1.31,4.11,1.79,6.97,2.71,13.6,4.38,33.28,5.59,49.84,3.07,16.06-2.45,28.02-8.23,31.9-15.42,1.86-3.49,1.85-6.83-.09-10.33-3.23-5.87-11.92-10.71-24.65-13.73-1.79-.43-3.38-.78-3.5-.78s-.41.19-.64.43h.03Z"/>
  <path d="M31.4,65.07c-8.11,2.1-13.91,5.62-15.89,9.66-.66,1.33-.67,1.45-.67,3.12s.02,1.79.67,3.12c.76,1.55,2.55,3.47,4.35,4.69,5.73,3.85,15.23,6.42,26.47,7.13,3.85.24,11.11.1,14.67-.28,13.85-1.48,23.9-5.83,26.74-11.56,2.66-5.33-1.78-11.06-11.21-14.46-2.67-.97-6.99-2.07-7.52-1.95-.59.16-.93.59-.93,1.19,0,.98.19,1.1,3.02,1.81,5.99,1.52,10.59,3.76,12.97,6.3,1.4,1.5,1.86,2.48,1.86,3.92-.02,5.56-10.06,10.44-25.1,12.18-3.21.36-11.11.5-14.75.26-12.46-.85-22.96-4.18-26.95-8.54-1.28-1.38-1.69-2.33-1.69-3.81,0-1.57.47-2.54,1.97-4.07,1.35-1.35,3-2.45,5.45-3.64,1.92-.91,6.75-2.55,8.52-2.92,1.36-.26,1.92-.67,1.92-1.45,0-.66-.64-1.29-1.28-1.29-.19.02-1.36.28-2.61.59h0Z"/>
  <path d="M36.62,71.21c-2.78.91-4.28,1.76-5.68,3.11-.95.95-1.19,1.29-1.43,2.16-.26.86-.28,1.14-.09,1.93.76,3.45,6.35,6.14,15.15,7.32,3.67.5,10.11.53,13.49.09,9.33-1.24,14.77-3.74,15.72-7.25.79-2.93-2-5.62-7.68-7.45-1.78-.57-2-.6-2.45-.4-.66.33-.91,1.07-.57,1.67.21.38.64.59,2.31,1.16,1.14.4,2.64,1,3.33,1.36,1.41.76,2.62,1.97,2.62,2.66,0,2.35-6.06,4.88-13.65,5.71-10.16,1.12-21.39-.78-24.95-4.23-1.02-.97-1.16-1.52-.6-2.35.78-1.19,3.47-2.66,6.07-3.31,1.78-.45,2.29-.83,2.29-1.67,0-.69-.57-1.19-1.33-1.19-.29.02-1.45.31-2.57.69h.02Z"/>
</svg>