<?xml version="1.0" encoding="UTF-8"?>
<svg id="Vrstva_1" xmlns="http://www.w3.org/2000/svg" version="1.1" viewBox="0 0 1361.37 660.74">
  <!-- Generator: Adobe Illustrator 30.6.0, SVG Export Plug-In . SVG Version: 2.1.4 Build 109)  -->
  <g>
    <path d="M952.07.13c-9.7,1.02-18.03,7.19-21.88,16.18-3.9,9.11-2.61,19.08,4.23,32.82,2.33,4.64,3.59,6.83,6.28,10.89,3.19,4.81,6.85,9.56,10.83,14.08,2.95,3.36,3.07,3.4,4.78,1.64,2.23-2.29,6.68-7.82,9.7-12.03,7.9-11.06,12.99-21.84,14.82-31.44.53-2.78.55-6.85.02-9.71-.71-3.9-2.29-7.83-4.47-11.13-1.5-2.24-4.55-5.33-6.76-6.81-5.21-3.49-11.59-5.11-17.55-4.49ZM957.02,2.74c10.73,1.09,19,8.75,21.2,19.63.79,3.88.64,7.63-.5,12.09-2.24,8.76-7.06,18.37-14.04,28.04-2.86,3.97-8.57,10.99-8.99,11.09-.41.09-6.37-7.19-9.49-11.59-3.76-5.3-6.07-9.13-8.64-14.34-2.59-5.23-3.88-8.7-4.99-13.2-.85-3.52-1.04-5.21-.91-8.32.17-4.87,1.5-8.95,4.23-13.08,1.28-1.92,4.5-5.16,6.42-6.42,4.83-3.17,10.11-4.5,15.72-3.92Z"/>
    <path d="M952.31,13.76c-4,.67-7.71,3.54-9.54,7.33-.97,1.98-1.35,3.95-1.24,6.3.14,3.4,1.33,6.16,3.66,8.61,2.17,2.26,4.81,3.57,8.02,3.99,1.4.19,1.9.17,3.42-.07,3.16-.5,5.47-1.73,7.69-4.09,2.16-2.29,3.31-5,3.5-8.18.43-7.66-5.71-14.15-13.27-14.04-.79.02-1.79.09-2.24.16ZM957.09,16.43c3.9.98,7.13,4.3,7.94,8.13.78,3.66-.22,7.11-2.83,9.73-2.95,2.98-7.09,3.97-11.02,2.61-3.42-1.19-6.02-4.11-6.87-7.69-.4-1.74-.26-4.24.33-5.95,1.14-3.23,3.88-5.78,7.26-6.75,1.33-.38,3.83-.41,5.19-.07Z"/>
    <path d="M976.06,58.7c-1.02,1-.31,1.97,1.74,2.4,13.77,2.97,23.79,8.66,25.6,14.54,1.6,5.23-2.24,10.39-10.96,14.63-7.06,3.45-15.87,5.59-27.52,6.68-3.12.29-16.72.29-19.84,0-9.42-.88-16.84-2.33-22.95-4.52-3.07-1.09-7.45-3.21-9.66-4.66-1.9-1.24-4.62-3.92-5.49-5.37-1.79-3.05-1.76-6.14.07-8.95,2.04-3.09,6.8-6.42,12.32-8.59,3.81-1.52,5.94-2.14,13.16-3.86,1.22-.29,1.41-1.92.29-2.38-.62-.26-3,.24-7.94,1.66-3.93,1.12-6.3,2-9.32,3.45-6.56,3.17-10.51,6.81-12.01,11.11-.55,1.64-.64,4.18-.17,5.76,1.38,4.71,5.87,8.95,12.82,12.16,2.86,1.31,4.11,1.79,6.97,2.71,13.6,4.38,33.28,5.59,49.84,3.07,16.06-2.45,28.02-8.23,31.9-15.42,1.86-3.49,1.85-6.83-.09-10.33-3.23-5.87-11.92-10.71-24.65-13.73-1.79-.43-3.38-.78-3.5-.78s-.41.19-.64.43Z"/>
    <path d="M934.48,65.07c-8.11,2.1-13.91,5.62-15.89,9.66-.66,1.33-.67,1.45-.67,3.12s.02,1.79.67,3.12c.76,1.55,2.55,3.47,4.35,4.69,5.73,3.85,15.23,6.42,26.47,7.13,3.85.24,11.11.1,14.67-.28,13.85-1.48,23.9-5.83,26.74-11.56,2.66-5.33-1.78-11.06-11.21-14.46-2.67-.97-6.99-2.07-7.52-1.95-.59.16-.93.59-.93,1.19,0,.98.19,1.1,3.02,1.81,5.99,1.52,10.59,3.76,12.97,6.3,1.4,1.5,1.86,2.48,1.86,3.92-.02,5.56-10.06,10.44-25.1,12.18-3.21.36-11.11.5-14.75.26-12.46-.85-22.96-4.18-26.95-8.54-1.28-1.38-1.69-2.33-1.69-3.81,0-1.57.47-2.54,1.97-4.07,1.35-1.35,3-2.45,5.45-3.64,1.92-.91,6.75-2.55,8.52-2.92,1.36-.26,1.92-.67,1.92-1.45,0-.66-.64-1.29-1.28-1.29-.19.02-1.36.28-2.61.59Z"/>
    <path d="M939.7,71.21c-2.78.91-4.28,1.76-5.68,3.11-.95.95-1.19,1.29-1.43,2.16-.26.86-.28,1.14-.09,1.93.76,3.45,6.35,6.14,15.15,7.32,3.67.5,10.11.53,13.49.09,9.33-1.24,14.77-3.74,15.72-7.25.79-2.93-2-5.62-7.68-7.45-1.78-.57-2-.6-2.45-.4-.66.33-.91,1.07-.57,1.67.21.38.64.59,2.31,1.16,1.14.4,2.64,1,3.33,1.36,1.41.76,2.62,1.97,2.62,2.66,0,2.35-6.06,4.88-13.65,5.71-10.16,1.12-21.39-.78-24.95-4.23-1.02-.97-1.16-1.52-.6-2.35.78-1.19,3.47-2.66,6.07-3.31,1.78-.45,2.29-.83,2.29-1.67,0-.69-.57-1.19-1.33-1.19-.29.02-1.45.31-2.57.69Z"/>
  </g>
  <g>
    <path d="M43.71,14.7c-4.45.47-7.56,1.05-10.44,1.98-5.57,1.81-9.68,3.93-14.48,7.52-2.38,1.78-6.52,5.87-8.3,8.16-5.11,6.64-8.42,13.99-9.75,21.74-3,17.39,3.09,34.4,16.22,45.34,2.73,2.26,7.78,5.56,8.56,5.56.16,0,.48-.17.74-.36.4-.31.47-.48.41-1.09-.05-.69-.09-.72-1.35-1.47-6.97-4.05-12.47-9.42-16.37-15.94-8.38-14.04-8.42-32.3-.09-46.65,7.37-12.7,20.01-20.82,34.4-22.15,2.59-.24,7.66-.1,10.06.28,6.71,1.05,12.59,3.31,18.06,6.99,7.19,4.83,13.2,12.22,16.37,20.19.83,2.12,1.95,5.66,2.19,6.95.22,1.31,1.29,1.86,2.21,1.14.45-.35.48-.47.4-1.17-.29-2.33-2.04-7.33-3.92-11.15-6.83-13.89-20.19-23.55-35.37-25.55-1.92-.24-8.18-.45-9.58-.31Z"/>
    <path d="M46.27,24.07c-.31.31-.36.62-.48,3.42-.12,3.36-.05,4.19.45,4.64.47.41,1.29.38,1.76-.09.36-.36.38-.5.36-3.69,0-1.83-.05-3.52-.12-3.76-.21-.79-1.35-1.09-1.97-.52Z"/>
    <path d="M23.3,32.89c-.48.21-.79.88-.66,1.41.09.36,2.97,4.04,4.35,5.52.72.79,1.41.88,2.05.22.78-.76.66-1-2.38-4.71-2.21-2.69-2.4-2.83-3.36-2.45Z"/>
    <path d="M69.63,33.06c-.43.35-3.5,3.88-4.38,5.07-.78,1.02-.31,2.35.79,2.35.66,0,.85-.17,3.14-2.93,2.61-3.09,2.86-3.66,2.09-4.38-.53-.47-1.14-.5-1.64-.1Z"/>
    <path d="M46.32,37.92c-.43.38-.53.88-2,9.7l-1.57,9.3-1.16,1.07c-1.79,1.67-2.62,3.54-2.62,5.95.02,4.49,3.54,7.94,8.13,7.94,4.43-.02,7.92-3.47,7.92-7.85,0-2.21-.95-4.45-2.55-6.06l-1.02-1.02-.55-3.36c-.74-4.43-2.59-14.84-2.71-15.23-.09-.28-.9-.81-1.26-.81-.09,0-.36.17-.6.38ZM47.96,51.19c.38,2.23.71,4.18.72,4.37.03.29-.09.31-1.52.29-.85-.02-1.57-.07-1.6-.09-.05-.05,1.31-8.14,1.45-8.54.03-.14.12-.21.17-.16s.4,1.92.78,4.12ZM48.85,58.7c1.1.38,2.42,1.59,3,2.79.41.85.48,1.19.48,2.45s-.07,1.59-.48,2.38c-1.09,2.07-2.83,3.05-5.14,2.93-2.1-.12-3.85-1.29-4.66-3.14-.53-1.19-.55-3.28-.03-4.43,1.17-2.61,4.14-3.9,6.83-2.98Z"/>
    <path d="M10.67,54.16c-.79.4-.91,1.79-.17,2.19.48.26,6.28,1.55,6.95,1.55.35,0,.71-.12.86-.31.4-.43.38-1.47-.02-1.83-.24-.21-6.64-1.85-7.14-1.83-.03,0-.24.1-.48.22Z"/>
    <path d="M82.01,62.47l-.43.41-.02,4.02c0,4.07,0,6.19.02,26.67v11.44l.43.41.41.43h9.66l.48-.41.48-.41.05-21,.03-20.98-.5-.52-.5-.5h-9.71l-.41.43ZM90.52,83.9l-.05,19.46h-6.38l-.05-19.24c-.02-10.58,0-19.34.05-19.46.05-.16.88-.21,3.28-.21h3.19l-.03,19.44Z"/>
    <path d="M64.93,76.17c-.19.09-.5.33-.69.53-.33.38-.35.64-.35,14.35v13.97l.48.41.48.41h9.83l.41-.43.43-.41v-27.95l-.41-.48-.41-.48-4.73-.03c-2.59-.02-4.87.03-5.06.1ZM72.97,90.2c.02,6.38.03,11.9.05,12.27.03.35-.05.72-.16.81-.14.12-1.4.16-3.3.14l-3.09-.05-.05-12.39-.03-12.37h6.56l.02,11.59Z"/>
    <path d="M17.23,78.19c-1.57.9-2.98,1.79-3.14,1.98-.69.81-.14,2.05.9,2.05.52,0,5.95-2.97,6.59-3.59.5-.5.55-1.12.14-1.64-.64-.81-1.26-.66-4.49,1.19Z"/>
    <path d="M46.99,88.48c-.78.45-.76.36-.78,8.71v7.97l.45.35c.45.35.67.36,5.35.36h4.88l.48-.41.48-.41.02-7.66c.02-8.26-.02-8.61-.88-8.94-.66-.24-9.56-.22-10.01.03ZM55.27,97.15v6.21l-2.93.05c-1.6.02-3.11,0-3.31-.05l-.4-.09v-12.42l3.33.03,3.31.05v6.21Z"/>
  </g>
  <g>
    <path d="M508.49,382c-.9.05-2.4.31-3.31.55-2.71.72-3.61,1.33-3.64,2.43-.02.71-.41.24,6.44,7.4,2.61,2.74,4.83,5.16,4.95,5.35.12.21.21.72.22,1.12,0,.71-.09.85-1.16,1.98-3.3,3.5-6.37,6.61-6.68,6.8-.28.16-.45.14-.79-.03-.26-.14-3.02-2.85-6.16-6.02-5.59-5.68-5.71-5.8-6.38-5.8-.91,0-1.28.41-1.92,2.28-2.61,7.42-.88,15.67,4.45,21.26,4.02,4.19,9.4,6.49,15.27,6.49,1.73,0,2.83-.12,5.68-.67l.83-.16,1.36,1.26c.74.69,2.36,2.29,3.59,3.57l2.23,2.31-3.04,3.11c-1.67,1.69-4.52,4.61-6.33,6.45s-6.4,6.5-10.2,10.35-7.19,7.44-7.56,7.95c-2.57,3.88-2.04,8.97,1.33,12.32,3.73,3.74,9.21,3.83,13.15.22,1.09-1,6.88-7.44,11.3-12.54,5.83-6.75,13.32-15.29,13.44-15.34.07-.02,3.61,3.55,7.88,7.94,10.44,10.73,18.81,19.25,19.67,20.03,1.88,1.69,4.05,2.54,6.47,2.54,6.63,0,11.23-6.52,9.06-12.8-.22-.64-.67-1.59-.98-2.09-.35-.55-6.5-6.85-15.92-16.3-8.45-8.45-15.37-15.46-15.37-15.55s2.17-2.52,4.85-5.4c2.66-2.86,6.26-6.78,8.02-8.68,5.54-6,8.4-8.87,9.11-9.06.35-.1,2.02-.48,3.71-.86,1.9-.41,3.23-.79,3.43-.98.69-.64,7.88-11.63,7.88-12.06,0-.33-.72-1.19-2.92-3.49-4.12-4.33-4.59-4.74-5.18-4.64-.26.05-1.09.52-1.85,1.04-.74.52-3.23,2.12-5.5,3.55-2.28,1.45-4.28,2.76-4.43,2.92-.21.19-.59,1.52-1.09,3.74-.43,1.9-.86,3.76-.97,4.14-.16.59-1.86,2.36-11.09,11.65-5.99,6.02-10.97,10.96-11.08,10.96-.22,0-8.75-8.7-9.02-9.2-.16-.29-.1-.79.26-2.4.6-2.69.76-7.25.35-9.66-.79-4.55-2.92-8.83-5.87-11.85-3.38-3.43-8.2-5.78-12.47-6.06-.74-.05-1.57-.12-1.86-.14-.28-.03-1.26,0-2.16.07ZM514.73,385.05c3.12.85,6.11,2.54,8.32,4.74,1.52,1.54,2.45,2.86,3.55,5.18,2.04,4.21,2.48,8.87,1.36,14.1-.57,2.64-.59,3.11-.16,3.99.47.91,2.5,2.98,27.88,28.45,12.15,12.2,19.22,19.41,19.6,20.01,1.05,1.64,1.47,3.42,1.19,5.06-.5,2.97-2.73,5.24-5.68,5.81-1.54.31-2.81.14-4.26-.59q-1.35-.67-13.99-13.65c-3.61-3.71-11.28-11.58-17.08-17.51-5.78-5.94-11.9-12.22-13.6-13.97-4.31-4.49-4.54-4.62-7.25-4-6,1.38-11.35.41-15.73-2.86-5.04-3.74-7.71-9.35-7.44-15.55.09-1.95.52-4.42.83-4.76.1-.1,2.05,1.78,5.12,4.9,5.4,5.54,5.83,5.88,7.57,5.88,1.64,0,1.6.03,6.56-5.12,2.21-2.31,3.66-3.97,3.85-4.42.38-.81.45-2.57.16-3.61-.19-.69-1.38-2.04-7.56-8.42l-3.16-3.28.48-.19c1.92-.74,6.92-.85,9.42-.19ZM578.02,388.91l2.45,2.55-3.23,4.87c-1.78,2.69-3.26,4.92-3.3,4.95s-1.57.4-3.42.81c-1.85.4-3.61.86-3.92,1.04-.31.16-.98.69-1.5,1.17-1,.93-11.34,11.92-16.08,17.1-1.57,1.71-3.28,3.55-3.8,4.11l-.95,1-1.55-1.55-1.55-1.57,1.98-2.02c1.09-1.12,5.12-5.21,8.99-9.11,3.85-3.88,8.04-8.16,9.33-9.49l2.33-2.42.29-1.29c.17-.71.45-2,.62-2.85.17-.86.45-2.07.6-2.71l.29-1.14,3.12-2c1.73-1.1,3.85-2.45,4.69-3.02.86-.57,1.67-1.02,1.83-1s1.4,1.17,2.74,2.57ZM529.62,438.36l4.11,4.19-.35.38c-.19.21-1.57,1.81-3.07,3.57-3.12,3.64-5.07,5.88-8.28,9.58-12.3,14.11-13.08,14.96-14.58,15.67-4.33,2.1-9.18-.45-10.01-5.26-.24-1.36-.05-2.62.64-4.16.53-1.17.31-.95,17.82-18.82,5.07-5.18,9.32-9.4,9.44-9.37.1.02,2.04,1.92,4.28,4.23Z"/>
    <path d="M567.75,461.36c-2.85,1.05-3.16,5.09-.5,6.37.83.41,1.98.48,2.9.17.81-.26,1.95-1.54,2.1-2.33.29-1.57-.38-3.21-1.6-3.93-.67-.38-2.19-.53-2.9-.28ZM569.46,463.95c.55.43.59,1.07.07,1.43-.55.38-1.1.35-1.41-.1-.38-.53-.35-.78.16-1.26.5-.52.6-.53,1.19-.07Z"/>
  </g>
  <g>
    <path d="M676.17,382.93c-6.76,1.24-12.8,6.99-16.84,15.99-2.95,6.59-4.93,14.8-5.75,23.77-.26,2.76-.26,9.61,0,12.51,1.09,12.56,4.57,23.86,9.47,30.8,3.12,4.43,7.04,7.42,11.32,8.66l1.38.4h30.71l1.29-.4c5.52-1.73,10.56-7.35,14.03-15.65,2.86-6.92,4.71-14.96,5.3-23.12.22-3.16.22-9.71-.02-12.77-1.22-16.55-6.78-30.85-14.34-36.9-1.62-1.31-3.93-2.54-5.83-3.07-1.28-.38-1.52-.38-15.36-.41-11.4-.03-14.3,0-15.37.19ZM681.02,385.38c0,.05-.72.85-1.6,1.76-2.02,2.09-3.38,4.16-5.18,7.82-.78,1.59-1.45,2.9-1.5,2.9s-.45-.72-.9-1.6c-.93-1.81-2.35-3.62-3.49-4.45-.43-.31-.79-.66-.79-.78,0-.24,1.55-1.71,2.85-2.67,2-1.5,4.64-2.59,7-2.9,1.38-.19,3.61-.22,3.61-.07ZM696.03,385.62c-2.04,1.64-3.05,2.59-4.07,3.76-1.09,1.28-1.24,1.4-1.97,1.48-1.62.22-4.24.97-5.59,1.59-1.43.67-3.28,1.92-4.93,3.31-1.69,1.43-3.71,2.74-3.92,2.55-.17-.17,2.12-4.64,3.24-6.33,1.85-2.76,4.61-5.37,6.45-6.11,1.24-.5,2.19-.59,6.73-.6h4.49l-.43.35ZM706.29,385.69c4.87,1.26,9.23,6,12.65,13.72,4.93,11.11,6.95,26.43,5.28,39.85-1.54,12.34-5.69,23.08-11.06,28.66-4.16,4.31-9.14,5.73-13.32,3.78-4.4-2.07-8.99-7.87-11.47-14.56-4.54-12.11-5.92-27.21-3.8-40.99,1.76-11.34,4.99-19.72,9.82-25.53,2.02-2.42,4.68-4.28,7.04-4.92,1.21-.33,3.61-.33,4.87,0ZM667.08,394.04c.64.59,1.41,1.59,1.9,2.38.86,1.47,2.38,4.69,2.38,5.07,0,.14-.29,1.14-.67,2.23-.91,2.73-1.66,5.4-2.17,7.85-.24,1.12-.43,2.12-.43,2.19,0,.47-.45-.07-1.28-1.55-.52-.91-1.33-2.24-1.81-2.92-.95-1.35-2.97-3.19-4.24-3.86-.47-.24-.78-.53-.78-.71,0-.81,2.33-6.23,3.55-8.3,1.07-1.78,2.17-3.4,2.33-3.4.09,0,.64.45,1.22,1.02ZM687.57,396.33c-1.28,2.67-2.35,5.4-3.19,8.23l-.38,1.29-1.38.45c-2.66.88-4.42,2.04-7.37,4.8-1.95,1.83-4.45,3.66-4.55,3.35-.22-.67,2.59-10.75,3.31-11.85.14-.21,1.45-1.09,2.92-1.97,1.48-.9,3.64-2.38,4.83-3.36,2.54-2.05,3.62-2.74,5.24-3.3,2.14-.76,2.12-.83.57,2.36ZM660.09,408.05c1.21.85,2.47,2.23,3.5,3.85,1.73,2.73,2.45,3.8,3.14,4.62l.69.83-.28,2.71c-.35,3.42-.62,7.32-.62,9.09v1.35l-.38-.24c-.22-.14-1.07-1.14-1.88-2.23-2.36-3.14-4.57-4.92-7.13-5.78l-.83-.28.12-1.16c.47-4.76,2.21-13.3,2.71-13.3.09,0,.52.24.95.53ZM683.05,409.45c-.05.31-.33,1.85-.62,3.42-.28,1.57-.66,4-.81,5.43-.48,4.42-.35,4-1.64,4.47-2.52.88-4.28,2.09-6.73,4.61-1.93,1.97-3.42,3.26-3.76,3.26-.22,0-.24-.47-.16-3.33.1-3.47.55-8.59.79-9.18.09-.19.76-.69,1.5-1.1,1.97-1.09,3.21-2.02,5.33-3.99,2.35-2.16,3.33-2.92,4.66-3.61,1.35-.69,1.52-.69,1.43.02ZM657.43,425.15c1.29.69,2.95,2.21,4.26,3.93,1.26,1.64,2.57,2.9,3.85,3.71.55.35,1.04.72,1.07.83.03.12.16,1.26.26,2.54.22,2.71.72,6.38,1.19,8.63.22,1.14.26,1.55.1,1.55-.1,0-1.09-.79-2.17-1.76-3.47-3.09-5.99-4.73-8.3-5.4-.55-.16-1.04-.35-1.09-.43-.41-.66-.86-13.66-.48-14.03.16-.17.17-.17,1.31.43ZM681.07,431.1c.05,3.31.16,6.21.21,6.45.1.43.03.5-1.5,1.24-2.31,1.14-3.97,2.55-6.28,5.33-1.09,1.31-2.07,2.38-2.21,2.38-.12,0-.28-.26-.35-.57-.53-2.62-1.48-10.11-1.48-11.59.02-.67.03-.71,1.33-1.47.91-.53,2.14-1.57,4-3.36,2.81-2.73,3.3-3.11,4.74-3.9,1.55-.86,1.43-1.29,1.54,5.49ZM681.79,441.62c.33,2.24,1.17,6.59,1.71,8.64l.59,2.29-.9.45c-1.21.6-2.92,1.98-3.88,3.14-.43.53-1.36,1.88-2.05,3-.69,1.1-1.35,2.02-1.43,2.02-.4,0-2.48-5.69-3.54-9.61l-.47-1.76,1.47-1.43c.81-.79,2.1-2.26,2.88-3.28,1.52-1.98,2.24-2.67,3.9-3.66,1.41-.83,1.59-.81,1.73.19ZM658.57,442.37c1.4.67,2.59,1.52,5.54,3.97,1.28,1.05,2.92,2.31,3.62,2.79.71.47,1.31.88,1.35.9.02.03.31,1.05.64,2.28.76,2.79,1.5,5.02,2.36,7.13.36.9.66,1.66.66,1.69,0,.24-.76-.19-3.09-1.73-3.66-2.42-4.73-3-7.16-3.83l-2.09-.72-.48-1.36c-1.05-2.97-2.1-7.14-2.78-10.99-.16-.79-.03-.81,1.43-.12ZM685.52,457.12c.74,2.05,2.38,5.56,3.35,7.16.33.55.6,1.07.6,1.14,0,.09-.6.47-1.33.85-1.59.85-3.12,2.28-4.35,4.11-.5.74-1,1.31-1.1,1.28-.67-.21-3.69-4.24-5.04-6.71l-.64-1.17.76-.9c.43-.5,1.35-1.76,2.05-2.79s1.69-2.35,2.19-2.88c.93-1.02,2.38-2.1,2.67-2,.09.02.47.9.83,1.93ZM663.85,458.77c.76.38,2.28,1.31,3.36,2.09,2.74,1.93,4.3,2.85,5.75,3.33l1.24.41,1.21,2c.67,1.1,1.83,2.83,2.59,3.85s1.41,1.9,1.43,1.97c.03.09-.5.14-1.21.14-5.09-.02-10.23-3.49-13.91-9.4-.88-1.45-2.62-4.83-2.62-5.14,0-.21.62,0,2.16.76ZM692.3,469.19c.64.71,1.71,1.74,2.36,2.28s1.19,1.05,1.19,1.12c0,.16-10.08.19-10.23.03-.17-.17,1.21-2.04,2.23-3,.88-.83,2.43-1.73,3.02-1.73.16,0,.79.59,1.43,1.29Z"/>
    <path d="M702.25,399.68c-1.43.38-2.55,1.07-3.9,2.4-2.73,2.67-4.83,7.13-6.37,13.42-2.73,11.13-1.62,25.79,2.64,35.32,3.26,7.3,8.71,10.04,13.73,6.94,1.04-.66,2.59-2.33,3.71-4.05,2.31-3.5,4.19-9.59,5.11-16.51.43-3.28.52-11.44.17-14.8-.83-7.75-2.79-14.11-5.68-18.29-2.48-3.61-6.11-5.31-9.42-4.42ZM706.31,402.51c3.8,1.83,6.92,8.9,8.3,18.81.43,3.12.43,11.7,0,15.18-.9,7.23-3.02,13.68-5.57,17.03-1.69,2.21-3.81,3.24-5.78,2.83-1.21-.26-1.79-.6-2.95-1.71-1.98-1.88-3.71-5.28-5.07-9.96-1.35-4.59-1.95-8.8-2.09-14.49-.19-7.45.95-14.37,3.3-20,2.09-5.02,4.04-7.44,6.52-8.13,1.16-.31,2.02-.19,3.35.43Z"/>
  </g>
  <g>
    <path d="M1122.99,390.11c-.9.21-2.24.91-2.98,1.57-.9.79-1.86,2.35-2.19,3.54-.29,1.04-3.81,20.34-5.59,30.68-.14.85-.35,1.66-.43,1.76-.12.16-.79.22-2.19.22-1.1,0-2.29.09-2.66.19-.81.22-1.93,1.21-2.38,2.07-.31.64-.33,1.24-.33,19.38s.02,18.77.31,19.72c.74,2.36,2.43,4.05,4.85,4.88,1.04.35,1.24.35,44.25.35s43.24-.02,44.25-.33c1.41-.43,2.38-1.04,3.33-2.05.9-.97,1.36-1.78,1.76-3.12.24-.85.28-2.93.28-19.41v-18.48l-.41-.86c-.45-.97-1.14-1.67-1.92-2-.29-.14-1.6-.26-3.02-.33l-2.5-.09-.12-.78c-.07-.43-.41-3.42-.76-6.64-1.81-17.15-2.66-24.38-3-25.36-.71-2.04-2.14-3.67-3.97-4.55l-.95-.45-31.49-.03c-17.94,0-31.76.05-32.14.14ZM1186.64,392.87c.9.43,1.9,1.5,2.35,2.5.4.93.57,2.17,1.78,13.61.52,4.93,1.17,11.09,1.45,13.7.29,2.61.48,4.8.43,4.88-.05.07-1.48.14-3.17.14-3.35,0-4.45.16-5.78.81-1.4.72-1.73,1.04-4.97,4.8-7.52,8.76-7.16,8.4-8.8,8.83-1.17.29-31.37.33-32.47.03-1.04-.29-1.71-.86-4.16-3.61-3.9-4.37-7.33-8.11-8.04-8.8-.93-.9-2.42-1.66-3.66-1.88-.57-.1-2.38-.19-4.02-.19-2.74,0-2.98-.02-2.98-.31,0-.17.22-1.47.5-2.88.69-3.45,1.16-6.11,2.61-14.41,2.74-15.73,2.57-15.01,3.78-16.22,1.47-1.47-1.5-1.35,33.38-1.36,31-.02,31.06-.02,31.78.35ZM1122.13,430.74c.83.31,2.92,2.4,7.28,7.32,5.11,5.76,5.75,6.31,7.94,6.73,1.33.24,31.37.24,32.73-.02,1.48-.28,2.69-.91,3.81-2.02.55-.55,2.83-3.12,5.07-5.73,2.24-2.61,4.42-5.07,4.85-5.45,1.29-1.19,1.28-1.19,9.16-1.19h7.06l.33.41c.33.4.33.85.29,18.98l-.05,18.56-.4.72c-.48.93-1.4,1.85-2.33,2.33l-.72.4-43.05.05c-37.68.03-43.15,0-43.93-.22-1.12-.33-2.31-1.36-2.9-2.54l-.45-.9v-18.56c0-17.48.02-18.6.31-18.86.41-.38.6-.38,7.8-.33,5.28.03,6.61.09,7.19.31Z"/>
    <path d="M1123.42,411.48c-.48.21-.79.88-.66,1.45.07.26.48.72,1.02,1.1,1.24.91,17.96,13.04,21.77,15.8,4.95,3.57,6.47,4.61,7.09,4.87.85.35,2.04.29,2.88-.12.74-.38,3.93-2.62,8.83-6.19,4.78-3.49,13.49-9.8,16.99-12.32,1.85-1.31,3.45-2.52,3.57-2.67.38-.5.28-1.35-.22-1.73-.52-.41-.95-.45-1.5-.16-.21.1-1.66,1.14-3.23,2.29-4.11,3.02-14.68,10.7-19.24,13.96-4.64,3.31-6.54,4.59-6.87,4.59-.19,0-1.52-.85-2.95-1.86-13.23-9.51-19.32-13.92-24.19-17.58-1.92-1.43-2.59-1.73-3.31-1.43Z"/>
    <path d="M1151.9,449.25c-2.35.81-3.83,3-3.85,5.71,0,1.07.09,1.47.5,2.33.26.57.72,1.33,1.04,1.71l.53.67v2.95c0,2.55.05,3.04.33,3.55.59,1.09,1.04,1.29,3.09,1.35,1.66.05,1.93.02,2.61-.35,1.26-.66,1.4-1.09,1.4-4.59v-2.98l.78-1.1c1.05-1.47,1.35-2.38,1.26-3.93-.12-2.33-1.62-4.57-3.55-5.3-1.16-.43-2.9-.45-4.12-.02ZM1155.55,452.01c.62.4,1.22,1.36,1.4,2.28.17.95-.19,1.95-1.12,3.07l-.86,1.04-.03,3.24-.05,3.24-1.07.05-1.09.05v-6.54l-.85-1c-1.41-1.66-1.6-3.4-.48-4.68,1.1-1.26,2.83-1.57,4.16-.76Z"/>
  </g>
  <g>
    <path d="M801.01,392.85c-2.71.36-4.81,1.73-6.19,4.02-1.21,2.02-1.14.21-1.14,32.25,0,18.32.07,29.31.17,30.07.47,3.24,2.52,5.59,5.87,6.75.91.31,2.26.33,44.77.33,47.41,0,44.46.05,46.39-.9.97-.48,2.35-1.73,3.04-2.73.26-.38.66-1.19.88-1.81l.41-1.12v-30.11c0-28.92-.02-30.14-.33-31.06-.9-2.67-2.79-4.59-5.31-5.37-1.04-.33-2.17-.35-44.29-.4-23.79-.03-43.7,0-44.27.07ZM889.12,395.68c1.14.43,2.43,1.64,3.02,2.83l.48.98v60.04l-.45.95c-.57,1.21-1.54,2.17-2.74,2.74l-.95.45-43.48.05-43.48.03-1.19-.36c-1.02-.31-1.35-.52-2.26-1.41-1.79-1.79-1.62,1.45-1.66-32.42-.02-33.4-.14-30.59,1.35-32.23,1.28-1.43,2.16-1.78,4.71-1.9,1.19-.05,20.98-.1,44-.09,39.96.02,41.87.02,42.65.33Z"/>
    <path d="M820.16,408.01c-2.78.67-4.64,2.19-5.87,4.76-1.57,3.26-1.73,6.66-.47,10.27,1.38,3.95,4.19,6.31,7.94,6.66,3.38.31,7-1.92,8.63-5.28.93-1.95,1.28-3.61,1.28-5.95,0-4.55-1.92-8.09-5.28-9.75-2.17-1.07-3.93-1.28-6.23-.71ZM824.99,410.95c1.78.88,3.11,2.59,3.78,4.83.35,1.19.36,4.07.02,5.37-.4,1.5-1.29,3.12-2.23,4.07-1.9,1.88-4.3,2.4-6.38,1.38-2.71-1.33-4.59-4.73-4.59-8.3,0-2.45.74-4.4,2.26-5.97,1.97-2.02,4.74-2.55,7.14-1.38Z"/>
    <path d="M850.68,416c-.38.17-.76.81-.76,1.28,0,.14.19.45.43.67l.41.43h15.75c17.15,0,16.36.05,16.6-.95.12-.47-.12-1.07-.57-1.41-.36-.28-31.3-.29-31.87-.02Z"/>
    <path d="M850.65,427.65c-.35.14-.76,1.07-.64,1.43.05.19.31.5.55.69.43.35.64.35,16.05.35h15.61l.5-.5c.6-.62.64-1.1.07-1.66l-.41-.43-15.75.02c-8.66,0-15.86.05-15.98.1Z"/>
    <path d="M825.68,432.2c-1.93.43-4.54.47-6.18.09-2.81-.66-5.73-.02-8.61,1.92-2.33,1.55-4.04,3.86-4.73,6.37-.36,1.36-.52,5.69-.26,7.02.29,1.33,1.05,2.33,2.26,2.92l.95.47,13.2.03c14.54.05,13.75.1,15.06-1.04.33-.31.79-.91,1.02-1.36.36-.76.4-1.02.4-3.92-.02-2.76-.05-3.24-.41-4.4-.5-1.62-.81-2.24-1.81-3.57-1.36-1.81-4.3-3.74-6.66-4.42-1.64-.45-2.55-.48-4.23-.1ZM819.08,434.88c1.74.4,4.99.4,6.87,0,2-.43,2.95-.29,5,.71,2.9,1.41,4.73,3.67,5.16,6.44.28,1.73.24,4.76-.07,5.42-.53,1.1.21,1.05-13.51,1.07-13.87.03-13.27.07-13.87-1.14-.36-.71-.41-3.31-.14-5.18.52-3.24,3.11-5.99,6.8-7.18,1.48-.48,2.1-.5,3.76-.14Z"/>
    <path d="M850.56,439.6c-.59.47-.64,1.38-.12,1.9.35.35.57.35,10.7.35h10.37l.45-.45c.35-.35.41-.53.33-.98-.22-1.12.4-1.07-10.96-1.12-10.25-.03-10.32-.03-10.77.31Z"/>
  </g>
  <g>
    <path d="M1277.89,380.7c-1.69.43-2.83,1.28-3.49,2.62-.47.93-.48,1.12-.57,4.09l-.09,3.11-5.18.09-5.18.09-1.17.57c-2.1,1.04-3.74,3.05-4.24,5.23-.12.5-.19,12.2-.19,33.97,0,35.87-.05,34.11.88,35.92.48.93,1.78,2.31,2.71,2.85.4.24,1.21.59,1.78.76,1,.31,2.07.33,26.81.33h25.78l.35-.45c.55-.69.45-1.45-.22-1.85-.28-.16-6.28-.22-26.16-.29l-25.79-.09-.81-.47c-.43-.26-1.1-.83-1.48-1.28-1.35-1.5-1.24.62-1.21-28.19l.05-25.79,40.53-.05c29.81-.02,40.58.02,40.75.16.21.16.24,1.76.24,8.7,0,4.69.05,8.64.1,8.8.07.14.35.4.62.53.41.22.6.22,1,.07.28-.12.55-.33.6-.48.07-.17.1-7.63.09-16.58-.03-18.44.05-17.44-1.43-19.46-.86-1.17-1.64-1.79-3.02-2.43l-.98-.47-5.35-.09-5.35-.09-.09-3.19c-.1-3.69-.28-4.3-1.67-5.52-2.36-2.07-6.19-1.31-7.59,1.5-.47.97-.48,1.14-.57,4.11l-.09,3.11h-34.51l-.09-3.19c-.1-3.54-.19-3.93-1.28-5.14-.98-1.09-3.19-1.81-4.5-1.48ZM1280.13,383.64c.91.6.95.85.95,8.3,0,5.11-.05,6.97-.22,7.28-.83,1.64-3.38,1.57-4.12-.1-.31-.69-.33-1.16-.28-7.42.05-6.37.07-6.73.4-7.3.67-1.14,2.16-1.48,3.28-.76ZM1324.28,383.45c.31.16.72.57.93.93.38.66.38.81.38,7.54s-.02,6.9-.35,7.45c-.93,1.52-3.28,1.36-4-.26-.31-.69-.33-1.16-.28-7.42.05-6.06.09-6.75.36-7.26.6-1.1,1.83-1.52,2.95-.98ZM1273.83,396.3c.09,2.85.14,3.28.47,3.9.53,1.02,1.36,1.78,2.43,2.28.81.36,1.12.41,2.35.35,1.6-.09,2.61-.53,3.47-1.55,1-1.19,1.12-1.67,1.12-5,0-3.04,0-3.07.4-3.16.21-.05,7.99-.07,17.29-.05l16.91.05.09,3.11c.09,2.79.12,3.19.48,3.92,1.71,3.49,6.83,3.67,8.8.35.45-.79.47-.88.52-4.05.07-3.21.07-3.23.47-3.33.22-.05,2.48-.07,5.04-.03,4.43.05,4.66.07,5.45.47,1,.5,2.07,1.67,2.47,2.74.28.71.31,1.57.36,6.59.03,3.17.02,5.95-.03,6.18l-.09.38-40.68-.03-40.67-.05v-6.21c0-6.19,0-6.21.41-6.99.78-1.5,2.07-2.55,3.59-2.93.36-.09,2.61-.14,4.97-.12l4.31.03.09,3.19Z"/>
    <path d="M1273.52,424.42c-.38.35-.38.45-.38,5v4.64l.45.35c.43.35.67.36,4.76.36h4.31l.5-.5.5-.5v-4.4c0-4.18-.02-4.42-.36-4.85l-.35-.45h-4.54c-4.31,0-4.54.02-4.9.35ZM1281.04,429.39l.03,2.81-2.71-.05-2.73-.05-.05-2.71-.05-2.71,1.95-.07c1.07-.03,2.29-.05,2.73-.05l.78.02.05,2.81Z"/>
    <path d="M1292.03,424.51l-.43.41v9.01l.43.41.41.43h4.24c4.57,0,5.11-.09,5.33-.9.05-.22.1-2.31.1-4.64,0-4.04-.02-4.28-.36-4.71l-.35-.45h-8.97l-.41.43ZM1299.45,429.34v2.76l-2.62.05-2.64.05v-5.52l.48-.07c.26-.03,1.43-.07,2.62-.05l2.16.02v2.76Z"/>
    <path d="M1310.74,424.53l-.41.45v8.97l.48.41q.48.41,4.8.41h4.31l.41-.43.43-.41v-4.59c0-4.35-.02-4.59-.35-4.92s-.57-.35-4.8-.35h-4.47l-.41.45ZM1318.26,429.34v2.76l-2.71.05-2.73.05v-2.74c0-1.5.03-2.78.09-2.81.03-.05,1.26-.09,2.71-.09l2.64.02v2.76Z"/>
    <path d="M1338.05,435.29c-8.8,1-16.01,7.51-18.27,16.48-.43,1.73-.47,2.19-.47,4.92s.05,3.23.47,4.88c1.62,6.54,6.02,11.89,11.85,14.46,4,1.78,8.95,2.26,13.11,1.29,8.45-1.97,14.75-8.56,16.41-17.18.33-1.64.28-5.81-.07-7.61-1.69-8.59-8.35-15.39-16.63-16.96-1.74-.33-4.8-.47-6.4-.28ZM1344.14,438.14c6.4,1.31,12.09,6.69,13.96,13.2,1.35,4.74.83,9.71-1.47,13.96-3.69,6.87-11.16,10.8-18.72,9.87-1.81-.22-4.14-.91-5.62-1.67-3.49-1.76-6.73-5-8.45-8.44-1.21-2.38-2.04-5.81-2.04-8.45s.86-6.16,2.14-8.66c2.52-5.02,8.01-9.09,13.25-9.87.69-.1,1.45-.22,1.69-.26.81-.16,3.88.05,5.26.33Z"/>
    <path d="M1347.99,450.16c-.57.57-8.09,8.52-9.42,9.97l-.71.78-.91-.86c-.5-.48-1.73-1.66-2.73-2.62s-2.04-1.81-2.29-1.86c-.93-.24-1.92.9-1.45,1.69.1.21,1.69,1.85,3.5,3.62,3.9,3.81,3.85,3.78,5.33,2.31.52-.48,3.23-3.35,6.02-6.33,4.55-4.83,5.11-5.49,5.11-5.99,0-1.29-1.41-1.71-2.45-.71Z"/>
    <path d="M1273.57,444l-.43.41v4.47c0,4.16.02,4.52.33,4.88.33.41.36.41,4.37.47,4.47.07,4.99.02,5.49-.52.33-.36.35-.62.35-4.83v-4.47l-.43-.41-.41-.43h-8.83l-.41.43ZM1281.08,448.92v2.76h-5.52v-5.52h5.52v2.76Z"/>
    <path d="M1292.1,444.07l-.5.5v4.31c0,2.38.05,4.45.1,4.61.26.67.91.78,5.14.78s4.76-.07,5.09-.81c.12-.26.19-1.93.19-4.73v-4.31l-.43-.41-.41-.43h-8.68l-.5.5ZM1299.5,448.87l-.05,2.73-2.62.05-2.64.05v-5.54h5.37l-.05,2.71Z"/>
  </g>
  <g>
    <path d="M979.74,383.08c-.29.14-.57.4-.62.57-.05.19-.03,1.81.02,3.61.1,2.79.17,3.38.48,4.07.78,1.73,2.07,2.86,3.67,3.24l.86.21.03,34.87.05,34.89.47,1.38c1.55,4.49,4.81,7.59,9.3,8.82.83.22,1.78.31,3.78.31,2.35.02,2.83-.03,3.97-.38,2.04-.64,3.54-1.52,5.07-2.98,1.79-1.71,3.02-3.74,3.78-6.31.14-.47.22-10.42.29-35.58l.09-34.9,1-.31c1.24-.4,2.21-1.05,2.9-1.97.86-1.19,1.02-2.04,1.02-5.71,0-3.14-.02-3.33-.36-3.64s-.93-.33-17.82-.36c-14.42-.03-17.53,0-17.98.19ZM1013.48,387.36c0,2.02-.19,2.92-.79,3.73-.6.78-1.29,1.09-2.57,1.14-.62.03-1.22.16-1.38.28-.22.19-.26,1.22-.26,8.13v7.92h-5.71c-6.57,0-6.69.02-6.71,1.33,0,.35.14.71.35.91.33.33.57.35,6.21.35h5.87v4.9c0,3.76-.05,4.92-.21,4.97-.12.05-2.36.07-4.97.05-5.26-.05-6.49.05-6.85.52-.35.48-.28,1.19.17,1.6.38.36.52.38,6.07.41l5.69.05v9.83l-5.9.09c-6.45.09-6.31.07-6.54,1.14-.07.36,0,.64.24.93l.35.43,5.94.03,5.92.03v9.77l-5.73.09c-5.61.09-5.75.09-6.11.47-.5.5-.48,1.4.03,1.81.33.28.88.31,6.12.31h5.76v10.01h-5.68c-5.47,0-5.68.02-6.12.36-.57.45-.62,1.36-.1,1.88.35.35.55.35,5.92.35h5.8c.19,0,.22.29.14,1.55-.21,2.85-1.14,4.85-3.23,6.92-2.14,2.14-4.14,2.92-7.4,2.92-4.45,0-8.25-2.23-9.99-5.87-.38-.81-.78-1.88-.88-2.38-.14-.64-.19-11.39-.19-36.11v-35.2l-.43-.41c-.35-.36-.59-.43-1.43-.43-1.17,0-1.93-.4-2.57-1.36-.57-.85-.74-1.64-.74-3.52v-1.67h31.92v1.76Z"/>
    <path d="M1044.37,410.88c-6.06,1.22-10.52,6-11.65,12.49-.48,2.76-.28,5.19.78,8.87,1.43,4.95,4.31,10.58,8.45,16.42,1.38,1.97,3.83,4.95,4.42,5.42,1.07.85,1.97.26,4.73-3.12,5.4-6.59,9.63-14.87,10.87-21.31,1.73-8.97-3.28-17.03-11.65-18.77-1.47-.31-4.43-.31-5.95,0ZM1050.23,413.47c.62.16,1.78.59,2.59.98,1.17.59,1.76,1.02,2.93,2.21,1.71,1.71,2.55,3.09,3.31,5.35.52,1.55.55,1.78.53,4.14,0,2.24-.07,2.73-.55,4.57-.71,2.66-1.81,5.42-3.38,8.49-1.9,3.69-3.78,6.52-6.8,10.21l-1.47,1.79-.72-.81c-3.35-3.67-7.63-10.7-9.54-15.63-1.98-5.07-2.5-8.83-1.66-11.99,1-3.67,3.83-7.16,6.99-8.57,2.19-.98,5.38-1.29,7.76-.74Z"/>
    <path d="M1045.32,419.64c-1.55.52-2.64,1.48-3.5,3.12-.41.79-.47,1.05-.47,2.69,0,1.73.02,1.86.59,2.9.33.59.9,1.36,1.28,1.69,3.31,3,8.78,1.5,10.04-2.76.48-1.62.21-3.67-.67-5.09-.55-.88-1.73-1.9-2.67-2.31-.98-.45-3.55-.57-4.59-.24ZM1048.99,422.33c2.55,1.31,2.57,4.93.03,6.23-.98.5-1.64.57-2.62.28-2.69-.78-3.45-4.35-1.28-6.07,1.19-.97,2.55-1.1,3.86-.43Z"/>
    <path d="M1016.81,435.26c-.35.22-.57,1.04-.41,1.47.09.22.55.66,1.04.97s1.16.79,1.5,1.07c.36.29.85.5,1.12.5.98,0,1.54-1.16.95-2-.14-.19-.86-.76-1.6-1.24-1.31-.86-2.07-1.09-2.59-.76Z"/>
    <path d="M1022.7,442.57c-.62.29-.76.83-.53,2.09.16.95.14,1.41-.12,2.83-.17.93-.36,1.88-.4,2.12-.19,1.1,1.48,1.78,2.21.9.74-.91,1.19-5.47.69-6.99-.33-1-1.02-1.36-1.85-.95Z"/>
    <path d="M1021.01,454.99c-.4.35-.48.59-.64,1.95-.17,1.57-.1,3.23.21,4.87.28,1.4,1.21,1.85,2.16,1.04l.47-.4-.21-1.66c-.12-1.02-.17-2.38-.1-3.54.14-2.09.03-2.38-.88-2.57-.41-.07-.64,0-1,.31Z"/>
    <path d="M1046.64,458.89c-.55.09-.83.62-1.05,2.02-.12.66-.4,1.93-.64,2.81s-.38,1.76-.33,1.95c.17.5,1.16.9,1.73.67.52-.19.83-.85,1.29-2.69.5-1.93.69-3.66.48-4.14-.21-.43-.86-.72-1.48-.62Z"/>
    <path d="M1023.85,466.97c-.21.26-.36.64-.36.86,0,.48.93,1.43,2.67,2.76,2.4,1.79,3.62,2.19,4.38,1.38.62-.66.45-1.29-.53-1.92-.45-.29-1.28-.81-1.81-1.16-.55-.35-1.43-1.02-1.98-1.5-1.16-1.04-1.79-1.16-2.36-.43Z"/>
    <path d="M1039.93,469.47c-.76.38-2.09.83-2.93,1.02-1.6.35-2.12.71-2.12,1.47,0,.22.16.57.33.79.28.35.48.41,1.28.4,1.66-.03,4.92-1.24,5.95-2.19.53-.48.53-1.55,0-1.92-.57-.4-.93-.33-2.5.43Z"/>
  </g>
  <g>
    <path d="M823.96,556.68c-10.27.79-18.36,3.04-23.71,6.57-2.86,1.9-5.12,4.59-5.71,6.76-.16.59-.19,8.49-.17,31.95.02,34.76-.09,31.95,1.24,34.21,2.74,4.66,10.14,8.21,20.32,9.75,5.64.85,13.08,1.1,18.37.62,1.52-.14,2.81-.26,2.88-.26s.6.64,1.21,1.41c12.22,16.1,35.89,17.49,49.83,2.97,4.43-4.62,7.33-10.27,8.68-16.89.33-1.67.38-2.42.38-6.12-.02-4.55-.19-5.83-1.24-9.32-2.83-9.42-9.26-16.91-17.99-21.03-4.14-1.93-7.66-2.76-12.54-2.9l-3.31-.1-.05-12.01c-.05-11.87-.07-12.03-.43-12.99-1.98-5.21-9.66-9.52-20.53-11.53-4.09-.76-7.26-1.05-11.87-1.12-2.47-.02-4.87-.02-5.35.02ZM836.12,559.58c6.45.81,12.09,2.38,16.74,4.66,3,1.48,5.14,3.33,6.09,5.26.48.98.55,1.31.55,2.52,0,1.14-.09,1.55-.47,2.38-2.05,4.38-10.75,8.49-21.19,10.01-2.17.31-3.35.36-8.97.36-4.31.02-7.07-.05-8.28-.21-8.64-1.07-16.32-3.67-20.39-6.95-2.24-1.79-3.24-3.52-3.24-5.59,0-1.67.5-2.81,1.88-4.28,3.99-4.24,12.89-7.38,23.83-8.4,2.45-.22,10.92-.07,13.46.24ZM797.66,578.77c.59.64,2.9,2.35,4.09,3.05,4.33,2.54,11.46,4.52,19.19,5.33,2.9.31,12.35.29,15.1,0,10.18-1.16,17.62-3.74,22.29-7.76.67-.6,1.28-1.02,1.33-.93.14.22.09,7.21-.07,8.94-.21,2.38-1.07,3.81-3.28,5.49-4.37,3.33-10.37,5.42-18.27,6.4-7.33.9-15.79.66-22.71-.62-7.99-1.48-13.41-3.85-16.53-7.23-1.81-1.95-1.85-2.12-1.85-8.11,0-2.76.07-5,.14-5,.09,0,.33.21.57.45ZM798.16,594.26c1.26,1.16,2.69,2.1,5,3.28,4.55,2.33,10.54,3.81,18.17,4.52,3.33.31,13.11.24,15.82-.1,1.5-.19,6.85-1.12,7.56-1.31.6-.17.45.17-.36.76-1.04.74-3.93,3.66-5.18,5.21-1.4,1.74-2.79,3.88-3.83,5.9l-.86,1.67-.78.14c-1.52.24-9.96.12-12.77-.19-10.42-1.14-17.79-3.76-21.84-7.78-2.12-2.09-2.14-2.19-2.14-8.2,0-2.66.05-4.83.1-4.83.07,0,.55.41,1.1.93ZM859.59,594c0,.6-.07.66-1.05.81l-.76.1.78-.71c.43-.38.83-.69.91-.71.07,0,.12.22.12.5ZM870.2,597.47c10.87,2.29,19.58,10.2,23.12,20.95,1.21,3.64,1.38,4.88,1.36,9.42,0,4.4-.22,5.83-1.45,9.52-3.16,9.49-10.89,16.91-20.53,19.69-5.54,1.6-12.13,1.48-17.53-.31-7.87-2.61-15.01-9.2-18.27-16.8-5-11.73-2.69-24.33,6.21-33.8,4.45-4.74,11.27-8.21,17.6-8.99,2.28-.28,7.47-.1,9.49.33ZM797.99,608.77c1.88,1.92,5.75,3.99,10.09,5.42,6.4,2.1,14.18,3.12,21.7,2.86,3.9-.12,3.62-.28,3.05,1.62-.59,1.97-1.04,5.14-1.16,8.07l-.1,2.81h-3.23c-12.82,0-24.36-3.16-29.26-8.02-.59-.57-1.28-1.47-1.55-1.98l-.5-.95-.05-5.31c-.03-2.92.02-5.3.09-5.3.09,0,.5.35.91.78ZM798.1,623.95c5.12,4.93,16.41,8.01,29.68,8.07l4.18.03.28,1.64c.53,3.02,1.67,6.42,3.05,9.18l.5,1-.47.12c-.28.09-3.5.14-7.21.14-5.99,0-7.06-.05-9.63-.4-10.32-1.38-17.65-4.42-20.41-8.49-1.04-1.52-1.1-1.98-1.1-7.37,0-2.69.03-4.88.07-4.88s.52.43,1.07.95Z"/>
    <path d="M860.71,600.94c-2.31.29-5.62,1.36-8.01,2.57-1.76.88-4.54,2.85-6.11,4.31-6.23,5.83-9.44,14.72-8.33,23.05.85,6.47,3.23,11.28,7.87,15.96,1.43,1.45,2.69,2.54,3.78,3.24,7.83,5.18,17.49,5.88,25.9,1.9,2.9-1.38,4.99-2.88,7.33-5.23,4.26-4.3,6.64-8.95,7.69-15.11.33-1.9.29-6.11-.09-8.28-.55-3.19-1.85-6.75-3.52-9.61-3.88-6.64-11.16-11.58-18.84-12.73-1.79-.28-5.75-.31-7.68-.07ZM868.28,603.6c4.12.72,8.42,2.76,11.8,5.61,4.11,3.47,7.28,9.13,8.16,14.58.31,1.98.28,6.02-.1,8.11-1.59,9.06-8.3,16.6-17.08,19.17-3.33.98-7.94,1.19-11.18.5-8.23-1.73-15.17-7.95-17.87-16.05-.91-2.76-1.28-4.97-1.28-7.94-.02-6.45,2.52-12.53,7.21-17.27,2.1-2.14,3.67-3.24,6.56-4.64,2.17-1.05,3.5-1.52,5.69-1.98,1.98-.41,5.97-.45,8.09-.09Z"/>
    <path d="M852.51,617.85c-.22.1-.48.26-.55.38s-.14,4.43-.14,9.61c0,10.3-.03,10.02,1,10.27.53.1,1.41-.16,1.62-.48.07-.12.14-2.02.14-4.23,0-3.16.05-4,.22-4,.12,0,1.28,1.22,2.57,2.71,5.19,6.02,5.06,5.88,5.92,6,1.16.19,2.4-.09,2.47-.53.05-.38-2.67-3.66-6.4-7.69l-2.04-2.21.48-.59c.26-.31,1.92-2.23,3.67-4.24,3.64-4.18,3.97-4.62,3.61-4.85-.28-.17-2.4-.21-2.79-.05-.16.05-1.88,1.92-3.85,4.14s-3.64,4.04-3.73,4.04c-.07,0-.14-1.69-.14-3.76,0-3.69,0-3.78-.38-4.12-.5-.45-1.14-.59-1.69-.38Z"/>
    <path d="M869.21,617.85c-.48.28-.36.69.6,2.09,1.76,2.54,1.66,2.45,3.14,2.52l1.31.07.81-.85c.45-.47,1.19-1.4,1.66-2.09.83-1.21.85-1.24.53-1.59-.66-.72-1.74-.38-3.11,1.02-.47.48-.93.88-1.04.88s-.57-.4-1.04-.88c-1.26-1.29-2.1-1.64-2.88-1.17Z"/>
    <path d="M870.83,624.37c-2.69.93-4.37,3.97-4.12,7.51.12,2.05.64,3.23,1.92,4.52,1.36,1.36,2.52,1.83,4.59,1.85,2.02.03,3.09-.35,4.26-1.54,1.09-1.07,1.17-1.57.41-2.33-.28-.28-.62-.5-.78-.5-.14,0-.6.31-1.04.67-.98.85-1.76,1.1-3.05,1.02-1.97-.14-3.23-1.59-3.38-3.88-.21-2.76,1.19-4.73,3.55-5,1.09-.12,1.92.17,2.88,1,.43.36.85.67.91.67.29,0,1.09-.74,1.24-1.17.14-.35.09-.53-.21-.97-.5-.72-1.66-1.59-2.57-1.92-1.04-.36-3.47-.33-4.62.07Z"/>
  </g>
  <g>
    <path d="M1302.47,560.05c-4.47,2.5-8.54,4.54-12.51,6.25-5.88,2.52-13.75,5.06-19.15,6.18-2.67.53-3.19.74-3.57,1.4-.33.57-.33,28.42,0,31.61.88,8.71,3.3,16.63,7.23,23.81,6.02,11.01,15.44,20.24,26.67,26.14,2.45,1.29,5.62,2.61,6.33,2.61,1.35,0,7.78-3.21,11.8-5.88,15.04-10.02,24.38-24.14,27.28-41.25.81-4.87.86-6.02.86-21.62s.02-15.55-.93-16.05c-.26-.12-1.73-.52-3.26-.86-6.12-1.36-13.65-3.83-19.36-6.33-3.02-1.33-9.11-4.4-12.22-6.16-1.54-.88-3.05-1.69-3.38-1.83-1.19-.5-1.52-.38-5.8,2ZM1309.86,561.83c7.18,4.11,16.55,8.33,23.24,10.51,3.04.98,5.83,1.73,9.14,2.45l2.59.55v14.65c0,13.13-.03,14.91-.31,17.15-1.12,8.89-3.71,16.55-7.97,23.65-1.55,2.57-4.87,6.94-7.11,9.39-3.85,4.18-9.35,8.66-14.03,11.39-4.04,2.36-7.3,3.8-8.25,3.64-.35-.05-2.17-.86-4.07-1.81-8.71-4.31-15.86-10.32-21.89-18.43-5.54-7.4-9.14-15.82-10.71-24.9-.88-5.14-.88-5.23-.88-20.43v-14.3l2.62-.57c10.32-2.21,22.05-6.88,32.14-12.8,1.47-.86,2.74-1.57,2.81-1.57.09-.02,1.29.64,2.67,1.43Z"/>
    <path d="M1315.43,604.37c-7.14,7.21-13.04,13.11-13.1,13.11-.16,0-3.21-2.97-8.59-8.3-4.43-4.38-4.66-4.54-5.42-3.78-.21.21-.35.57-.35.91,0,.5.57,1.12,6.18,6.69,7.52,7.47,7.44,7.4,8.28,7.4.62.02.85-.19,5.87-5.3,2.88-2.93,8.06-8.14,11.49-11.61,10.21-10.32,10.28-10.39,10.28-11.01,0-.69-.53-1.24-1.17-1.24-.41,0-2.38,1.9-13.47,13.11Z"/>
  </g>
  <g>
    <path d="M1149.87,560.2c-3.23.12-3.83.38-4.24,1.76-.09.31-.43,2.19-.76,4.19-.33,1.98-.64,3.78-.69,3.99-.05.28-.45.47-1.73.9-.91.31-2.76,1.05-4.11,1.67l-2.43,1.12-3-2.28c-1.64-1.24-3.35-2.45-3.78-2.67-1.5-.76-2.42-.47-4.31,1.36-2.5,2.4-7.32,7.63-7.66,8.26-.47.93-.41,1.97.16,3,.26.47,1.4,2.09,2.5,3.61,1.1,1.5,2.02,2.81,2.02,2.93,0,.1-.38,1.05-.85,2.09-.47,1.05-1.14,2.83-1.5,3.97-.35,1.14-.69,2.14-.76,2.21s-1.71.41-3.64.74c-4.38.74-5.12.95-5.75,1.6-.45.47-.52.69-.64,2.04-.19,2.12-.17,10.4.02,11.87.26,2.04.78,2.29,6.4,3.28,1.81.31,3.31.6,3.36.66s.4.98.76,2.09c.38,1.09,1.12,2.92,1.66,4.05l.97,2.05-1.26,1.85c-.71,1-1.81,2.61-2.47,3.55-1.93,2.81-1.85,3.43,1.04,6.54,2.69,2.93,7.04,7.26,7.52,7.52,1.19.62,2.31.12,6.33-2.85,1.55-1.16,2.86-2.09,2.95-2.09.07,0,1,.41,2.09.93,1.09.5,2.86,1.24,3.95,1.64,1.09.41,2.07.83,2.19.93.1.12.43,1.9.74,3.99.29,2.07.62,3.97.71,4.23.22.59.64,1.02,1.26,1.35,1.16.6,11.49.64,13.6.05,1.35-.38,1.59-1.04,2.4-6.71.19-1.38.43-2.64.52-2.79s1-.59,2.09-.95c1.07-.36,2.92-1.14,4.07-1.71l2.14-1.05.88.62c.5.35,1.86,1.35,3.05,2.24,2.21,1.64,3.57,2.42,4.28,2.42.22,0,.67-.12.98-.28.6-.28,6.71-6.37,8.52-8.49,2.07-2.45,2.04-2.64-1.5-7.59l-2.24-3.16.91-1.93c.5-1.07,1.24-2.9,1.66-4.09.4-1.19.79-2.24.88-2.36.09-.1.71-.29,1.4-.4,2.78-.45,6.78-1.4,7.19-1.69.24-.17.59-.62.78-1,.31-.62.35-1.09.4-5.42.07-5.4-.12-8.18-.6-9.01-.53-.91-1.14-1.14-4.99-1.78-1.98-.35-3.76-.67-3.95-.76-.26-.1-.59-.78-1.19-2.45-.45-1.28-1.21-3.12-1.67-4.11s-.85-1.85-.85-1.92.95-1.4,2.1-2.95c2.45-3.31,2.67-3.66,2.92-4.52.21-.79,0-1.71-.62-2.54-.24-.31-2.23-2.45-4.43-4.71-4.07-4.21-4.78-4.78-5.92-4.78-.85,0-1.76.53-4.66,2.71-3.97,2.97-3.43,2.74-4.76,2.04-1.29-.69-4.61-2.04-5.94-2.43-1.02-.29-.97-.17-1.29-2.4-.5-3.43-1.12-6.52-1.4-6.99-.55-.9-1.19-1.09-4.04-1.22-2.86-.14-3.97-.14-7.76.02ZM1159.51,563.08c.1.4.9,4.99,1.22,7.09.12.9.36,1.79.5,2.02.21.31.74.55,2.04.95,2.04.64,4.85,1.81,6.63,2.78.67.36,1.47.67,1.74.67.4,0,1.35-.64,4.16-2.76,2.02-1.52,3.76-2.76,3.9-2.76.24,0,7.82,7.61,8.3,8.33.35.53.47.33-2.42,4.26-2.74,3.73-2.67,3.62-2.67,4.16,0,.24.47,1.41,1.02,2.59.57,1.17,1.4,3.26,1.83,4.64,1.02,3.11,1.22,3.55,1.79,3.78.24.1,1.54.35,2.86.53,4.02.57,5.47.83,5.66,1.02s.5,9.71.35,10.92c-.05.45-.19.9-.29.98s-1.74.43-3.64.78c-5.02.88-5.24.93-5.54,1.4-.14.21-.45,1.12-.69,2-.52,1.95-1.38,4.16-2.5,6.4-.47.93-.85,1.85-.85,2.04,0,.6.59,1.57,2.55,4.18,1.04,1.36,2.09,2.81,2.35,3.21l.45.71-.47.57c-1.22,1.48-7.73,8.07-7.97,8.07-.38,0-1.47-.78-4.74-3.36-1.52-1.19-2.92-2.16-3.11-2.16-.21,0-.79.24-1.31.52-2.19,1.22-4.54,2.26-6.56,2.93-1.19.4-2.33.88-2.54,1.07-.52.48-.67,1-1.17,4.19-.69,4.4-.79,4.9-1.09,5.12-.19.17-1.52.22-5.59.22-4.8,0-5.37-.03-5.56-.29-.12-.16-.47-2.02-.76-4.12-.33-2.21-.71-4.14-.88-4.57-.36-.79-.43-.83-3.38-1.73-.85-.26-2.85-1.14-4.43-1.93l-2.88-1.43-.57.28c-.31.14-2.04,1.4-3.83,2.76-1.79,1.38-3.38,2.5-3.54,2.5-.17,0-2-1.76-4.09-3.93-5-5.19-4.52-4.52-3.99-5.42.24-.41,1.36-2,2.5-3.55,1.14-1.54,2.17-3.07,2.28-3.4.19-.57.14-.72-.91-2.88s-2-4.68-2.62-6.9c-.4-1.47-.57-1.55-4.52-2.19-1.88-.29-3.85-.64-4.37-.76l-.95-.21-.14-1.64c-.21-2.47-.02-10.2.26-10.37.12-.07.72-.22,1.35-.31,6.73-1.09,7.32-1.21,7.75-1.54.48-.36.52-.45,1.54-3.67.38-1.21,1.17-3.19,1.74-4.43,1.05-2.26,1.05-2.28.79-2.9-.14-.33-1.38-2.21-2.78-4.14l-2.52-3.54.6-.72c.64-.78,7.82-7.94,8.02-8.02.07-.02,1.78,1.21,3.8,2.73,2.83,2.12,3.8,2.76,4.18,2.76.29,0,1.43-.47,2.57-1.02,2.24-1.14,4.43-2.04,6.37-2.59.85-.26,1.33-.5,1.5-.78.16-.22.5-1.74.78-3.4.71-4.09,1.02-5.68,1.14-5.87.05-.09,2.5-.16,5.68-.16,5.18,0,5.59.02,5.68.29Z"/>
    <path d="M1150.75,586.95c-2.43.4-5.49,1.57-7.69,3-2.92,1.9-6.06,5.69-7.25,8.75-1.21,3.11-1.43,4.4-1.45,7.92-.02,3.5.19,4.66,1.29,7.45,1.48,3.74,4.97,7.66,8.71,9.8,1.52.86,4.62,1.97,6.28,2.23.62.1,2.09.19,3.24.19,5.33,0,9.85-1.88,13.63-5.68,2.42-2.42,4.23-5.54,5.16-8.92.45-1.6.48-1.93.48-5.07s-.05-3.54-.4-4.83c-1.05-3.9-2.52-6.45-5.3-9.25-2.69-2.71-5.43-4.3-9.06-5.24-1.66-.43-5.87-.62-7.66-.35ZM1157.98,589.86c3.54.93,6.97,3.24,9.13,6.12,2.43,3.26,3.54,6.56,3.55,10.49.02,7.11-4.09,13.37-10.52,16.06-2.17.9-3.86,1.22-6.3,1.22-7.71-.02-14.44-5.4-16.41-13.16-1.92-7.49,1.45-15.32,8.23-19.15,1.45-.81,2.98-1.38,4.73-1.74,2.09-.45,5.59-.38,7.59.16Z"/>
  </g>
  <g>
    <path d="M540.16,558.36l-.45.45v22.96c0,21.81.02,22.96.31,23.26.28.28,1.07.35,7.8.6,4.12.17,10.02.41,13.11.55,6.5.29,19.29.78,21.88.83,1.76.03,1.79.03,2.21-.45.4-.47.41-.6.41-2.67,0-6.11-1.66-13.34-4.38-19.24-4.61-9.9-13.23-18.27-23.6-22.91-4.57-2.04-9.99-3.36-15.1-3.71-1.73-.12-1.76-.1-2.19.33ZM545.25,560.98c7.76,1.16,14.77,4.21,21.03,9.13.71.55,2.42,2.16,3.8,3.54,5.73,5.75,9.16,11.68,11.21,19.43.72,2.71,1.38,6.73,1.5,9.21l.1,2.14-3.09-.1c-2.95-.12-11.82-.5-25.09-1.07-3.36-.16-7.52-.33-9.23-.4l-3.11-.12-.05-21.01-.03-21h.64c.36,0,1.4.12,2.31.26Z"/>
    <path d="M527.05,563.24c-15.15,1.95-28.12,11.02-35.39,24.81-2.33,4.38-3.8,8.87-4.78,14.51-.52,3.04-.57,10.27-.09,13.37,1.64,10.42,6.09,19.29,13.32,26.48,6.94,6.9,14.72,11.16,23.81,13.03,5.52,1.14,12.91,1.14,18.67.02,3.5-.67,7.92-2.17,11.47-3.88,8.07-3.88,15.58-11.04,20.13-19.2,2.9-5.18,5.14-12.3,5.47-17.3.1-1.55.09-1.71-.24-2.04-.21-.21-.62-.4-.93-.45s-4.42-.26-9.11-.45-10.87-.47-13.72-.6-8.25-.36-11.99-.52c-3.74-.14-7.45-.31-8.23-.36l-1.43-.1v-46.74l-.43-.41c-.4-.41-.5-.43-2.54-.41-1.17.02-2.97.14-4,.26ZM531.43,588.45c0,13.34.07,23.21.17,23.6.09.38.28.78.43.88.4.29,1.38.36,13.37.85,5.83.24,13.44.55,16.91.69,10.99.45,14.75.62,14.82.71.16.14-.88,4.97-1.47,6.92-2.23,7.33-5.73,13.28-10.94,18.53-2.59,2.61-4.12,3.86-7.28,5.97-7.8,5.21-17.46,7.76-26.95,7.14-8.85-.59-16.32-3.38-23.71-8.9-2.5-1.85-6.83-6.21-8.76-8.8-6.37-8.52-9.32-17.67-8.99-27.78.12-3.55.47-6.07,1.33-9.49.81-3.28,1.59-5.37,3.19-8.63,6.37-13.01,18.94-22.24,32.87-24.14,2.76-.38,2.9-.4,4.02-.43l.98-.02v22.89Z"/>
  </g>
  <g>
    <path d="M689.64,559.27c-3.45.66-6.02,3.02-6.81,6.25-.12.53-.28,1.73-.35,2.64l-.12,1.67-1.05.38c-6.07,2.21-11.42,6.33-14.82,11.47-2.86,4.31-4.47,8.89-4.97,14.15-.09,1.05-.17,6.3-.17,11.8,0,10.9-.09,12.22-1.04,15.06-1.1,3.31-2.36,5.3-5.19,8.16-2.4,2.45-2.79,3.16-2.79,5-.02.91.09,1.38.36,1.92.85,1.64,2.02,2.52,3.74,2.79.59.1,5.06.17,10.44.19h9.4l.14.83c.64,3.62,2.07,6.35,4.62,8.76,4.42,4.18,10.52,5.19,15.94,2.61,4.59-2.17,7.59-6.26,8.45-11.53l.1-.64,10.04-.05,10.04-.05.9-.41c1.02-.45,2.14-1.57,2.57-2.55.17-.4.29-1.12.31-1.86,0-1.92-.48-2.76-3.04-5.31-2.71-2.69-3.95-4.57-4.93-7.45-1.04-3.05-1.21-5.38-1.22-17.34-.02-5.16-.1-9.89-.21-10.7-1.38-11.46-8.54-20.57-19.43-24.76l-1.24-.48-.1-.97c-.33-2.85-.59-4.16-1.02-5.06-.88-1.86-2.62-3.4-4.66-4.11-.98-.33-3.11-.55-3.9-.41ZM693.37,562.5c1.12.57,2.21,1.79,2.64,2.98.38,1,.74,3.35.55,3.55-.07.07-.38.05-.71-.03-.31-.09-1.57-.26-2.79-.38-2.12-.19-4.28-.1-7.19.33l-.76.1.09-1.45c.14-2.17.85-3.59,2.31-4.64,1.14-.81,2-1.04,3.61-.98,1.07.05,1.57.16,2.26.52ZM695.22,571.5c1.92.35,4.69,1.24,6.61,2.14,7.85,3.67,13.03,10.21,15.22,19.17l.43,1.81.12,12.08c.12,11.35.16,12.18.48,13.68.72,3.23,1.93,6.19,3.45,8.49.53.79,1.92,2.43,3.07,3.62,2.19,2.28,2.5,2.81,2.24,3.88-.17.71-.98,1.47-1.74,1.64-.91.21-67.58.22-68.48,0-1.28-.29-2.07-1.59-1.74-2.88.07-.29.88-1.24,2.07-2.4,2.07-2.04,3.23-3.61,4.35-5.85,1.04-2.05,1.59-3.54,2.07-5.59l.45-1.83.12-11.99c.1-11.42.14-12.08.5-13.97,1.1-5.69,3.52-10.23,7.69-14.41,4.68-4.69,9.18-6.87,16.39-7.92,1.02-.16,5.21.05,6.69.33ZM702.7,640.74c.29.19-.16,1.97-.91,3.62-1.5,3.28-3.95,5.59-7.21,6.81-1.81.67-4.42.83-6.14.4-3.47-.88-6.66-3.45-8.28-6.66-.52-1.04-1.21-3.17-1.21-3.78v-.36l11.7-.05c6.42-.02,11.71-.05,11.77-.07.05-.03.19.02.29.09Z"/>
    <path d="M729.14,576.58c-.62.64-.62.83.03,1.76,3.19,4.59,4.68,7.57,5.66,11.46.88,3.54,1.14,8.44.6,11.66-.35,2.07-1.43,5.35-2.43,7.26-.72,1.4-.76,1.52-.53,1.98.33.69,1.05,1,1.71.74,1.12-.47,3.4-6.38,3.95-10.27.45-3.17.07-8.95-.79-12.34-1.1-4.24-3.83-9.54-6.21-12.03-.83-.88-1.28-.93-1.98-.24Z"/>
    <path d="M650.7,576.56c-.52.5-1.86,2.29-2.69,3.59-5.61,8.68-6.38,20.53-1.92,29.43.78,1.55,1.24,2.04,1.93,2.04.47,0,1.24-.71,1.24-1.14,0-.17-.41-1.21-.93-2.29-1.85-3.93-2.35-6-2.47-10.28-.07-2.43-.03-3.52.21-4.99.79-5.07,2.43-9.04,5.52-13.37.71-1,1.29-1.98,1.29-2.21,0-.93-1.52-1.47-2.19-.78Z"/>
    <path d="M723.7,581.77c-.45.17-.93.83-.93,1.22,0,.16.47.93,1.05,1.73,1.92,2.64,3.12,5.45,3.69,8.66.24,1.31.28,2.26.21,4.31-.09,2.9-.33,3.99-1.4,6.57-.74,1.79-.72,2.23.17,2.64.91.45,1.38.1,2.19-1.54,1.33-2.71,2.04-6.99,1.69-10.37-.47-4.57-1.64-7.85-4.11-11.37-.91-1.31-1.64-2.05-2.02-2.02-.1,0-.36.07-.55.16Z"/>
    <path d="M656.57,582.03c-1.12.78-3.47,4.81-4.35,7.42-1.07,3.23-1.4,7.71-.81,11.08.28,1.52,1.24,4.59,1.76,5.61.52.98,1.41,1.26,2.21.64.6-.47.57-.98-.14-2.67-.97-2.28-1.33-4-1.43-6.71-.19-4.83,1.1-9.01,3.93-12.7.59-.78.83-1.26.85-1.66,0-1.04-1.16-1.6-2.02-1Z"/>
  </g>
  <g>
    <path d="M960.02,575.58c-5.81,1.52-9.73,6.78-10.58,14.18-.33,2.93.29,6.69,1.57,9.52,1.33,2.92,3.8,5.69,6.14,6.94,5.83,3.05,12.58,1.57,16.51-3.64,4.3-5.68,4.9-13.47,1.55-20.01-2.02-3.95-5.06-6.37-8.97-7.16-1.5-.31-4.76-.22-6.23.17ZM966.28,578.1c3.67.91,6.68,4.28,7.88,8.85,1.04,3.95.67,8.11-.98,11.44-1.74,3.47-4.05,5.59-7.13,6.5-1.09.33-1.52.38-3.02.29-2.85-.16-5.11-1.16-7.09-3.14-.97-.97-1.4-1.57-2.12-3.02-1.22-2.47-1.62-4-1.71-6.9-.1-2.64.16-4.3.98-6.61,1.28-3.49,3.86-6.21,6.87-7.21,1.97-.66,4.21-.74,6.31-.21Z"/>
    <path d="M1031.44,575.56c-4.66,1.26-7.78,4.4-9.66,9.73-1.4,3.97-1.38,8.42.07,12.47,1.78,4.97,5.28,8.44,9.75,9.64,1.66.45,4.69.41,6.42-.07,2.52-.71,3.92-1.5,5.69-3.24,5.14-5.04,6.44-13.47,3.17-20.84-1.54-3.47-4.54-6.28-7.95-7.45-1.19-.41-1.71-.48-3.8-.53-1.98-.03-2.64.02-3.69.29ZM1037.88,578.2c2.61.67,4.81,2.59,6.3,5.45,3.66,7.07,1.85,16.1-3.97,19.86-1.69,1.09-3.5,1.6-5.68,1.62-1.31,0-2.07-.09-2.76-.31-3.31-1.1-6.07-4.09-7.45-8.04-1-2.86-1.16-6.45-.41-9.35,1.88-7.42,7.28-10.99,13.97-9.23Z"/>
    <path d="M996.3,592.71c-4.5,1.04-7.92,4.09-9.85,8.83-.91,2.26-1.31,4.38-1.31,7.14-.02,9.26,6.02,16.03,14.2,15.94,5.21-.07,9.52-2.98,11.9-8.04,2.35-5,2.26-11.51-.19-16.39-.91-1.81-1.71-2.88-3.23-4.31-1.41-1.33-2.97-2.26-4.83-2.86-1.66-.53-5.02-.69-6.69-.31ZM1001.56,595.31c2.48.59,4.69,2.21,6.3,4.64,1.07,1.59,1.64,2.9,2.1,4.76.47,1.83.47,5.78,0,7.59-1.5,5.88-5.33,9.54-10.3,9.8-2,.1-3.04-.1-4.88-.98-3.33-1.57-5.45-4.31-6.59-8.56-.9-3.3-.53-7.44.95-10.68,1.17-2.61,3.11-4.68,5.43-5.8,2.1-1.02,4.71-1.31,6.99-.78Z"/>
    <path d="M1042.57,610.13c-2.73,1.9-4.47,2.5-7.44,2.64-2.86.12-4.71-.4-7.33-2.09-.76-.5-1.41-.79-1.74-.79-.74,0-3.04.93-4.26,1.73-1.36.86-2.97,2.52-4.02,4.12-.97,1.48-2.42,4.8-2.52,5.8-.12.93.41,1.64,1.22,1.64.74,0,1.19-.52,1.55-1.78.5-1.73,2.1-4.66,3.23-5.88,1.14-1.24,3.24-2.66,4.16-2.81.48-.07.78.03,1.57.53,3.21,2.05,7.94,2.73,11.68,1.66,1.59-.45,3.8-1.52,5-2.42,1.02-.76,1.28-.76,3.33-.07,1.85.62,3.67,1.74,5.12,3.17,2.02,2,3.21,4.26,3.73,7.07.29,1.64.33,8.32.03,9.44-.24,1.02-1.35,2.19-2.29,2.45-.47.12-4.83.19-13.89.19-14.92,0-13.97-.09-13.97,1.29s-.98,1.31,14.42,1.26c12.34-.05,13.68-.09,14.35-.35,1.74-.71,3.19-2.16,3.74-3.76.55-1.64.4-10.16-.22-12.42-1.21-4.37-4-7.75-8.14-9.83-1.55-.79-3.86-1.55-5-1.64-.91-.09-.98-.07-2.31.85Z"/>
    <path d="M951.23,609.79c-1.93.53-4.69,1.93-6.12,3.12-2.38,1.97-4.4,5.18-5.26,8.33-.43,1.6-.45,1.86-.45,6.07,0,4.93.1,5.66,1.16,7.18.69,1,2.12,2.05,3.24,2.38.67.21,3.38.26,14.67.29l13.84.03.33-.38c.38-.48.4-1.21.07-1.67-.24-.31-.64-.33-14.11-.41-15.41-.1-14.3,0-15.63-1.26-.91-.88-1.07-1.74-1.07-5.83,0-5.14.41-7.04,2.16-9.64.9-1.35,2.5-3.02,3.62-3.8,1.64-1.14,4.4-2.24,5.57-2.24.17,0,.86.36,1.52.79,4.92,3.33,11.4,3.49,16.51.41.62-.38,1.26-.69,1.41-.69.76,0,2.73,1.29,3.93,2.59,1.47,1.57,2.47,3.3,3.31,5.73.35.98.74,1.88.9,1.98.52.4,1.36.28,1.76-.22.47-.59.45-.79-.09-2.52-1.54-4.87-4.59-8.38-8.59-9.89-1.55-.59-1.93-.55-3.23.29-2.54,1.64-4.76,2.38-7.25,2.38-2.83,0-5.02-.69-7.52-2.36-1.9-1.26-2.29-1.33-4.68-.67Z"/>
    <path d="M988.48,626.13c-5.88,1.19-10.61,5.47-12.09,10.94-.33,1.19-.4,1.97-.47,5.75-.1,4.83.02,5.94.78,7.33.6,1.12,1.9,2.26,3.11,2.74l.98.4h18.29c17.3,0,18.34-.02,19.2-.31,1.85-.66,3.33-2.29,3.92-4.31.24-.85.28-1.67.22-5.43-.09-5-.22-5.88-1.33-8.25-2.14-4.55-5.97-7.66-10.85-8.8-1.54-.36-2.04-.26-3.33.71-4.83,3.55-10.27,3.55-15.51-.02-1.24-.85-1.79-.98-2.92-.74ZM990.83,629.63c2.47,1.64,5.04,2.4,8.25,2.42,3.26.02,5.88-.74,8.57-2.5,1.24-.81,1.38-.86,2.05-.76,4.3.72,8.26,4.43,9.7,9.06.29.97.36,1.74.41,5.37.09,4.71,0,5.31-.86,6.31-1.17,1.35.22,1.26-19.7,1.26-16.84,0-17.81-.02-18.46-.33-.97-.43-1.73-1.24-2.05-2.21-.36-1.09-.4-7.35-.03-9.23.29-1.48.93-3.28,1.54-4.23,1.24-1.95,3.28-3.86,5.16-4.81,1-.5,3.21-1.26,3.69-1.28.21,0,.98.41,1.74.93Z"/>
  </g>
</svg>