<?xml version="1.0" encoding="UTF-8"?>
<svg id="Vrstva_1" xmlns="http://www.w3.org/2000/svg" version="1.1" viewBox="0 0 94.51 93.25">
  <!-- Generator: Adobe Illustrator 30.6.0, SVG Export Plug-In . SVG Version: 2.1.4 Build 109)  -->
  <path d="M19.63.08c-.9.05-2.4.31-3.31.55-2.71.72-3.61,1.33-3.64,2.43-.02.71-.41.24,6.44,7.4,2.61,2.74,4.83,5.16,4.95,5.35.12.21.21.72.22,1.12,0,.71-.09.85-1.16,1.98-3.3,3.5-6.37,6.61-6.68,6.8-.28.16-.45.14-.79-.03-.26-.14-3.02-2.85-6.16-6.02-5.59-5.68-5.71-5.8-6.38-5.8-.91,0-1.28.41-1.92,2.28-2.61,7.42-.88,15.67,4.45,21.26,4.02,4.19,9.4,6.49,15.27,6.49,1.73,0,2.83-.12,5.68-.67l.83-.16,1.36,1.26c.74.69,2.36,2.29,3.59,3.57l2.23,2.31-3.04,3.11c-1.67,1.69-4.52,4.61-6.33,6.45s-6.4,6.5-10.2,10.35-7.19,7.44-7.56,7.95c-2.57,3.88-2.04,8.97,1.33,12.32,3.73,3.74,9.21,3.83,13.15.22,1.09-1,6.88-7.44,11.3-12.54,5.83-6.75,13.32-15.29,13.44-15.34.07-.02,3.61,3.55,7.88,7.94,10.44,10.73,18.81,19.25,19.67,20.03,1.88,1.69,4.05,2.54,6.47,2.54,6.63,0,11.23-6.52,9.06-12.8-.22-.64-.67-1.59-.98-2.09-.35-.55-6.5-6.85-15.92-16.3-8.45-8.45-15.37-15.46-15.37-15.55s2.17-2.52,4.85-5.4c2.66-2.86,6.26-6.78,8.02-8.68,5.54-6,8.4-8.87,9.11-9.06.35-.1,2.02-.48,3.71-.86,1.9-.41,3.23-.79,3.43-.98.69-.64,7.88-11.63,7.88-12.06,0-.33-.72-1.19-2.92-3.49-4.12-4.33-4.59-4.74-5.18-4.64-.26.05-1.09.52-1.85,1.04-.74.52-3.23,2.12-5.5,3.55-2.28,1.45-4.28,2.76-4.43,2.92-.21.19-.59,1.52-1.09,3.74-.43,1.9-.86,3.76-.97,4.14-.16.59-1.86,2.36-11.09,11.65-5.99,6.02-10.97,10.96-11.08,10.96-.22,0-8.75-8.7-9.02-9.2-.16-.29-.1-.79.26-2.4.6-2.69.76-7.25.35-9.66-.79-4.55-2.92-8.83-5.87-11.85C32.74,2.78,27.92.43,23.65.15c-.74-.05-1.57-.12-1.86-.14-.28-.03-1.26,0-2.16.07h0ZM25.88,3.14c3.12.85,6.11,2.54,8.32,4.74,1.52,1.54,2.45,2.86,3.55,5.18,2.04,4.21,2.48,8.87,1.36,14.1-.57,2.64-.59,3.11-.16,3.99.47.91,2.5,2.98,27.88,28.45,12.15,12.2,19.22,19.41,19.6,20.01,1.05,1.64,1.47,3.42,1.19,5.06-.5,2.97-2.73,5.24-5.68,5.81-1.54.31-2.81.14-4.26-.59-.9-.45-5.56-5-13.99-13.65-3.61-3.71-11.28-11.58-17.08-17.51-5.78-5.94-11.9-12.22-13.6-13.97-4.31-4.49-4.54-4.62-7.25-4-6,1.38-11.35.41-15.73-2.86-5.04-3.74-7.71-9.35-7.44-15.55.09-1.95.52-4.42.83-4.76.1-.1,2.05,1.78,5.12,4.9,5.4,5.54,5.83,5.88,7.57,5.88,1.64,0,1.6.03,6.56-5.12,2.21-2.31,3.66-3.97,3.85-4.42.38-.81.45-2.57.16-3.61-.19-.69-1.38-2.04-7.56-8.42l-3.16-3.28.48-.19c1.92-.74,6.92-.85,9.42-.19h.02ZM89.16,7l2.45,2.55-3.23,4.87c-1.78,2.69-3.26,4.92-3.3,4.95s-1.57.4-3.42.81c-1.85.4-3.61.86-3.92,1.04-.31.16-.98.69-1.5,1.17-1,.93-11.34,11.92-16.08,17.1-1.57,1.71-3.28,3.55-3.8,4.11l-.95,1-1.55-1.55-1.55-1.57,1.98-2.02c1.09-1.12,5.12-5.21,8.99-9.11,3.85-3.88,8.04-8.16,9.33-9.49l2.33-2.42.29-1.29c.17-.71.45-2,.62-2.85.17-.86.45-2.07.6-2.71l.29-1.14,3.12-2c1.73-1.1,3.85-2.45,4.69-3.02.86-.57,1.67-1.02,1.83-1s1.4,1.17,2.74,2.57h.04ZM40.77,56.45l4.11,4.19-.35.38c-.19.21-1.57,1.81-3.07,3.57-3.12,3.64-5.07,5.88-8.28,9.58-12.3,14.11-13.08,14.96-14.58,15.67-4.33,2.1-9.18-.45-10.01-5.26-.24-1.36-.05-2.62.64-4.16.53-1.17.31-.95,17.82-18.82,5.07-5.18,9.32-9.4,9.44-9.37.1.02,2.04,1.92,4.28,4.23h0Z"/>
  <path d="M78.89,79.45c-2.85,1.05-3.16,5.09-.5,6.37.83.41,1.98.48,2.9.17.81-.26,1.95-1.54,2.1-2.33.29-1.57-.38-3.21-1.6-3.93-.67-.38-2.19-.53-2.9-.28ZM80.6,82.03c.55.43.59,1.07.07,1.43-.55.38-1.1.35-1.41-.1-.38-.53-.35-.78.16-1.26.5-.52.6-.53,1.19-.07h-.01Z"/>
</svg>