<?xml version="1.0" encoding="UTF-8"?>
<svg id="Vrstva_1" xmlns="http://www.w3.org/2000/svg" version="1.1" viewBox="0 0 68.01 64.02">
  <!-- Generator: Adobe Illustrator 30.6.0, SVG Export Plug-In . SVG Version: 2.1.4 Build 109)  -->
  <defs>
    <style>
      .st0 {
        fill: #f4f7f8;
      }

      .st1 {
        fill: none;
      }

      .st2 {
        fill: #0d2237;
      }
    </style>
  </defs>
  <path class="st1" d="M33.35,26.24c-.41,0-.8-.11-1.02-.35.22.25.61.35,1.02.35Z"/>
  <path class="st1" d="M32.2,25.73s.05.06.07.09c-.04-.06-.07-.13-.09-.2,0,.03,0,.08.02.11Z"/>
  <path class="st1" d="M34.2,22.54s0,.07.02.11c0-.03,0-.07-.02-.11-.25-.97-.38-2.06-.7-2.87,0-.01-.03-.02-.04,0h.04c.32.82.45,1.9.7,2.87Z"/>
  <path class="st1" d="M34.35,36.65c5.68-1.69,2.81-9.69-2.63-7.71l-.18.08c-4.47,2.07-1.86,8.81,2.81,7.63Z"/>
  <path class="st1" d="M33.71,26.22c-.1,0-.19.02-.29.02.1,0,.19,0,.29-.02Z"/>
  <path class="st1" d="M32.24,24.7c-.02.1-.04.22-.05.34.05-.23.11-.56.19-.95-.05.22-.1.42-.14.61Z"/>
  <path class="st1" d="M33.07,21c.14-.56.26-1.04.34-1.29-.06.14-.19.63-.34,1.29Z"/>
  <path class="st1" d="M34.06,26.17s-.11.02-.17.03c.06,0,.11-.02.17-.03Z"/>
  <path class="st1" d="M34.52,26.03c-.08.04-.18.07-.28.1.1-.03.2-.06.28-.1Z"/>
  <path class="st1" d="M32.16,25.19v.14-.14Z"/>
  <path class="st1" d="M53.93,59.67c-.03-3.39-.06-12.98-.11-14.71-.08-.27-.28-.22-.62-.26-.56-.02-1.79-.02-2.69-.04-.88.07-1.5-.3-1.38.78.03,3.14.03,16.28.09,18.07.23.49.74.37,1.44.48.92.07,2.27.03,2.86-.09l.1-.03c.13-.04.21-.09.26-.17.15-1.02,0-2.63.04-4.05v.02h.01Z"/>
  <path class="st1" d="M39.77,54.57c-1.4-.38-3.45-.45-4.9-.06,0,.7.04,9.02.04,9.38,1.23.1,3.65.05,4.85.09h0c0-1.73.05-9.29,0-9.42h.01Z"/>
  <path class="st1" d="M68,47.67c-.03-7.05.02-13.83-.05-14.2-.96-.12-3.59,0-4.58-.03-.48,6.39-.03,28.51-.15,30.3,1.24.36,3.18.26,4.53,0l.09-.03c.08-.03.13-.05.15-.08.05-3.07,0-11.41,0-15.97h.01Z"/>
  <path class="st0" d="M32.18,25.62c.02.07.05.14.09.2.02.02.03.05.05.07.22.24.61.34,1.02.35h.08c.1,0,.19,0,.29-.02.06,0,.12,0,.18-.02.06,0,.11-.02.17-.03.06,0,.12-.03.18-.04.1-.03.2-.06.28-.1l.09-.07c.48-.66-.24-2.29-.4-3.31,0-.03,0-.07-.02-.11-.25-.97-.38-2.05-.7-2.87,0-.01-.03-.02-.04,0,0,0-.03.03-.04.05h0c-.08.25-.2.72-.34,1.29-.23.95-.5,2.17-.69,3.09-.08.38-.15.71-.19.95v.29c0,.11,0,.21.03.3l-.03-.02h0Z"/>
  <g>
    <path class="st2" d="M40.06,31.69l14.72-15.32,5.64-1.58,5.54-8.14-6.02-6.1-8.25,5.99c-1.28.93-1,3.32-1.28,5.02l-15.36,15.21-6.28-6.49c2.04-5.9.57-11.95-3.63-16.12C18.08-2.84,6.86.62,8.96,2.83l7.27,7.64c.69.73.59,1.74-.08,2.39l-4.88,4.72L2.88,9.37c-2.09-2.04-5.83,9.22,1.22,16.38,3.93,3.99,9.4,5.72,15.08,3.99l4.7,4.65L5.95,52.25c-2.61,2.6-2.78,6.64-.24,9.44,1.88,2.07,6.55,3.53,9.09.76l17.77-19.33,18.73,18.91c2.82,2.85,7.56,2.26,9.85-.5,2.37-2.85,2.14-6.9-.66-9.66l-20.44-20.18ZM52.26,12.88l.94-4.91,6.6-4.67,3.51,3.52-4.59,6.27-5.02,1.23-15.07,15.86c-.66-.44-1.29-.98-1.87-1.92l15.49-15.37ZM13.89,60.43c-1.81,2.01-4.78,1.59-6.37-.02-1.34-1.36-2.18-4.29-.4-6.08l18.24-18.38,5.6,5.52-17.08,18.96ZM59.36,60.24c-1.99,2.07-4.85,2.02-7.05-.21L19.98,27.38c-4.82,1.37-9.46,1.03-13.12-2.02-3.61-3.02-5.59-7.73-4.25-12.95l6.2,5.96c1.56,1.5,3.57,1.56,5.11-.02l4.04-4.15c1.03-1.06,1.56-3.29.45-4.46l-6.69-7.03c4.67-1.32,9.22.2,12.34,3.57,2.92,3.15,4.29,7.81,2.89,12.24-.49,1.55-.49,2.72.83,4.06l7.63,7.76,23.24,22.89c2.19,2.16,2.69,4.95.71,7.02Z"/>
    <path class="st2" d="M54.32,54.43c-1.38.83-1.68,2.62-.79,3.72.8.99,2.6,1.46,3.55.71,1.17-.92,1.41-2.65.77-3.62-.78-1.16-2.29-1.55-3.53-.81Z"/>
  </g>
</svg>