<?xml version="1.0" encoding="UTF-8"?>
<svg id="Vrstva_1" xmlns="http://www.w3.org/2000/svg" version="1.1" viewBox="0 0 61.35 64.02">
  <!-- Generator: Adobe Illustrator 30.6.0, SVG Export Plug-In . SVG Version: 2.1.4 Build 109)  -->
  <defs>
    <style>
      .st0 {
        fill: #0c2134;
      }

      .st1 {
        fill: #f4f7f8;
      }

      .st2 {
        fill: none;
      }
    </style>
  </defs>
  <path class="st2" d="M26.69,26.24c-.41,0-.8-.11-1.02-.35.22.25.61.35,1.02.35Z"/>
  <path class="st2" d="M25.54,25.73s.05.06.07.09c-.04-.06-.07-.13-.09-.2,0,.03,0,.08.02.11Z"/>
  <path class="st2" d="M27.54,22.54s0,.07.02.11c0-.03,0-.07-.02-.11-.25-.97-.38-2.06-.7-2.87,0-.01-.03-.02-.04,0h.04c.32.82.45,1.9.7,2.87Z"/>
  <path class="st2" d="M27.69,36.65c5.68-1.69,2.81-9.69-2.63-7.71l-.18.08c-4.47,2.07-1.86,8.81,2.81,7.63Z"/>
  <path class="st2" d="M27.05,26.22c-.1,0-.19.02-.29.02.1,0,.19,0,.29-.02Z"/>
  <path class="st2" d="M25.58,24.7c-.02.1-.04.22-.05.34.05-.23.11-.56.19-.95-.05.22-.1.42-.14.61Z"/>
  <path class="st2" d="M26.41,21c.14-.56.26-1.04.34-1.29-.06.14-.19.63-.34,1.29Z"/>
  <path class="st2" d="M27.4,26.17s-.11.02-.17.03c.06,0,.11-.02.17-.03Z"/>
  <path class="st2" d="M27.86,26.03c-.08.04-.18.07-.28.1.1-.03.2-.06.28-.1Z"/>
  <path class="st2" d="M25.5,25.19v.14-.14Z"/>
  <path class="st2" d="M47.27,59.67c-.03-3.39-.06-12.98-.11-14.71-.08-.27-.28-.22-.62-.26-.56-.02-1.79-.02-2.69-.04-.88.07-1.5-.3-1.38.78.03,3.14.03,16.28.09,18.07.23.49.74.37,1.44.48.92.07,2.27.03,2.86-.09l.1-.03c.13-.04.21-.09.26-.17.15-1.02,0-2.63.04-4.05v.02h.01Z"/>
  <path class="st2" d="M33.11,54.57c-1.4-.38-3.45-.45-4.9-.06,0,.7.04,9.02.04,9.38,1.23.1,3.65.05,4.85.09h0c0-1.73.05-9.29,0-9.42h.01Z"/>
  <path class="st2" d="M61.34,47.67c-.03-7.05.02-13.83-.05-14.2-.96-.12-3.59,0-4.58-.03-.48,6.39-.03,28.51-.15,30.3,1.24.36,3.18.26,4.53,0l.09-.03c.08-.03.13-.05.15-.08.05-3.07,0-11.41,0-15.97h.01Z"/>
  <path class="st1" d="M25.52,25.62c.02.07.05.14.09.2.02.02.03.05.05.07.22.24.61.34,1.02.35h.08c.1,0,.19,0,.29-.02.06,0,.12,0,.18-.02.06,0,.11-.02.17-.03.06,0,.12-.03.18-.04.1-.03.2-.06.28-.1l.09-.07c.48-.66-.24-2.29-.4-3.31,0-.03,0-.07-.02-.11-.25-.97-.38-2.05-.7-2.87,0-.01-.03-.02-.04,0,0,0-.03.03-.04.05h0c-.08.25-.2.72-.34,1.29-.23.95-.5,2.17-.69,3.09-.08.38-.15.71-.19.95v.29c0,.11,0,.21.03.3l-.03-.02h0Z"/>
  <g>
    <path class="st0" d="M50.47,16.35c-1.24-4.35-2.96-8.36-5.89-11.77C42.71,2.41,39.93.07,36.92.06L17.8,0C11-.02,5.76,6.41,3.45,12.65-.74,23.99-1.07,36.28,2.23,47.88c2.16,7.61,7.39,16.08,15.26,16.08h18.61c6.72,0,11.81-8.04,13.88-14.64,3.36-10.72,3.56-22.17.49-32.98ZM29.58,2.25l-2.77,2.94c-3.75.65-6.84,2.31-10.06,4.55,2.87-6.03,5.98-8.57,12.84-7.49ZM19.49,29.54l.44,8.34c-3.04,1.32-5.05,3.67-6.94,6.34l-1.2-7.89c2.6-2.47,4.31-5.12,7.7-6.8ZM11.94,33.06l.2-7.74,8.89-7.24-1.45,8.74c-2.64,1.78-5.43,3.49-7.64,6.25ZM15.46,44.71c1.25-1.63,2.25-3.25,4.53-4.33l1.78,7.57c-2.85,1.36-4.15,3.73-5.66,6.6l-2.6-7.28,1.96-2.56ZM12.97,21.54c.5-2.55.75-5.64,2.39-7.79l3.96-2.88c1.73-1.26,3.3-2.37,5.57-2.98l-2.92,7.55c-3.6,1.09-6.09,3.4-9,6.09ZM19.28,2.12c-2.36,2.5-4.14,5.02-5.17,8.31-1.19-2.08-2.11-3.58-3.64-4.84,2.41-2.55,5.37-3.69,8.81-3.47ZM8.97,7.35c2.09,1.67,3.01,3.99,3.61,6.27l-2.14,7.74c-1.59-2.58-2.73-4.83-5.41-6.24.95-2.85,1.94-5.34,3.94-7.78ZM4.32,17.41c1.87,1.09,2.67,2.32,3.52,3.85l1.89,3.37-.36,7.89c-2.1-2.33-3.68-4.62-6.83-5.74l1.77-9.38ZM2.46,29.23c3.13,1.65,4.63,4.35,6.99,6.78l.89,7.68c-2.34-2.38-4.51-4.34-7.73-5.47-.24-3.04-.68-5.9-.15-8.99ZM2.97,40.87c1.96.7,3.17,1.89,4.57,3.23l3.27,3.12c1.61,1.53,1.62,4.25,2.5,6.76-2.94-1.83-5.13-3.53-8.2-4.58-.98-2.71-1.7-5.22-2.15-8.53ZM6.73,52.41l8.36,5.3,3.29,4.13c-5.64.07-10.07-4.23-11.65-9.43ZM17.53,56.95c1.27-2.69,2.17-5.08,4.85-6.76.93,2.23,1.5,4.14,2.98,6.25-1.78,1.34-2.5,2.94-4.19,4.85-1.58-1.21-2.51-2.74-3.64-4.33ZM23.69,61.69l2.54-3.07,3.44,3.07c-2.24.3-3.87.23-5.98,0ZM47.56,49.33c-1.33,3.96-3.39,7.5-6.53,10.38-3.19,2.93-7.42,2.71-10.37-.13-3.01-2.89-5.07-6.64-6.32-10.76-3.29-10.91-3.49-22.62-.03-33.46,1.47-4.6,3.73-8.78,7.35-11.71,2.43-1.97,5.62-2.04,8.25-.22,3.43,2.39,5.64,5.96,7.16,9.97,4.37,11.47,4.4,24.26.49,35.92Z"/>
    <path class="st0" d="M31.89,13.19c-7.12,7.64-7.49,28.91-.23,37.65,1.57,1.88,4.48,3.01,6.83,1.47,9.01-5.91,9.44-30.78,1.83-39.01-2.37-2.57-5.98-2.73-8.43-.1ZM40.18,47.26c-.68,1.48-2.51,3.63-4.48,3.3-2.64-.45-4.06-3.23-4.81-5.38-2.96-8.41-3.03-17.74.02-26.12.82-2.24,2.17-4.7,4.44-5.47,5.34-1.8,12.34,17.49,4.83,33.67Z"/>
  </g>
</svg>