<?xml version="1.0" encoding="UTF-8"?>
<svg id="Vrstva_1" xmlns="http://www.w3.org/2000/svg" version="1.1" viewBox="0 0 73.86 92.33" color="#000000" stroke="currentColor" stroke-width="1.4" stroke-linecap="round" stroke-linejoin="round" data-line-weight="soft-metal-140">
  <!-- Generator: Adobe Illustrator 30.6.0, SVG Export Plug-In . SVG Version: 2.1.4 Build 109)  -->
  <path d="M22.79.2c-6.76,1.24-12.8,6.99-16.84,15.99C2.99,22.78,1.02,30.99.2,39.96c-.26,2.76-.26,9.61,0,12.51,1.09,12.56,4.57,23.86,9.47,30.8,3.12,4.43,7.04,7.42,11.32,8.66l1.38.4h30.71l1.29-.4c5.52-1.73,10.56-7.35,14.03-15.65,2.86-6.92,4.71-14.96,5.3-23.12.22-3.16.22-9.71-.02-12.77-1.22-16.55-6.78-30.85-14.34-36.9-1.62-1.31-3.93-2.54-5.83-3.07-1.28-.38-1.52-.38-15.36-.41C26.74-.02,23.84.01,22.77.2h.01ZM27.64,2.65s-.72.85-1.6,1.76c-2.02,2.09-3.38,4.16-5.18,7.82-.78,1.59-1.45,2.9-1.5,2.9s-.45-.72-.9-1.6c-.93-1.81-2.35-3.62-3.49-4.45-.43-.31-.79-.66-.79-.78,0-.24,1.55-1.71,2.85-2.67,2-1.5,4.64-2.59,7-2.9,1.38-.19,3.61-.22,3.61-.07h0ZM42.65,2.89c-2.04,1.64-3.05,2.59-4.07,3.76-1.09,1.28-1.24,1.4-1.97,1.48-1.62.22-4.24.97-5.59,1.59-1.43.67-3.28,1.92-4.93,3.31-1.69,1.43-3.71,2.74-3.92,2.55-.17-.17,2.12-4.64,3.24-6.33,1.85-2.76,4.61-5.37,6.45-6.11,1.24-.5,2.19-.59,6.73-.6h4.49s-.43.35-.43.35ZM52.91,2.96c4.87,1.26,9.23,6,12.65,13.72,4.93,11.11,6.95,26.43,5.28,39.85-1.54,12.34-5.69,23.08-11.06,28.66-4.16,4.31-9.14,5.73-13.32,3.78-4.4-2.07-8.99-7.87-11.47-14.56-4.54-12.11-5.92-27.21-3.8-40.99,1.76-11.34,4.99-19.72,9.82-25.53,2.02-2.42,4.68-4.28,7.04-4.92,1.21-.33,3.61-.33,4.87,0h-.01ZM13.7,11.31c.64.59,1.41,1.59,1.9,2.38.86,1.47,2.38,4.69,2.38,5.07,0,.14-.29,1.14-.67,2.23-.91,2.73-1.66,5.4-2.17,7.85-.24,1.12-.43,2.12-.43,2.19,0,.47-.45-.07-1.28-1.55-.52-.91-1.33-2.24-1.81-2.92-.95-1.35-2.97-3.19-4.24-3.86-.47-.24-.78-.53-.78-.71,0-.81,2.33-6.23,3.55-8.3,1.07-1.78,2.17-3.4,2.33-3.4.09,0,.64.45,1.22,1.02ZM34.18,13.61c-1.28,2.67-2.35,5.4-3.19,8.23l-.38,1.29-1.38.45c-2.66.88-4.42,2.04-7.37,4.8-1.95,1.83-4.45,3.66-4.55,3.35-.22-.67,2.59-10.75,3.31-11.85.14-.21,1.45-1.09,2.92-1.97,1.48-.9,3.64-2.38,4.83-3.36,2.54-2.05,3.62-2.74,5.24-3.3,2.14-.76,2.12-.83.57,2.36ZM6.71,25.32c1.21.85,2.47,2.23,3.5,3.85,1.73,2.73,2.45,3.8,3.14,4.62l.69.83-.28,2.71c-.35,3.42-.62,7.32-.62,9.09v1.35l-.38-.24c-.22-.14-1.07-1.14-1.88-2.23-2.36-3.14-4.57-4.92-7.13-5.78l-.83-.28.12-1.16c.47-4.76,2.21-13.3,2.71-13.3.09,0,.52.24.95.53h.01ZM29.67,26.72c-.05.31-.33,1.85-.62,3.42-.28,1.57-.66,4-.81,5.43-.48,4.42-.35,4-1.64,4.47-2.52.88-4.28,2.09-6.73,4.61-1.93,1.97-3.42,3.26-3.76,3.26-.22,0-.24-.47-.16-3.33.1-3.47.55-8.59.79-9.18.09-.19.76-.69,1.5-1.1,1.97-1.09,3.21-2.02,5.33-3.99,2.35-2.16,3.33-2.92,4.66-3.61,1.35-.69,1.52-.69,1.43.02h.01ZM4.05,42.42c1.29.69,2.95,2.21,4.26,3.93,1.26,1.64,2.57,2.9,3.85,3.71.55.35,1.04.72,1.07.83.03.12.16,1.26.26,2.54.22,2.71.72,6.38,1.19,8.63.22,1.14.26,1.55.1,1.55-.1,0-1.09-.79-2.17-1.76-3.47-3.09-5.99-4.73-8.3-5.4-.55-.16-1.04-.35-1.09-.43-.41-.66-.86-13.66-.48-14.03.16-.17.17-.17,1.31.43ZM27.68,48.37c.05,3.31.16,6.21.21,6.45.1.43.03.5-1.5,1.24-2.31,1.14-3.97,2.55-6.28,5.33-1.09,1.31-2.07,2.38-2.21,2.38-.12,0-.28-.26-.35-.57-.53-2.62-1.48-10.11-1.48-11.59.02-.67.03-.71,1.33-1.47.91-.53,2.14-1.57,4-3.36,2.81-2.73,3.3-3.11,4.74-3.9,1.55-.86,1.43-1.29,1.54,5.49ZM28.41,58.9c.33,2.24,1.17,6.59,1.71,8.64l.59,2.29-.9.45c-1.21.6-2.92,1.98-3.88,3.14-.43.53-1.36,1.88-2.05,3-.69,1.1-1.35,2.02-1.43,2.02-.4,0-2.48-5.69-3.54-9.61l-.47-1.76,1.47-1.43c.81-.79,2.1-2.26,2.88-3.28,1.52-1.98,2.24-2.67,3.9-3.66,1.41-.83,1.59-.81,1.73.19h-.01ZM5.18,59.64c1.4.67,2.59,1.52,5.54,3.97,1.28,1.05,2.92,2.31,3.62,2.79.71.47,1.31.88,1.35.9.02.03.31,1.05.64,2.28.76,2.79,1.5,5.02,2.36,7.13.36.9.66,1.66.66,1.69,0,.24-.76-.19-3.09-1.73-3.66-2.42-4.73-3-7.16-3.83l-2.09-.72-.48-1.36c-1.05-2.97-2.1-7.14-2.78-10.99-.16-.79-.03-.81,1.43-.12h0ZM32.14,74.39c.74,2.05,2.38,5.56,3.35,7.16.33.55.6,1.07.6,1.14,0,.09-.6.47-1.33.85-1.59.85-3.12,2.28-4.35,4.11-.5.74-1,1.31-1.1,1.28-.67-.21-3.69-4.24-5.04-6.71l-.64-1.17.76-.9c.43-.5,1.35-1.76,2.05-2.79s1.69-2.35,2.19-2.88c.93-1.02,2.38-2.1,2.67-2,.09.02.47.9.83,1.93v-.02ZM10.47,76.05c.76.38,2.28,1.31,3.36,2.09,2.74,1.93,4.3,2.85,5.75,3.33l1.24.41,1.21,2c.67,1.1,1.83,2.83,2.59,3.85s1.41,1.9,1.43,1.97c.03.09-.5.14-1.21.14-5.09-.02-10.23-3.49-13.91-9.4-.88-1.45-2.62-4.83-2.62-5.14,0-.21.62,0,2.16.76h0ZM38.92,86.47c.64.71,1.71,1.74,2.36,2.28s1.19,1.05,1.19,1.12c0,.16-10.08.19-10.23.03-.17-.17,1.21-2.04,2.23-3,.88-.83,2.43-1.73,3.02-1.73.16,0,.79.59,1.43,1.29h0Z"/>
  <path d="M48.87,16.95c-1.43.38-2.55,1.07-3.9,2.4-2.73,2.67-4.83,7.13-6.37,13.42-2.73,11.13-1.62,25.79,2.64,35.32,3.26,7.3,8.71,10.04,13.73,6.94,1.04-.66,2.59-2.33,3.71-4.05,2.31-3.5,4.19-9.59,5.11-16.51.43-3.28.52-11.44.17-14.8-.83-7.75-2.79-14.11-5.68-18.29-2.48-3.61-6.11-5.31-9.42-4.42h.01ZM52.93,19.78c3.8,1.83,6.92,8.9,8.3,18.81.43,3.12.43,11.7,0,15.18-.9,7.23-3.02,13.68-5.57,17.03-1.69,2.21-3.81,3.24-5.78,2.83-1.21-.26-1.79-.6-2.95-1.71-1.98-1.88-3.71-5.28-5.07-9.96-1.35-4.59-1.95-8.8-2.09-14.49-.19-7.45.95-14.37,3.3-20,2.09-5.02,4.04-7.44,6.52-8.13,1.16-.31,2.02-.19,3.35.43h0Z"/>
</svg>