<?xml version="1.0" encoding="UTF-8"?>
<svg id="Vrstva_1" xmlns="http://www.w3.org/2000/svg" version="1.1" viewBox="0 0 72.97 61.16">
  <!-- Generator: Adobe Illustrator 30.6.0, SVG Export Plug-In . SVG Version: 2.1.4 Build 109)  -->
  <defs>
    <style>
      .st0 {
        fill: #f4f7f8;
      }

      .st1 {
        fill: none;
      }

      .st2 {
        fill: #071b2f;
      }
    </style>
  </defs>
  <path class="st1" d="M36.85,23.37c-.41,0-.8-.11-1.02-.35.22.25.61.35,1.02.35Z"/>
  <path class="st1" d="M35.7,22.86s.05.06.07.09c-.04-.06-.07-.13-.09-.2,0,.03,0,.08.02.11Z"/>
  <path class="st1" d="M37.7,19.67s0,.07.02.11c0-.03,0-.07-.02-.11-.25-.97-.38-2.06-.7-2.87,0-.01-.03-.02-.04,0h.04c.32.82.45,1.9.7,2.87Z"/>
  <path class="st1" d="M37.85,33.78c5.68-1.69,2.81-9.69-2.63-7.71l-.18.08c-4.47,2.07-1.86,8.81,2.81,7.63Z"/>
  <path class="st1" d="M37.21,23.35c-.1,0-.19.02-.29.02.1,0,.19,0,.29-.02Z"/>
  <path class="st1" d="M35.74,21.83c-.02.1-.04.22-.05.34.05-.23.11-.56.19-.95-.05.22-.1.42-.14.61Z"/>
  <path class="st1" d="M36.57,18.13c.14-.56.26-1.04.34-1.29-.06.14-.19.63-.34,1.29Z"/>
  <path class="st1" d="M37.56,23.3s-.11.02-.17.03c.06,0,.11-.02.17-.03Z"/>
  <path class="st1" d="M38.02,23.16c-.08.04-.18.07-.28.1.1-.03.2-.06.28-.1Z"/>
  <path class="st1" d="M35.66,22.32v.14-.14Z"/>
  <path class="st1" d="M57.43,56.8c-.03-3.39-.06-12.98-.11-14.71-.08-.27-.28-.22-.62-.26-.56-.02-1.79-.02-2.69-.04-.88.07-1.5-.3-1.38.78.03,3.14.03,16.28.09,18.07.23.49.74.37,1.44.48.92.07,2.27.03,2.86-.09l.1-.03c.13-.04.21-.09.26-.17.15-1.02,0-2.63.04-4.05v.02h.01Z"/>
  <path class="st1" d="M43.27,51.7c-1.4-.38-3.45-.45-4.9-.06,0,.7.04,9.02.04,9.38,1.23.1,3.65.05,4.85.09h0c0-1.73.05-9.29,0-9.42h.01Z"/>
  <path class="st1" d="M71.5,44.8c-.03-7.05.02-13.83-.05-14.2-.96-.12-3.59,0-4.58-.03-.48,6.39-.03,28.51-.15,30.3,1.24.36,3.18.26,4.53,0l.09-.03c.08-.03.13-.05.15-.08.05-3.07,0-11.41,0-15.97h.01Z"/>
  <path class="st0" d="M35.68,22.75c.02.07.05.14.09.2.02.02.03.05.05.07.22.24.61.34,1.02.35h.08c.1,0,.19,0,.29-.02.06,0,.12,0,.18-.02.06,0,.11-.02.17-.03.06,0,.12-.03.18-.04.1-.03.2-.06.28-.1l.09-.07c.48-.66-.24-2.29-.4-3.31,0-.03,0-.07-.02-.11-.25-.97-.38-2.05-.7-2.87,0-.01-.03-.02-.04,0,0,0-.03.03-.04.05h0c-.08.25-.2.72-.34,1.29-.23.95-.5,2.17-.69,3.09-.08.38-.15.71-.19.95v.29c0,.11,0,.21.03.3l-.03-.02h0Z"/>
  <g>
    <path class="st2" d="M67.12,8.34l-25.34-.07-.09-5.8c-.02-1.08-.74-2.26-1.86-2.3L34.03,0c-1.35-.04-2.68.78-2.72,2.17l-.18,6.18-24.74-.06c-3.32,0-6.3,2.07-6.31,5.6L0,51.84c0,3.94,2.53,6.46,6.44,6.45l60.64-.04c3.49,0,5.83-2.48,5.84-5.9l.05-37.49c0-3.54-2.14-6.52-5.85-6.53ZM39.35,2.33l.12,12.28-5.99.1-.05-12.32,5.91-.07ZM67.57,55.99l-61.15.11c-2.34,0-4.16-1.26-4.16-3.76l.08-38.96c0-1.47,1.9-2.75,3.07-2.75l25.78-.03.03,4.21c0,1.46,1.41,2.2,2.8,2.21h4.46c1.83.02,3.24-.83,3.26-2.73l.05-3.69,25.97.06c1.52,0,2.87,1.82,2.87,3.23l.08,38.48c0,1.78-1.18,3.62-3.15,3.62Z"/>
    <path class="st2" d="M24.42,34.53c-2.33,1.08-5.08,1.2-7.61-.04-5.75,1.53-8.54,4.08-8.48,10.02.02,1.77,1.01,3.76,3.04,3.76l18.64.02c1.9,0,2.7-1.76,2.81-3.54.37-5.58-3-9.15-8.4-10.23ZM30.18,46.03l-19.13.05c-.89-1.86-.54-4.23.51-6.09.9-1.58,3.49-3.27,5.59-2.79,2.7.62,4.46.61,7.12-.05,1.76-.44,4.13,1.34,5,2.56,1.2,1.67,1.63,4.23.91,6.31Z"/>
    <path class="st2" d="M20.92,33.8c2.78-.16,5.36-2.08,6.29-5.35,1.38-4.89-1.61-9.77-6.52-9.95-2.6-.1-4.93,1.61-5.87,3.16-1.47,2.41-1.53,4.83-.72,7.16,1.04,3.02,3.71,5.16,6.83,4.98ZM18.95,21.08c2.7-1.13,5.7.63,6.24,3.91.55,3.32-1.7,6.75-4.95,6.56-2.56-.15-3.98-2.81-4.23-4.73-.31-2.37.63-4.77,2.95-5.74Z"/>
    <path class="st2" d="M63.48,31.8h-22.63c-.49.3-.69,1.26-.51,1.55.12.18.34.5.75.72l22.2-.02c.79,0,1.07-.85,1.06-1.16,0-.31-.38-1.09-.88-1.09Z"/>
    <path class="st2" d="M41.1,26.19l22.57-.04c.68,0,.82-1.48.51-1.66-.2-.11-.39-.51-.87-.51h-22.02c-.62-.01-.92.65-1,.96-.08.31.31,1.25.81,1.25Z"/>
    <path class="st2" d="M55.64,39.69l-13.7-.07c-.88,0-1.63.44-1.65,1.17-.02.75.78,1.22,1.65,1.21l13.82-.16c.68-.13.99-1.08.79-1.34-.15-.2-.46-.8-.91-.8Z"/>
  </g>
</svg>