<?xml version="1.0" encoding="UTF-8"?>
<svg id="Vrstva_1" xmlns="http://www.w3.org/2000/svg" version="1.1" viewBox="0 0 101.53 73.51" color="#000000" stroke="currentColor" stroke-width="1.4" stroke-linecap="round" stroke-linejoin="round" data-line-weight="soft-metal-140">
  <!-- Generator: Adobe Illustrator 30.6.0, SVG Export Plug-In . SVG Version: 2.1.4 Build 109)  -->
  <path d="M7.33.09C4.62.45,2.52,1.82,1.14,4.11-.07,6.13,0,4.32,0,36.36,0,54.68.07,65.67.17,66.43c.47,3.24,2.52,5.59,5.87,6.75.91.31,2.26.33,44.77.33,47.41,0,44.46.05,46.39-.9.97-.48,2.35-1.73,3.04-2.73.26-.38.66-1.19.88-1.81l.41-1.12v-30.11c0-28.92-.02-30.14-.33-31.06-.9-2.67-2.79-4.59-5.31-5.37-1.04-.33-2.17-.35-44.29-.4C27.81-.02,7.9.01,7.33.08h0ZM95.45,2.92c1.14.43,2.43,1.64,3.02,2.83l.48.98v60.04l-.45.95c-.57,1.21-1.54,2.17-2.74,2.74l-.95.45-43.48.05-43.48.03-1.19-.36c-1.02-.31-1.35-.52-2.26-1.41-1.79-1.79-1.62,1.45-1.66-32.42-.02-33.4-.14-30.59,1.35-32.23,1.28-1.43,2.16-1.78,4.71-1.9,1.19-.05,20.98-.1,44-.09,39.96.02,41.87.02,42.65.33h0Z"/>
  <path d="M26.49,15.26c-2.78.67-4.64,2.19-5.87,4.76-1.57,3.26-1.73,6.66-.47,10.27,1.38,3.95,4.19,6.31,7.94,6.66,3.38.31,7-1.92,8.63-5.28.93-1.95,1.28-3.61,1.28-5.95,0-4.55-1.92-8.09-5.28-9.75-2.17-1.07-3.93-1.28-6.23-.71h0ZM31.32,18.19c1.78.88,3.11,2.59,3.78,4.83.35,1.19.36,4.07.02,5.37-.4,1.5-1.29,3.12-2.23,4.07-1.9,1.88-4.3,2.4-6.38,1.38-2.71-1.33-4.59-4.73-4.59-8.3,0-2.45.74-4.4,2.26-5.97,1.97-2.02,4.74-2.55,7.14-1.38h0Z"/>
  <path d="M57.01,23.25c-.38.17-.76.81-.76,1.28,0,.14.19.45.43.67l.41.43h15.75c17.15,0,16.36.05,16.6-.95.12-.47-.12-1.07-.57-1.41-.36-.28-31.3-.29-31.87-.02h.01Z"/>
  <path d="M56.97,34.89c-.35.14-.76,1.07-.64,1.43.05.19.31.5.55.69.43.35.64.35,16.05.35h15.61l.5-.5c.6-.62.64-1.1.07-1.66l-.41-.43-15.75.02c-8.66,0-15.86.05-15.98.1Z"/>
  <path d="M32.01,39.45c-1.93.43-4.54.47-6.18.09-2.81-.66-5.73-.02-8.61,1.92-2.33,1.55-4.04,3.86-4.73,6.37-.36,1.36-.52,5.69-.26,7.02.29,1.33,1.05,2.33,2.26,2.92l.95.47,13.2.03c14.54.05,13.75.1,15.06-1.04.33-.31.79-.91,1.02-1.36.36-.76.4-1.02.4-3.92-.02-2.76-.05-3.24-.41-4.4-.5-1.62-.81-2.24-1.81-3.57-1.36-1.81-4.3-3.74-6.66-4.42-1.64-.45-2.55-.48-4.23-.1h0ZM25.4,42.12c1.74.4,4.99.4,6.87,0,2-.43,2.95-.29,5,.71,2.9,1.41,4.73,3.67,5.16,6.44.28,1.73.24,4.76-.07,5.42-.53,1.1.21,1.05-13.51,1.07-13.87.03-13.27.07-13.87-1.14-.36-.71-.41-3.31-.14-5.18.52-3.24,3.11-5.99,6.8-7.18,1.48-.48,2.1-.5,3.76-.14h0Z"/>
  <path d="M56.89,46.85c-.59.47-.64,1.38-.12,1.9.35.35.57.35,10.7.35h10.37l.45-.45c.35-.35.41-.53.33-.98-.22-1.12.4-1.07-10.96-1.12-10.25-.03-10.32-.03-10.77.31h0Z"/>
</svg>