<?xml version="1.0" encoding="UTF-8"?>
<svg id="Vrstva_1" xmlns="http://www.w3.org/2000/svg" version="1.1" viewBox="0 0 83.22 92.15">
  <!-- Generator: Adobe Illustrator 30.6.0, SVG Export Plug-In . SVG Version: 2.1.4 Build 109)  -->
  <path d="M.65.18C.36.32.08.58.03.75c-.05.19-.03,1.81.02,3.61.1,2.79.17,3.38.48,4.07.78,1.73,2.07,2.86,3.67,3.24l.86.21.03,34.87.05,34.89.47,1.38c1.55,4.49,4.81,7.59,9.3,8.82.83.22,1.78.31,3.78.31,2.35.02,2.83-.03,3.97-.38,2.04-.64,3.54-1.52,5.07-2.98,1.79-1.71,3.02-3.74,3.78-6.31.14-.47.22-10.42.29-35.58l.09-34.9,1-.31c1.24-.4,2.21-1.05,2.9-1.97.86-1.19,1.02-2.04,1.02-5.71,0-3.14-.02-3.33-.36-3.64S35.52.04,18.63.01C4.21-.02,1.1.01.65.2v-.02ZM34.4,4.46c0,2.02-.19,2.92-.79,3.73-.6.78-1.29,1.09-2.57,1.14-.62.03-1.22.16-1.38.28-.22.19-.26,1.22-.26,8.13v7.92h-5.71c-6.57,0-6.69.02-6.71,1.33,0,.35.14.71.35.91.33.33.57.35,6.21.35h5.87v4.9c0,3.76-.05,4.92-.21,4.97-.12.05-2.36.07-4.97.05-5.26-.05-6.49.05-6.85.52-.35.48-.28,1.19.17,1.6.38.36.52.38,6.07.41l5.69.05v9.83l-5.9.09c-6.45.09-6.31.07-6.54,1.14-.07.36,0,.64.24.93l.35.43,5.94.03,5.92.03v9.77l-5.73.09c-5.61.09-5.75.09-6.11.47-.5.5-.48,1.4.03,1.81.33.28.88.31,6.12.31h5.76v10.01h-5.68c-5.47,0-5.68.02-6.12.36-.57.45-.62,1.36-.1,1.88.35.35.55.35,5.92.35h5.8c.19,0,.22.29.14,1.55-.21,2.85-1.14,4.85-3.23,6.92-2.14,2.14-4.14,2.92-7.4,2.92-4.45,0-8.25-2.23-9.99-5.87-.38-.81-.78-1.88-.88-2.38-.14-.64-.19-11.39-.19-36.11V10.1l-.43-.41c-.35-.36-.59-.43-1.43-.43-1.17,0-1.93-.4-2.57-1.36-.57-.85-.74-1.64-.74-3.52v-1.67h31.92v1.76h-.01Z"/>
  <path d="M65.28,27.98c-6.06,1.22-10.52,6-11.65,12.49-.48,2.76-.28,5.19.78,8.87,1.43,4.95,4.31,10.58,8.45,16.42,1.38,1.97,3.83,4.95,4.42,5.42,1.07.85,1.97.26,4.73-3.12,5.4-6.59,9.63-14.87,10.87-21.31,1.73-8.97-3.28-17.03-11.65-18.77-1.47-.31-4.43-.31-5.95,0h0ZM71.15,30.56c.62.16,1.78.59,2.59.98,1.17.59,1.76,1.02,2.93,2.21,1.71,1.71,2.55,3.09,3.31,5.35.52,1.55.55,1.78.53,4.14,0,2.24-.07,2.73-.55,4.57-.71,2.66-1.81,5.42-3.38,8.49-1.9,3.69-3.78,6.52-6.8,10.21l-1.47,1.79-.72-.81c-3.35-3.67-7.63-10.7-9.54-15.63-1.98-5.07-2.5-8.83-1.66-11.99,1-3.67,3.83-7.16,6.99-8.57,2.19-.98,5.38-1.29,7.76-.74h0Z"/>
  <path d="M66.23,36.74c-1.55.52-2.64,1.48-3.5,3.12-.41.79-.47,1.05-.47,2.69,0,1.73.02,1.86.59,2.9.33.59.9,1.36,1.28,1.69,3.31,3,8.78,1.5,10.04-2.76.48-1.62.21-3.67-.67-5.09-.55-.88-1.73-1.9-2.67-2.31-.98-.45-3.55-.57-4.59-.24h-.01ZM69.9,39.43c2.55,1.31,2.57,4.93.03,6.23-.98.5-1.64.57-2.62.28-2.69-.78-3.45-4.35-1.28-6.07,1.19-.97,2.55-1.1,3.86-.43h.01Z"/>
  <path d="M37.73,52.35c-.35.22-.57,1.04-.41,1.47.09.22.55.66,1.04.97s1.16.79,1.5,1.07c.36.29.85.5,1.12.5.98,0,1.54-1.16.95-2-.14-.19-.86-.76-1.6-1.24-1.31-.86-2.07-1.09-2.59-.76h-.01Z"/>
  <path d="M43.61,59.67c-.62.29-.76.83-.53,2.09.16.95.14,1.41-.12,2.83-.17.93-.36,1.88-.4,2.12-.19,1.1,1.48,1.78,2.21.9.74-.91,1.19-5.47.69-6.99-.33-1-1.02-1.36-1.85-.95Z"/>
  <path d="M41.92,72.09c-.4.35-.48.59-.64,1.95-.17,1.57-.1,3.23.21,4.87.28,1.4,1.21,1.85,2.16,1.04l.47-.4-.21-1.66c-.12-1.02-.17-2.38-.1-3.54.14-2.09.03-2.38-.88-2.57-.41-.07-.64,0-1,.31h0Z"/>
  <path d="M67.56,75.99c-.55.09-.83.62-1.05,2.02-.12.66-.4,1.93-.64,2.81s-.38,1.76-.33,1.95c.17.5,1.16.9,1.73.67.52-.19.83-.85,1.29-2.69.5-1.93.69-3.66.48-4.14-.21-.43-.86-.72-1.48-.62h0Z"/>
  <path d="M44.77,84.07c-.21.26-.36.64-.36.86,0,.48.93,1.43,2.67,2.76,2.4,1.79,3.62,2.19,4.38,1.38.62-.66.45-1.29-.53-1.92-.45-.29-1.28-.81-1.81-1.16-.55-.35-1.43-1.02-1.98-1.5-1.16-1.04-1.79-1.16-2.36-.43h-.01Z"/>
  <path d="M60.85,86.57c-.76.38-2.09.83-2.93,1.02-1.6.35-2.12.71-2.12,1.47,0,.22.16.57.33.79.28.35.48.41,1.28.4,1.66-.03,4.92-1.24,5.95-2.19.53-.48.53-1.55,0-1.92-.57-.4-.93-.33-2.5.43h-.01Z"/>
</svg>