<?xml version="1.0" encoding="UTF-8"?>
<svg id="Vrstva_1" xmlns="http://www.w3.org/2000/svg" version="1.1" viewBox="0 0 62.35 64.01">
  <!-- Generator: Adobe Illustrator 30.6.0, SVG Export Plug-In . SVG Version: 2.1.4 Build 109)  -->
  <defs>
    <style>
      .st0 {
        fill: #f4f7f8;
      }

      .st1 {
        fill: #0f2235;
      }

      .st2 {
        fill: none;
      }
    </style>
  </defs>
  <path class="st2" d="M27.68,26.22c-.41,0-.8-.11-1.02-.35.22.25.61.35,1.02.35Z"/>
  <path class="st2" d="M26.53,25.71s.05.06.07.09c-.04-.06-.07-.13-.09-.2,0,.03,0,.08.02.11Z"/>
  <path class="st2" d="M28.53,22.52s0,.07.02.11c0-.03,0-.07-.02-.11-.25-.97-.38-2.06-.7-2.87,0-.01-.03-.02-.04,0h.04c.32.82.45,1.9.7,2.87Z"/>
  <path class="st2" d="M28.68,36.63c5.68-1.69,2.81-9.69-2.63-7.71l-.18.08c-4.47,2.07-1.86,8.81,2.81,7.63Z"/>
  <path class="st2" d="M28.04,26.2c-.1,0-.19.02-.29.02.1,0,.19,0,.29-.02Z"/>
  <path class="st2" d="M26.57,24.68c-.02.1-.04.22-.05.34.05-.23.11-.56.19-.95-.05.22-.1.42-.14.61Z"/>
  <path class="st2" d="M27.4,20.98c.14-.56.26-1.04.34-1.29-.06.14-.19.63-.34,1.29Z"/>
  <path class="st2" d="M28.39,26.15s-.11.02-.17.03c.06,0,.11-.02.17-.03Z"/>
  <path class="st2" d="M28.85,26.01c-.08.04-.18.07-.28.1.1-.03.2-.06.28-.1Z"/>
  <path class="st2" d="M26.49,25.17v.14-.14Z"/>
  <path class="st2" d="M48.26,59.65c-.03-3.39-.06-12.98-.11-14.71-.08-.27-.28-.22-.62-.26-.56-.02-1.79-.02-2.69-.04-.88.07-1.5-.3-1.38.78.03,3.14.03,16.28.09,18.07.23.49.74.37,1.44.48.92.07,2.27.03,2.86-.09l.1-.03c.13-.04.21-.09.26-.17.15-1.02,0-2.63.04-4.05v.02h.01Z"/>
  <path class="st2" d="M34.1,54.55c-1.4-.38-3.45-.45-4.9-.06,0,.7.04,9.02.04,9.38,1.23.1,3.65.05,4.85.09h0c0-1.73.05-9.29,0-9.42h.01Z"/>
  <path class="st2" d="M62.33,47.65c-.03-7.05.02-13.83-.05-14.2-.96-.12-3.59,0-4.58-.03-.48,6.39-.03,28.51-.15,30.3,1.24.36,3.18.26,4.53,0l.09-.03c.08-.03.13-.05.15-.08.05-3.07,0-11.41,0-15.97h.01Z"/>
  <path class="st0" d="M26.51,25.6c.02.07.05.14.09.2.02.02.03.05.05.07.22.24.61.34,1.02.35h.08c.1,0,.19,0,.29-.02.06,0,.12,0,.18-.02.06,0,.11-.02.17-.03.06,0,.12-.03.18-.04.1-.03.2-.06.28-.1l.09-.07c.48-.66-.24-2.29-.4-3.31,0-.03,0-.07-.02-.11-.25-.97-.38-2.05-.7-2.87,0-.01-.03-.02-.04,0,0,0-.03.03-.04.05h0c-.08.25-.2.72-.34,1.29-.23.95-.5,2.17-.69,3.09-.08.38-.15.71-.19.95v.29c0,.11,0,.21.03.3l-.03-.02h0Z"/>
  <g>
    <path class="st1" d="M25.59,3.54c-.12-.84.37-2.96-.49-3.5L.44,0C-.42,4.53-.33,7.07,3.6,8.56l.03,45.74c0,5.16,3.28,8.93,8.15,9.64,4.2.61,10.04-2.1,10.06-7.46l.21-48.08c2.52-.35,3.9-2.31,3.55-4.85ZM22.6,5.67c-.78.45-2.71.75-2.73,2.01l-.13,9.75-7.59.08c-.6,0-.85.63-.89.94-.05.3.2,1.1.72,1.1l7.79.05v6.53s-7-.07-7-.07c-.87,0-1.5.46-1.5,1.19,0,.66.63,1.16,1.51,1.16l6.96-.03-.05,6.35-7.17-.02c-1.03,0-1.39.92-1.29,1.34.17.7.75.98,1.56.97l6.92-.07-.02,6.5-7.38-.05c-.69,0-1.02.52-1.11.9-.07.31.14,1.21.73,1.22l7.78.15.06,6.42-7.6.07c-.6,0-.85.64-.9.95-.05.3.14,1.13.73,1.14l7.75.11c.47,3.94-2.32,7.09-6.22,7.45-3.01.28-7.46-2.12-7.48-6.07l-.26-48.05c0-1.32-2.13-1.55-2.82-2-1.07-.69-.91-2.52-.45-3.6l20.57.05c.66.86.67,2.88-.47,3.53Z"/>
    <path class="st1" d="M44.66,19.57c-6.23-.26-11.68,5.19-10.72,11.94,1.03,7.24,5.27,13.89,10.36,19.12,5.36-5.49,8.63-11.47,10.17-18.1,1.09-6.74-3.3-12.68-9.81-12.96ZM52.15,32.4c-1.19,5.69-4.34,10.59-7.99,15.07-5.02-6.81-11.16-16.28-6.31-22.49,1.62-2.08,4.15-3.39,7.12-3.16,5.15.57,8.27,5.42,7.18,10.58Z"/>
    <path class="st1" d="M33.21,61.23l-3.31-2.53c-.61-.46-.99-.27-1.33-.13-1.43.61.08,2.49,3.07,4.25.68.4,1.51.22,1.79-.25.19-.33.39-.89-.21-1.34Z"/>
    <path class="st1" d="M40.78,59.8c-.32.03-.58.28-1.08.49l-3.45,1.41c-.58.23-.48,1.15-.26,1.42.81.99,4.74-.05,5.93-2.23.04-.5-.79-1.11-1.14-1.08Z"/>
    <path class="st1" d="M28.65,51.9c.2-.88-.28-1.47-.94-1.58-1.93-.33-2.3,6.73-.1,6.31,1.43-.27.49-2.35,1.04-4.73Z"/>
    <path class="st1" d="M28.12,42.78l-.51,4.61c-.04.36.72,1,1.05.97.33-.03,1.09-.41,1.15-1.16l.31-4.07c.05-.7-.59-1.02-.95-1.08-.32-.05-.99.19-1.05.74Z"/>
    <path class="st1" d="M43.81,52.85l-.75.58-.84,3.83c-.13.58.33.98.61,1.14,1.32.76,2.75-2.42,2.18-5-.13-.6-.97-.73-1.2-.55Z"/>
    <path class="st1" d="M28.44,39.28c.34-1.25-2.31-3.25-3.21-2.42-1.07.98.06,1.93.74,2.58.48.46,1.95,1.75,2.47-.16Z"/>
    <path class="st1" d="M42.11,25.89c-2.56,1.3-3.28,4.47-1.92,6.64,1.25,1.99,3.87,2.73,6.01,1.76,2.48-1.13,3.23-3.89,2.18-6.11-1.09-2.3-3.74-3.57-6.27-2.29ZM44.76,32.42c-1.11.25-2.35-.22-2.88-1.5-.42-1,.06-2.75,1.66-3.14,1.47-.36,2.55.72,2.91,1.57.56,1.32-.35,2.77-1.69,3.08Z"/>
  </g>
</svg>