<?xml version="1.0" encoding="UTF-8"?>
<svg id="Vrstva_1" xmlns="http://www.w3.org/2000/svg" version="1.1" viewBox="0 0 99.03 84.48" color="#000000" stroke="currentColor" stroke-width="1.4" stroke-linecap="round" stroke-linejoin="round" data-line-weight="soft-metal-140">
  <!-- Generator: Adobe Illustrator 30.6.0, SVG Export Plug-In . SVG Version: 2.1.4 Build 109)  -->
  <path d="M18.75.12c-.9.21-2.24.91-2.98,1.57-.9.79-1.86,2.35-2.19,3.54-.29,1.04-3.81,20.34-5.59,30.68-.14.85-.35,1.66-.43,1.76-.12.16-.79.22-2.19.22-1.1,0-2.29.09-2.66.19-.81.22-1.93,1.21-2.38,2.07-.31.64-.33,1.24-.33,19.38s.02,18.77.31,19.72c.74,2.36,2.43,4.05,4.85,4.88,1.04.35,1.24.35,44.25.35s43.24-.02,44.25-.33c1.41-.43,2.38-1.04,3.33-2.05.9-.97,1.36-1.78,1.76-3.12.24-.85.28-2.93.28-19.41v-18.48l-.41-.86c-.45-.97-1.14-1.67-1.92-2-.29-.14-1.6-.26-3.02-.33l-2.5-.09-.12-.78c-.07-.43-.41-3.42-.76-6.64-1.81-17.15-2.66-24.38-3-25.36-.71-2.04-2.14-3.67-3.97-4.55l-.95-.45-31.49-.03c-17.94,0-31.76.05-32.14.14v-.02ZM82.39,2.88c.9.43,1.9,1.5,2.35,2.5.4.93.57,2.17,1.78,13.61.52,4.93,1.17,11.09,1.45,13.7.29,2.61.48,4.8.43,4.88-.05.07-1.48.14-3.17.14-3.35,0-4.45.16-5.78.81-1.4.72-1.73,1.04-4.97,4.8-7.52,8.76-7.16,8.4-8.8,8.83-1.17.29-31.37.33-32.47.03-1.04-.29-1.71-.86-4.16-3.61-3.9-4.37-7.33-8.11-8.04-8.8-.93-.9-2.42-1.66-3.66-1.88-.57-.1-2.38-.19-4.02-.19-2.74,0-2.98-.02-2.98-.31,0-.17.22-1.47.5-2.88.69-3.45,1.16-6.11,2.61-14.41,2.74-15.73,2.57-15.01,3.78-16.22,1.47-1.47-1.5-1.35,33.38-1.36,31-.02,31.06-.02,31.78.35h-.01ZM17.88,40.75c.83.31,2.92,2.4,7.28,7.32,5.11,5.76,5.75,6.31,7.94,6.73,1.33.24,31.37.24,32.73-.02,1.48-.28,2.69-.91,3.81-2.02.55-.55,2.83-3.12,5.07-5.73s4.42-5.07,4.85-5.45q1.29-1.19,9.16-1.19h7.06l.33.41c.33.4.33.85.29,18.98l-.05,18.56-.4.72c-.48.93-1.4,1.85-2.33,2.33l-.72.4-43.05.05c-37.68.03-43.15,0-43.93-.22-1.12-.33-2.31-1.36-2.9-2.54l-.45-.9v-18.56c0-17.48.02-18.6.31-18.86.41-.38.6-.38,7.8-.33,5.28.03,6.61.09,7.19.31h.01Z"/>
  <path d="M19.18,21.49c-.48.21-.79.88-.66,1.45.07.26.48.72,1.02,1.1,1.24.91,17.96,13.04,21.77,15.8,4.95,3.57,6.47,4.61,7.09,4.87.85.35,2.04.29,2.88-.12.74-.38,3.93-2.62,8.83-6.19,4.78-3.49,13.49-9.8,16.99-12.32,1.85-1.31,3.45-2.52,3.57-2.67.38-.5.28-1.35-.22-1.73-.52-.41-.95-.45-1.5-.16-.21.1-1.66,1.14-3.23,2.29-4.11,3.02-14.68,10.7-19.24,13.96-4.64,3.31-6.54,4.59-6.87,4.59-.19,0-1.52-.85-2.95-1.86-13.23-9.51-19.32-13.92-24.19-17.58-1.92-1.43-2.59-1.73-3.31-1.43h.02Z"/>
  <path d="M47.66,59.26c-2.35.81-3.83,3-3.85,5.71,0,1.07.09,1.47.5,2.33.26.57.72,1.33,1.04,1.71l.53.67v2.95c0,2.55.05,3.04.33,3.55.59,1.09,1.04,1.29,3.09,1.35,1.66.05,1.93.02,2.61-.35,1.26-.66,1.4-1.09,1.4-4.59v-2.98l.78-1.1c1.05-1.47,1.35-2.38,1.26-3.93-.12-2.33-1.62-4.57-3.55-5.3-1.16-.43-2.9-.45-4.12-.02h-.02ZM51.3,62.02c.62.4,1.22,1.36,1.4,2.28.17.95-.19,1.95-1.12,3.07l-.86,1.04-.03,3.24-.05,3.24-1.07.05-1.09.05v-6.54l-.85-1c-1.41-1.66-1.6-3.4-.48-4.68,1.1-1.26,2.83-1.57,4.16-.76h-.01Z"/>
</svg>