<?xml version="1.0" encoding="UTF-8"?>
<svg id="Vrstva_1" xmlns="http://www.w3.org/2000/svg" version="1.1" viewBox="0 0 72.97 62.37">
  <!-- Generator: Adobe Illustrator 30.6.0, SVG Export Plug-In . SVG Version: 2.1.4 Build 109)  -->
  <defs>
    <style>
      .st0 {
        fill: #f4f7f8;
      }

      .st1 {
        fill: none;
      }

      .st2 {
        fill: #0c2238;
      }
    </style>
  </defs>
  <path class="st1" d="M36.85,24.58c-.41,0-.8-.11-1.02-.35.22.25.61.35,1.02.35Z"/>
  <path class="st1" d="M35.7,24.07s.05.06.07.09c-.04-.06-.07-.13-.09-.2,0,.03,0,.08.02.11Z"/>
  <path class="st1" d="M37.7,20.88s0,.07.02.11c0-.03,0-.07-.02-.11-.25-.97-.38-2.06-.7-2.87,0-.01-.03-.02-.04,0h.04c.32.82.45,1.9.7,2.87Z"/>
  <path class="st1" d="M37.85,34.99c5.68-1.69,2.81-9.69-2.63-7.71l-.18.08c-4.47,2.07-1.86,8.81,2.81,7.63Z"/>
  <path class="st1" d="M37.21,24.56c-.1,0-.19.02-.29.02.1,0,.19,0,.29-.02Z"/>
  <path class="st1" d="M35.74,23.04c-.02.1-.04.22-.05.34.05-.23.11-.56.19-.95-.05.22-.1.42-.14.61Z"/>
  <path class="st1" d="M36.57,19.34c.14-.56.26-1.04.34-1.29-.06.14-.19.63-.34,1.29Z"/>
  <path class="st1" d="M37.56,24.51s-.11.02-.17.03c.06,0,.11-.02.17-.03Z"/>
  <path class="st1" d="M38.02,24.37c-.08.04-.18.07-.28.1.1-.03.2-.06.28-.1Z"/>
  <path class="st1" d="M35.66,23.53v.14-.14Z"/>
  <path class="st1" d="M57.43,58.01c-.03-3.39-.06-12.98-.11-14.71-.08-.27-.28-.22-.62-.26-.56-.02-1.79-.02-2.69-.04-.88.07-1.5-.3-1.38.78.03,3.14.03,16.28.09,18.07.23.49.74.37,1.44.48.92.07,2.27.03,2.86-.09l.1-.03c.13-.04.21-.09.26-.17.15-1.02,0-2.63.04-4.05v.02h.01Z"/>
  <path class="st1" d="M43.27,52.91c-1.4-.38-3.45-.45-4.9-.06,0,.7.04,9.02.04,9.38,1.23.1,3.65.05,4.85.09h0c0-1.73.05-9.29,0-9.42h.01Z"/>
  <path class="st1" d="M71.5,46.01c-.03-7.05.02-13.83-.05-14.2-.96-.12-3.59,0-4.58-.03-.48,6.39-.03,28.51-.15,30.3,1.24.36,3.18.26,4.53,0l.09-.03c.08-.03.13-.05.15-.08.05-3.07,0-11.41,0-15.97h.01Z"/>
  <path class="st0" d="M35.68,23.96c.02.07.05.14.09.2.02.02.03.05.05.07.22.24.61.34,1.02.35h.08c.1,0,.19,0,.29-.02.06,0,.12,0,.18-.02.06,0,.11-.02.17-.03.06,0,.12-.03.18-.04.1-.03.2-.06.28-.1l.09-.07c.48-.66-.24-2.29-.4-3.31,0-.03,0-.07-.02-.11-.25-.97-.38-2.05-.7-2.87,0-.01-.03-.02-.04,0,0,0-.03.03-.04.05h0c-.08.25-.2.72-.34,1.29-.23.95-.5,2.17-.69,3.09-.08.38-.15.71-.19.95v.29c0,.11,0,.21.03.3l-.03-.02h0Z"/>
  <g>
    <path class="st2" d="M72.65,28.75c-.02-1.92-3.79-2.11-5.28-1.62l-3.32-22.76C63.77,2.53,62,.03,59.81.03L14.54,0c-2.53,0-4.57,2.52-4.96,4.71l-3.96,22.47c-2.37-.78-5.48.03-5.49,2.53L0,54.1c-.02,4.16,2.68,6.64,6.79,6.62l61.32-.2c3.09-.01,4.89-3.37,4.86-5.83l-.32-25.93ZM11.73,5.39c.25-1.45,1.46-3.09,3.19-3.09l44.07-.03c1.43,0,2.59,1.28,2.77,2.5l3.26,22.11-5.48.24c-1.62.07-2.79,1.37-3.76,2.44l-6.95,7.72h-23.85c-1.39.01-2.49-1.75-3.31-2.6l-7.28-7.54-6.3-.25,3.63-21.5ZM67.63,58.3l-61.37.04c-1.43,0-3.74-.88-3.75-2.6l-.15-26.3,10.98-.08,8.59,9.05c.79.83,1.98,1.27,3.09,1.27l22.84-.02c1.71,0,3.03-1.01,4.1-2.25l7.49-8.04h11.12s.03,25.82.03,25.82c0,1.32-1.48,3.11-2.96,3.11Z"/>
    <path class="st2" d="M38.32,31.88l20.58-14.37c.68-.47.84-1.31.35-1.84-.43-.47-.98-.62-1.76-.07l-20.99,14.72L15.39,15.47c-.69-.49-1.5-.1-1.8.5-.13.27-.18.5.15,1.29l20.96,14.64c1.24.86,2.57.71,3.62-.02Z"/>
    <path class="st2" d="M33.33,43.43c-1.77,1.82-1.81,4.46.08,6.52.16,1.38-.39,3.19.32,4.74.85,1.85,4.62,1.92,5.59-.09l.51-4.78c1.52-2.33,1.6-4.87-.41-6.65-1.76-1.56-4.41-1.46-6.09.27ZM37.23,48.61l.05,4.36c0,.77-.91.77-1.2.46-1.01-1.08.26-3.93-.73-4.97-.97-1.03-1.27-2.23-.61-3.21.85-1.27,2.61-1.22,3.46,0,.7,1,.57,2.72-.96,3.37Z"/>
  </g>
</svg>