<?xml version="1.0" encoding="UTF-8"?>
<svg id="Vrstva_1" xmlns="http://www.w3.org/2000/svg" version="1.1" viewBox="0 0 103.59 97.17" color="#000000" stroke="currentColor" stroke-width="1.4" stroke-linecap="round" stroke-linejoin="round" data-line-weight="soft-metal-140">
  <!-- Generator: Adobe Illustrator 30.6.0, SVG Export Plug-In . SVG Version: 2.1.4 Build 109)  -->
  <path d="M20.11.06c-1.69.43-2.83,1.28-3.49,2.62-.47.93-.48,1.12-.57,4.09l-.09,3.11-5.18.09-5.18.09-1.17.57C2.33,11.67.69,13.68.19,15.86.07,16.36,0,28.06,0,49.83,0,85.7-.05,83.94.88,85.75c.48.93,1.78,2.31,2.71,2.85.4.24,1.21.59,1.78.76,1,.31,2.07.33,26.81.33h25.78l.35-.45c.55-.69.45-1.45-.22-1.85-.28-.16-6.28-.22-26.16-.29l-25.79-.09-.81-.47c-.43-.26-1.1-.83-1.48-1.28-1.35-1.5-1.24.62-1.21-28.19l.05-25.79,40.53-.05c29.81-.02,40.58.02,40.75.16.21.16.24,1.76.24,8.7,0,4.69.05,8.64.1,8.8.07.14.35.4.62.53.41.22.6.22,1,.07.28-.12.55-.33.6-.48.07-.17.1-7.63.09-16.58-.03-18.44.05-17.44-1.43-19.46-.86-1.17-1.64-1.79-3.02-2.43l-.98-.47-5.35-.09-5.35-.09-.09-3.19c-.1-3.69-.28-4.3-1.67-5.52-2.36-2.07-6.19-1.31-7.59,1.5-.47.97-.48,1.14-.57,4.11l-.09,3.11H25.97l-.09-3.19c-.1-3.54-.19-3.93-1.28-5.14-.98-1.09-3.19-1.81-4.5-1.48v-.03ZM22.35,2.99c.91.6.95.85.95,8.3,0,5.11-.05,6.97-.22,7.28-.83,1.64-3.38,1.57-4.12-.1-.31-.69-.33-1.16-.28-7.42.05-6.37.07-6.73.4-7.3.67-1.14,2.16-1.48,3.28-.76h-.01ZM66.5,2.8c.31.16.72.57.93.93.38.66.38.81.38,7.54s-.02,6.9-.35,7.45c-.93,1.52-3.28,1.36-4-.26-.31-.69-.33-1.16-.28-7.42.05-6.06.09-6.75.36-7.26.6-1.1,1.83-1.52,2.95-.98h.01ZM16.05,15.66c.09,2.85.14,3.28.47,3.9.53,1.02,1.36,1.78,2.43,2.28.81.36,1.12.41,2.35.35,1.6-.09,2.61-.53,3.47-1.55,1-1.19,1.12-1.67,1.12-5,0-3.04,0-3.07.4-3.16.21-.05,7.99-.07,17.29-.05l16.91.05.09,3.11c.09,2.79.12,3.19.48,3.92,1.71,3.49,6.83,3.67,8.8.35.45-.79.47-.88.52-4.05.07-3.21.07-3.23.47-3.33.22-.05,2.48-.07,5.04-.03,4.43.05,4.66.07,5.45.47,1,.5,2.07,1.67,2.47,2.74.28.71.31,1.57.36,6.59.03,3.17.02,5.95-.03,6.18l-.09.38-40.68-.03-40.67-.05v-6.21c0-6.19,0-6.21.41-6.99.78-1.5,2.07-2.55,3.59-2.93.36-.09,2.61-.14,4.97-.12l4.31.03.09,3.19-.02-.04Z"/>
  <path d="M15.74,43.78c-.38.35-.38.45-.38,5v4.64l.45.35c.43.35.67.36,4.76.36h4.31l.5-.5.5-.5v-4.4c0-4.18-.02-4.42-.36-4.85l-.35-.45h-4.54c-4.31,0-4.54.02-4.9.35h0ZM23.26,48.75l.03,2.81-2.71-.05-2.73-.05-.05-2.71-.05-2.71,1.95-.07c1.07-.03,2.29-.05,2.73-.05l.78.02.05,2.81h0Z"/>
  <path d="M34.25,43.86l-.43.41v9.01l.43.41.41.43h4.24c4.57,0,5.11-.09,5.33-.9.05-.22.1-2.31.1-4.64,0-4.04-.02-4.28-.36-4.71l-.35-.45h-8.97l-.41.43h0ZM41.67,48.7v2.76l-2.62.05-2.64.05v-5.52l.48-.07c.26-.03,1.43-.07,2.62-.05l2.16.02v2.76h0Z"/>
  <path d="M52.96,43.88l-.41.45v8.97l.48.41c.32.27,1.92.41,4.8.41h4.31l.41-.43.43-.41v-4.59c0-4.35-.02-4.59-.35-4.92s-.57-.35-4.8-.35h-4.47l-.41.45h0ZM60.48,48.7v2.76l-2.71.05-2.73.05v-2.74c0-1.5.03-2.78.09-2.81.03-.05,1.26-.09,2.71-.09l2.64.02v2.76h0Z"/>
  <path d="M80.27,54.65c-8.8,1-16.01,7.51-18.27,16.48-.43,1.73-.47,2.19-.47,4.92s.05,3.23.47,4.88c1.62,6.54,6.02,11.89,11.85,14.46,4,1.78,8.95,2.26,13.11,1.29,8.45-1.97,14.75-8.56,16.41-17.18.33-1.64.28-5.81-.07-7.61-1.69-8.59-8.35-15.39-16.63-16.96-1.74-.33-4.8-.47-6.4-.28h0ZM86.36,57.49c6.4,1.31,12.09,6.69,13.96,13.2,1.35,4.74.83,9.71-1.47,13.96-3.69,6.87-11.16,10.8-18.72,9.87-1.81-.22-4.14-.91-5.62-1.67-3.49-1.76-6.73-5-8.45-8.44-1.21-2.38-2.04-5.81-2.04-8.45s.86-6.16,2.14-8.66c2.52-5.02,8.01-9.09,13.25-9.87.69-.1,1.45-.22,1.69-.26.81-.16,3.88.05,5.26.33h0Z"/>
  <path d="M90.21,69.52c-.57.57-8.09,8.52-9.42,9.97l-.71.78-.91-.86c-.5-.48-1.73-1.66-2.73-2.62s-2.04-1.81-2.29-1.86c-.93-.24-1.92.9-1.45,1.69.1.21,1.69,1.85,3.5,3.62,3.9,3.81,3.85,3.78,5.33,2.31.52-.48,3.23-3.35,6.02-6.33,4.55-4.83,5.11-5.49,5.11-5.99,0-1.29-1.41-1.71-2.45-.71h0Z"/>
  <path d="M15.79,63.36l-.43.41v4.47c0,4.16.02,4.52.33,4.88.33.41.36.41,4.37.47,4.47.07,4.99.02,5.49-.52.33-.36.35-.62.35-4.83v-4.47l-.43-.41-.41-.43h-8.83l-.41.43h-.03ZM23.3,68.28v2.76h-5.52v-5.52h5.52s0,2.76,0,2.76Z"/>
  <path d="M34.32,63.43l-.5.5v4.31c0,2.38.05,4.45.1,4.61.26.67.91.78,5.14.78s4.76-.07,5.09-.81c.12-.26.19-1.93.19-4.73v-4.31l-.43-.41-.41-.43h-8.68l-.5.5h0ZM41.73,68.23l-.05,2.73-2.62.05-2.64.05v-5.54h5.37l-.05,2.71h-.01Z"/>
</svg>