<?xml version="1.0" encoding="UTF-8"?>
<svg id="Vrstva_1" xmlns="http://www.w3.org/2000/svg" version="1.1" viewBox="0 0 70.72 64.02">
  <!-- Generator: Adobe Illustrator 30.6.0, SVG Export Plug-In . SVG Version: 2.1.4 Build 109)  -->
  <defs>
    <style>
      .st0 {
        fill: #0d2135;
      }

      .st1 {
        fill: #f4f7f8;
      }

      .st2 {
        fill: none;
      }
    </style>
  </defs>
  <path class="st2" d="M35.73,26.24c-.41,0-.8-.11-1.02-.35.22.25.61.35,1.02.35Z"/>
  <path class="st2" d="M34.58,25.73s.05.06.07.09c-.04-.06-.07-.13-.09-.2,0,.03,0,.08.02.11Z"/>
  <path class="st2" d="M36.58,22.54s0,.07.02.11c0-.03,0-.07-.02-.11-.25-.97-.38-2.06-.7-2.87,0-.01-.03-.02-.04,0h.04c.32.82.45,1.9.7,2.87Z"/>
  <path class="st2" d="M36.73,36.65c5.68-1.69,2.81-9.69-2.63-7.71l-.18.08c-4.47,2.07-1.86,8.81,2.81,7.63Z"/>
  <path class="st2" d="M36.09,26.22c-.1,0-.19.02-.29.02.1,0,.19,0,.29-.02Z"/>
  <path class="st2" d="M34.62,24.7c-.02.1-.04.22-.05.34.05-.23.11-.56.19-.95-.05.22-.1.42-.14.61Z"/>
  <path class="st2" d="M35.45,21c.14-.56.26-1.04.34-1.29-.06.14-.19.63-.34,1.29Z"/>
  <path class="st2" d="M36.44,26.17s-.11.02-.17.03c.06,0,.11-.02.17-.03Z"/>
  <path class="st2" d="M36.9,26.03c-.08.04-.18.07-.28.1.1-.03.2-.06.28-.1Z"/>
  <path class="st2" d="M34.54,25.19v.14-.14Z"/>
  <path class="st2" d="M56.31,59.67c-.03-3.39-.06-12.98-.11-14.71-.08-.27-.28-.22-.62-.26-.56-.02-1.79-.02-2.69-.04-.88.07-1.5-.3-1.38.78.03,3.14.03,16.28.09,18.07.23.49.74.37,1.44.48.92.07,2.27.03,2.86-.09l.1-.03c.13-.04.21-.09.26-.17.15-1.02,0-2.63.04-4.05v.02h.01Z"/>
  <path class="st2" d="M42.15,54.57c-1.4-.38-3.45-.45-4.9-.06,0,.7.04,9.02.04,9.38,1.23.1,3.65.05,4.85.09h0c0-1.73.05-9.29,0-9.42h.01Z"/>
  <path class="st2" d="M70.38,47.67c-.03-7.05.02-13.83-.05-14.2-.96-.12-3.59,0-4.58-.03-.48,6.39-.03,28.51-.15,30.3,1.24.36,3.18.26,4.53,0l.09-.03c.08-.03.13-.05.15-.08.05-3.07,0-11.41,0-15.97h.01Z"/>
  <path class="st1" d="M34.56,25.62c.02.07.05.14.09.2.02.02.03.05.05.07.22.24.61.34,1.02.35h.08c.1,0,.19,0,.29-.02.06,0,.12,0,.18-.02.06,0,.11-.02.17-.03.06,0,.12-.03.18-.04.1-.03.2-.06.28-.1l.09-.07c.48-.66-.24-2.29-.4-3.31,0-.03,0-.07-.02-.11-.25-.97-.38-2.05-.7-2.87,0-.01-.03-.02-.04,0,0,0-.03.03-.04.05h0c-.08.25-.2.72-.34,1.29-.23.95-.5,2.17-.69,3.09-.08.38-.15.71-.19.95v.29c0,.11,0,.21.03.3l-.03-.02h0Z"/>
  <g>
    <path class="st0" d="M55.48,27.32c-.05-9.29-5.37-17.24-14.37-19.99.28-2.73-.5-5.27-2.65-6.49-2.06-1.17-4.61-1.12-6.58.2-1.93,1.3-2.57,3.78-2.32,6.28-7.76,2.5-13.53,8.96-14.17,17.16l-.16,14.12c-.1,8.82-7.87,10.22-6.27,14.27.31.78,1.21,2.06,2.52,2.07l13.84.17c.78,5.32,5.21,8.99,10.25,8.84,4.98-.15,9.13-3.52,9.78-8.9l13.11.02c1.73,0,3.15-1.24,3.43-2.58.83-4.08-6.31-5.64-6.35-13.41l-.06-11.77ZM33.24,2.8c1.09-.84,2.75-.93,3.96-.17,1.25.79,2.02,2.08,1.65,4.26-2.38-.36-4.57-.5-6.92.04-.39-1.8.09-3.18,1.31-4.12ZM35.97,61.78c-4.11.28-7.67-2.64-8.47-6.67l15.6-.04c-.23,3.73-3.69,6.48-7.13,6.71ZM58.89,52.93H11.83c-.7,0-.88-.95-.8-1.26.54-2.09,6.56-4.73,6.48-13.98l-.09-10.84c-.09-10.18,7.92-18,17.81-18.11,9.91-.11,18.2,7.83,18.09,18.12l-.12,10.83c-.1,9.09,6.22,12.16,6.54,13.91.06.33-.16,1.34-.85,1.34Z"/>
    <path class="st0" d="M65.14,10.27c-.5-.6-1.19-.66-1.68-.3-.46.34-.59,1.05-.12,1.62,6.49,7.72,7.1,18.61.84,26.67-.49.63.04,1.43.63,1.54,2.8.51,11.59-15.99.33-29.52Z"/>
    <path class="st0" d="M7.27,11.94c.53-.62.61-1.25.33-1.79-1.61-3.01-14.18,14.36-3.04,29.09.51.68,1.25.82,1.64.55.72-.5.63-1.2.15-1.83C.47,30.14.93,19.38,7.27,11.94Z"/>
    <path class="st0" d="M11.08,35.31c.41-.02,1.25-.92.87-1.41-4.07-5.29-3.97-12.29.35-17.38.52-.61.49-1.12.25-1.54-1.68-2.86-10.18,9.8-2.8,19.5.47.62.85.86,1.33.83Z"/>
    <path class="st0" d="M58.21,15c-.22.39-.16.89.29,1.43,4.23,5.13,4.38,12.18.31,17.45-.44.56.45,1.4.85,1.41,2.74.07,7.86-11.47.37-20.36-.55-.66-1.46-.58-1.82.07Z"/>
  </g>
</svg>