<?xml version="1.0" encoding="UTF-8"?>
<svg id="Vrstva_1" xmlns="http://www.w3.org/2000/svg" version="1.1" viewBox="0 0 98.97 98.33" color="#000000" stroke="currentColor" stroke-width="1.4" stroke-linecap="round" stroke-linejoin="round" data-line-weight="soft-metal-140">
  <!-- Generator: Adobe Illustrator 30.6.0, SVG Export Plug-In . SVG Version: 2.1.4 Build 109)  -->
  <path d="M53.7.39l-.45.45v22.96c0,21.81.02,22.96.31,23.26.28.28,1.07.35,7.8.6,4.12.17,10.02.41,13.11.55,6.5.29,19.29.78,21.88.83,1.76.03,1.79.03,2.21-.45.4-.47.41-.6.41-2.67,0-6.11-1.66-13.34-4.38-19.24-4.61-9.9-13.23-18.27-23.6-22.91C66.42,1.73,61,.41,55.89.06c-1.73-.12-1.76-.1-2.19.33ZM58.79,3.01c7.76,1.16,14.77,4.21,21.03,9.13.71.55,2.42,2.16,3.8,3.54,5.73,5.75,9.16,11.68,11.21,19.43.72,2.71,1.38,6.73,1.5,9.21l.1,2.14-3.09-.1c-2.95-.12-11.82-.5-25.09-1.07-3.36-.16-7.52-.33-9.23-.4l-3.11-.12-.05-21.01-.03-21h.64c.36,0,1.4.12,2.31.26h.01Z"/>
  <path d="M40.59,5.27c-15.15,1.95-28.12,11.02-35.39,24.81-2.33,4.38-3.8,8.87-4.78,14.51-.52,3.04-.57,10.27-.09,13.37,1.64,10.42,6.09,19.29,13.32,26.48,6.94,6.9,14.72,11.16,23.81,13.03,5.52,1.14,12.91,1.14,18.67.02,3.5-.67,7.92-2.17,11.47-3.88,8.07-3.88,15.58-11.04,20.13-19.2,2.9-5.18,5.14-12.3,5.47-17.3.1-1.55.09-1.71-.24-2.04-.21-.21-.62-.4-.93-.45s-4.42-.26-9.11-.45-10.87-.47-13.72-.6-8.25-.36-11.99-.52c-3.74-.14-7.45-.31-8.23-.36l-1.43-.1V5.84l-.43-.41c-.4-.41-.5-.43-2.54-.41-1.17.02-2.97.14-4,.26h.01ZM44.97,30.48c0,13.34.07,23.21.17,23.6.09.38.28.78.43.88.4.29,1.38.36,13.37.85,5.83.24,13.44.55,16.91.69,10.99.45,14.75.62,14.82.71.16.14-.88,4.97-1.47,6.92-2.23,7.33-5.73,13.28-10.94,18.53-2.59,2.61-4.12,3.86-7.28,5.97-7.8,5.21-17.46,7.76-26.95,7.14-8.85-.59-16.32-3.38-23.71-8.9-2.5-1.85-6.83-6.21-8.76-8.8-6.37-8.52-9.32-17.67-8.99-27.78.12-3.55.47-6.07,1.33-9.49.81-3.28,1.59-5.37,3.19-8.63,6.37-13.01,18.94-22.24,32.87-24.14,2.76-.38,2.9-.4,4.02-.43l.98-.02v22.89h.01Z"/>
</svg>