<?xml version="1.0" encoding="UTF-8"?>
<svg id="Vrstva_1" xmlns="http://www.w3.org/2000/svg" version="1.1" viewBox="0 0 68.23 64.07">
  <!-- Generator: Adobe Illustrator 30.6.0, SVG Export Plug-In . SVG Version: 2.1.4 Build 109)  -->
  <defs>
    <style>
      .st0 {
        fill: #f4f7f8;
      }

      .st1 {
        fill: none;
      }

      .st2 {
        fill: #0e2439;
      }
    </style>
  </defs>
  <path class="st1" d="M33.57,26.24c-.41,0-.8-.11-1.02-.35.22.25.61.35,1.02.35Z"/>
  <path class="st1" d="M32.42,25.73s.05.06.07.09c-.04-.06-.07-.13-.09-.2,0,.03,0,.08.02.11Z"/>
  <path class="st1" d="M34.42,22.54s0,.07.02.11c0-.03,0-.07-.02-.11-.25-.97-.38-2.06-.7-2.87,0-.01-.03-.02-.04,0h.04c.32.82.45,1.9.7,2.87Z"/>
  <path class="st1" d="M34.57,36.65c5.68-1.69,2.81-9.69-2.63-7.71l-.18.08c-4.47,2.07-1.86,8.81,2.81,7.63Z"/>
  <path class="st1" d="M33.93,26.22c-.1,0-.19.02-.29.02.1,0,.19,0,.29-.02Z"/>
  <path class="st1" d="M32.46,24.7c-.02.1-.04.22-.05.34.05-.23.11-.56.19-.95-.05.22-.1.42-.14.61Z"/>
  <path class="st1" d="M33.29,21c.14-.56.26-1.04.34-1.29-.06.14-.19.63-.34,1.29Z"/>
  <path class="st1" d="M34.28,26.17s-.11.02-.17.03c.06,0,.11-.02.17-.03Z"/>
  <path class="st1" d="M34.74,26.03c-.08.04-.18.07-.28.1.1-.03.2-.06.28-.1Z"/>
  <path class="st1" d="M32.38,25.19v.14-.14Z"/>
  <path class="st1" d="M54.15,59.67c-.03-3.39-.06-12.98-.11-14.71-.08-.27-.28-.22-.62-.26-.56-.02-1.79-.02-2.69-.04-.88.07-1.5-.3-1.38.78.03,3.14.03,16.28.09,18.07.23.49.74.37,1.44.48.92.07,2.27.03,2.86-.09l.1-.03c.13-.04.21-.09.26-.17.15-1.02,0-2.63.04-4.05v.02h.01Z"/>
  <path class="st1" d="M39.99,54.57c-1.4-.38-3.45-.45-4.9-.06,0,.7.04,9.02.04,9.38,1.23.1,3.65.05,4.85.09h0c0-1.73.05-9.29,0-9.42h.01Z"/>
  <path class="st1" d="M68.22,47.67c-.03-7.05.02-13.83-.05-14.2-.96-.12-3.59,0-4.58-.03-.48,6.39-.03,28.51-.15,30.3,1.24.36,3.18.26,4.53,0l.09-.03c.08-.03.13-.05.15-.08.05-3.07,0-11.41,0-15.97h.01Z"/>
  <path class="st0" d="M32.4,25.62c.02.07.05.14.09.2.02.02.03.05.05.07.22.24.61.34,1.02.35h.08c.1,0,.19,0,.29-.02.06,0,.12,0,.18-.02.06,0,.11-.02.17-.03.06,0,.12-.03.18-.04.1-.03.2-.06.28-.1l.09-.07c.48-.66-.24-2.29-.4-3.31,0-.03,0-.07-.02-.11-.25-.97-.38-2.05-.7-2.87,0-.01-.03-.02-.04,0,0,0-.03.03-.04.05h0c-.08.25-.2.72-.34,1.29-.23.95-.5,2.17-.69,3.09-.08.38-.15.71-.19.95v.29c0,.11,0,.21.03.3l-.03-.02h0Z"/>
  <g>
    <path class="st2" d="M36.22,55.37l-30.13-.05c-2.17.34-4.01-1.14-4.01-3.37l.06-31.8,53.73.04.13,13.55c0,.42,1,.78,1.2.61.14-.11.51-.24.75-.62l-.08-23.09c0-2.32-2.11-4.32-4.19-4.37l-6.57-.16c-.01-1.48.18-2.84-.18-4.1-.44-1.51-1.8-1.99-2.93-2.01-1.31-.02-2.77.05-3.37,1.54-.57,1.43-.3,2.98-.38,4.66l-22.49-.02-.33-4.15C17.29.48,15.61.02,14.46,0c-1.24-.02-2.71.16-3.33,1.59-.6,1.39-.33,2.92-.37,4.6h-5.16C2.43,6.19,0,8.3,0,11.56l.11,41.27c0,2.43,2.27,4.55,4.6,4.56l31.68.03c.54,0,.83-.87.74-1.16-.09-.29-.29-.89-.91-.9ZM44.87,2.6v8.99c.01.9-2.41.8-2.42-.01l-.05-8.74c0-1.09,2.47-1.16,2.47-.24ZM14.03,1.95c.36-.04,1.36.15,1.36.68l.02,8.82c0,.99-2.45,1.11-2.46.11l-.08-8.66c0-.71.8-.9,1.16-.94ZM5.57,8.2l5.22.09c-.02,1.45-.21,2.82.25,4.12.52,1.47,1.88,1.76,2.99,1.81,1.23.05,2.57-.2,3.19-1.52.59-1.26.38-2.77.34-4.46h22.78c-.02,1.87-.45,3.69.8,5.1,1.11,1.24,3.86,1.31,5.07,0,1.31-1.41.95-3.26.83-5l5.44-.13c1.43-.04,3.25.7,3.27,2.33l.08,7.51H2.19s-.03-7.39-.03-7.39c0-1.67,1.9-2.47,3.41-2.45Z"/>
    <path class="st2" d="M66.37,49.12c-.52-7.31-6.88-13.42-14.89-12.81-7.95.61-13.54,7.66-12.76,15.32.74,7.28,7.43,13.03,14.91,12.38,7.6-.66,13.29-7.11,12.74-14.89ZM54.77,61.75c-6.22,1.21-12.24-2.7-13.69-9.06-1.39-6.09,2.42-12.69,9.11-14.08,6.57-1.37,12.48,3.02,13.84,9.17,1.41,6.38-2.84,12.72-9.26,13.97Z"/>
    <path class="st2" d="M17.48,27.49l-7.16.12.11,7.21,7.18-.13-.13-7.2ZM12.34,32.8l-.1-3.33,3.38-.08.03,3.39-3.31.02Z"/>
    <path class="st2" d="M28.39,27.49l-7.16.12.11,7.21,7.18-.13-.13-7.2ZM23.25,32.8l-.1-3.33,3.38-.08.03,3.39-3.31.02Z"/>
    <path class="st2" d="M10.43,46.45l7.18-.13-.13-7.2-7.16.12.11,7.21ZM15.61,41.02l.03,3.39-3.31.02-.1-3.33,3.38-.08Z"/>
    <path class="st2" d="M21.34,46.45l7.18-.13-.13-7.2-7.16.12.11,7.21ZM26.53,41.02l.03,3.39-3.31.02-.1-3.33,3.38-.08Z"/>
    <path class="st2" d="M32.26,34.82l7.18-.13-.13-7.2-7.16.12.11,7.21ZM37.44,29.39l.03,3.39-3.31.02-.1-3.33,3.38-.08Z"/>
    <path class="st2" d="M59.07,45.51c-.4-.3-1.01-.24-1.51.28l-6.71,7-3.02-3.04c-.51-.52-1.24-.58-1.66-.26-.26.19-.66.87-.3,1.22l4.91,4.81,8.31-8.21c.63-.62.58-1.36-.01-1.8Z"/>
  </g>
</svg>