<?xml version="1.0" encoding="UTF-8"?>
<svg id="Vrstva_1" xmlns="http://www.w3.org/2000/svg" version="1.1" viewBox="0 0 67.56 64.02">
  <!-- Generator: Adobe Illustrator 30.6.0, SVG Export Plug-In . SVG Version: 2.1.4 Build 109)  -->
  <defs>
    <style>
      .st0 {
        fill: #f4f7f8;
      }

      .st1 {
        fill: none;
      }

      .st2 {
        fill: #0d2237;
      }
    </style>
  </defs>
  <path class="st1" d="M32.9,26.24c-.41,0-.8-.11-1.02-.35.22.25.61.35,1.02.35Z"/>
  <path class="st1" d="M31.75,25.73s.05.06.07.09c-.04-.06-.07-.13-.09-.2,0,.03,0,.08.02.11Z"/>
  <path class="st1" d="M33.75,22.54s0,.07.02.11c0-.03,0-.07-.02-.11-.25-.97-.38-2.06-.7-2.87,0-.01-.03-.02-.04,0h.04c.32.82.45,1.9.7,2.87Z"/>
  <path class="st1" d="M33.9,36.65c5.68-1.69,2.81-9.69-2.63-7.71l-.18.08c-4.47,2.07-1.86,8.81,2.81,7.63Z"/>
  <path class="st1" d="M33.26,26.22c-.1,0-.19.02-.29.02.1,0,.19,0,.29-.02Z"/>
  <path class="st1" d="M31.79,24.7c-.02.1-.04.22-.05.34.05-.23.11-.56.19-.95-.05.22-.1.42-.14.61Z"/>
  <path class="st1" d="M32.62,21c.14-.56.26-1.04.34-1.29-.06.14-.19.63-.34,1.29Z"/>
  <path class="st1" d="M33.61,26.17s-.11.02-.17.03c.06,0,.11-.02.17-.03Z"/>
  <path class="st1" d="M34.07,26.03c-.08.04-.18.07-.28.1.1-.03.2-.06.28-.1Z"/>
  <path class="st1" d="M31.71,25.19v.14-.14Z"/>
  <path class="st1" d="M53.48,59.67c-.03-3.39-.06-12.98-.11-14.71-.08-.27-.28-.22-.62-.26-.56-.02-1.79-.02-2.69-.04-.88.07-1.5-.3-1.38.78.03,3.14.03,16.28.09,18.07.23.49.74.37,1.44.48.92.07,2.27.03,2.86-.09l.1-.03c.13-.04.21-.09.26-.17.15-1.02,0-2.63.04-4.05v.02h.01Z"/>
  <path class="st1" d="M39.32,54.57c-1.4-.38-3.45-.45-4.9-.06,0,.7.04,9.02.04,9.38,1.23.1,3.65.05,4.85.09h0c0-1.73.05-9.29,0-9.42h.01Z"/>
  <path class="st1" d="M67.55,47.67c-.03-7.05.02-13.83-.05-14.2-.96-.12-3.59,0-4.58-.03-.48,6.39-.03,28.51-.15,30.3,1.24.36,3.18.26,4.53,0l.09-.03c.08-.03.13-.05.15-.08.05-3.07,0-11.41,0-15.97h.01Z"/>
  <path class="st0" d="M31.73,25.62c.02.07.05.14.09.2.02.02.03.05.05.07.22.24.61.34,1.02.35h.08c.1,0,.19,0,.29-.02.06,0,.12,0,.18-.02.06,0,.11-.02.17-.03.06,0,.12-.03.18-.04.1-.03.2-.06.28-.1l.09-.07c.48-.66-.24-2.29-.4-3.31,0-.03,0-.07-.02-.11-.25-.97-.38-2.05-.7-2.87,0-.01-.03-.02-.04,0,0,0-.03.03-.04.05h0c-.08.25-.2.72-.34,1.29-.23.95-.5,2.17-.69,3.09-.08.38-.15.71-.19.95v.29c0,.11,0,.21.03.3l-.03-.02h0Z"/>
  <g>
    <path class="st2" d="M41.48,42.27l3.53-3.35c.15-.15.23-.31.23-.49s-.07-.34-.2-.51c-.13-.17-.3-.25-.5-.25-.22,0-.43.1-.62.29l-5.27,5.11v-4.58c0-.22-.07-.41-.21-.55-.14-.15-.33-.22-.56-.22s-.44.07-.59.22c-.15.15-.23.33-.23.55v9.08c0,.22.07.41.21.55.14.15.33.22.58.22s.44-.07.58-.22c.14-.15.22-.33.23-.55v-2.6l1.64-1.56,3.62,4.66c.14.19.33.29.56.29.21,0,.41-.07.59-.21.18-.14.27-.33.27-.58,0-.19-.06-.37-.18-.53l-3.66-4.77Z"/>
    <path class="st2" d="M48.88,39c.19.25.46.38.79.38h.44c.33,0,.6-.13.79-.38l.81-.96c.08-.09.14-.17.17-.24.03-.07.05-.14.05-.2,0-.1-.04-.18-.12-.25-.08-.07-.18-.1-.3-.1-.15,0-.28.03-.37.08-.1.05-.21.13-.33.23l-.88.76-.91-.76c-.23-.19-.43-.29-.58-.29-.16,0-.29.03-.38.1-.09.07-.14.16-.14.27,0,.14.06.28.17.41l.81.96Z"/>
    <path class="st2" d="M52.13,46.43c-.19,0-.34.05-.45.14-.11.1-.24.19-.4.28-.13.07-.3.13-.49.17-.2.05-.44.07-.74.07-.51,0-.95-.12-1.33-.36s-.68-.57-.9-.99c-.22-.42-.33-.89-.33-1.41s.11-.99.33-1.4c.22-.41.52-.74.91-.98.39-.24.85-.36,1.39-.36.16,0,.35.02.58.05.22.04.39.09.5.16.12.06.22.13.3.21.08.08.16.14.26.18.1.05.22.07.37.07.2,0,.35-.07.46-.22s.15-.31.15-.48c0-.27-.12-.51-.36-.72-.24-.21-.57-.37-1-.49s-.91-.17-1.46-.17c-.78,0-1.47.18-2.06.55-.59.36-1.06.86-1.39,1.48s-.5,1.33-.5,2.13.16,1.5.48,2.13c.32.63.77,1.12,1.35,1.49.58.36,1.26.55,2.04.55.55,0,1.04-.07,1.49-.2.45-.13.8-.3,1.07-.51.27-.21.4-.42.4-.65,0-.2-.06-.37-.17-.51s-.29-.2-.51-.2Z"/>
    <path class="st2" d="M42.65,22.72l-.42-14.26c-.53-2.73-3.77-4.79-6.31-5.76C26.4-.9,15.62-.99,6.21,2.98,3.85,3.98.23,6.21.22,8.96L0,47.25c-.01,1.8,1.77,3.51,2.89,4.45,5.95,5.02,17.53,5.62,25.63,4.41,5.59,6.97,14.47,9.61,22.83,6.68,7.51-2.63,13.13-9.62,13.67-18.09.81-12.79-9.58-22.99-22.37-21.98ZM4.64,6.12c12.63-7.93,35.19-3.19,35.9,3.45.68,6.28-18.03,11.27-32.39,5.95-2.29-.85-4.56-2.11-5.73-4.2-1.06-1.9.45-4.09,2.22-5.2ZM2.03,14.21c2.27,1.87,4.25,2.89,6.75,3.65,9.94,3.03,23.53,2.88,31.68-3.58.87,5.42-.49,8.37-5.47,10.29-8.9,3.44-19.08,3.4-27.88-.27-5.12-2.14-5.64-4.85-5.09-10.1ZM2.09,23.45c2.77,2.29,5.66,3.35,8.85,4.31,6.32,1.65,12.66,1.54,19.46.49-2.22,2.3-3.93,4.32-5.06,7.78-7.23,1.19-21.91-1.52-23.24-7.14-.42-1.78-.26-3.5-.01-5.45ZM2.11,32.47c5.55,5.06,14.53,5.99,22.34,5.6-.37,2.39-.62,4.69-.43,7.29-5.91.22-11.63-.16-16.92-2.59-5.19-2.38-5.76-4.47-4.99-10.31ZM2.66,48.56c-1.23-1.91-.74-4.39-.56-6.56,6.07,4.83,14.72,5.69,22.24,5.3.61,2.55,1.4,4.52,2.76,6.95-7.36,1.25-20.85-.12-24.44-5.69ZM51.73,60.43c-8.95,3.91-18.8-.01-23.36-8.13-4.53-8.06-2.5-18.41,5.17-24.07,8.95-6.6,21.41-3.71,26.89,5.51,5.72,9.61,1.88,22.06-8.7,26.69Z"/>
    <path class="st2" d="M34.54,30.26c-7.22,5.43-8.58,16.18-2.6,23.49,5.61,6.87,15.53,7.87,22.32,2.72,6.89-5.23,8.75-14.68,3.95-22.15-5.21-8.12-16.06-9.79-23.67-4.06ZM56.06,51.85c-4.03,5.32-10.89,7.46-17.11,4.75-5.42-2.36-8.86-7.72-8.83-13.42.03-5.72,3.56-10.99,9.01-13.27,6.06-2.53,12.81-.47,16.7,4.48,4.04,5.13,4.05,12.42.23,17.47Z"/>
  </g>
</svg>