<?xml version="1.0" encoding="UTF-8"?>
<svg id="Vrstva_1" xmlns="http://www.w3.org/2000/svg" version="1.1" viewBox="0 0 95.1 95.13">
  <!-- Generator: Adobe Illustrator 30.6.0, SVG Export Plug-In . SVG Version: 2.1.4 Build 109)  -->
  <path d="M46.43.04c-3.45.66-6.02,3.02-6.81,6.25-.12.53-.28,1.73-.35,2.64l-.12,1.67-1.05.38c-6.07,2.21-11.42,6.33-14.82,11.47-2.86,4.31-4.47,8.89-4.97,14.15-.09,1.05-.17,6.3-.17,11.8,0,10.9-.09,12.22-1.04,15.06-1.1,3.31-2.36,5.3-5.19,8.16-2.4,2.45-2.79,3.16-2.79,5-.02.91.09,1.38.36,1.92.85,1.64,2.02,2.52,3.74,2.79.59.1,5.06.17,10.44.19h9.4l.14.83c.64,3.62,2.07,6.35,4.62,8.76,4.42,4.18,10.52,5.19,15.94,2.61,4.59-2.17,7.59-6.26,8.45-11.53l.1-.64,10.04-.05,10.04-.05.9-.41c1.02-.45,2.14-1.57,2.57-2.55.17-.4.29-1.12.31-1.86,0-1.92-.48-2.76-3.04-5.31-2.71-2.69-3.95-4.57-4.93-7.45-1.04-3.05-1.21-5.38-1.22-17.34-.02-5.16-.1-9.89-.21-10.7-1.38-11.46-8.54-20.57-19.43-24.76l-1.24-.48-.1-.97c-.33-2.85-.59-4.16-1.02-5.06-.88-1.86-2.62-3.4-4.66-4.11-.98-.33-3.11-.55-3.9-.41h0ZM50.16,3.27c1.12.57,2.21,1.79,2.64,2.98.38,1,.74,3.35.55,3.55-.07.07-.38.05-.71-.03-.31-.09-1.57-.26-2.79-.38-2.12-.19-4.28-.1-7.19.33l-.76.1.09-1.45c.14-2.17.85-3.59,2.31-4.64,1.14-.81,2-1.04,3.61-.98,1.07.05,1.57.16,2.26.52h-.01ZM52,12.27c1.92.35,4.69,1.24,6.61,2.14,7.85,3.67,13.03,10.21,15.22,19.17l.43,1.81.12,12.08c.12,11.35.16,12.18.48,13.68.72,3.23,1.93,6.19,3.45,8.49.53.79,1.92,2.43,3.07,3.62,2.19,2.28,2.5,2.81,2.24,3.88-.17.71-.98,1.47-1.74,1.64-.91.21-67.58.22-68.48,0-1.28-.29-2.07-1.59-1.74-2.88.07-.29.88-1.24,2.07-2.4,2.07-2.04,3.23-3.61,4.35-5.85,1.04-2.05,1.59-3.54,2.07-5.59l.45-1.83.12-11.99c.1-11.42.14-12.08.5-13.97,1.1-5.69,3.52-10.23,7.69-14.41,4.68-4.69,9.18-6.87,16.39-7.92,1.02-.16,5.21.05,6.69.33h.01ZM59.49,81.51c.29.19-.16,1.97-.91,3.62-1.5,3.28-3.95,5.59-7.21,6.81-1.81.67-4.42.83-6.14.4-3.47-.88-6.66-3.45-8.28-6.66-.52-1.04-1.21-3.17-1.21-3.78v-.36l11.7-.05c6.42-.02,11.71-.05,11.77-.07.05-.03.19.02.29.09h0Z"/>
  <path d="M85.92,17.35c-.62.64-.62.83.03,1.76,3.19,4.59,4.68,7.57,5.66,11.46.88,3.54,1.14,8.44.6,11.66-.35,2.07-1.43,5.35-2.43,7.26-.72,1.4-.76,1.52-.53,1.98.33.69,1.05,1,1.71.74,1.12-.47,3.4-6.38,3.95-10.27.45-3.17.07-8.95-.79-12.34-1.1-4.24-3.83-9.54-6.21-12.03-.83-.88-1.28-.93-1.98-.24v.02Z"/>
  <path d="M7.49,17.33c-.52.5-1.86,2.29-2.69,3.59C-.81,29.6-1.58,41.45,2.88,50.35c.78,1.55,1.24,2.04,1.93,2.04.47,0,1.24-.71,1.24-1.14,0-.17-.41-1.21-.93-2.29-1.85-3.93-2.35-6-2.47-10.28-.07-2.43-.03-3.52.21-4.99.79-5.07,2.43-9.04,5.52-13.37.71-1,1.29-1.98,1.29-2.21,0-.93-1.52-1.47-2.19-.78h0Z"/>
  <path d="M80.49,22.54c-.45.17-.93.83-.93,1.22,0,.16.47.93,1.05,1.73,1.92,2.64,3.12,5.45,3.69,8.66.24,1.31.28,2.26.21,4.31-.09,2.9-.33,3.99-1.4,6.57-.74,1.79-.72,2.23.17,2.64.91.45,1.38.1,2.19-1.54,1.33-2.71,2.04-6.99,1.69-10.37-.47-4.57-1.64-7.85-4.11-11.37-.91-1.31-1.64-2.05-2.02-2.02-.1,0-.36.07-.55.16h.01Z"/>
  <path d="M13.36,22.8c-1.12.78-3.47,4.81-4.35,7.42-1.07,3.23-1.4,7.71-.81,11.08.28,1.52,1.24,4.59,1.76,5.61.52.98,1.41,1.26,2.21.64.6-.47.57-.98-.14-2.67-.97-2.28-1.33-4-1.43-6.71-.19-4.83,1.1-9.01,3.93-12.7.59-.78.83-1.26.85-1.66,0-1.04-1.16-1.6-2.02-1h0Z"/>
</svg>