<?xml version="1.0" encoding="UTF-8"?>
<svg id="Vrstva_1" xmlns="http://www.w3.org/2000/svg" version="1.1" viewBox="0 0 102.92 104.08">
  <!-- Generator: Adobe Illustrator 30.6.0, SVG Export Plug-In . SVG Version: 2.1.4 Build 109)  -->
  <path d="M29.6.04C19.33.83,11.24,3.08,5.89,6.61,3.03,8.51.77,11.2.18,13.37.02,13.96-.01,21.86,0,45.32c.02,34.76-.09,31.95,1.24,34.21,2.74,4.66,10.14,8.21,20.32,9.75,5.64.85,13.08,1.1,18.37.62,1.52-.14,2.81-.26,2.88-.26s.6.64,1.21,1.41c12.22,16.1,35.89,17.49,49.83,2.97,4.43-4.62,7.33-10.27,8.68-16.89.33-1.67.38-2.42.38-6.12-.02-4.55-.19-5.83-1.24-9.32-2.83-9.42-9.26-16.91-17.99-21.03-4.14-1.93-7.66-2.76-12.54-2.9l-3.31-.1-.05-12.01c-.05-11.87-.07-12.03-.43-12.99-1.98-5.21-9.66-9.52-20.53-11.53C42.74.37,39.57.08,34.96.01c-2.47-.02-4.87-.02-5.35.02h-.01ZM41.77,2.94c6.45.81,12.09,2.38,16.74,4.66,3,1.48,5.14,3.33,6.09,5.26.48.98.55,1.31.55,2.52,0,1.14-.09,1.55-.47,2.38-2.05,4.38-10.75,8.49-21.19,10.01-2.17.31-3.35.36-8.97.36-4.31.02-7.07-.05-8.28-.21-8.64-1.07-16.32-3.67-20.39-6.95-2.24-1.79-3.24-3.52-3.24-5.59,0-1.67.5-2.81,1.88-4.28,3.99-4.24,12.89-7.38,23.83-8.4,2.45-.22,10.92-.07,13.46.24h-.01ZM3.31,22.12c.59.64,2.9,2.35,4.09,3.05,4.33,2.54,11.46,4.52,19.19,5.33,2.9.31,12.35.29,15.1,0,10.18-1.16,17.62-3.74,22.29-7.76.67-.6,1.28-1.02,1.33-.93.14.22.09,7.21-.07,8.94-.21,2.38-1.07,3.81-3.28,5.49-4.37,3.33-10.37,5.42-18.27,6.4-7.33.9-15.79.66-22.71-.62-7.99-1.48-13.41-3.85-16.53-7.23-1.81-1.95-1.85-2.12-1.85-8.11,0-2.76.07-5,.14-5,.09,0,.33.21.57.45h0ZM3.81,37.62c1.26,1.16,2.69,2.1,5,3.28,4.55,2.33,10.54,3.81,18.17,4.52,3.33.31,13.11.24,15.82-.1,1.5-.19,6.85-1.12,7.56-1.31.6-.17.45.17-.36.76-1.04.74-3.93,3.66-5.18,5.21-1.4,1.74-2.79,3.88-3.83,5.9l-.86,1.67-.78.14c-1.52.24-9.96.12-12.77-.19-10.42-1.14-17.79-3.76-21.84-7.78-2.12-2.09-2.14-2.19-2.14-8.2,0-2.66.05-4.83.1-4.83.07,0,.55.41,1.1.93h.01ZM65.23,37.36c0,.6-.07.66-1.05.81l-.76.1.78-.71c.43-.38.83-.69.91-.71.07,0,.12.22.12.5h0ZM75.84,40.82c10.87,2.29,19.58,10.2,23.12,20.95,1.21,3.64,1.38,4.88,1.36,9.42,0,4.4-.22,5.83-1.45,9.52-3.16,9.49-10.89,16.91-20.53,19.69-5.54,1.6-12.13,1.48-17.53-.31-7.87-2.61-15.01-9.2-18.27-16.8-5-11.73-2.69-24.33,6.21-33.8,4.45-4.74,11.27-8.21,17.6-8.99,2.28-.28,7.47-.1,9.49.33h0ZM3.64,52.13c1.88,1.92,5.75,3.99,10.09,5.42,6.4,2.1,14.18,3.12,21.7,2.86,3.9-.12,3.62-.28,3.05,1.62-.59,1.97-1.04,5.14-1.16,8.07l-.1,2.81h-3.23c-12.82,0-24.36-3.16-29.26-8.02-.59-.57-1.28-1.47-1.55-1.98l-.5-.95-.05-5.31c-.03-2.92.02-5.3.09-5.3.09,0,.5.35.91.78h0ZM3.74,67.31c5.12,4.93,16.41,8.01,29.68,8.07l4.18.03.28,1.64c.53,3.02,1.67,6.42,3.05,9.18l.5,1-.47.12c-.28.09-3.5.14-7.21.14-5.99,0-7.06-.05-9.63-.4-10.32-1.38-17.65-4.42-20.41-8.49-1.04-1.52-1.1-1.98-1.1-7.37,0-2.69.03-4.88.07-4.88s.52.43,1.07.95h-.01Z"/>
  <path d="M66.35,44.29c-2.31.29-5.62,1.36-8.01,2.57-1.76.88-4.54,2.85-6.11,4.31-6.23,5.83-9.44,14.72-8.33,23.05.85,6.47,3.23,11.28,7.87,15.96,1.43,1.45,2.69,2.54,3.78,3.24,7.83,5.18,17.49,5.88,25.9,1.9,2.9-1.38,4.99-2.88,7.33-5.23,4.26-4.3,6.64-8.95,7.69-15.11.33-1.9.29-6.11-.09-8.28-.55-3.19-1.85-6.75-3.52-9.61-3.88-6.64-11.16-11.58-18.84-12.73-1.79-.28-5.75-.31-7.68-.07h.01ZM73.93,46.95c4.12.72,8.42,2.76,11.8,5.61,4.11,3.47,7.28,9.13,8.16,14.58.31,1.98.28,6.02-.1,8.11-1.59,9.06-8.3,16.6-17.08,19.17-3.33.98-7.94,1.19-11.18.5-8.23-1.73-15.17-7.95-17.87-16.05-.91-2.76-1.28-4.97-1.28-7.94-.02-6.45,2.52-12.53,7.21-17.27,2.1-2.14,3.67-3.24,6.56-4.64,2.17-1.05,3.5-1.52,5.69-1.98,1.98-.41,5.97-.45,8.09-.09Z"/>
  <path d="M58.16,61.2c-.22.1-.48.26-.55.38s-.14,4.43-.14,9.61c0,10.3-.03,10.02,1,10.27.53.1,1.41-.16,1.62-.48.07-.12.14-2.02.14-4.23,0-3.16.05-4,.22-4,.12,0,1.28,1.22,2.57,2.71,5.19,6.02,5.06,5.88,5.92,6,1.16.19,2.4-.09,2.47-.53.05-.38-2.67-3.66-6.4-7.69l-2.04-2.21.48-.59c.26-.31,1.92-2.23,3.67-4.24,3.64-4.18,3.97-4.62,3.61-4.85-.28-.17-2.4-.21-2.79-.05-.16.05-1.88,1.92-3.85,4.14-1.97,2.22-3.64,4.04-3.73,4.04-.07,0-.14-1.69-.14-3.76,0-3.69,0-3.78-.38-4.12-.5-.45-1.14-.59-1.69-.38v-.02Z"/>
  <path d="M74.86,61.2c-.48.28-.36.69.6,2.09,1.76,2.54,1.66,2.45,3.14,2.52l1.31.07.81-.85c.45-.47,1.19-1.4,1.66-2.09.83-1.21.85-1.24.53-1.59-.66-.72-1.74-.38-3.11,1.02-.47.48-.93.88-1.04.88s-.57-.4-1.04-.88c-1.26-1.29-2.1-1.64-2.88-1.17h.02Z"/>
  <path d="M76.48,67.72c-2.69.93-4.37,3.97-4.12,7.51.12,2.05.64,3.23,1.92,4.52,1.36,1.36,2.52,1.83,4.59,1.85,2.02.03,3.09-.35,4.26-1.54,1.09-1.07,1.17-1.57.41-2.33-.28-.28-.62-.5-.78-.5-.14,0-.6.31-1.04.67-.98.85-1.76,1.1-3.05,1.02-1.97-.14-3.23-1.59-3.38-3.88-.21-2.76,1.19-4.73,3.55-5,1.09-.12,1.92.17,2.88,1,.43.36.85.67.91.67.29,0,1.09-.74,1.24-1.17.14-.35.09-.53-.21-.97-.5-.72-1.66-1.59-2.57-1.92-1.04-.36-3.47-.33-4.62.07h.01Z"/>
</svg>