<?xml version="1.0" encoding="UTF-8"?>
<svg id="Vrstva_1" xmlns="http://www.w3.org/2000/svg" version="1.1" viewBox="0 0 65.8 64.09">
  <!-- Generator: Adobe Illustrator 30.6.0, SVG Export Plug-In . SVG Version: 2.1.4 Build 109)  -->
  <defs>
    <style>
      .st0 {
        fill: #f4f7f8;
      }

      .st1 {
        fill: none;
      }

      .st2 {
        fill: #0c2236;
      }
    </style>
  </defs>
  <path class="st1" d="M31.13,26.3c-.41,0-.8-.11-1.02-.35.22.25.61.35,1.02.35Z"/>
  <path class="st1" d="M29.98,25.79s.05.06.07.09c-.04-.06-.07-.13-.09-.2,0,.03,0,.08.02.11Z"/>
  <path class="st1" d="M31.98,22.6s0,.07.02.11c0-.03,0-.07-.02-.11-.25-.97-.38-2.06-.7-2.87,0-.01-.03-.02-.04,0h.04c.32.82.45,1.9.7,2.87Z"/>
  <path class="st1" d="M32.13,36.71c5.68-1.69,2.81-9.69-2.63-7.71l-.18.08c-4.47,2.07-1.86,8.81,2.81,7.63Z"/>
  <path class="st1" d="M31.49,26.28c-.1,0-.19.02-.29.02.1,0,.19,0,.29-.02Z"/>
  <path class="st1" d="M30.02,24.76c-.02.1-.04.22-.05.34.05-.23.11-.56.19-.95-.05.22-.1.42-.14.61Z"/>
  <path class="st1" d="M30.85,21.06c.14-.56.26-1.04.34-1.29-.06.14-.19.63-.34,1.29Z"/>
  <path class="st1" d="M31.84,26.23s-.11.02-.17.03c.06,0,.11-.02.17-.03Z"/>
  <path class="st1" d="M32.3,26.09c-.08.04-.18.07-.28.1.1-.03.2-.06.28-.1Z"/>
  <path class="st1" d="M29.94,25.25v.14-.14Z"/>
  <path class="st1" d="M51.71,59.73c-.03-3.39-.06-12.98-.11-14.71-.08-.27-.28-.22-.62-.26-.56-.02-1.79-.02-2.69-.04-.88.07-1.5-.3-1.38.78.03,3.14.03,16.28.09,18.07.23.49.74.37,1.44.48.92.07,2.27.03,2.86-.09l.1-.03c.13-.04.21-.09.26-.17.15-1.02,0-2.63.04-4.05v.02s0,0,.01,0Z"/>
  <path class="st1" d="M37.55,54.63c-1.4-.38-3.45-.45-4.9-.06,0,.7.04,9.02.04,9.38,1.23.1,3.65.05,4.85.09h0c0-1.73.05-9.29,0-9.42h.01Z"/>
  <path class="st1" d="M65.78,47.73c-.03-7.05.02-13.83-.05-14.2-.96-.12-3.59,0-4.58-.03-.48,6.39-.03,28.51-.15,30.3,1.24.36,3.18.26,4.53,0l.09-.03c.08-.03.13-.05.15-.08.05-3.07,0-11.41,0-15.97h.01Z"/>
  <path class="st0" d="M29.96,25.68c.02.07.05.14.09.2.02.02.03.05.05.07.22.24.61.34,1.02.35h.08c.1,0,.19,0,.29-.02.06,0,.12,0,.18-.02.06,0,.11-.02.17-.03.06,0,.12-.03.18-.04.1-.03.2-.06.28-.1l.09-.07c.48-.66-.24-2.29-.4-3.31,0-.03,0-.07-.02-.11-.25-.97-.38-2.05-.7-2.87,0-.01-.03-.02-.04,0,0,0-.03.03-.04.05h0c-.08.25-.2.72-.34,1.29-.23.95-.5,2.17-.69,3.09-.08.38-.15.71-.19.95v.29c0,.11,0,.21.03.3l-.03-.02h0Z"/>
  <g>
    <path class="st2" d="M63.54,37.46l.03-10.64c0-.31-.82-.73-1.08-.79l-5.82-1.22-2.27-5.52,3.1-4.32c.6-.84.75-1.76-.07-2.56l-7.19-7.01-5.97,4c-1.71-1.04-3.49-1.71-5.45-2.37l-.84-4.59c-.15-.8-.52-2.3-1.58-2.31L27.5,0c-.96-.02-1.53.76-1.68,1.55l-1.03,5.55-5.58,2.28-6.01-3.96-7.84,7.95,3.97,5.96-2.39,5.58c-2.39.42-4.65.57-6.86,1.63L0,36.62c0,1.12,1.38,1.44,2.23,1.61l4.87.94,2.29,5.35-4.07,5.99,7.91,8.08c2.4-1.03,4.11-2.55,6.02-4.06l5.6,2.34,1.01,5.89c.1.57.61,1.3,1.3,1.3h9.55c.43,0,.95-.79,1.02-1.19l1.1-6.01c2.04-.51,3.84-1.17,5.38-2.33l5.24,3.69c.72.51,1.82-.25,2.37-.82l5.91-6.07c.47-.48.36-1.38.05-1.84l-3.37-5,2.2-5.4c2.41-.42,4.65-.65,6.92-1.62ZM52.01,44.56l3.91,5.72-5.88,5.84-5.64-3.87c-2.34,1.37-4.63,2.22-7.2,2.99l-1.37,6.73-7.98.06-1.3-6.68c-2.44-.8-4.73-1.66-7.15-3.08l-5.81,3.85-5.85-5.84,3.99-5.74c-1.32-2.27-2.25-4.51-2.94-7.06l-6.84-1.5v-8.02s6.73-1.34,6.73-1.34c.79-2.56,1.71-4.93,3.04-7.28l-3.86-5.55,5.67-5.76,5.7,3.64,7.41-3.02,1.15-6.59,7.97.04,1.42,6.56c2.61.77,4.89,1.76,7.25,3.04l5.7-3.81,5.71,5.93c-1.54,2.01-2.96,3.66-3.8,5.65,1.35,2.24,2.17,4.45,2.99,6.98l6.57,1.46.08,8.18-6.69,1.27c-.79,2.56-1.69,4.85-2.97,7.17Z"/>
    <path class="st2" d="M33.74,17.46c-7.69-1.02-14.47,4.06-16.13,11.34-1.56,6.86,2.17,14.4,9.34,17.03,8.44,3.09,16.98-2.24,18.99-10.23,2.13-8.47-3.45-16.97-12.2-18.14ZM43.52,36.4c-2.32,6.16-9.03,9.77-15.44,7.62-6.96-2.32-10.48-9.9-7.87-16.66,2.48-6.44,10.15-9.91,16.72-6.89,6.17,2.84,8.89,9.83,6.59,15.93Z"/>
  </g>
</svg>