<?xml version="1.0" encoding="UTF-8"?>
<svg id="Vrstva_1" xmlns="http://www.w3.org/2000/svg" version="1.1" viewBox="0 0 1347.42 647.14">
  <!-- Generator: Adobe Illustrator 30.6.0, SVG Export Plug-In . SVG Version: 2.1.4 Build 109)  -->
  <g>
    <path d="M43.71,3.81c-4.45.47-7.56,1.05-10.44,1.98-5.57,1.81-9.68,3.93-14.48,7.52-2.38,1.78-6.52,5.87-8.3,8.16C5.39,28.12,2.08,35.47.75,43.22c-3,17.39,3.09,34.4,16.22,45.34,2.73,2.26,7.78,5.56,8.56,5.56.16,0,.48-.17.74-.36.4-.31.47-.48.41-1.09-.05-.69-.09-.72-1.35-1.47-6.97-4.05-12.47-9.42-16.37-15.94-8.38-14.04-8.42-32.3-.09-46.65C16.25,15.91,28.89,7.78,43.28,6.45c2.59-.24,7.66-.1,10.06.28,6.71,1.05,12.59,3.31,18.06,6.99,7.19,4.83,13.2,12.22,16.37,20.19.83,2.12,1.95,5.66,2.19,6.95.22,1.31,1.29,1.86,2.21,1.14.45-.35.48-.47.4-1.17-.29-2.33-2.04-7.33-3.92-11.15-6.83-13.89-20.19-23.55-35.37-25.55-1.92-.24-8.18-.45-9.58-.31Z"/>
    <path d="M46.27,13.18c-.31.31-.36.62-.48,3.42-.12,3.36-.05,4.19.45,4.64.47.41,1.29.38,1.76-.09.36-.36.38-.5.36-3.69,0-1.83-.05-3.52-.12-3.76-.21-.79-1.35-1.09-1.97-.52Z"/>
    <path d="M23.3,22c-.48.21-.79.88-.66,1.41.09.36,2.97,4.04,4.35,5.52.72.79,1.41.88,2.05.22.78-.76.66-1-2.38-4.71-2.21-2.69-2.4-2.83-3.36-2.45Z"/>
    <path d="M69.63,22.17c-.43.35-3.5,3.88-4.38,5.07-.78,1.02-.31,2.35.79,2.35.66,0,.85-.17,3.14-2.93,2.61-3.09,2.86-3.66,2.09-4.38-.53-.47-1.14-.5-1.64-.1Z"/>
    <path d="M46.32,27.04c-.43.38-.53.88-2,9.7l-1.57,9.3-1.16,1.07c-1.79,1.67-2.62,3.54-2.62,5.95.02,4.49,3.54,7.94,8.13,7.94,4.43-.02,7.92-3.47,7.92-7.85,0-2.21-.95-4.45-2.55-6.06l-1.02-1.02-.55-3.36c-.74-4.43-2.59-14.84-2.71-15.23-.09-.28-.9-.81-1.26-.81-.09,0-.36.17-.6.38ZM47.96,40.3c.38,2.23.71,4.18.72,4.37.03.29-.09.31-1.52.29-.85-.02-1.57-.07-1.6-.09-.05-.05,1.31-8.14,1.45-8.54.03-.14.12-.21.17-.16s.4,1.92.78,4.12ZM48.85,47.81c1.1.38,2.42,1.59,3,2.79.41.85.48,1.19.48,2.45s-.07,1.59-.48,2.38c-1.09,2.07-2.83,3.05-5.14,2.93-2.1-.12-3.85-1.29-4.66-3.14-.53-1.19-.55-3.28-.03-4.43,1.17-2.61,4.14-3.9,6.83-2.98Z"/>
    <path d="M10.67,43.27c-.79.4-.91,1.79-.17,2.19.48.26,6.28,1.55,6.95,1.55.35,0,.71-.12.86-.31.4-.43.38-1.47-.02-1.83-.24-.21-6.64-1.85-7.14-1.83-.03,0-.24.1-.48.22Z"/>
    <path d="M82.01,51.59l-.43.41-.02,4.02c0,4.07,0,6.19.02,26.67v11.44l.43.41.41.43h9.66l.48-.41.48-.41.05-21,.03-20.98-.5-.52-.5-.5h-9.71l-.41.43ZM90.52,73.02l-.05,19.46h-6.38l-.05-19.24c-.02-10.58,0-19.34.05-19.46.05-.16.88-.21,3.28-.21h3.19l-.03,19.44Z"/>
    <path d="M64.93,65.29c-.19.09-.5.33-.69.53-.33.38-.35.64-.35,14.35v13.97l.48.41.48.41h9.83l.41-.43.43-.41v-27.95l-.41-.48-.41-.48-4.73-.03c-2.59-.02-4.87.03-5.06.1ZM72.97,79.31c.02,6.38.03,11.9.05,12.27.03.35-.05.72-.16.81-.14.12-1.4.16-3.3.14l-3.09-.05-.05-12.39-.03-12.37h6.56l.02,11.59Z"/>
    <path d="M17.23,67.31c-1.57.9-2.98,1.79-3.14,1.98-.69.81-.14,2.05.9,2.05.52,0,5.95-2.97,6.59-3.59.5-.5.55-1.12.14-1.64-.64-.81-1.26-.66-4.49,1.19Z"/>
    <path d="M46.99,77.59c-.78.45-.76.36-.78,8.71v7.97l.45.35c.45.35.67.36,5.35.36h4.88l.48-.41.48-.41.02-7.66c.02-8.26-.02-8.61-.88-8.94-.66-.24-9.56-.22-10.01.03ZM55.27,86.27v6.21l-2.93.05c-1.6.02-3.11,0-3.31-.05l-.4-.09v-12.42l3.33.03,3.31.05v6.21Z"/>
  </g>
  <g>
    <path d="M1302.47,549.16c-4.47,2.5-8.54,4.54-12.51,6.25-5.88,2.52-13.75,5.06-19.15,6.18-2.67.53-3.19.74-3.57,1.4-.33.57-.33,28.42,0,31.61.88,8.71,3.3,16.63,7.23,23.81,6.02,11.01,15.44,20.24,26.67,26.14,2.45,1.29,5.62,2.61,6.33,2.61,1.35,0,7.78-3.21,11.8-5.88,15.04-10.02,24.38-24.14,27.28-41.25.81-4.87.86-6.02.86-21.62s.02-15.55-.93-16.05c-.26-.12-1.73-.52-3.26-.86-6.12-1.36-13.65-3.83-19.36-6.33-3.02-1.33-9.11-4.4-12.22-6.16-1.54-.88-3.05-1.69-3.38-1.83-1.19-.5-1.52-.38-5.8,2ZM1309.86,550.94c7.18,4.11,16.55,8.33,23.24,10.51,3.04.98,5.83,1.73,9.14,2.45l2.59.55v14.65c0,13.13-.03,14.91-.31,17.15-1.12,8.89-3.71,16.55-7.97,23.65-1.55,2.57-4.87,6.94-7.11,9.39-3.85,4.18-9.35,8.66-14.03,11.39-4.04,2.36-7.3,3.8-8.25,3.64-.35-.05-2.17-.86-4.07-1.81-8.71-4.31-15.86-10.32-21.89-18.43-5.54-7.4-9.14-15.82-10.71-24.9-.88-5.14-.88-5.23-.88-20.43v-14.3l2.62-.57c10.32-2.21,22.05-6.88,32.14-12.8,1.47-.86,2.74-1.57,2.81-1.57.09-.02,1.29.64,2.67,1.43Z"/>
    <path d="M1315.43,593.49c-7.14,7.21-13.04,13.11-13.1,13.11-.16,0-3.21-2.97-8.59-8.3-4.43-4.38-4.66-4.54-5.42-3.78-.21.21-.35.57-.35.91,0,.5.57,1.12,6.18,6.69,7.52,7.47,7.44,7.4,8.28,7.4.62.02.85-.19,5.87-5.3,2.88-2.93,8.06-8.14,11.49-11.61,10.21-10.32,10.28-10.39,10.28-11.01,0-.69-.53-1.24-1.17-1.24-.41,0-2.38,1.9-13.47,13.11Z"/>
  </g>
  <g>
    <path d="M1149.87,549.32c-3.23.12-3.83.38-4.24,1.76-.09.31-.43,2.19-.76,4.19-.33,1.98-.64,3.78-.69,3.99-.05.28-.45.47-1.73.9-.91.31-2.76,1.05-4.11,1.67l-2.43,1.12-3-2.28c-1.64-1.24-3.35-2.45-3.78-2.67-1.5-.76-2.42-.47-4.31,1.36-2.5,2.4-7.32,7.63-7.66,8.26-.47.93-.41,1.97.16,3,.26.47,1.4,2.09,2.5,3.61,1.1,1.5,2.02,2.81,2.02,2.93,0,.1-.38,1.05-.85,2.09-.47,1.05-1.14,2.83-1.5,3.97-.35,1.14-.69,2.14-.76,2.21s-1.71.41-3.64.74c-4.38.74-5.12.95-5.75,1.6-.45.47-.52.69-.64,2.04-.19,2.12-.17,10.4.02,11.87.26,2.04.78,2.29,6.4,3.28,1.81.31,3.31.6,3.36.66s.4.98.76,2.09c.38,1.09,1.12,2.92,1.66,4.05l.97,2.05-1.26,1.85c-.71,1-1.81,2.61-2.47,3.55-1.93,2.81-1.85,3.43,1.04,6.54,2.69,2.93,7.04,7.26,7.52,7.52,1.19.62,2.31.12,6.33-2.85,1.55-1.16,2.86-2.09,2.95-2.09.07,0,1,.41,2.09.93,1.09.5,2.86,1.24,3.95,1.64,1.09.41,2.07.83,2.19.93.1.12.43,1.9.74,3.99.29,2.07.62,3.97.71,4.23.22.59.64,1.02,1.26,1.35,1.16.6,11.49.64,13.6.05,1.35-.38,1.59-1.04,2.4-6.71.19-1.38.43-2.64.52-2.79s1-.59,2.09-.95c1.07-.36,2.92-1.14,4.07-1.71l2.14-1.05.88.62c.5.35,1.86,1.35,3.05,2.24,2.21,1.64,3.57,2.42,4.28,2.42.22,0,.67-.12.98-.28.6-.28,6.71-6.37,8.52-8.49,2.07-2.45,2.04-2.64-1.5-7.59l-2.24-3.16.91-1.93c.5-1.07,1.24-2.9,1.66-4.09.4-1.19.79-2.24.88-2.36.09-.1.71-.29,1.4-.4,2.78-.45,6.78-1.4,7.19-1.69.24-.17.59-.62.78-1,.31-.62.35-1.09.4-5.42.07-5.4-.12-8.18-.6-9.01-.53-.91-1.14-1.14-4.99-1.78-1.98-.35-3.76-.67-3.95-.76-.26-.1-.59-.78-1.19-2.45-.45-1.28-1.21-3.12-1.67-4.11s-.85-1.85-.85-1.92.95-1.4,2.1-2.95c2.45-3.31,2.67-3.66,2.92-4.52.21-.79,0-1.71-.62-2.54-.24-.31-2.23-2.45-4.43-4.71-4.07-4.21-4.78-4.78-5.92-4.78-.85,0-1.76.53-4.66,2.71-3.97,2.97-3.43,2.74-4.76,2.04-1.29-.69-4.61-2.04-5.94-2.43-1.02-.29-.97-.17-1.29-2.4-.5-3.43-1.12-6.52-1.4-6.99-.55-.9-1.19-1.09-4.04-1.22-2.86-.14-3.97-.14-7.76.02ZM1159.51,552.2c.1.4.9,4.99,1.22,7.09.12.9.36,1.79.5,2.02.21.31.74.55,2.04.95,2.04.64,4.85,1.81,6.63,2.78.67.36,1.47.67,1.74.67.4,0,1.35-.64,4.16-2.76,2.02-1.52,3.76-2.76,3.9-2.76.24,0,7.82,7.61,8.3,8.33.35.53.47.33-2.42,4.26-2.74,3.73-2.67,3.62-2.67,4.16,0,.24.47,1.41,1.02,2.59.57,1.17,1.4,3.26,1.83,4.64,1.02,3.11,1.22,3.55,1.79,3.78.24.1,1.54.35,2.86.53,4.02.57,5.47.83,5.66,1.02s.5,9.71.35,10.92c-.05.45-.19.9-.29.98s-1.74.43-3.64.78c-5.02.88-5.24.93-5.54,1.4-.14.21-.45,1.12-.69,2-.52,1.95-1.38,4.16-2.5,6.4-.47.93-.85,1.85-.85,2.04,0,.6.59,1.57,2.55,4.18,1.04,1.36,2.09,2.81,2.35,3.21l.45.71-.47.57c-1.22,1.48-7.73,8.07-7.97,8.07-.38,0-1.47-.78-4.74-3.36-1.52-1.19-2.92-2.16-3.11-2.16-.21,0-.79.24-1.31.52-2.19,1.22-4.54,2.26-6.56,2.93-1.19.4-2.33.88-2.54,1.07-.52.48-.67,1-1.17,4.19-.69,4.4-.79,4.9-1.09,5.12-.19.17-1.52.22-5.59.22-4.8,0-5.37-.03-5.56-.29-.12-.16-.47-2.02-.76-4.12-.33-2.21-.71-4.14-.88-4.57-.36-.79-.43-.83-3.38-1.73-.85-.26-2.85-1.14-4.43-1.93l-2.88-1.43-.57.28c-.31.14-2.04,1.4-3.83,2.76-1.79,1.38-3.38,2.5-3.54,2.5-.17,0-2-1.76-4.09-3.93-5-5.19-4.52-4.52-3.99-5.42.24-.41,1.36-2,2.5-3.55,1.14-1.54,2.17-3.07,2.28-3.4.19-.57.14-.72-.91-2.88s-2-4.68-2.62-6.9c-.4-1.47-.57-1.55-4.52-2.19-1.88-.29-3.85-.64-4.37-.76l-.95-.21-.14-1.64c-.21-2.47-.02-10.2.26-10.37.12-.07.72-.22,1.35-.31,6.73-1.09,7.32-1.21,7.75-1.54.48-.36.52-.45,1.54-3.67.38-1.21,1.17-3.19,1.74-4.43,1.05-2.26,1.05-2.28.79-2.9-.14-.33-1.38-2.21-2.78-4.14l-2.52-3.54.6-.72c.64-.78,7.82-7.94,8.02-8.02.07-.02,1.78,1.21,3.8,2.73,2.83,2.12,3.8,2.76,4.18,2.76.29,0,1.43-.47,2.57-1.02,2.24-1.14,4.43-2.04,6.37-2.59.85-.26,1.33-.5,1.5-.78.16-.22.5-1.74.78-3.4.71-4.09,1.02-5.68,1.14-5.87.05-.09,2.5-.16,5.68-.16,5.18,0,5.59.02,5.68.29Z"/>
    <path d="M1150.75,576.06c-2.43.4-5.49,1.57-7.69,3-2.92,1.9-6.06,5.69-7.25,8.75-1.21,3.11-1.43,4.4-1.45,7.92-.02,3.5.19,4.66,1.29,7.45,1.48,3.74,4.97,7.66,8.71,9.8,1.52.86,4.62,1.97,6.28,2.23.62.1,2.09.19,3.24.19,5.33,0,9.85-1.88,13.63-5.68,2.42-2.42,4.23-5.54,5.16-8.92.45-1.6.48-1.93.48-5.07s-.05-3.54-.4-4.83c-1.05-3.9-2.52-6.45-5.3-9.25-2.69-2.71-5.43-4.3-9.06-5.24-1.66-.43-5.87-.62-7.66-.35ZM1157.98,578.98c3.54.93,6.97,3.24,9.13,6.12,2.43,3.26,3.54,6.56,3.55,10.49.02,7.11-4.09,13.37-10.52,16.06-2.17.9-3.86,1.22-6.3,1.22-7.71-.02-14.44-5.4-16.41-13.16-1.92-7.49,1.45-15.32,8.23-19.15,1.45-.81,2.98-1.38,4.73-1.74,2.09-.45,5.59-.38,7.59.16Z"/>
  </g>
  <g>
    <path d="M915.74.36c-5.81,1.52-9.73,6.78-10.58,14.18-.33,2.93.29,6.69,1.57,9.52,1.33,2.92,3.8,5.69,6.14,6.94,5.83,3.05,12.58,1.57,16.51-3.64,4.3-5.68,4.9-13.47,1.55-20.01-2.02-3.95-5.06-6.37-8.97-7.16-1.5-.31-4.76-.22-6.23.17ZM922,2.88c3.67.91,6.68,4.28,7.88,8.85,1.04,3.95.67,8.11-.98,11.44-1.74,3.47-4.05,5.59-7.13,6.5-1.09.33-1.52.38-3.02.29-2.85-.16-5.11-1.16-7.09-3.14-.97-.97-1.4-1.57-2.12-3.02-1.22-2.47-1.62-4-1.71-6.9-.1-2.64.16-4.3.98-6.61,1.28-3.49,3.86-6.21,6.87-7.21,1.97-.66,4.21-.74,6.31-.21Z"/>
    <path d="M987.17.34c-4.66,1.26-7.78,4.4-9.66,9.73-1.4,3.97-1.38,8.42.07,12.47,1.78,4.97,5.28,8.44,9.75,9.64,1.66.45,4.69.41,6.42-.07,2.52-.71,3.92-1.5,5.69-3.24,5.14-5.04,6.44-13.47,3.17-20.84-1.54-3.47-4.54-6.28-7.95-7.45-1.19-.41-1.71-.48-3.8-.53-1.98-.03-2.64.02-3.69.29ZM993.6,2.98c2.61.67,4.81,2.59,6.3,5.45,3.66,7.07,1.85,16.1-3.97,19.86-1.69,1.09-3.5,1.6-5.68,1.62-1.31,0-2.07-.09-2.76-.31-3.31-1.1-6.07-4.09-7.45-8.04-1-2.86-1.16-6.45-.41-9.35,1.88-7.42,7.28-10.99,13.97-9.23Z"/>
    <path d="M952.02,17.49c-4.5,1.04-7.92,4.09-9.85,8.83-.91,2.26-1.31,4.38-1.31,7.14-.02,9.26,6.02,16.03,14.2,15.94,5.21-.07,9.52-2.98,11.9-8.04,2.35-5,2.26-11.51-.19-16.39-.91-1.81-1.71-2.88-3.23-4.31-1.41-1.33-2.97-2.26-4.83-2.86-1.66-.53-5.02-.69-6.69-.31ZM957.28,20.1c2.48.59,4.69,2.21,6.3,4.64,1.07,1.59,1.64,2.9,2.1,4.76.47,1.83.47,5.78,0,7.59-1.5,5.88-5.33,9.54-10.3,9.8-2,.1-3.04-.1-4.88-.98-3.33-1.57-5.45-4.31-6.59-8.56-.9-3.3-.53-7.44.95-10.68,1.17-2.61,3.11-4.68,5.43-5.8,2.1-1.02,4.71-1.31,6.99-.78Z"/>
    <path d="M998.29,34.92c-2.73,1.9-4.47,2.5-7.44,2.64-2.86.12-4.71-.4-7.33-2.09-.76-.5-1.41-.79-1.74-.79-.74,0-3.04.93-4.26,1.73-1.36.86-2.97,2.52-4.02,4.12-.97,1.48-2.42,4.8-2.52,5.8-.12.93.41,1.64,1.22,1.64.74,0,1.19-.52,1.55-1.78.5-1.73,2.1-4.66,3.23-5.88,1.14-1.24,3.24-2.66,4.16-2.81.48-.07.78.03,1.57.53,3.21,2.05,7.94,2.73,11.68,1.66,1.59-.45,3.8-1.52,5-2.42,1.02-.76,1.28-.76,3.33-.07,1.85.62,3.67,1.74,5.12,3.17,2.02,2,3.21,4.26,3.73,7.07.29,1.64.33,8.32.03,9.44-.24,1.02-1.35,2.19-2.29,2.45-.47.12-4.83.19-13.89.19-14.92,0-13.97-.09-13.97,1.29s-.98,1.31,14.42,1.26c12.34-.05,13.68-.09,14.35-.35,1.74-.71,3.19-2.16,3.74-3.76.55-1.64.4-10.16-.22-12.42-1.21-4.37-4-7.75-8.14-9.83-1.55-.79-3.86-1.55-5-1.64-.91-.09-.98-.07-2.31.85Z"/>
    <path d="M906.96,34.57c-1.93.53-4.69,1.93-6.12,3.12-2.38,1.97-4.4,5.18-5.26,8.33-.43,1.6-.45,1.86-.45,6.07,0,4.93.1,5.66,1.16,7.18.69,1,2.12,2.05,3.24,2.38.67.21,3.38.26,14.67.29l13.84.03.33-.38c.38-.48.4-1.21.07-1.67-.24-.31-.64-.33-14.11-.41-15.41-.1-14.3,0-15.63-1.26-.91-.88-1.07-1.74-1.07-5.83,0-5.14.41-7.04,2.16-9.64.9-1.35,2.5-3.02,3.62-3.8,1.64-1.14,4.4-2.24,5.57-2.24.17,0,.86.36,1.52.79,4.92,3.33,11.4,3.49,16.51.41.62-.38,1.26-.69,1.41-.69.76,0,2.73,1.29,3.93,2.59,1.47,1.57,2.47,3.3,3.31,5.73.35.98.74,1.88.9,1.98.52.4,1.36.28,1.76-.22.47-.59.45-.79-.09-2.52-1.54-4.87-4.59-8.38-8.59-9.89-1.55-.59-1.93-.55-3.23.29-2.54,1.64-4.76,2.38-7.25,2.38-2.83,0-5.02-.69-7.52-2.36-1.9-1.26-2.29-1.33-4.68-.67Z"/>
    <path d="M944.21,50.91c-5.88,1.19-10.61,5.47-12.09,10.94-.33,1.19-.4,1.97-.47,5.75-.1,4.83.02,5.94.78,7.33.6,1.12,1.9,2.26,3.11,2.74l.98.4h18.29c17.3,0,18.34-.02,19.2-.31,1.85-.66,3.33-2.29,3.92-4.31.24-.85.28-1.67.22-5.43-.09-5-.22-5.88-1.33-8.25-2.14-4.55-5.97-7.66-10.85-8.8-1.54-.36-2.04-.26-3.33.71-4.83,3.55-10.27,3.55-15.51-.02-1.24-.85-1.79-.98-2.92-.74ZM946.55,54.41c2.47,1.64,5.04,2.4,8.25,2.42,3.26.02,5.88-.74,8.57-2.5,1.24-.81,1.38-.86,2.05-.76,4.3.72,8.26,4.43,9.7,9.06.29.97.36,1.74.41,5.37.09,4.71,0,5.31-.86,6.31-1.17,1.35.22,1.26-19.7,1.26-16.84,0-17.81-.02-18.46-.33-.97-.43-1.73-1.24-2.05-2.21-.36-1.09-.4-7.35-.03-9.23.29-1.48.93-3.28,1.54-4.23,1.24-1.95,3.28-3.86,5.16-4.81,1-.5,3.21-1.26,3.69-1.28.21,0,.98.41,1.74.93Z"/>
  </g>
</svg>