<?xml version="1.0" encoding="UTF-8"?>
<svg id="Vrstva_1" xmlns="http://www.w3.org/2000/svg" version="1.1" viewBox="0 0 119.17 78.07" color="#000000" stroke="currentColor" stroke-width="1.4" stroke-linecap="round" stroke-linejoin="round" data-line-weight="soft-metal-140">
  <!-- Generator: Adobe Illustrator 30.6.0, SVG Export Plug-In . SVG Version: 2.1.4 Build 109)  -->
  <path d="M20.61.36c-5.81,1.52-9.73,6.78-10.58,14.18-.33,2.93.29,6.69,1.57,9.52,1.33,2.92,3.8,5.69,6.14,6.94,5.83,3.05,12.58,1.57,16.51-3.64,4.3-5.68,4.9-13.47,1.55-20.01C33.78,3.4,30.74.98,26.83.19c-1.5-.31-4.76-.22-6.23.17h0ZM26.87,2.88c3.67.91,6.68,4.28,7.88,8.85,1.04,3.95.67,8.11-.98,11.44-1.74,3.47-4.05,5.59-7.13,6.5-1.09.33-1.52.38-3.02.29-2.85-.16-5.11-1.16-7.09-3.14-.97-.97-1.4-1.57-2.12-3.02-1.22-2.47-1.62-4-1.71-6.9-.1-2.64.16-4.3.98-6.61,1.28-3.49,3.86-6.21,6.87-7.21,1.97-.66,4.21-.74,6.31-.21h.01Z"/>
  <path d="M92.04.34c-4.66,1.26-7.78,4.4-9.66,9.73-1.4,3.97-1.38,8.42.07,12.47,1.78,4.97,5.28,8.44,9.75,9.64,1.66.45,4.69.41,6.42-.07,2.52-.71,3.92-1.5,5.69-3.24,5.14-5.04,6.44-13.47,3.17-20.84-1.54-3.47-4.54-6.28-7.95-7.45-1.19-.41-1.71-.48-3.8-.53-1.98-.03-2.64.02-3.69.29ZM98.47,2.98c2.61.67,4.81,2.59,6.3,5.45,3.66,7.07,1.85,16.1-3.97,19.86-1.69,1.09-3.5,1.6-5.68,1.62-1.31,0-2.07-.09-2.76-.31-3.31-1.1-6.07-4.09-7.45-8.04-1-2.86-1.16-6.45-.41-9.35,1.88-7.42,7.28-10.99,13.97-9.23Z"/>
  <path d="M56.89,17.49c-4.5,1.04-7.92,4.09-9.85,8.83-.91,2.26-1.31,4.38-1.31,7.14-.02,9.26,6.02,16.03,14.2,15.94,5.21-.07,9.52-2.98,11.9-8.04,2.35-5,2.26-11.51-.19-16.39-.91-1.81-1.71-2.88-3.23-4.31-1.41-1.33-2.97-2.26-4.83-2.86-1.66-.53-5.02-.69-6.69-.31h0ZM62.15,20.1c2.48.59,4.69,2.21,6.3,4.64,1.07,1.59,1.64,2.9,2.1,4.76.47,1.83.47,5.78,0,7.59-1.5,5.88-5.33,9.54-10.3,9.8-2,.1-3.04-.1-4.88-.98-3.33-1.57-5.45-4.31-6.59-8.56-.9-3.3-.53-7.44.95-10.68,1.17-2.61,3.11-4.68,5.43-5.8,2.1-1.02,4.71-1.31,6.99-.78h0Z"/>
  <path d="M103.16,34.92c-2.73,1.9-4.47,2.5-7.44,2.64-2.86.12-4.71-.4-7.33-2.09-.76-.5-1.41-.79-1.74-.79-.74,0-3.04.93-4.26,1.73-1.36.86-2.97,2.52-4.02,4.12-.97,1.48-2.42,4.8-2.52,5.8-.12.93.41,1.64,1.22,1.64.74,0,1.19-.52,1.55-1.78.5-1.73,2.1-4.66,3.23-5.88,1.14-1.24,3.24-2.66,4.16-2.81.48-.07.78.03,1.57.53,3.21,2.05,7.94,2.73,11.68,1.66,1.59-.45,3.8-1.52,5-2.42,1.02-.76,1.28-.76,3.33-.07,1.85.62,3.67,1.74,5.12,3.17,2.02,2,3.21,4.26,3.73,7.07.29,1.64.33,8.32.03,9.44-.24,1.02-1.35,2.19-2.29,2.45-.47.12-4.83.19-13.89.19-14.92,0-13.97-.09-13.97,1.29s-.98,1.31,14.42,1.26c12.34-.05,13.68-.09,14.35-.35,1.74-.71,3.19-2.16,3.74-3.76.55-1.64.4-10.16-.22-12.42-1.21-4.37-4-7.75-8.14-9.83-1.55-.79-3.86-1.55-5-1.64-.91-.09-.98-.07-2.31.85h0Z"/>
  <path d="M11.83,34.57c-1.93.53-4.69,1.93-6.12,3.12-2.38,1.97-4.4,5.18-5.26,8.33-.43,1.6-.45,1.86-.45,6.07,0,4.93.1,5.66,1.16,7.18.69,1,2.12,2.05,3.24,2.38.67.21,3.38.26,14.67.29l13.84.03.33-.38c.38-.48.4-1.21.07-1.67-.24-.31-.64-.33-14.11-.41-15.41-.1-14.3,0-15.63-1.26-.91-.88-1.07-1.74-1.07-5.83,0-5.14.41-7.04,2.16-9.64.9-1.35,2.5-3.02,3.62-3.8,1.64-1.14,4.4-2.24,5.57-2.24.17,0,.86.36,1.52.79,4.92,3.33,11.4,3.49,16.51.41.62-.38,1.26-.69,1.41-.69.76,0,2.73,1.29,3.93,2.59,1.47,1.57,2.47,3.3,3.31,5.73.35.98.74,1.88.9,1.98.52.4,1.36.28,1.76-.22.47-.59.45-.79-.09-2.52-1.54-4.87-4.59-8.38-8.59-9.89-1.55-.59-1.93-.55-3.23.29-2.54,1.64-4.76,2.38-7.25,2.38-2.83,0-5.02-.69-7.52-2.36-1.9-1.26-2.29-1.33-4.68-.67h0Z"/>
  <path d="M49.08,50.91c-5.88,1.19-10.61,5.47-12.09,10.94-.33,1.19-.4,1.97-.47,5.75-.1,4.83.02,5.94.78,7.33.6,1.12,1.9,2.26,3.11,2.74l.98.4h18.29c17.3,0,18.34-.02,19.2-.31,1.85-.66,3.33-2.29,3.92-4.31.24-.85.28-1.67.22-5.43-.09-5-.22-5.88-1.33-8.25-2.14-4.55-5.97-7.66-10.85-8.8-1.54-.36-2.04-.26-3.33.71-4.83,3.55-10.27,3.55-15.51-.02-1.24-.85-1.79-.98-2.92-.74h0ZM51.42,54.41c2.47,1.64,5.04,2.4,8.25,2.42,3.26.02,5.88-.74,8.57-2.5,1.24-.81,1.38-.86,2.05-.76,4.3.72,8.26,4.43,9.7,9.06.29.97.36,1.74.41,5.37.09,4.71,0,5.31-.86,6.31-1.17,1.35.22,1.26-19.7,1.26-16.84,0-17.81-.02-18.46-.33-.97-.43-1.73-1.24-2.05-2.21-.36-1.09-.4-7.35-.03-9.23.29-1.48.93-3.28,1.54-4.23,1.24-1.95,3.28-3.86,5.16-4.81,1-.5,3.21-1.26,3.69-1.28.21,0,.98.41,1.74.93h0Z"/>
</svg>