<?xml version="1.0" encoding="UTF-8"?>
<svg id="Vrstva_1" xmlns="http://www.w3.org/2000/svg" version="1.1" viewBox="0 0 60.18 64.02">
  <!-- Generator: Adobe Illustrator 30.6.0, SVG Export Plug-In . SVG Version: 2.1.4 Build 109)  -->
  <defs>
    <style>
      .st0 {
        fill: #f4f7f8;
      }

      .st1 {
        fill: none;
      }

      .st2 {
        fill: #0b2237;
      }
    </style>
  </defs>
  <path class="st1" d="M25.52,26.24c-.41,0-.8-.11-1.02-.35.22.25.61.35,1.02.35Z"/>
  <path class="st1" d="M24.37,25.73s.05.06.07.09c-.04-.06-.07-.13-.09-.2,0,.03,0,.08.02.11Z"/>
  <path class="st1" d="M26.37,22.54s0,.07.02.11c0-.03,0-.07-.02-.11-.25-.97-.38-2.06-.7-2.87,0-.01-.03-.02-.04,0h.04c.32.82.45,1.9.7,2.87Z"/>
  <path class="st1" d="M26.52,36.65c5.68-1.69,2.81-9.69-2.63-7.71l-.18.08c-4.47,2.07-1.86,8.81,2.81,7.63Z"/>
  <path class="st1" d="M25.88,26.22c-.1,0-.19.02-.29.02.1,0,.19,0,.29-.02Z"/>
  <path class="st1" d="M24.41,24.7c-.02.1-.04.22-.05.34.05-.23.11-.56.19-.95-.05.22-.1.42-.14.61Z"/>
  <path class="st1" d="M25.24,21c.14-.56.26-1.04.34-1.29-.06.14-.19.63-.34,1.29Z"/>
  <path class="st1" d="M26.23,26.17s-.11.02-.17.03c.06,0,.11-.02.17-.03Z"/>
  <path class="st1" d="M26.69,26.03c-.08.04-.18.07-.28.1.1-.03.2-.06.28-.1Z"/>
  <path class="st1" d="M24.33,25.19v.14-.14Z"/>
  <path class="st1" d="M46.1,59.67c-.03-3.39-.06-12.98-.11-14.71-.08-.27-.28-.22-.62-.26-.56-.02-1.79-.02-2.69-.04-.88.07-1.5-.3-1.38.78.03,3.14.03,16.28.09,18.07.23.49.74.37,1.44.48.92.07,2.27.03,2.86-.09l.1-.03c.13-.04.21-.09.26-.17.15-1.02,0-2.63.04-4.05v.02s0,0,.01,0Z"/>
  <path class="st1" d="M31.94,54.57c-1.4-.38-3.45-.45-4.9-.06,0,.7.04,9.02.04,9.38,1.23.1,3.65.05,4.85.09h0c0-1.73.05-9.29,0-9.42h.01Z"/>
  <path class="st1" d="M60.17,47.67c-.03-7.05.02-13.83-.05-14.2-.96-.12-3.59,0-4.58-.03-.48,6.39-.03,28.51-.15,30.3,1.24.36,3.18.26,4.53,0l.09-.03c.08-.03.13-.05.15-.08.05-3.07,0-11.41,0-15.97h.01Z"/>
  <path class="st0" d="M24.35,25.62c.02.07.05.14.09.2.02.02.03.05.05.07.22.24.61.34,1.02.35h.08c.1,0,.19,0,.29-.02.06,0,.12,0,.18-.02.06,0,.11-.02.17-.03.06,0,.12-.03.18-.04.1-.03.2-.06.28-.1l.09-.07c.48-.66-.24-2.29-.4-3.31,0-.03,0-.07-.02-.11-.25-.97-.38-2.05-.7-2.87,0-.01-.03-.02-.04,0,0,0-.03.03-.04.05h0c-.08.25-.2.72-.34,1.29-.23.95-.5,2.17-.69,3.09-.08.38-.15.71-.19.95v.29c0,.11,0,.21.03.3l-.03-.02h0Z"/>
  <g>
    <path class="st2" d="M49.55,9.63c-8.41-1.62-15.98-5.15-23.32-9.63-6.19,3.58-12.34,7.06-19.32,8.67l-6.91,1.59v16.58c0,16.61,10.7,31.21,26.41,37.19,5.39-2.51,9.77-5.14,13.67-8.88,7.41-6.99,12.08-16.26,12.15-26.56l.12-17.99c-.87-.92-1.75-.77-2.8-.97ZM50.29,25.94c0,5.52-.97,10.64-3.14,15.87-4.3,9.14-11.6,15.99-20.99,19.99-9.55-3.97-17.16-11.4-21.34-20.9-1.76-4.46-2.73-8.85-2.76-13.64l-.08-15.46c8.84-1.49,16.64-5.12,24.14-9.44l12.41,6.11c3.69,1.82,7.52,2.72,11.78,3.25l-.03,14.22Z"/>
    <path class="st2" d="M15.27,30.37c-.47-.45-1.03-.37-1.32-.2-.43.25-.72.99-.31,1.39l8.29,8.12c.37.36.82.67,1.05.68.23.01.77-.2,1.02-.45l16.86-16.93c.57-.57.1-1.29-.23-1.53-.46-.33-.92-.18-1.41.32l-16.19,16.11-7.75-7.5Z"/>
  </g>
</svg>