<?xml version="1.0" encoding="UTF-8"?>
<svg id="Vrstva_1" xmlns="http://www.w3.org/2000/svg" version="1.1" viewBox="0 0 67.57 64.03">
  <!-- Generator: Adobe Illustrator 30.6.0, SVG Export Plug-In . SVG Version: 2.1.4 Build 109)  -->
  <defs>
    <style>
      .st0 {
        fill: #0c2135;
      }
    </style>
  </defs>
  <g>
    <path class="st0" d="M21.84,16.23c-2.51-1.71-5.77-1.74-8.29,0-2.36,1.62-3.62,4.62-2.97,7.61.62,2.85,2.29,5.89,4.29,8.54.22.29.45.58.69.87.71.89,1.46,1.71,2.2,2.47.72-.78,1.43-1.61,2.12-2.47.23-.28.46-.58.68-.87,1.99-2.65,3.63-5.6,4.27-8.53.65-2.96-.59-5.98-2.98-7.62ZM23.15,26.2c-.98,2.21-2.2,4.21-3.74,6.17-.23.29-.47.58-.71.87-.33.39-.66.77-1.01,1.16-.34-.38-.67-.76-1-1.16-.24-.28-.47-.58-.71-.87-2.25-2.86-4.15-6.16-4.68-9.52-.26-3.57,2.25-6.63,5.71-6.99,3.47-.36,6.63,2.17,7.02,5.76.18,1.58-.3,3.06-.89,4.58Z"/>
    <path class="st0" d="M18.4,25.66c2.01-.4,3.15-2.35,2.7-4.19-.46-1.9-2.22-3.07-4.15-2.67-1.99.41-3.09,2.33-2.68,4.17.44,1.95,2.33,3.05,4.13,2.69h0ZM17.29,19.63c1.53-.26,2.76.92,2.97,2.17.25,1.49-.77,2.77-2.11,3.01-1.46.26-2.75-.73-3.01-2.07-.28-1.42.6-2.84,2.16-3.11h0Z"/>
  </g>
  <g>
    <path class="st0" d="M34.11,43.07c-.24-.17-.4-.19-1.34-.22l-1.07-.04v-4.21c0-2.68-.03-4.38-.09-4.66-.13-.6-.49-1.07-1.05-1.35l-.46-.23h-8.09c-.24,0-.44.2-.44.44h0c0,.24.2.44.44.44h8.12l.34.29.32.3.03,11.39.02,11.39H3.79l.02-11.32.03-11.33.18-.25c.1-.13.28-.29.39-.35.15-.08-.95-.11,7.52-.11h1.51c.24,0,.44-.2.44-.44h0c0-.24-.2-.44-.44-.44h-1.07c-.39,0-.76,0-1.13,0-8.46.01-6.7.03-6.96.12-.41.14-.87.58-1.13,1.05-.19.35-.19.4-.19,4.8v4.45l-1.06.04c-1.15.05-1.33.11-1.72.65-.18.23-.19.36-.19,2.31,0,2.06,0,2.07.22,2.38.36.53.62.63,1.74.68l1.01.04.02,3.14c.02,1.72,0,3.48-.03,3.92-.05.76-.06.79-.32.96-.45.28-.63.7-.63,1.39.01,1.1.51,1.66,1.56,1.76l.57.05.03,1.49c.03,1.41.04,1.51.24,1.79.37.52.72.62,2.41.62s2.03-.1,2.41-.62c.2-.28.21-.38.24-1.81l.03-1.5h15.69v1.35c0,1.53.06,1.77.55,2.2.4.35.71.4,2.47.36,1.26-.03,1.41-.04,1.71-.23.57-.36.68-.73.68-2.31v-1.37h.33c.75,0,1.41-.37,1.64-.93.07-.15.12-.54.12-.86,0-.68-.23-1.17-.67-1.44l-.29-.18v-7.81l1.04-.04c1.15-.03,1.35-.1,1.74-.68.18-.28.19-.36.19-2.29,0-2.22-.05-2.43-.56-2.8ZM2.95,45.85v2.18h-.89c-1.29,0-1.26.05-1.3-2.02-.03-1.8-.02-1.94.26-2.2.18-.15.29-.18,1.07-.15l.87.03-.02,2.18ZM6.85,63.16c-1.35,0-1.48-.02-1.7-.19l-.23-.18v-2.69h3.75v1.34c0,1.81.11,1.72-1.82,1.72ZM29.76,61.44c-.03,1.83.09,1.71-1.88,1.71-1.3,0-1.55-.02-1.69-.15-.14-.12-.16-.3-.16-1.53v-1.38h3.76l-.03,1.34ZM31.67,59.03l-.21.25H3.25l-.21-.25c-.3-.36-.3-1.1.01-1.41l.21-.22h28.1l.25.25c.37.37.39.99.05,1.38ZM32.63,48.05l-.93.04v-4.46h.79c.44,0,.87.05.98.1.39.2.4.3.41,2.13,0,2.25.05,2.16-1.25,2.19Z"/>
    <path class="st0" d="M7.32,38.29c-.66.23-1.14.65-1.34,1.2-.13.34-1.13,6.61-1.13,7.08,0,.59.18,1.07.54,1.43.63.63,0,.59,11.93.59s11.25.02,11.86-.5c.31-.25.56-.72.65-1.16.03-.19-.16-1.6-.51-3.86-.5-3.18-.58-3.59-.78-3.9-.31-.47-.84-.84-1.37-.95-.3-.07-3.49-.1-9.91-.1-8.8,0-9.51.02-9.92.16ZM27.34,39.16c.17.08.37.27.45.41.15.25,1.2,6.44,1.2,7.05,0,.37-.23.78-.51.96-.23.13-1.09.15-11.1.15-5.96,0-10.93-.02-11.02-.05-.28-.1-.55-.39-.65-.7-.1-.3-.1-.34.83-6.03.21-1.31.27-1.46.78-1.77.25-.16.67-.17,9.98-.17s9.74,0,10.03.16Z"/>
    <path class="st0" d="M6.68,51.01c-.78.27-1.4,1.19-1.4,2.05,0,.93.68,1.85,1.56,2.11.59.17.73.17,1.31,0,.54-.16,1.11-.64,1.33-1.12.2-.44.22-1.28.03-1.8-.37-1.06-1.69-1.64-2.83-1.24ZM8.07,51.84c.53.27.82.8.75,1.42-.08.73-.58,1.19-1.32,1.19-1.26,0-1.84-1.56-.9-2.43.44-.41.9-.47,1.46-.18Z"/>
    <path class="st0" d="M26.48,50.99c-1.43.44-1.96,2.26-1.02,3.5.12.16.44.39.71.52,1.15.56,2.47.12,2.97-.99.19-.4.22-.57.18-1.06-.08-1-.6-1.71-1.48-1.97-.54-.16-.86-.16-1.36,0ZM27.74,51.83c.99.47,1.07,1.95.13,2.42-.91.47-1.9,0-2-.94-.05-.56.02-.8.31-1.15.44-.51.96-.63,1.56-.33Z"/>
    <path class="st0" d="M12.31,51.87c-.08.07-.14.21-.14.3s.06.23.14.3c.12.12.7.14,5.05.14h4.92l.13-.19c.17-.25.17-.3-.03-.51-.17-.17-.29-.17-5.05-.17-4.32,0-4.89.02-5.01.14Z"/>
    <path class="st0" d="M12.27,53.84c-.06.06-.1.18-.1.29,0,.39-.05.39,5.14.39,4.84,0,4.94,0,5.1-.17.13-.15.14-.21.06-.39l-.1-.22h-5c-3.77,0-5.02.03-5.1.1Z"/>
  </g>
  <g>
    <path class="st0" d="M38.98.8c-2.66,2.54-4.7,4.58-4.7,4.71,0,.17.23.41,2.43,2.48,5.65,5.34,7.19,6.75,7.39,6.75.13,0,.57-.37,1.39-1.18l1.19-1.18.57.49.56.49-1.25,1.32c-.68.72-1.28,1.4-1.34,1.5-.12.24-.12.76,0,1.01.05.1.29.4.54.64.41.42.43.47.3.6-.12.12-.17.11-.56-.09-.96-.49-1.55-.62-2.71-.61-.88,0-1.18.04-1.59.19-.98.36-1.44.72-1.44,1.11,0,.09.56.72,1.26,1.42l1.26,1.27-.22.21c-.51.48-.72,1.46-.44,2.11.15.34.62.8.94.92.63.24,1.52.05,2.01-.42l.27-.26,1.35,1.3c1.56,1.5,1.64,1.53,2.06.91.46-.68.7-1.46.75-2.43.05-1.07-.1-1.79-.57-2.73-.29-.58-.32-.68-.21-.82.1-.16.14-.15.53.23.85.83,1.49,1.06,2.01.71.12-.08.78-.7,1.47-1.39l1.26-1.24.56.52.56.51-1.24,1.2c-.75.72-1.23,1.25-1.23,1.35,0,.21.21.41,5.03,4.96,4.74,4.48,4.62,4.37,4.81,4.37.08,0,1.37-1.2,2.87-2.66,2.22-2.17,2.72-2.7,2.72-2.89s-.26-.48-1.32-1.47c-.73-.68-2.8-2.65-4.6-4.37-3.16-3.02-3.72-3.52-3.9-3.52-.04,0-.64.55-1.33,1.22l-1.24,1.23-.55-.53-.55-.53,1.32-1.33c1.4-1.43,1.54-1.66,1.33-2.24-.08-.24-.06-.31.2-.69.36-.51.43-.88.31-1.45-.14-.59-.42-.97-1.54-1.99-1.05-.96-1.21-1.05-2.02-.97-.3.03-.55.13-.83.32-.38.27-.41.28-.81.18-.66-.16-.98.04-2.42,1.53l-1.22,1.27-.55-.55-.55-.55,1.2-1.18c.74-.72,1.2-1.25,1.2-1.34,0-.23.14-.09-8.56-8.31-.57-.54-1.06-.93-1.16-.93-.1,0-.53.34-1.01.8ZM41.26,2.17c.63.6,1.15,1.12,1.14,1.17,0,.04-.45.5-.97,1.01l-.96.94-1.2-1.12c-.67-.62-1.22-1.16-1.24-1.2-.03-.1,1.88-1.94,1.99-1.91.05.02.61.52,1.25,1.11ZM38.74,4.8l1.13,1.07-.98.94c-.55.52-1.01.95-1.04.97-.08.03-2.44-2.14-2.44-2.24,0-.04.44-.5.97-1.02.75-.74,1.01-.94,1.11-.88.07.04.63.56,1.25,1.15ZM45.33,6.06c.22.23.23.29.13.38-.07.06-.52.49-1.01.95l-.87.84-1.21-1.13c-.66-.62-1.21-1.16-1.23-1.2s.42-.5.95-1.03l.97-.95,1.01.94c.55.51,1.11,1.06,1.26,1.2ZM41.79,7.7l1.2,1.15-1,.94c-.55.52-1.03.94-1.07.95-.03,0-.62-.51-1.28-1.14l-1.2-1.14.98-.98c.54-.54,1.02-.97,1.07-.96.05.02.64.55,1.3,1.18ZM47.47,8.08l1.2,1.14-.95.95c-.9.9-.96.94-1.15.84-.11-.06-.68-.57-1.28-1.14l-1.08-1.03.95-.95c.52-.52.99-.95,1.02-.95.04,0,.62.51,1.29,1.14ZM44.85,10.62l1.2,1.13-.92.97c-.5.54-.97.98-1.03.98s-.65-.51-1.33-1.14l-1.21-1.14.98-.98c.54-.54,1.01-.97,1.05-.95.04,0,.61.53,1.27,1.14ZM54.46,10.52c.13.07.63.53,1.13,1.03.86.88.88.92.88,1.29,0,.29-.05.43-.21.58-.12.11-.25.19-.3.17-.16-.06-2.78-2.64-2.78-2.74,0-.18.45-.46.75-.46.16,0,.4.05.53.12ZM53.91,12.85c1.66,1.63,2.05,2.05,2,2.19-.07.22-5.62,5.76-5.76,5.76-.13,0-.8-.62-2.76-2.56-1.07-1.06-1.41-1.44-1.41-1.6s.62-.83,2.8-3.01c1.53-1.54,2.86-2.8,2.94-2.8s1.07.91,2.19,2.02ZM59.2,19.2l1.13,1.08-1,.95c-.55.52-1.01.95-1.04.94-.03,0-.59-.52-1.26-1.17l-1.21-1.16.98-.95c.8-.77,1.01-.94,1.13-.87.08.04.66.57,1.27,1.17ZM44.3,18.77c1.69.56,3.09,1.94,3.64,3.6.25.73.23,2.3-.04,2.97-.11.28-.23.49-.27.48-.03-.02-1.6-1.54-3.48-3.4l-3.42-3.37.46-.22c.91-.41,1.99-.43,3.1-.06ZM47.29,19.39c.25.27.42.5.37.52-.1.03-.99-.77-.99-.91,0-.2.15-.1.62.39ZM57.32,22.42l.41.36-1.01,1.01-1.01,1.01-1.11-1.04c-.62-.58-1.18-1.13-1.27-1.22-.15-.16-.13-.19.86-1.13l1.01-.96.86.8c.48.43,1.04.96,1.27,1.16ZM62.24,22.06l1.21,1.16-.95.95c-.52.53-.99.96-1.04.95-.04,0-.63-.53-1.3-1.17l-1.21-1.16.96-.95c.53-.53,1-.95,1.04-.95.04,0,.62.53,1.29,1.17ZM44.09,23.86c-.54.59-1.39.51-1.71-.16-.12-.27-.13-.37-.05-.65.05-.18.2-.41.33-.51l.23-.18.68.68c.64.64.67.68.52.83ZM60.01,24.98c.45.42.8.8.78.84,0,.04-.47.5-1.01,1.01l-.98.93-.49-.47c-.27-.26-.83-.8-1.25-1.2l-.75-.73,1.01-.97,1.01-.98.43.4c.24.22.8.75,1.24,1.16ZM65.36,25.01l1.21,1.15-.95.96c-.52.53-.99.96-1.03.96-.03,0-.62-.51-1.28-1.14l-1.2-1.14.98-.99c.54-.54,1-.98,1.02-.98s.59.53,1.26,1.17ZM62.81,27.61l1.22,1.13-1.01.97c-.55.54-1.04.98-1.07.98s-.61-.52-1.27-1.16l-1.21-1.16.95-.96c.53-.53,1.01-.95,1.07-.94.06.02.66.53,1.33,1.15Z"/>
    <path class="st0" d="M31.76,22.73c-.13.25-.03,1.59.2,2.66.85,3.98,3.83,7.31,7.68,8.59,1.3.43,2.1.55,3.58.56,1.45,0,1.64-.05,1.64-.42s-.14-.4-1.44-.4c-3.12,0-5.57-1.01-7.71-3.16-1.27-1.28-2.09-2.6-2.64-4.27-.28-.85-.53-2.31-.53-3.08,0-.26-.04-.51-.1-.57-.17-.17-.57-.12-.68.09Z"/>
    <path class="st0" d="M34.84,22.75c-.12.18-.14.35-.09.95.16,1.92,1.09,3.94,2.44,5.29,1.69,1.69,3.74,2.56,6.07,2.56,1.05,0,1.34-.08,1.34-.36,0-.41-.08-.43-1.35-.46-1.33-.03-2.09-.18-3.11-.64-2.54-1.15-4.35-3.71-4.52-6.38-.03-.43-.1-.87-.16-.98-.16-.25-.43-.24-.61.03Z"/>
    <path class="st0" d="M37.83,22.75c-.17.21-.06,1.36.2,2.05.82,2.26,2.84,3.71,5.18,3.71.63,0,.77-.03.9-.17s.14-.21.06-.39c-.1-.2-.15-.22-.68-.22-1.29,0-2.51-.44-3.35-1.22-.89-.81-1.46-1.93-1.58-3.09-.03-.32-.1-.64-.15-.7-.11-.15-.45-.13-.58.03Z"/>
  </g>
</svg>