<?xml version="1.0" encoding="UTF-8"?>
<svg id="Vrstva_1" xmlns="http://www.w3.org/2000/svg" version="1.1" viewBox="0 0 90.38 92.68">
  <!-- Generator: Adobe Illustrator 30.6.0, SVG Export Plug-In . SVG Version: 2.1.4 Build 109)  -->
  <path d="M41.3.13c-3.23.12-3.83.38-4.24,1.76-.09.31-.43,2.19-.76,4.19-.33,1.98-.64,3.78-.69,3.99-.05.28-.45.47-1.73.9-.91.31-2.76,1.05-4.11,1.67l-2.43,1.12-3-2.28c-1.64-1.24-3.35-2.45-3.78-2.67-1.5-.76-2.42-.47-4.31,1.36-2.5,2.4-7.32,7.63-7.66,8.26-.47.93-.41,1.97.16,3,.26.47,1.4,2.09,2.5,3.61,1.1,1.5,2.02,2.81,2.02,2.93,0,.1-.38,1.05-.85,2.09-.47,1.05-1.14,2.83-1.5,3.97-.35,1.14-.69,2.14-.76,2.21s-1.71.41-3.64.74c-4.38.74-5.12.95-5.75,1.6-.45.47-.52.69-.64,2.04-.19,2.12-.17,10.4.02,11.87.26,2.04.78,2.29,6.4,3.28,1.81.31,3.31.6,3.36.66s.4.98.76,2.09c.38,1.09,1.12,2.92,1.66,4.05l.97,2.05-1.26,1.85c-.71,1-1.81,2.61-2.47,3.55-1.93,2.81-1.85,3.43,1.04,6.54,2.69,2.93,7.04,7.26,7.52,7.52,1.19.62,2.31.12,6.33-2.85,1.55-1.16,2.86-2.09,2.95-2.09.07,0,1,.41,2.09.93,1.09.5,2.86,1.24,3.95,1.64,1.09.41,2.07.83,2.19.93.1.12.43,1.9.74,3.99.29,2.07.62,3.97.71,4.23.22.59.64,1.02,1.26,1.35,1.16.6,11.49.64,13.6.05,1.35-.38,1.59-1.04,2.4-6.71.19-1.38.43-2.64.52-2.79s1-.59,2.09-.95c1.07-.36,2.92-1.14,4.07-1.71l2.14-1.05.88.62c.5.35,1.86,1.35,3.05,2.24,2.21,1.64,3.57,2.42,4.28,2.42.22,0,.67-.12.98-.28.6-.28,6.71-6.37,8.52-8.49,2.07-2.45,2.04-2.64-1.5-7.59l-2.24-3.16.91-1.93c.5-1.07,1.24-2.9,1.66-4.09.4-1.19.79-2.24.88-2.36.09-.1.71-.29,1.4-.4,2.78-.45,6.78-1.4,7.19-1.69.24-.17.59-.62.78-1,.31-.62.35-1.09.4-5.42.07-5.4-.12-8.18-.6-9.01-.53-.91-1.14-1.14-4.99-1.78-1.98-.35-3.76-.67-3.95-.76-.26-.1-.59-.78-1.19-2.45-.45-1.28-1.21-3.12-1.67-4.11s-.85-1.85-.85-1.92.95-1.4,2.1-2.95c2.45-3.31,2.67-3.66,2.92-4.52.21-.79,0-1.71-.62-2.54-.24-.31-2.23-2.45-4.43-4.71-4.07-4.21-4.78-4.78-5.92-4.78-.85,0-1.76.53-4.66,2.71-3.97,2.97-3.43,2.74-4.76,2.04-1.29-.69-4.61-2.04-5.94-2.43-1.02-.29-.97-.17-1.29-2.4-.5-3.43-1.12-6.52-1.4-6.99-.55-.9-1.19-1.09-4.04-1.22-2.86-.14-3.97-.14-7.76.02h-.01ZM50.94,3.01c.1.4.9,4.99,1.22,7.09.12.9.36,1.79.5,2.02.21.31.74.55,2.04.95,2.04.64,4.85,1.81,6.63,2.78.67.36,1.47.67,1.74.67.4,0,1.35-.64,4.16-2.76,2.02-1.52,3.76-2.76,3.9-2.76.24,0,7.82,7.61,8.3,8.33.35.53.47.33-2.42,4.26-2.74,3.73-2.67,3.62-2.67,4.16,0,.24.47,1.41,1.02,2.59.57,1.17,1.4,3.26,1.83,4.64,1.02,3.11,1.22,3.55,1.79,3.78.24.1,1.54.35,2.86.53,4.02.57,5.47.83,5.66,1.02s.5,9.71.35,10.92c-.05.45-.19.9-.29.98s-1.74.43-3.64.78c-5.02.88-5.24.93-5.54,1.4-.14.21-.45,1.12-.69,2-.52,1.95-1.38,4.16-2.5,6.4-.47.93-.85,1.85-.85,2.04,0,.6.59,1.57,2.55,4.18,1.04,1.36,2.09,2.81,2.35,3.21l.45.71-.47.57c-1.22,1.48-7.73,8.07-7.97,8.07-.38,0-1.47-.78-4.74-3.36-1.52-1.19-2.92-2.16-3.11-2.16-.21,0-.79.24-1.31.52-2.19,1.22-4.54,2.26-6.56,2.93-1.19.4-2.33.88-2.54,1.07-.52.48-.67,1-1.17,4.19-.69,4.4-.79,4.9-1.09,5.12-.19.17-1.52.22-5.59.22-4.8,0-5.37-.03-5.56-.29-.12-.16-.47-2.02-.76-4.12-.33-2.21-.71-4.14-.88-4.57-.36-.79-.43-.83-3.38-1.73-.85-.26-2.85-1.14-4.43-1.93l-2.88-1.43-.57.28c-.31.14-2.04,1.4-3.83,2.76-1.79,1.38-3.38,2.5-3.54,2.5-.17,0-2-1.76-4.09-3.93-5-5.19-4.52-4.52-3.99-5.42.24-.41,1.36-2,2.5-3.55,1.14-1.54,2.17-3.07,2.28-3.4.19-.57.14-.72-.91-2.88s-2-4.68-2.62-6.9c-.4-1.47-.57-1.55-4.52-2.19-1.88-.29-3.85-.64-4.37-.76l-.95-.21-.14-1.64c-.21-2.47-.02-10.2.26-10.37.12-.07.72-.22,1.35-.31,6.73-1.09,7.32-1.21,7.75-1.54.48-.36.52-.45,1.54-3.67.38-1.21,1.17-3.19,1.74-4.43,1.05-2.26,1.05-2.28.79-2.9-.14-.33-1.38-2.21-2.78-4.14l-2.52-3.54.6-.72c.64-.78,7.82-7.94,8.02-8.02.07-.02,1.78,1.21,3.8,2.73,2.83,2.12,3.8,2.76,4.18,2.76.29,0,1.43-.47,2.57-1.02,2.24-1.14,4.43-2.04,6.37-2.59.85-.26,1.33-.5,1.5-.78.16-.22.5-1.74.78-3.4.71-4.09,1.02-5.68,1.14-5.87.05-.09,2.5-.16,5.68-.16,5.18,0,5.59.02,5.68.29h0Z"/>
  <path d="M42.18,26.87c-2.43.4-5.49,1.57-7.69,3-2.92,1.9-6.06,5.69-7.25,8.75-1.21,3.11-1.43,4.4-1.45,7.92-.02,3.5.19,4.66,1.29,7.45,1.48,3.74,4.97,7.66,8.71,9.8,1.52.86,4.62,1.97,6.28,2.23.62.1,2.09.19,3.24.19,5.33,0,9.85-1.88,13.63-5.68,2.42-2.42,4.23-5.54,5.16-8.92.45-1.6.48-1.93.48-5.07s-.05-3.54-.4-4.83c-1.05-3.9-2.52-6.45-5.3-9.25-2.69-2.71-5.43-4.3-9.06-5.24-1.66-.43-5.87-.62-7.66-.35h.02ZM49.41,29.79c3.54.93,6.97,3.24,9.13,6.12,2.43,3.26,3.54,6.56,3.55,10.49.02,7.11-4.09,13.37-10.52,16.06-2.17.9-3.86,1.22-6.3,1.22-7.71-.02-14.44-5.4-16.41-13.16-1.92-7.49,1.45-15.32,8.23-19.15,1.45-.81,2.98-1.38,4.73-1.74,2.09-.45,5.59-.38,7.59.16Z"/>
</svg>