<?xml version="1.0" encoding="UTF-8"?>
<svg id="Vrstva_1" xmlns="http://www.w3.org/2000/svg" version="1.1" viewBox="0 0 83.66 124.62">
  <!-- Generator: Adobe Illustrator 30.6.0, SVG Export Plug-In . SVG Version: 2.1.4 Build 109)  -->
  <path d="M32.06,43.86c-.43.34-.52.8-.27,1.33.21.46,1.83,1.92,2.97,2.68,3.6,2.44,8.87,2.72,12.94.71,1.86-.92,4.36-3.06,4.36-3.73,0-.72-.48-1.24-1.15-1.24-.15,0-.68.4-1.24.94-2.31,2.21-4.82,3.24-7.87,3.24s-5.44-1.01-7.79-3.21c-1.11-1.04-1.4-1.14-1.96-.71h.01Z"/>
  <path d="M27.36,48.44c-.39.23-.56.51-.57.97,0,.37.13.56.91,1.31,3.98,3.86,8.72,5.8,14.13,5.79,4.96,0,9.28-1.58,12.97-4.7,1.59-1.34,2.07-1.92,2.07-2.45,0-.58-.47-1.07-1.01-1.07-.32,0-.61.21-1.57,1.11-4.68,4.4-10.79,6.02-16.93,4.46-3.06-.78-5.41-2.12-8.34-4.79-.86-.8-1.18-.91-1.67-.63h0Z"/>
  <path d="M22.39,53.22c-.32.3-.47.76-.35,1.11.05.14.61.76,1.26,1.39,6.35,6.14,15.45,8.76,24.05,6.91,2.93-.63,6.09-1.88,8.47-3.36,1.4-.88,3.56-2.54,4.75-3.68,1.01-.96,1.1-1.09,1.1-1.53,0-.61-.46-1.1-1-1.1-.3,0-.68.28-1.9,1.38-2.06,1.85-3.53,2.87-5.7,3.98-3.4,1.72-6.64,2.58-10.26,2.69-2.62.09-4.42-.08-6.55-.59-4.5-1.11-8.04-3.03-11.53-6.31-1.05-.97-1.3-1.15-1.66-1.15-.25,0-.53.1-.7.25h.02Z"/>
  <path d="M17.55,57.88c-.2.21-.37.51-.37.68,0,1.07,4.85,5.14,8.67,7.27,5.98,3.31,13.32,4.66,20.4,3.74,7.04-.91,13.75-4.18,18.92-9.21,1.14-1.1,1.3-1.31,1.3-1.68,0-.3-.11-.53-.37-.8-.62-.62-.86-.52-2.45.96-2.88,2.68-4.97,4.16-8.03,5.69-3.11,1.55-6.09,2.44-10.07,3-1.87.27-6.24.19-8.34-.13-6.65-1.04-12.24-3.83-17.14-8.58-1.54-1.49-1.86-1.61-2.53-.94,0,0,.01,0,.01,0Z"/>
  <path d="M1.94,76.15c-.57.25-1.29.94-1.61,1.52l-.28.52-.04,16.57c-.03,16.19-.03,16.58.21,16.87.23.29.33.3,2.01.34l1.77.04.05,1.98c.05,2.24.18,2.65,1.06,3.44.81.71,1.18.81,3.35.86l1.97.05.15.68c.43,1.91,2.01,3.89,3.8,4.78,4.49,2.2,9.59-.25,10.67-5.14l.08-.34h35.12l.08.57c.27,1.73,2.07,4.03,3.87,4.9,4.34,2.11,9.29-.09,10.57-4.69l.21-.76,3.05-.05,3.05-.04.72-.35c.4-.2.9-.57,1.11-.82.78-.95.77-.86.73-9.27l-.04-7.63-.29-.73c-.16-.4-1.39-2.65-2.73-4.99s-2.96-5.22-3.62-6.4c-1.35-2.41-2.14-3.37-3.25-3.96-1.52-.81-1.38-.8-9.48-.8h-7.37v-2.19c0-2.48-.14-3.16-.8-4.02-.21-.29-.66-.67-.96-.83l-.56-.29h-26.12c-21.54.01-26.18.04-26.51.18h.03,0ZM54.36,78.36l.3.24.04,15.62.03,15.62-26.28-.03-26.28-.04-.04-15.51-.05-15.5.3-.33.3-.33h25.7c25.1,0,25.69,0,25.98.24v.02ZM72.43,85.85c.38.19.87.53,1.1.76.21.23,1.58,2.52,3.03,5.09,1.45,2.57,3.16,5.56,3.78,6.64l1.12,1.95.04,2.06.05,2.06h-1.19c-1.39,0-1.97.14-2.52.59-.66.57-.75.94-.75,3.32s.06,2.58.66,3.11c.47.42,1.05.56,2.45.56h1.31v1.68c0,1.53-.03,1.71-.27,1.97-.14.15-.4.33-.58.4-.16.06-1.52.11-3.01.11h-2.69l-.15-.67c-.75-3.25-3.82-5.65-7.21-5.65-2.1,0-3.73.68-5.26,2.21-1.09,1.09-1.57,1.88-1.95,3.27l-.21.77-1.67.04-1.66.04v-30.74l7.43.04,7.42.04.7.34h.03ZM81.53,108.24v1.62l-1.16-.04-1.15-.04-.06-1.43c-.03-.77-.01-1.5.03-1.61.05-.16.29-.19,1.21-.16l1.14.04v1.62h0ZM12.11,112.6c-.63.72-1.14,1.68-1.44,2.79l-.23.78-1.82-.04c-1.81-.04-1.82-.04-2.12-.39-.29-.34-.3-.44-.3-2.06v-1.69h6.47l-.56.61ZM19.71,112.35c2.09.81,3.39,2.91,3.26,5.27-.08,1.42-.54,2.4-1.67,3.45-1.14,1.05-1.9,1.34-3.55,1.35-1.19,0-1.33-.03-2.14-.43-2.17-1.06-3.4-3.34-3-5.54.38-2.09,1.61-3.53,3.62-4.25.85-.3,2.5-.23,3.48.14h0ZM54.73,114.08v2.09l-14.81-.03-14.81-.04-.1-.57c-.13-.78-.87-2.24-1.5-2.95l-.52-.59h31.75v2.09h0ZM69.15,112.2c1.87.54,3.3,2.21,3.65,4.25.56,3.17-2.26,6.24-5.49,6-.49-.04-1.11-.13-1.37-.21-.73-.21-2.01-1.14-2.53-1.83-.78-1.04-1.04-1.83-1.05-3.22,0-1.09.04-1.28.4-2.05.44-.94,1.23-1.87,2-2.35,1.18-.75,2.98-.99,4.37-.58h.02,0Z"/>
  <path d="M60.86,88c-.47.16-1.02.67-1.3,1.18-.19.33-.21.99-.25,5.21-.03,3.12,0,5.01.09,5.32.18.66.56,1.11,1.16,1.42.47.24.77.25,8.51.25h8.01l.39-.33c.46-.38.66-1.01.52-1.59-.05-.23-.95-1.92-1.98-3.77-1.05-1.85-2.34-4.12-2.87-5.08-1.02-1.82-1.53-2.4-2.31-2.62-.64-.18-9.44-.16-9.96.01h0ZM70.39,90.24c.14.14.35.44.47.67s1.2,2.16,2.4,4.3c1.21,2.12,2.2,3.91,2.2,3.94s-3.12.08-6.94.08h-6.95l-.04-4.53c-.03-2.48-.03-4.55,0-4.61.03-.05,1.97-.09,4.34-.09,4.08,0,4.3.01,4.53.24h0Z"/>
  <path d="M40.67.18c-2.21.6-3.82,2.75-3.82,5.12,0,.51-.01.53-.63.81-.75.35-1.4.97-1.78,1.73-.26.55-.27.67-.31,4.17l-.04,3.62h-2.73v-5.47l-.31-.37-.31-.37H6.87l-.29.3-.3.29v6.56c0,6.46,0,6.57.25,6.88l.24.31h24.1l.24-.31c.24-.3.25-.47.25-3.04v-2.73h2.73l.04,3.49c.04,3.47.04,3.5.35,4.16.56,1.19,1.7,2.01,3,2.13.38.02.69.1.69.13s-.29.2-.62.37c-.82.38-2.29,1.48-2.93,2.19-1.42,1.54-2.38,3.7-2.66,6.01-.1.78-.08.96.08,1.25.11.19.29.38.38.43.11.05,1.36.12,2.81.16l2.61.06.17.66c.21.86.61,1.52,1.29,2.14.91.84,1.46,1.03,2.93,1.03,1.13,0,1.33-.04,1.93-.33,1.22-.6,2.14-1.77,2.34-2.96l.1-.53,2.67-.06c1.48-.04,2.78-.11,2.89-.16.36-.18.48-.8.35-1.86-.31-2.48-1.4-4.63-3.19-6.33-.81-.78-2.53-1.92-2.88-1.92-.08,0-.16-.05-.16-.11,0-.05.32-.13.73-.17,1.31-.12,2.35-.82,3-2.03.26-.49.27-.63.31-4.12l.04-3.61h2.72l.04,2.82c.04,2.79.04,2.82.32,3.04.26.21.64.23,12.24.23,9.39,0,12.01-.04,12.17-.16.11-.07.25-.31.31-.53s.08-3.14.06-6.73c-.05-6.34-.05-6.35-.31-6.64l-.25-.27h-23.93l-.29.31c-.29.3-.29.33-.32,3.1l-.04,2.79h-2.72l-.04-3.62-.04-3.61-.33-.68c-.38-.78-1.07-1.43-1.81-1.72l-.5-.19-.07-.99C47.4,2.03,45.13-.02,42.25,0c-.51,0-1.22.08-1.58.18ZM43.65,2.27c.68.29,1.47,1.06,1.74,1.73.1.24.21.73.25,1.07l.08.64h-6.84v-.6c0-1.4,1.01-2.65,2.48-3.07.7-.19,1.52-.12,2.28.21ZM47.48,7.93c.18.1.45.32.59.49.25.31.25.39.25,8.1s-.01,7.79-.23,8.14c-.45.75-.55.76-5.89.76-4.59,0-4.82-.01-5.21-.24-.21-.13-.49-.41-.62-.62-.23-.38-.24-.62-.24-8.01,0-8.41-.02-8.1.75-8.56.36-.23.63-.24,5.31-.24,4.12,0,4.99.02,5.28.18ZM13.93,13.48v2.15l-2.83-.02-2.84-.04-.04-1.97c-.01-1.07,0-2.03.02-2.11.05-.12.69-.16,2.88-.16h2.81v2.15ZM21.63,13.48v2.09l-2.83.04-2.84.02v-4.3l2.84.02,2.83.04v2.09ZM29.33,13.48v2.15h-5.73v-2.07c0-1.15.04-2.11.08-2.15.04-.05,1.33-.08,2.87-.08h2.78v2.15ZM60.83,13.5l.02,2.13h-5.73v-2.07c0-1.15.04-2.11.08-2.16.05-.04,1.31-.06,2.83-.05l2.76.04.04,2.11ZM68.49,13.48v2.15h-5.61v-4.3h5.61v2.15ZM76.23,13.5l.02,2.13h-5.73v-2.07c0-1.15.04-2.11.08-2.16.05-.04,1.31-.06,2.83-.05l2.76.04.04,2.11ZM13.93,19.75v2.09l-2.83-.02-2.84-.04-.04-2.07-.02-2.05h5.73v2.09ZM21.66,19.71l-.04,2.07-2.83.04-2.84.02v-4.18h5.73l-.02,2.05ZM29.33,19.75v2.09h-5.73v-4.18h5.73v2.09ZM60.85,19.75v2.09h-5.73v-4.18h5.73v2.09ZM68.49,19.75v2.09h-5.61v-4.18h5.61v2.09ZM76.23,19.71l-.04,2.07h-5.61l-.04-2.07-.02-2.05h5.73l-.02,2.05ZM44.76,29.16c2.07.7,3.88,2.24,4.85,4.11.42.8.86,2.11.86,2.53,0,.1-2.3.13-8.24.13h-8.24l.07-.33c.21-.98.35-1.35.73-2.13,1.01-2.1,2.94-3.71,5.29-4.43,1.28-.39,3.34-.33,4.68.12ZM44.61,38.1c-.01.33-.56,1.12-1.01,1.43-1.31.92-3.25.24-3.7-1.31l-.07-.26h2.39c1.84,0,2.4.04,2.4.14Z"/>
</svg>