<?xml version="1.0" encoding="UTF-8"?>
<svg id="Vrstva_1" xmlns="http://www.w3.org/2000/svg" version="1.1" viewBox="0 0 41.45 62.74">
  <!-- Generator: Adobe Illustrator 30.6.0, SVG Export Plug-In . SVG Version: 2.1.4 Build 109)  -->
  <defs>
    <style>
      .st0 {
        fill: #0c2135;
      }
    </style>
  </defs>
  <path class="st0" d="M19.91.09c-1.16.31-2,1.44-2,2.69,0,.27,0,.28-.33.43-.39.18-.73.51-.93.91-.14.29-.14.35-.16,2.19l-.02,1.9h-1.43v-2.87l-.16-.19-.16-.19H2.18l-.15.16-.16.15v3.44c0,3.39,0,3.44.13,3.61l.13.16h12.64l.13-.16c.13-.16.13-.24.13-1.6v-1.43h1.43l.02,1.83c.02,1.82.02,1.84.18,2.18.29.63.89,1.05,1.57,1.11.2.01.36.05.36.07s-.15.11-.33.19c-.43.2-1.2.78-1.53,1.15-.75.81-1.25,1.94-1.4,3.15-.05.41-.04.5.04.66.06.1.15.2.2.23.06.03.71.06,1.47.08l1.37.03.09.34c.11.45.32.8.68,1.12.48.44.76.54,1.53.54.6,0,.7-.02,1.01-.18.64-.31,1.12-.93,1.23-1.55l.05-.28,1.4-.03c.78-.02,1.46-.06,1.52-.08.19-.09.25-.42.18-.98-.16-1.3-.73-2.43-1.67-3.32-.43-.41-1.33-1.01-1.51-1.01-.04,0-.08-.03-.08-.06,0-.03.17-.07.38-.09.69-.06,1.23-.43,1.57-1.06.14-.26.14-.33.16-2.16l.02-1.89h1.43l.02,1.48c.02,1.47.02,1.48.17,1.6.14.11.34.12,6.42.12,4.92,0,6.3-.02,6.38-.08.06-.04.13-.16.16-.28s.04-1.65.03-3.53c-.03-3.33-.03-3.33-.16-3.48l-.13-.14h-12.55l-.15.16c-.15.16-.15.18-.17,1.63l-.02,1.47h-1.43l-.02-1.9-.02-1.89-.18-.36c-.2-.41-.56-.75-.95-.9l-.26-.1-.04-.52C23.44,1.06,22.25-.01,20.74,0c-.27,0-.64.04-.83.09ZM21.47,1.19c.36.15.77.56.91.91.05.13.11.38.13.56l.04.34h-3.59v-.31c0-.73.53-1.39,1.3-1.61.37-.1.8-.06,1.2.11ZM23.48,4.16c.09.05.24.17.31.26.13.16.13.21.13,4.25s0,4.08-.12,4.27c-.24.39-.29.4-3.09.4-2.41,0-2.53,0-2.73-.13-.11-.07-.26-.21-.33-.33-.12-.2-.13-.33-.13-4.2,0-4.41-.01-4.25.39-4.49.19-.12.33-.13,2.79-.13,2.16,0,2.62.01,2.77.09ZM5.88,7.07v1.13h-1.48s-1.49-.03-1.49-.03l-.02-1.03c0-.56,0-1.06.01-1.11.03-.06.36-.08,1.51-.08h1.47v1.13ZM9.92,7.07v1.1l-1.48.02h-1.49s0-1.11,0-1.11v-1.13h1.49s1.48.03,1.48.03v1.1ZM13.96,7.07v1.13h-3.01v-1.08c0-.6.02-1.11.04-1.13.02-.03.7-.04,1.5-.04h1.46v1.13ZM30.48,7.08v1.11s-1.49,0-1.49,0h-1.5v-1.08c0-.6.02-1.11.04-1.13.03-.02.69-.03,1.48-.03l1.45.02.02,1.11ZM34.5,7.07v1.13h-2.94v-2.25h2.94v1.13ZM38.56,7.08v1.11s-1.49,0-1.49,0h-1.5v-1.08c0-.6.02-1.11.04-1.13.03-.02.69-.03,1.48-.03l1.45.02.02,1.11ZM5.88,10.36v1.1h-1.48s-1.49-.03-1.49-.03l-.02-1.08v-1.08s1.49,0,1.49,0h1.5v1.1ZM9.94,10.34l-.02,1.08-1.48.02h-1.49s0-1.08,0-1.08v-1.1h3.01v1.08ZM13.96,10.36v1.1h-3.01v-2.19h3.01v1.1ZM30.49,10.36v1.1h-3.01v-2.19h3.01v1.1ZM34.5,10.36v1.1h-2.94v-2.19h2.94v1.1ZM38.56,10.34l-.02,1.08h-2.94l-.02-1.08v-1.08s1.49,0,1.49,0h1.5v1.08ZM22.05,15.29c1.08.37,2.04,1.18,2.54,2.15.22.42.45,1.11.45,1.33,0,.05-1.21.07-4.32.07h-4.32l.04-.18c.11-.51.18-.71.38-1.11.53-1.1,1.54-1.95,2.77-2.32.67-.21,1.75-.18,2.46.06ZM21.98,19.99c0,.18-.29.59-.53.75-.69.48-1.7.13-1.94-.69l-.04-.14h1.25c.96,0,1.26.02,1.26.08Z"/>
  <path class="st0" d="M15.88,22.73c-.21.17-.26.39-.13.66.11.23.91.95,1.47,1.33,1.79,1.21,4.4,1.35,6.41.35.92-.46,2.16-1.52,2.16-1.85,0-.36-.24-.61-.57-.61-.08,0-.34.2-.61.46-1.15,1.1-2.39,1.6-3.9,1.6s-2.69-.5-3.86-1.59c-.55-.51-.7-.56-.97-.35Z"/>
  <path class="st0" d="M13.55,25c-.19.11-.28.25-.28.48,0,.18.06.28.45.65,1.97,1.91,4.32,2.87,7,2.87,2.46,0,4.6-.78,6.43-2.33.79-.66,1.03-.95,1.03-1.22,0-.29-.23-.53-.5-.53-.16,0-.3.11-.78.55-2.32,2.18-5.35,2.98-8.39,2.21-1.52-.39-2.68-1.05-4.13-2.37-.43-.39-.58-.45-.83-.31Z"/>
  <path class="st0" d="M11.09,27.36c-.16.15-.23.38-.18.55.03.07.3.38.63.69,3.14,3.04,7.65,4.34,11.92,3.43,1.45-.31,3.02-.93,4.2-1.67.7-.44,1.77-1.26,2.35-1.82.5-.48.54-.54.54-.76,0-.3-.23-.54-.49-.54-.15,0-.34.14-.94.68-1.02.91-1.75,1.42-2.82,1.97-1.68.85-3.29,1.28-5.09,1.33-1.3.04-2.19-.04-3.24-.29-2.23-.55-3.98-1.5-5.71-3.13-.52-.48-.65-.57-.82-.57-.13,0-.26.05-.34.13Z"/>
  <path class="st0" d="M8.69,29.68c-.1.11-.18.25-.18.34,0,.53,2.41,2.55,4.3,3.6,2.96,1.64,6.6,2.31,10.11,1.85,3.49-.45,6.81-2.07,9.38-4.57.56-.54.65-.65.65-.83,0-.15-.06-.26-.18-.39-.31-.31-.43-.26-1.22.48-1.43,1.33-2.46,2.06-3.98,2.82s-3.02,1.21-4.99,1.48c-.93.13-3.09.09-4.13-.06-3.29-.51-6.06-1.9-8.49-4.25-.76-.74-.92-.8-1.25-.46Z"/>
  <path class="st0" d="M.96,38.73c-.28.13-.64.46-.8.75l-.14.26-.02,8.21c-.01,8.02-.01,8.22.11,8.36.11.14.16.15,1,.17l.88.02.03.98c.03,1.11.09,1.32.53,1.7.4.35.58.4,1.66.43l.98.03.08.34c.21.95,1,1.93,1.89,2.37,2.22,1.09,4.75-.13,5.29-2.55l.04-.17h17.4l.04.28c.13.86,1.03,2,1.92,2.43,2.15,1.05,4.6-.04,5.24-2.32l.11-.38,1.51-.03,1.51-.02.36-.18c.2-.1.44-.28.55-.41.39-.47.38-.43.36-4.59l-.02-3.78-.14-.36c-.08-.2-.69-1.32-1.35-2.47s-1.47-2.59-1.79-3.17c-.67-1.2-1.06-1.67-1.61-1.96-.75-.4-.68-.39-4.7-.39h-3.65v-1.08c0-1.23-.07-1.57-.39-1.99-.11-.14-.33-.33-.48-.41l-.28-.14h-12.94c-10.67,0-12.97.02-13.13.09ZM26.93,39.82l.15.12.02,7.74v7.74s-13.01-.01-13.01-.01l-13.02-.02-.02-7.68-.03-7.68.15-.16.15-.16h12.73c12.44,0,12.73,0,12.87.12ZM35.88,43.54c.19.09.43.26.54.38.11.11.78,1.25,1.5,2.52.72,1.27,1.57,2.76,1.87,3.29l.56.96.02,1.02.03,1.02h-.59c-.69,0-.98.07-1.25.29-.33.28-.37.46-.37,1.65s.03,1.28.33,1.54c.23.21.52.28,1.22.28h.65v.83c0,.76-.01.85-.13.98-.07.08-.2.16-.29.2-.08.03-.75.06-1.49.06h-1.33l-.08-.33c-.37-1.61-1.89-2.8-3.57-2.8-1.04,0-1.85.34-2.61,1.1-.54.54-.78.93-.96,1.62l-.11.38-.83.02-.82.02v-15.23l3.68.02,3.68.02.34.17ZM40.39,54.63v.8l-.58-.02-.57-.02-.03-.71c-.01-.38,0-.75.01-.8.03-.08.14-.09.6-.08l.56.02v.8ZM5.99,56.79c-.31.36-.56.83-.71,1.38l-.11.39-.9-.02c-.9-.02-.9-.02-1.05-.19-.14-.17-.15-.22-.15-1.02v-.84h3.21l-.28.3ZM9.76,56.66c1.03.4,1.68,1.44,1.62,2.61-.04.7-.27,1.19-.83,1.71-.56.52-.94.66-1.76.67-.59,0-.66-.01-1.06-.21-1.08-.53-1.68-1.65-1.48-2.74.19-1.03.8-1.75,1.79-2.1.42-.15,1.24-.11,1.72.07ZM27.11,57.52v1.03h-7.34s-7.34-.03-7.34-.03l-.05-.28c-.06-.39-.43-1.11-.75-1.46l-.26-.29h15.73v1.03ZM34.26,56.59c.93.27,1.63,1.1,1.81,2.1.28,1.57-1.12,3.09-2.72,2.98-.24-.02-.55-.06-.68-.11-.36-.11-1-.56-1.25-.91-.39-.51-.51-.91-.52-1.6,0-.54.02-.63.2-1.01.22-.46.61-.93.99-1.16.58-.37,1.48-.49,2.17-.29Z"/>
  <path class="st0" d="M30.15,44.6c-.23.08-.51.33-.65.58-.09.16-.11.49-.13,2.58-.01,1.55,0,2.48.04,2.64.09.33.28.55.58.7.23.12.38.13,4.22.13h3.97l.19-.16c.23-.19.33-.5.26-.79-.03-.11-.47-.95-.98-1.87-.52-.91-1.16-2.04-1.42-2.52-.51-.9-.76-1.19-1.15-1.3-.32-.09-4.68-.08-4.94,0ZM34.87,45.71c.07.07.18.22.23.33s.6,1.07,1.19,2.13c.6,1.05,1.09,1.94,1.09,1.95s-1.55.04-3.44.04h-3.44l-.02-2.24c-.01-1.23-.01-2.25,0-2.29.01-.03.98-.04,2.15-.04,2.02,0,2.13,0,2.24.12Z"/>
</svg>