<?xml version="1.0" encoding="UTF-8"?>
<svg id="Vrstva_1" xmlns="http://www.w3.org/2000/svg" version="1.1" viewBox="0 0 996.55 126.62">
  <!-- Generator: Adobe Illustrator 30.6.0, SVG Export Plug-In . SVG Version: 2.1.4 Build 109)  -->
  <g>
    <path d="M43.71,28.09c-4.45.47-7.56,1.05-10.44,1.98-5.57,1.81-9.68,3.93-14.48,7.52-2.38,1.78-6.52,5.87-8.3,8.16-5.11,6.64-8.42,13.99-9.75,21.74-3,17.39,3.09,34.4,16.22,45.34,2.73,2.26,7.78,5.56,8.56,5.56.16,0,.48-.17.74-.36.4-.31.47-.48.41-1.09-.05-.69-.09-.72-1.35-1.47-6.97-4.05-12.47-9.42-16.37-15.94-8.38-14.04-8.42-32.3-.09-46.65,7.37-12.7,20.01-20.82,34.4-22.15,2.59-.24,7.66-.1,10.06.28,6.71,1.05,12.59,3.31,18.06,6.99,7.19,4.83,13.2,12.22,16.37,20.19.83,2.12,1.95,5.66,2.19,6.95.22,1.31,1.29,1.86,2.21,1.14.45-.35.48-.47.4-1.17-.29-2.33-2.04-7.33-3.92-11.15-6.83-13.89-20.19-23.55-35.37-25.55-1.92-.24-8.18-.45-9.58-.31Z"/>
    <path d="M46.27,37.46c-.31.31-.36.62-.48,3.42-.12,3.36-.05,4.19.45,4.64.47.41,1.29.38,1.76-.09.36-.36.38-.5.36-3.69,0-1.83-.05-3.52-.12-3.76-.21-.79-1.35-1.09-1.97-.52Z"/>
    <path d="M23.3,46.28c-.48.21-.79.88-.66,1.41.09.36,2.97,4.04,4.35,5.52.72.79,1.41.88,2.05.22.78-.76.66-1-2.38-4.71-2.21-2.69-2.4-2.83-3.36-2.45Z"/>
    <path d="M69.63,46.45c-.43.35-3.5,3.88-4.38,5.07-.78,1.02-.31,2.35.79,2.35.66,0,.85-.17,3.14-2.93,2.61-3.09,2.86-3.66,2.09-4.38-.53-.47-1.14-.5-1.64-.1Z"/>
    <path d="M46.32,51.31c-.43.38-.53.88-2,9.7l-1.57,9.3-1.16,1.07c-1.79,1.67-2.62,3.54-2.62,5.95.02,4.49,3.54,7.94,8.13,7.94,4.43-.02,7.92-3.47,7.92-7.85,0-2.21-.95-4.45-2.55-6.06l-1.02-1.02-.55-3.36c-.74-4.43-2.59-14.84-2.71-15.23-.09-.28-.9-.81-1.26-.81-.09,0-.36.17-.6.38ZM47.96,64.58c.38,2.23.71,4.18.72,4.37.03.29-.09.31-1.52.29-.85-.02-1.57-.07-1.6-.09-.05-.05,1.31-8.14,1.45-8.54.03-.14.12-.21.17-.16s.4,1.92.78,4.12ZM48.85,72.09c1.1.38,2.42,1.59,3,2.79.41.85.48,1.19.48,2.45s-.07,1.59-.48,2.38c-1.09,2.07-2.83,3.05-5.14,2.93-2.1-.12-3.85-1.29-4.66-3.14-.53-1.19-.55-3.28-.03-4.43,1.17-2.61,4.14-3.9,6.83-2.98Z"/>
    <path d="M10.67,67.55c-.79.4-.91,1.79-.17,2.19.48.26,6.28,1.55,6.95,1.55.35,0,.71-.12.86-.31.4-.43.38-1.47-.02-1.83-.24-.21-6.64-1.85-7.14-1.83-.03,0-.24.1-.48.22Z"/>
    <path d="M82.01,75.87l-.43.41-.02,4.02c0,4.07,0,6.19.02,26.67v11.44l.43.41.41.43h9.66l.48-.41.48-.41.05-21,.03-20.98-.5-.52-.5-.5h-9.71l-.41.43ZM90.52,97.29l-.05,19.46h-6.38l-.05-19.24c-.02-10.58,0-19.34.05-19.46.05-.16.88-.21,3.28-.21h3.19l-.03,19.44Z"/>
    <path d="M64.93,89.56c-.19.09-.5.33-.69.53-.33.38-.35.64-.35,14.35v13.97l.48.41.48.41h9.83l.41-.43.43-.41v-27.95l-.41-.48-.41-.48-4.73-.03c-2.59-.02-4.87.03-5.06.1ZM72.97,103.59c.02,6.38.03,11.9.05,12.27.03.35-.05.72-.16.81-.14.12-1.4.16-3.3.14l-3.09-.05-.05-12.39-.03-12.37h6.56l.02,11.59Z"/>
    <path d="M17.23,91.58c-1.57.9-2.98,1.79-3.14,1.98-.69.81-.14,2.05.9,2.05.52,0,5.95-2.97,6.59-3.59.5-.5.55-1.12.14-1.64-.64-.81-1.26-.66-4.49,1.19Z"/>
    <path d="M46.99,101.87c-.78.45-.76.36-.78,8.71v7.97l.45.35c.45.35.67.36,5.35.36h4.88l.48-.41.48-.41.02-7.66c.02-8.26-.02-8.61-.88-8.94-.66-.24-9.56-.22-10.01.03ZM55.27,110.54v6.21l-2.93.05c-1.6.02-3.11,0-3.31-.05l-.4-.09v-12.42l3.33.03,3.31.05v6.21Z"/>
  </g>
  <g>
    <path d="M953.07.19c-2.34.63-4.04,2.91-4.04,5.42,0,.54-.01.56-.67.86-.8.37-1.48,1.02-1.88,1.83-.28.58-.29.71-.33,4.41l-.04,3.83h-2.89v-5.79l-.33-.39-.33-.39h-25.27l-.3.32-.32.3v6.94c0,6.84,0,6.95.27,7.28l.25.33h25.51l.25-.33c.25-.32.27-.49.27-3.22v-2.89h2.89l.04,3.69c.04,3.68.04,3.7.37,4.4.59,1.26,1.79,2.12,3.17,2.25.4.03.73.1.73.14s-.3.21-.66.39c-.87.4-2.43,1.57-3.1,2.31-1.5,1.63-2.52,3.92-2.82,6.36-.1.82-.09,1.01.09,1.33.11.2.3.4.4.46.11.05,1.44.13,2.97.16l2.77.06.18.7c.23.91.64,1.61,1.37,2.26.96.88,1.54,1.09,3.1,1.09,1.2,0,1.4-.04,2.05-.35,1.29-.63,2.26-1.87,2.48-3.13l.1-.56,2.83-.06c1.57-.04,2.95-.11,3.06-.16.38-.19.51-.85.37-1.97-.33-2.63-1.48-4.9-3.37-6.7-.86-.82-2.68-2.04-3.05-2.04-.09,0-.16-.05-.16-.11,0-.05.34-.14.77-.18,1.39-.13,2.49-.87,3.17-2.15.28-.52.29-.67.33-4.36l.04-3.82h2.88l.04,2.98c.04,2.96.04,2.98.34,3.22.28.23.68.24,12.96.24,9.94,0,12.72-.04,12.88-.16.11-.08.27-.33.33-.56s.09-3.32.06-7.13c-.05-6.71-.05-6.72-.33-7.03l-.27-.29h-25.33l-.3.33c-.3.32-.3.35-.34,3.29l-.04,2.96h-2.88l-.04-3.83-.04-3.82-.35-.72c-.4-.82-1.14-1.52-1.92-1.82l-.53-.2-.08-1.05c-.18-2.96-2.58-5.13-5.62-5.11-.54,0-1.29.09-1.67.19ZM956.22,2.4c.72.3,1.55,1.12,1.85,1.83.1.25.23.77.27,1.14l.09.68h-7.24v-.63c0-1.48,1.07-2.81,2.63-3.25.75-.2,1.61-.13,2.41.23ZM960.28,8.39c.19.1.48.34.62.52.27.33.27.42.27,8.57s-.01,8.24-.24,8.62c-.48.8-.58.81-6.23.81-4.85,0-5.11-.01-5.51-.25-.23-.14-.52-.43-.66-.66-.24-.4-.25-.66-.25-8.48,0-8.9-.03-8.57.8-9.06.38-.24.67-.25,5.62-.25,4.36,0,5.28.03,5.59.19ZM924.76,14.27v2.28l-3-.03-3.01-.04-.04-2.09c-.01-1.14,0-2.15.03-2.24.05-.13.73-.16,3.05-.16h2.97v2.28ZM932.91,14.27v2.21l-3,.04-3.01.03v-4.55l3.01.03,3,.04v2.21ZM941.07,14.27v2.28h-6.07v-2.19c0-1.21.04-2.24.09-2.28.04-.05,1.4-.09,3.03-.09h2.95v2.28ZM974.41,14.3l.03,2.25h-6.07v-2.19c0-1.21.04-2.24.09-2.29.05-.04,1.39-.06,3-.05l2.92.04.04,2.24ZM982.53,14.27v2.28h-5.94v-4.55h5.94v2.28ZM990.72,14.3l.03,2.25h-6.07v-2.19c0-1.21.04-2.24.09-2.29.05-.04,1.39-.06,3-.05l2.92.04.04,2.24ZM924.76,20.91v2.21l-3-.03-3.01-.04-.04-2.19-.03-2.17h6.07v2.21ZM932.95,20.87l-.04,2.19-3,.04-3.01.03v-4.42h6.07l-.03,2.17ZM941.07,20.91v2.21h-6.07v-4.42h6.07v2.21ZM974.44,20.91v2.21h-6.07v-4.42h6.07v2.21ZM982.53,20.91v2.21h-5.94v-4.42h5.94v2.21ZM990.72,20.87l-.04,2.19h-5.94l-.04-2.19-.03-2.17h6.07l-.03,2.17ZM957.4,30.87c2.19.75,4.11,2.38,5.13,4.35.44.85.91,2.24.91,2.68,0,.1-2.44.14-8.72.14h-8.72l.08-.35c.23-1.04.37-1.43.77-2.25,1.07-2.22,3.11-3.93,5.6-4.69,1.35-.42,3.54-.35,4.96.13ZM957.25,40.34c-.01.35-.59,1.19-1.07,1.52-1.39.97-3.44.25-3.92-1.39l-.08-.28h2.53c1.95,0,2.54.04,2.54.15Z"/>
    <path d="M944.95,45.87c-.43.34-.52.8-.27,1.33.21.46,1.83,1.92,2.97,2.68,3.6,2.44,8.87,2.72,12.94.71,1.86-.92,4.36-3.06,4.36-3.73,0-.72-.48-1.24-1.15-1.24-.15,0-.68.4-1.24.94-2.31,2.21-4.82,3.24-7.87,3.24s-5.44-1.01-7.79-3.21c-1.11-1.04-1.4-1.14-1.96-.71Z"/>
    <path d="M940.24,50.45c-.39.23-.56.51-.57.97,0,.37.13.56.91,1.31,3.98,3.86,8.72,5.8,14.13,5.79,4.96,0,9.28-1.58,12.97-4.7,1.59-1.34,2.07-1.92,2.07-2.45,0-.58-.47-1.07-1.01-1.07-.32,0-.61.21-1.57,1.11-4.68,4.4-10.79,6.02-16.93,4.46-3.06-.78-5.41-2.12-8.34-4.79-.86-.8-1.18-.91-1.67-.63Z"/>
    <path d="M935.28,55.23c-.32.3-.47.76-.35,1.11.05.14.61.76,1.26,1.39,6.35,6.14,15.45,8.76,24.05,6.91,2.93-.63,6.09-1.88,8.47-3.36,1.4-.88,3.56-2.54,4.75-3.68,1.01-.96,1.1-1.09,1.1-1.53,0-.61-.46-1.1-1-1.1-.3,0-.68.28-1.9,1.38-2.06,1.85-3.53,2.87-5.7,3.98-3.4,1.72-6.64,2.58-10.26,2.69-2.62.09-4.42-.08-6.55-.59-4.5-1.11-8.04-3.03-11.53-6.31-1.05-.97-1.3-1.15-1.66-1.15-.25,0-.53.1-.7.25Z"/>
    <path d="M930.43,59.89c-.2.21-.37.51-.37.68,0,1.07,4.85,5.14,8.67,7.27,5.98,3.31,13.32,4.66,20.4,3.74,7.04-.91,13.75-4.18,18.92-9.21,1.14-1.1,1.3-1.31,1.3-1.68,0-.3-.11-.53-.37-.8-.62-.62-.86-.52-2.45.96-2.88,2.68-4.97,4.16-8.03,5.69-3.11,1.55-6.09,2.44-10.07,3-1.87.27-6.24.19-8.34-.13-6.65-1.04-12.24-3.83-17.14-8.58-1.54-1.49-1.86-1.61-2.53-.94Z"/>
    <path d="M914.82,78.16c-.57.25-1.29.94-1.61,1.52l-.28.52-.04,16.57c-.03,16.19-.03,16.58.21,16.87.23.29.33.3,2.01.34l1.77.04.05,1.98c.05,2.24.18,2.65,1.06,3.44.81.71,1.18.81,3.35.86l1.97.05.15.68c.43,1.91,2.01,3.89,3.8,4.78,4.49,2.2,9.59-.25,10.67-5.14l.08-.34h35.12l.08.57c.27,1.73,2.07,4.03,3.87,4.9,4.34,2.11,9.29-.09,10.57-4.69l.21-.76,3.05-.05,3.05-.04.72-.35c.4-.2.9-.57,1.11-.82.78-.95.77-.86.73-9.27l-.04-7.63-.29-.73c-.16-.4-1.39-2.65-2.73-4.99s-2.96-5.22-3.62-6.4c-1.35-2.41-2.14-3.37-3.25-3.96-1.52-.81-1.38-.8-9.48-.8h-7.37v-2.19c0-2.48-.14-3.16-.8-4.02-.21-.29-.66-.67-.96-.83l-.56-.29h-26.12c-21.54.01-26.18.04-26.51.18ZM967.24,80.37l.3.24.04,15.62.03,15.62-26.28-.03-26.28-.04-.04-15.51-.05-15.5.3-.33.3-.33h25.7c25.1,0,25.69,0,25.98.24ZM985.31,87.86c.38.19.87.53,1.1.76.21.23,1.58,2.52,3.03,5.09,1.45,2.57,3.16,5.56,3.78,6.64l1.12,1.95.04,2.06.05,2.06h-1.19c-1.39,0-1.97.14-2.52.59-.66.57-.75.94-.75,3.32s.06,2.58.66,3.11c.47.42,1.05.56,2.45.56h1.31v1.68c0,1.53-.03,1.71-.27,1.97-.14.15-.4.33-.58.4-.16.06-1.52.11-3.01.11h-2.69l-.15-.67c-.75-3.25-3.82-5.65-7.21-5.65-2.1,0-3.73.68-5.26,2.21-1.09,1.09-1.57,1.88-1.95,3.27l-.21.77-1.67.04-1.66.04v-30.74l7.43.04,7.42.04.7.34ZM994.41,110.25v1.62l-1.16-.04-1.15-.04-.06-1.43c-.03-.77-.01-1.5.03-1.61.05-.16.29-.19,1.21-.16l1.14.04v1.62ZM924.99,114.61c-.63.72-1.14,1.68-1.44,2.79l-.23.78-1.82-.04c-1.81-.04-1.82-.04-2.12-.39-.29-.34-.3-.44-.3-2.06v-1.69h6.47l-.56.61ZM932.6,114.36c2.09.81,3.39,2.91,3.26,5.27-.08,1.42-.54,2.4-1.67,3.45-1.14,1.05-1.9,1.34-3.55,1.35-1.19,0-1.33-.03-2.14-.43-2.17-1.06-3.4-3.34-3-5.54.38-2.09,1.61-3.53,3.62-4.25.85-.3,2.5-.23,3.48.14ZM967.61,116.09v2.09l-14.81-.03-14.81-.04-.1-.57c-.13-.78-.87-2.24-1.5-2.95l-.52-.59h31.75v2.09ZM982.03,114.21c1.87.54,3.3,2.21,3.65,4.25.56,3.17-2.26,6.24-5.49,6-.49-.04-1.11-.13-1.37-.21-.73-.21-2.01-1.14-2.53-1.83-.78-1.04-1.04-1.83-1.05-3.22,0-1.09.04-1.28.4-2.05.44-.94,1.23-1.87,2-2.35,1.18-.75,2.98-.99,4.37-.58Z"/>
    <path d="M973.74,90.01c-.47.16-1.02.67-1.3,1.18-.19.33-.21.99-.25,5.21-.03,3.12.01,5.01.09,5.32.18.66.56,1.11,1.16,1.42.47.24.77.25,8.51.25h8.01l.39-.33c.46-.38.66-1.01.52-1.59-.05-.23-.95-1.92-1.98-3.77-1.05-1.85-2.34-4.12-2.87-5.08-1.02-1.82-1.53-2.4-2.31-2.62-.64-.18-9.44-.16-9.96.01ZM983.27,92.25c.14.14.35.44.47.67s1.2,2.16,2.4,4.3c1.21,2.12,2.2,3.91,2.2,3.94s-3.12.08-6.94.08h-6.95l-.04-4.53c-.03-2.48-.03-4.55,0-4.61.03-.05,1.97-.09,4.34-.09,4.08,0,4.3.01,4.53.24Z"/>
  </g>
</svg>