<?xml version="1.0" encoding="UTF-8"?>
<svg id="Vrstva_1" xmlns="http://www.w3.org/2000/svg" version="1.1" viewBox="0 0 80.42 100.22">
  <!-- Generator: Adobe Illustrator 30.6.0, SVG Export Plug-In . SVG Version: 2.1.4 Build 109)  -->
  <path d="M35.48,2.22c-4.47,2.5-8.54,4.54-12.51,6.25-5.88,2.52-13.75,5.06-19.15,6.18-2.67.53-3.19.74-3.57,1.4-.33.57-.33,28.42,0,31.61.88,8.71,3.3,16.63,7.23,23.81,6.02,11.01,15.44,20.24,26.67,26.14,2.45,1.29,5.62,2.61,6.33,2.61,1.35,0,7.78-3.21,11.8-5.88,15.04-10.02,24.38-24.14,27.28-41.25.81-4.87.86-6.02.86-21.62s.02-15.55-.93-16.05c-.26-.12-1.73-.52-3.26-.86-6.12-1.36-13.65-3.83-19.36-6.33-3.02-1.33-9.11-4.4-12.22-6.16-1.54-.88-3.05-1.69-3.38-1.83-1.19-.5-1.52-.38-5.8,2v-.02ZM42.87,4c7.18,4.11,16.55,8.33,23.24,10.51,3.04.98,5.83,1.73,9.14,2.45l2.59.55v14.65c0,13.13-.03,14.91-.31,17.15-1.12,8.89-3.71,16.55-7.97,23.65-1.55,2.57-4.87,6.94-7.11,9.39-3.85,4.18-9.35,8.66-14.03,11.39-4.04,2.36-7.3,3.8-8.25,3.64-.35-.05-2.17-.86-4.07-1.81-8.71-4.31-15.86-10.32-21.89-18.43-5.54-7.4-9.14-15.82-10.71-24.9-.88-5.14-.88-5.23-.88-20.43v-14.3l2.62-.57c10.32-2.21,22.05-6.88,32.14-12.8,1.47-.86,2.74-1.57,2.81-1.57.09-.02,1.29.64,2.67,1.43h.01Z"/>
  <path d="M48.44,46.54c-7.14,7.21-13.04,13.11-13.1,13.11-.16,0-3.21-2.97-8.59-8.3-4.43-4.38-4.66-4.54-5.42-3.78-.21.21-.35.57-.35.91,0,.5.57,1.12,6.18,6.69,7.52,7.47,7.44,7.4,8.28,7.4.62.02.85-.19,5.87-5.3,2.88-2.93,8.06-8.14,11.49-11.61,10.21-10.32,10.28-10.39,10.28-11.01,0-.69-.53-1.24-1.17-1.24-.41,0-2.38,1.9-13.47,13.11v.02Z"/>
</svg>