<?xml version="1.0" encoding="UTF-8"?>
<svg id="Vrstva_1" xmlns="http://www.w3.org/2000/svg" version="1.1" viewBox="0 0 994.93 106.06">
  <!-- Generator: Adobe Illustrator 30.6.0, SVG Export Plug-In . SVG Version: 2.1.4 Build 109)  -->
  <g>
    <path d="M43.71,14.89c-4.45.47-7.56,1.05-10.44,1.98-5.57,1.81-9.68,3.93-14.48,7.52-2.38,1.78-6.52,5.87-8.3,8.16-5.11,6.64-8.42,13.99-9.75,21.74-3,17.39,3.09,34.4,16.22,45.34,2.73,2.26,7.78,5.56,8.56,5.56.16,0,.48-.17.74-.36.4-.31.47-.48.41-1.09-.05-.69-.09-.72-1.35-1.47-6.97-4.05-12.47-9.42-16.37-15.94-8.38-14.04-8.42-32.3-.09-46.65,7.37-12.7,20.01-20.82,34.4-22.15,2.59-.24,7.66-.1,10.06.28,6.71,1.05,12.59,3.31,18.06,6.99,7.19,4.83,13.2,12.22,16.37,20.19.83,2.12,1.95,5.66,2.19,6.95.22,1.31,1.29,1.86,2.21,1.14.45-.35.48-.47.4-1.17-.29-2.33-2.04-7.33-3.92-11.15-6.83-13.89-20.19-23.55-35.37-25.55-1.92-.24-8.18-.45-9.58-.31Z"/>
    <path d="M46.27,24.26c-.31.31-.36.62-.48,3.42-.12,3.36-.05,4.19.45,4.64.47.41,1.29.38,1.76-.09.36-.36.38-.5.36-3.69,0-1.83-.05-3.52-.12-3.76-.21-.79-1.35-1.09-1.97-.52Z"/>
    <path d="M23.3,33.08c-.48.21-.79.88-.66,1.41.09.36,2.97,4.04,4.35,5.52.72.79,1.41.88,2.05.22.78-.76.66-1-2.38-4.71-2.21-2.69-2.4-2.83-3.36-2.45Z"/>
    <path d="M69.63,33.25c-.43.35-3.5,3.88-4.38,5.07-.78,1.02-.31,2.35.79,2.35.66,0,.85-.17,3.14-2.93,2.61-3.09,2.86-3.66,2.09-4.38-.53-.47-1.14-.5-1.64-.1Z"/>
    <path d="M46.32,38.11c-.43.38-.53.88-2,9.7l-1.57,9.3-1.16,1.07c-1.79,1.67-2.62,3.54-2.62,5.95.02,4.49,3.54,7.94,8.13,7.94,4.43-.02,7.92-3.47,7.92-7.85,0-2.21-.95-4.45-2.55-6.06l-1.02-1.02-.55-3.36c-.74-4.43-2.59-14.84-2.71-15.23-.09-.28-.9-.81-1.26-.81-.09,0-.36.17-.6.38ZM47.96,51.38c.38,2.23.71,4.18.72,4.37.03.29-.09.31-1.52.29-.85-.02-1.57-.07-1.6-.09-.05-.05,1.31-8.14,1.45-8.54.03-.14.12-.21.17-.16s.4,1.92.78,4.12ZM48.85,58.89c1.1.38,2.42,1.59,3,2.79.41.85.48,1.19.48,2.45s-.07,1.59-.48,2.38c-1.09,2.07-2.83,3.05-5.14,2.93-2.1-.12-3.85-1.29-4.66-3.14-.53-1.19-.55-3.28-.03-4.43,1.17-2.61,4.14-3.9,6.83-2.98Z"/>
    <path d="M10.67,54.35c-.79.4-.91,1.79-.17,2.19.48.26,6.28,1.55,6.95,1.55.35,0,.71-.12.86-.31.4-.43.38-1.47-.02-1.83-.24-.21-6.64-1.85-7.14-1.83-.03,0-.24.1-.48.22Z"/>
    <path d="M82.01,62.66l-.43.41-.02,4.02c0,4.07,0,6.19.02,26.67v11.44l.43.41.41.43h9.66l.48-.41.48-.41.05-21,.03-20.98-.5-.52-.5-.5h-9.71l-.41.43ZM90.52,84.09l-.05,19.46h-6.38l-.05-19.24c-.02-10.58,0-19.34.05-19.46.05-.16.88-.21,3.28-.21h3.19l-.03,19.44Z"/>
    <path d="M64.93,76.36c-.19.09-.5.33-.69.53-.33.38-.35.64-.35,14.35v13.97l.48.41.48.41h9.83l.41-.43.43-.41v-27.95l-.41-.48-.41-.48-4.73-.03c-2.59-.02-4.87.03-5.06.1ZM72.97,90.39c.02,6.38.03,11.9.05,12.27.03.35-.05.72-.16.81-.14.12-1.4.16-3.3.14l-3.09-.05-.05-12.39-.03-12.37h6.56l.02,11.59Z"/>
    <path d="M17.23,78.38c-1.57.9-2.98,1.79-3.14,1.98-.69.81-.14,2.05.9,2.05.52,0,5.95-2.97,6.59-3.59.5-.5.55-1.12.14-1.64-.64-.81-1.26-.66-4.49,1.19Z"/>
    <path d="M46.99,88.66c-.78.45-.76.36-.78,8.71v7.97l.45.35c.45.35.67.36,5.35.36h4.88l.48-.41.48-.41.02-7.66c.02-8.26-.02-8.61-.88-8.94-.66-.24-9.56-.22-10.01.03ZM55.27,97.34v6.21l-2.93.05c-1.6.02-3.11,0-3.31-.05l-.4-.09v-12.42l3.33.03,3.31.05v6.21Z"/>
  </g>
  <g>
    <path d="M949.98,2.24c-4.47,2.5-8.54,4.54-12.51,6.25-5.88,2.52-13.75,5.06-19.15,6.18-2.67.53-3.19.74-3.57,1.4-.33.57-.33,28.42,0,31.61.88,8.71,3.3,16.63,7.23,23.81,6.02,11.01,15.44,20.24,26.67,26.14,2.45,1.29,5.62,2.61,6.33,2.61,1.35,0,7.78-3.21,11.8-5.88,15.04-10.02,24.38-24.14,27.28-41.25.81-4.87.86-6.02.86-21.62s.02-15.55-.93-16.05c-.26-.12-1.73-.52-3.26-.86-6.12-1.36-13.65-3.83-19.36-6.33-3.02-1.33-9.11-4.4-12.22-6.16-1.54-.88-3.05-1.69-3.38-1.83-1.19-.5-1.52-.38-5.8,2ZM957.37,4.02c7.18,4.11,16.55,8.33,23.24,10.51,3.04.98,5.83,1.73,9.14,2.45l2.59.55v14.65c0,13.13-.03,14.91-.31,17.15-1.12,8.89-3.71,16.55-7.97,23.65-1.55,2.57-4.87,6.94-7.11,9.39-3.85,4.18-9.35,8.66-14.03,11.39-4.04,2.36-7.3,3.8-8.25,3.64-.35-.05-2.17-.86-4.07-1.81-8.71-4.31-15.86-10.32-21.89-18.43-5.54-7.4-9.14-15.82-10.71-24.9-.88-5.14-.88-5.23-.88-20.43v-14.3l2.62-.57c10.32-2.21,22.05-6.88,32.14-12.8,1.47-.86,2.74-1.57,2.81-1.57.09-.02,1.29.64,2.67,1.43Z"/>
    <path d="M962.94,46.56c-7.14,7.21-13.04,13.11-13.1,13.11-.16,0-3.21-2.97-8.59-8.3-4.43-4.38-4.66-4.54-5.42-3.78-.21.21-.35.57-.35.91,0,.5.57,1.12,6.18,6.69,7.52,7.47,7.44,7.4,8.28,7.4.62.02.85-.19,5.87-5.3,2.88-2.93,8.06-8.14,11.49-11.61,10.21-10.32,10.28-10.39,10.28-11.01,0-.69-.53-1.24-1.17-1.24-.41,0-2.38,1.9-13.47,13.11Z"/>
  </g>
</svg>