<?xml version="1.0" encoding="UTF-8"?>
<svg id="Vrstva_1" xmlns="http://www.w3.org/2000/svg" version="1.1" viewBox="0 0 100 100" color="#000000" fill="none" stroke="currentColor" stroke-width="1.4" stroke-linecap="round" stroke-linejoin="round" data-line-weight="soft-metal-140">
  <path d="M44.4,5.8h11.2c1.1,0,2.1.8,2.3,1.9l1.9,9.6c3.1.9,6.1,2.1,8.8,3.7l8.2-5.4c.9-.6,2.1-.5,2.9.3l7.9,7.9c.8.8.9,2,.3,2.9l-5.4,8.2c1.6,2.8,2.8,5.7,3.7,8.8l9.6,1.9c1.1.2,1.9,1.2,1.9,2.3v11.2c0,1.1-.8,2.1-1.9,2.3l-9.6,1.9c-.9,3.1-2.1,6.1-3.7,8.8l5.4,8.2c.6.9.5,2.1-.3,2.9l-7.9,7.9c-.8.8-2,.9-2.9.3l-8.2-5.4c-2.8,1.6-5.7,2.8-8.8,3.7l-1.9,9.6c-.2,1.1-1.2,1.9-2.3,1.9h-11.2c-1.1,0-2.1-.8-2.3-1.9l-1.9-9.6c-3.1-.9-6.1-2.1-8.8-3.7l-8.2,5.4c-.9.6-2.1.5-2.9-.3l-7.9-7.9c-.8-.8-.9-2-.3-2.9l5.4-8.2c-1.6-2.8-2.8-5.7-3.7-8.8l-9.6-1.9c-1.1-.2-1.9-1.2-1.9-2.3v-11.2c0-1.1.8-2.1,1.9-2.3l9.6-1.9c.9-3.1,2.1-6.1,3.7-8.8l-5.4-8.2c-.6-.9-.5-2.1.3-2.9l7.9-7.9c.8-.8,2-.9,2.9-.3l8.2,5.4c2.8-1.6,5.7-2.8,8.8-3.7l1.9-9.6c.2-1.1,1.2-1.9,2.3-1.9Z"/>
  <path d="M34.8,51.4l9.8,9.8,21-22"/>
  <path d="M67.6,53.4c-1.8,7.7-8.8,13.4-17.1,13.4-9.7,0-17.6-7.9-17.6-17.6s7.9-17.6,17.6-17.6c4.4,0,8.4,1.6,11.5,4.3"/>
</svg>
