<?xml version="1.0" encoding="UTF-8"?>
<svg id="Vrstva_1" xmlns="http://www.w3.org/2000/svg" version="1.1" viewBox="0 0 457.41 603">
  <!-- Generator: Adobe Illustrator 30.6.0, SVG Export Plug-In . SVG Version: 2.1.4 Build 109)  -->
  <path d="M442.41,600.6c5.8-2.7,9.9-6.5,12.9-12.1l2.1-4v-283c0-279.2,0-283.1-2-287-1-2.1-3.6-5.6-5.7-7.6C442.41-.1,444.11,0,371.91,0h-64.6l-5.2,2.6c-5.8,2.9-9.6,6.9-12.6,13.4l-2.1,4.5v562l2.3,5c3,6.6,6.6,10.2,12.7,13.1l5,2.4h130l5-2.4ZM307.91,587.5c-1.6-.9-3.7-3-4.6-4.8-1.6-3-1.7-23-1.5-281.6.1-253.7.3-278.6,1.8-281.1,3.6-6.2,1-6,69.7-6h62.6l3.8,3.4,3.7,3.4.3,278.6c.2,306.9.7,283.5-6,287.6-3.2,1.9-4.9,2-65.1,2-53.3,0-62.2-.2-64.7-1.5Z"/>
  <path d="M143.61,382.1c3.2-2.7,22.1-21.3,42-41.3,34-34,36.3-36.6,36.3-39.9,0-1.9-.6-4.2-1.3-5-.6-.9-9.8-9.6-20.2-19.5-10.5-9.8-28.5-27-40.2-38.1-18.1-17.4-21.6-20.3-24.2-20.3-3.9,0-7.1,3.1-7.1,7,0,3.2,6,9.3,48.8,50.1l18.3,17.4-96.1.5-96.2.5-1.9,2.4c-2.6,3.2-2.4,6.7.6,9.6l2.4,2.5h192.6l-34.3,34.3c-30.4,30.5-34.2,34.6-34.2,37.4,0,3.4,3.8,7.3,7.1,7.3,1,0,4.4-2.2,7.6-4.9Z"/>
</svg>