<?xml version="1.0" encoding="UTF-8"?>
<svg id="Vrstva_1" xmlns="http://www.w3.org/2000/svg" version="1.1" viewBox="0 0 104.18 134.51">
  <path d="M46.06.41c-9.52,2.41-18.17,11.43-21.69,22.56-1.98,6.37-1.85,16.19.37,22.43,2.22,6.3,5.01,10.75,9.52,14.95,19.28,18.11,47.15,2.04,47.15-27.13,0-13.47-6.86-25.4-17.67-30.71C59.78.53,58.55.22,53.79.04c-2.97-.12-6.49.06-7.72.37ZM63.06,7.33c6.18,3.34,11,10.32,13.1,19.1,1.24,5.31,1.17,9.33-.31,15.02-2.35,9.33-7.91,16.87-14.77,20.08-2.84,1.3-4.39,1.61-8.4,1.61-4.39,0-5.44-.25-9.15-2.04-14.89-7.35-20.27-27.25-11.74-43.5C38.09,5.6,51.5,1.21,63.06,7.33Z"/>
  <path d="M27.4,73.7c-9.64,2.35-19.22,10.13-23.79,19.4-2.41,4.94-2.6,5.75-3.21,13.29-.74,9.02-.43,16.5.87,19.65.49,1.11,1.79,3.09,2.9,4.33,3.65,4.14,3.34,4.14,48.45,4.14,25.77,0,41.03-.25,42.52-.62,3.03-.87,5.75-3.21,7.48-6.43,1.17-2.22,1.36-3.65,1.54-12.61.31-14.95-1.54-21.69-8.28-29.54-5.19-6.18-15.57-11.56-23.67-12.36-3.09-.37-3.89-.19-7.72,1.79-8.53,4.39-17.55,4.45-24.84.06-3.95-2.35-6.18-2.6-12.24-1.11ZM38.65,79.63c4.88,2.47,5.5,2.66,11.56,2.84,7.17.31,11.49-.62,16.75-3.58,2.72-1.54,3.46-1.67,5.87-1.24,10.51,1.98,19.28,8.53,23.85,17.67l2.35,4.82.19,11.74c.19,10.94.06,11.93-1.05,13.78-1.85,2.9-3.83,3.95-7.91,4.08-1.98.06-20.7.06-41.65-.06l-38.07-.12-2.1-1.42c-3.21-2.16-3.52-4.02-3.09-17.12.37-11.25.43-11.49,2.41-15.7,2.6-5.5,8.84-11.74,14.4-14.52,3.15-1.48,8.84-3.46,11.06-3.71.19-.06,2.6,1.11,5.44,2.53Z"/>
</svg>
