<?xml version="1.0" encoding="UTF-8"?>
<svg id="Vrstva_1" xmlns="http://www.w3.org/2000/svg" version="1.1" viewBox="0 0 141.76 94.67">
  <path d="M4.16,1.02c-1.39.69-2.45,1.71-3.09,2.91l-1.06,1.85v41.24c0,39.62.05,41.28.88,42.94,1.06,2.08,2.59,3.56,4.34,4.2,1.85.69,129.48.69,131.32,0,1.57-.6,3.69-2.54,4.57-4.2.55-1.06.65-7.9.65-42.53V6.14l-1.06-1.99c-.74-1.39-1.71-2.35-3.09-3.09l-1.99-1.06H6.19l-2.03,1.02ZM134.83,3.42c0,.18-5.45,4.8-26.55,22.44-8.63,7.2-19.62,16.44-24.47,20.55-4.8,4.11-9.28,7.8-9.93,8.22-1.48,1.02-4.57,1.02-6,0-1.66-1.15-19.53-15.98-40.17-33.39C17.92,12.98,9.24,5.68,8.4,4.99c-.78-.69-1.48-1.34-1.48-1.48s28.77-.28,63.95-.28,63.95.09,63.95.18ZM16.39,16.35c6.37,5.36,16.85,14.13,23.32,19.58,6.46,5.4,11.82,9.97,11.91,10.2.05.18-4.48,4.39-10.11,9.33-5.63,4.94-16.39,14.41-23.92,21.01-7.53,6.65-13.81,12.01-13.99,11.87-.46-.23-.51-81.59-.09-82.01.46-.42.28-.55,12.88,10.02ZM138.53,47.61c0,22.58-.14,41.05-.32,41.05-.23,0-3.69-2.96-7.8-6.6-4.06-3.6-14.82-13.11-23.87-21.06-9.1-7.99-16.44-14.78-16.35-15.01.28-.88,47.47-39.99,47.93-39.76.23.18.42,16.53.42,41.37ZM67.88,58.55c4.11,1.48,6.7.42,13.81-5.59,4.43-3.79,5.4-4.39,6-3.88.37.28,4.57,3.97,9.28,8.17,4.76,4.2,12.56,11.08,17.36,15.28s11.31,9.93,14.45,12.7c3.19,2.77,5.82,5.31,5.96,5.59.14.46-12.84.6-63.82.6-40.68,0-64-.18-64-.46,0-.23,9.42-8.68,20.87-18.79,11.5-10.11,22.21-19.58,23.83-21.01l2.91-2.63,5.91,4.76c3.23,2.59,6.56,4.99,7.43,5.26Z"/>
</svg>
