<?xml version="1.0" encoding="UTF-8"?>
<svg id="Vrstva_1" xmlns="http://www.w3.org/2000/svg" version="1.1" viewBox="0 0 134.55 140.63">
  <path d="M22.3.95C14.95,3.49,7.01,9.96,3.85,16-.78,24.82-1.17,32.27,2.34,45.9c2.19,8.62,4.43,14.56,8.77,23.42,11.15,22.69,29.95,43.78,50.89,56.93,6.18,3.9,16.26,9.11,21.67,11.2,11.25,4.33,22.06,4.24,30.58-.29,7.21-3.85,15.05-13.73,15.78-19.92.39-3.17-.73-6.04-3.41-8.52-2.39-2.29-24.93-15.92-28.73-17.34-5.31-2.05-9.2-.58-13.78,5.02-3.02,3.7-4.82,4.82-7.55,4.82-2.78-.05-5.45-1.27-9.84-4.58-12.17-9.15-22.01-20.55-27.85-32.19-3.21-6.48-3.65-8.52-2.29-11.54.78-1.75,1.8-2.82,5.02-5.11,2.24-1.56,4.72-3.8,5.55-4.97,1.27-1.8,1.46-2.48,1.41-5.31,0-2.97-.44-4.33-5.26-16.17-2.92-7.11-5.79-13.88-6.38-15.1C33.99.52,28.92-1.33,22.3.95ZM30.87,4.66c.78.44,1.95,1.95,2.63,3.31,2,3.99,11.05,26.64,11.3,28.29.58,3.46-.83,5.41-7.06,9.89-4.24,2.97-5.7,5.99-5.36,10.86.24,3.07.63,4.24,3.26,9.35,4.92,9.69,11.88,18.65,20.6,26.39,11.88,10.62,17.43,13.44,23.13,11.83,1.85-.49,3.26-1.56,7.21-5.36,5.36-5.11,6.82-5.84,9.59-4.67,2.53,1.07,22.25,12.61,26.54,15.53,4.97,3.36,4.77,8.03-.58,15-4.58,5.94-9.11,9.25-14.85,10.91-7.99,2.24-15.19,1.27-26.54-3.7C44.7,116.46,13.68,79.6,5.26,42.44c-2.43-10.57-2.05-16.75,1.51-23.96C11.39,9.14,25.08,1.25,30.87,4.66Z"/>
  <path d="M95.69,15.47c-5.06.44-5.45.97-5.45,7.84,0,5.02.05,5.26,1.27,6.53,1.27,1.27,1.41,1.27,7.99,1.27,6.04,0,6.82-.1,7.99-1.02,1.22-.97,1.27-1.12,1.27-6.57s-.05-5.65-1.22-6.77c-.88-.93-1.7-1.22-3.31-1.22-1.22,0-2.78-.1-3.55-.19s-3.02-.05-4.97.15ZM105.33,23.31v4.43l-5.45-.15-5.5-.15-.15-4.29-.15-4.24h11.25v4.38Z"/>
  <path d="M66.13,16.73c-1.17,1.12-1.22,1.51-1.22,6.57s.05,5.45,1.22,6.57c1.12,1.17,1.41,1.22,8.03,1.22s6.91-.05,8.03-1.22c1.17-1.12,1.22-1.51,1.22-6.57s-.05-5.45-1.22-6.57c-1.12-1.17-1.41-1.22-8.03-1.22s-6.91.05-8.03,1.22ZM79.76,23.31v4.14l-5.06.15c-3.26.1-5.26-.05-5.7-.44-.73-.58-1.02-7.26-.34-7.94.19-.15,2.78-.24,5.7-.19l5.41.15v4.14Z"/>
  <path d="M116.77,16.73c-1.17,1.12-1.22,1.51-1.22,6.57s.05,5.45,1.22,6.57c1.12,1.17,1.36,1.22,8.28,1.22,6.33,0,7.16-.1,7.99-.93,1.27-1.27,1.66-3.55,1.46-8.28-.19-3.26-.39-4.04-1.36-5.11-1.17-1.27-1.31-1.27-8.18-1.27s-7.06.05-8.18,1.22ZM130.55,23.16l-.15,4.29h-10.71l-.15-4.29-.15-4.24h11.3l-.15,4.24Z"/>
  <path d="M67.1,38.5c-1.9,1.12-2.14,1.95-2.19,7.35,0,4.92.05,5.31,1.22,6.43,1.12,1.17,1.41,1.22,8.03,1.22s6.91-.05,8.03-1.22c1.12-1.07,1.22-1.51,1.22-6.09,0-4.92-.39-6.48-1.9-7.65-1.02-.78-13.05-.83-14.41-.05ZM79.76,45.71v4.14l-5.31.15c-3.94.1-5.45-.05-5.75-.49-.63-1.02-.49-6.91.19-7.6.44-.44,2.19-.58,5.75-.49l5.11.15v4.14Z"/>
  <path d="M91.65,39.33c-1.36,1.41-1.41,1.56-1.41,6.62s.1,5.21,1.22,6.33c1.12,1.17,1.41,1.22,8.18,1.22,6.28,0,7.06-.1,7.99-.97,1.31-1.17,1.85-5.06,1.36-9.5-.49-4.77-1.12-5.11-9.35-5.11h-6.57l-1.41,1.41ZM105.23,45.85l.15,4.29-5.5-.15-5.5-.15-.15-3.6c-.1-2-.05-3.9.1-4.29.19-.54,1.41-.63,5.5-.54l5.26.15.15,4.29Z"/>
  <path d="M117.75,38.5c-1.9,1.07-2.14,2-2.19,6.87,0,7.79.34,8.08,9.64,8.13,6.23,0,7.01-.1,7.84-.93,1.27-1.27,1.66-3.55,1.41-8.38-.15-3.6-.29-4.04-1.51-5.11-1.31-1.12-1.7-1.17-7.79-1.17-3.9,0-6.82.24-7.4.58ZM130.41,45.71v4.14h-10.71l-.15-3.6c-.1-2-.05-3.9.1-4.29.19-.54,1.41-.63,5.5-.54l5.26.15v4.14Z"/>
  <path d="M66.13,61.53c-1.17,1.12-1.22,1.51-1.22,6.53s.1,5.45,1.17,6.72l1.17,1.36h13.83l1.17-1.36c1.07-1.27,1.17-1.75,1.17-6.72s-.05-5.41-1.22-6.53c-1.12-1.17-1.41-1.22-8.03-1.22s-6.91.05-8.03,1.22ZM79.76,68.11v4.14l-5.45.15c-6.23.15-5.84.54-5.6-5.06l.19-3.65,5.41.15,5.45.15v4.14Z"/>
  <path d="M91.65,61.73c-1.36,1.36-1.41,1.61-1.41,6.09,0,5.16.44,6.77,2,7.65,1.66.88,11.54,1.17,13.78.44,2.68-.88,3.36-2.82,3.02-8.42-.34-4.63-.73-5.84-2.24-6.67-.49-.24-3.8-.49-7.3-.49h-6.43l-1.41,1.41ZM105.09,68.11v4.14l-5.45.15-5.5.15v-4.09c0-2.24.15-4.24.34-4.43.19-.15,2.63-.24,5.45-.19l5.16.15v4.14Z"/>
  <path d="M116.82,61.58c-1.22,1.22-1.27,1.56-1.27,6.38,0,2.78.24,5.5.54,6.09.88,1.66,3.41,2.34,8.86,2.34,8.62,0,9.59-.88,9.59-8.52,0-4.53-.05-4.77-1.41-6.14l-1.41-1.41h-6.82c-6.67,0-6.82,0-8.08,1.27ZM130.65,68.11v4.43l-5.45-.15-5.5-.15-.15-4.29-.15-4.24h11.25v4.38Z"/>
</svg>
