<?xml version="1.0" encoding="UTF-8"?>
<svg xmlns="http://www.w3.org/2000/svg" viewBox="0 0 24 24" color="#000000" fill="none" stroke="currentColor" stroke-width="1.2" stroke-linecap="round" stroke-linejoin="round" data-line-weight="soft-metal-120">
  <path d="M8.4 5.25 9.95 8.7c.24.54.1 1.17-.34 1.56l-1.25 1.1a12.1 12.1 0 0 0 4.28 4.28l1.1-1.25c.39-.44 1.02-.58 1.56-.34l3.45 1.55c.52.23.83.78.74 1.34l-.35 2.1c-.13.75-.79 1.28-1.55 1.22C10.42 19.68 4.32 13.58 3.74 6.41c-.06-.76.47-1.42 1.22-1.55l2.1-.35c.56-.09 1.11.22 1.34.74Z"/>
  <path d="M14.8 5.1c2.05.44 3.66 2.05 4.1 4.1"/>
  <path d="M15.15 8.25c.74.26 1.34.86 1.6 1.6"/>
</svg>
