<?xml version="1.0" encoding="UTF-8"?>
<svg id="Vrstva_1" xmlns="http://www.w3.org/2000/svg" version="1.1" viewBox="0 0 140.98 140.9">
  <!-- Generator: Adobe Illustrator 30.6.0, SVG Export Plug-In . SVG Version: 2.1.4 Build 109)  -->
  <path d="M104.42,32.37c-3.7-2.12-8.65-1.42-11.79,1.72-.68.68-.71.68-1.9.24-1.45-.54-3.12-.57-4.63-.06-1.07.38-1.24.52-5.9,5.08l-4.82,4.72-1.81-1.81-1.79-1.79,3.6-3.6,3.6-3.6.08-.9.08-.9-15.72-15.72L47.69,0l-.77.02-.77-.02-8.64,8.64c-8.51,8.51-8.65,8.65-8.73,9.39l-.09.72,15.88,15.88,15.88,15.88.72-.09c.71-.08.94-.28,4.34-3.68l3.6-3.6,1.79,1.79,1.81,1.81-4.55,4.64c-4.53,4.63-4.56,4.66-5.02,5.93-.83,2.31-.41,4.88,1.15,6.75.47.54.79,1.04.74,1.09s-.65-.11-1.31-.33c-1.59-.58-4.97-1.07-6.74-.98-3.9.16-8.01,1.75-11.42,4.41-1.15.9-1.37,1.15-1.54,1.76-.11.39-.13.88-.06,1.07.08.2,1.64,1.95,3.49,3.9l3.37,3.52-.65,1.09c-.85,1.42-1.2,2.8-1.12,4.52.09,2.3.57,3.27,2.5,5.21,1.49,1.49,1.79,1.7,2.99,2.11,2.39.82,5.15.49,6.99-.82l.82-.57,3.6,3.45c2,1.9,3.81,3.52,4.01,3.6.71.24,1.68-.42,2.91-2,2.86-3.68,4.26-7.95,4.14-12.54-.05-2.09-.8-5.87-1.26-6.33-.11-.11-.14-.27-.06-.35.06-.06.6.25,1.18.74,1.89,1.57,4.19,2.01,6.62,1.27.99-.3,1.2-.47,5.84-5.02l4.8-4.71,1.79,1.79,1.79,1.79-3.67,3.76c-3.64,3.73-3.67,3.76-3.59,4.44.06.63.55,1.15,15.83,16.43,12.37,12.37,15.88,15.78,16.24,15.83.24.05.74-.08,1.1-.28s4.25-4.03,8.95-8.8q8.29-8.42,8.34-9.16l.03-.69-15.77-15.77-15.77-15.77-.79.03c-.77.02-.82.06-4.52,3.67l-3.73,3.64-1.79-1.79-1.79-1.79,4.72-4.82,4.71-4.8.46-1.34c.52-1.53.47-3.3-.13-4.66l-.41-.91,1.21-1.4c3.46-3.9,3.18-9.6-.65-13.36-.68-.68-1.72-1.49-2.31-1.84ZM105.59,39.04c.52,1.27.54,3.34.02,4.58-.19.44-.68,1.24-1.09,1.75l-.74.96-4.52-4.52-4.5-4.5.79-.79c1.84-1.84,4.83-2.16,7.32-.77,1.18.68,2.16,1.84,2.72,3.29ZM103.18,51.55c.11.36.17,1.02.13,1.42-.08.74-.19.85-10.34,11s-10.28,10.24-11.03,10.43c-1.59.39-1.73.28-8.77-6.75-6.04-6.04-6.34-6.37-6.55-7.18-.11-.46-.11-1.18,0-1.64.2-.8.5-1.13,10.24-10.87,11.08-11.08,10.64-10.7,12.27-10.29.77.17,1.15.52,7.32,6.69,5.43,5.43,6.55,6.61,6.72,7.19ZM51.64,14.65l-2.83,2.83-3.7-3.76-3.7-3.79,2.55-2.64c1.4-1.43,2.68-2.68,2.82-2.75.22-.09,1.12.71,4,3.59l3.7,3.7-2.83,2.83ZM61.79,24.8l-2.75,2.75-3.78-3.68-3.78-3.71,2.83-2.83,2.83-2.83,3.71,3.78,3.68,3.78-2.75,2.75ZM71.94,34.95l-2.83,2.83-3.78-3.78-3.78-3.78,2.72-2.72c1.51-1.51,2.83-2.74,2.94-2.72.11-.02,1.86,1.64,3.89,3.67l3.67,3.67-2.83,2.83ZM113.42,76.49l-2.77,2.83-3.78-3.78-3.78-3.78,2.72-2.72c1.51-1.51,2.83-2.74,2.96-2.74.11.02,1.81,1.65,3.79,3.67l3.59,3.68-2.74,2.83ZM123.56,86.56l-2.83,2.83-3.7-3.7-3.7-3.7,2.83-2.83,2.83-2.83,3.7,3.7,3.7,3.7-2.83,2.83ZM133.72,96.79l-2.77,2.83-3.78-3.78-3.78-3.78,2.72-2.72c1.51-1.51,2.83-2.74,2.96-2.74.11.02,1.81,1.65,3.79,3.67l3.59,3.68-2.74,2.83ZM43.38,22.91l-2.75,2.75-3.7-3.76-3.7-3.79,2.68-2.77,2.68-2.74,3.78,3.78,3.78,3.78-2.75,2.75ZM53.63,33.06l-2.77,2.68-3.78-3.68-3.78-3.71,2.75-2.75,2.75-2.75,3.78,3.78,3.78,3.78-2.74,2.68ZM63.68,43.21l-2.75,2.75-3.78-3.78-3.78-3.78,2.75-2.75,2.75-2.75,3.78,3.78,3.78,3.78-2.75,2.75ZM105.23,84.76l-2.75,2.75-3.78-3.78-3.78-3.78,2.75-2.75,2.75-2.75,3.78,3.78,3.78,3.78-2.75,2.75ZM115.3,94.83l-2.75,2.75-3.7-3.7-3.7-3.7,2.75-2.75,2.75-2.75,3.7,3.7,3.7,3.7-2.75,2.75ZM125.54,104.98l-2.77,2.68-3.7-3.7-3.7-3.7,2.68-2.77,2.68-2.74,3.78,3.78,3.78,3.78-2.74,2.68ZM71.61,75.94c1.79,3.65,2.16,8.07.98,11.8-.5,1.61-1.65,3.92-2.2,4.47-.13.13-3.21-2.86-11.03-10.68l-10.86-10.86.54-.35c1.57-1.01,2.23-1.32,3.76-1.84,4.11-1.43,8.77-1.02,12.81,1.13,2.2,1.16,4.85,3.97,6.01,6.33ZM59.64,87.54c-.46.42-2.22.74-3.23.55-2.94-.52-4.59-3.97-3.15-6.61l.25-.44,3.15,3.15c2.42,2.42,3.12,3.21,2.97,3.35Z"/>
  <path d="M37.43,79.12c-.96-.11-1.64.35-1.98,1.32-.3.83-.11,4.67.36,7.03,1.45,7.52,7.66,14.43,15.23,17,3.46,1.16,9.24,1.62,10.07.79.9-.9.94-2.14.11-2.97-.19-.19-1.35-.35-2.71-.38-5.63-.13-10.02-1.97-13.83-5.78s-5.51-8.03-5.7-13.69c-.09-2.68-.33-3.16-1.56-3.32Z"/>
  <path d="M25.88,78.96c-.77-.2-1.32-.06-1.92.5-.46.46-.54.85-.5,2.77.16,9.76,3.64,18.08,10.39,24.8,6.17,6.17,13.52,9.58,22,10.29,3.65.31,4.97.19,5.63-.47.72-.72.76-1.92.08-2.6-.39-.39-1.02-.49-3.34-.57-11.3-.35-20.93-5.95-26.63-15.52-2.83-4.78-4.09-9.38-4.42-16.35-.08-2.06-.33-2.6-1.29-2.86Z"/>
  <path d="M13.75,78.73c-.77-.02-1.53.36-1.83.94-.11.24-.19,1.7-.16,3.3.25,15.55,8.32,30.13,21.34,38.55,4.44,2.86,9.93,5.24,14.73,6.36,2.85.65,7.6,1.27,10.5,1.34,2.45.06,2.72.02,3.27-.54.76-.76.8-1.94.13-2.61-.38-.38-1.2-.5-4.08-.65-4.86-.27-7.96-.82-12.05-2.14-6.37-2.09-11.47-5.05-16.13-9.43-3.37-3.15-5.41-5.6-7.41-8.89-4.22-6.99-6.23-13.78-6.5-22.2-.09-2.52-.19-3.05-.63-3.49-.31-.31-.79-.54-1.18-.55Z"/>
  <path d="M1.92,78.51c-.52.02-1.09.17-1.31.39-1.34,1.34-.36,12.45,1.75,19.84,3.32,11.57,10.78,22.39,20.74,30.06,9.9,7.63,22.33,11.91,35.03,12.09,2.79.05,3.26-.02,3.71-.47.38-.38.52-.8.54-1.45,0-1.54-.42-1.72-4.25-1.86-6.92-.25-11.36-1.01-17.07-2.91-5.81-1.94-10.62-4.55-16.27-8.81-2.66-2-8.01-7.54-10.23-10.54-6.99-9.57-10.46-20-10.65-32.02-.06-3.78-.31-4.31-1.98-4.31Z"/>
</svg>